<?xml version="1.0" encoding="UTF-8" standalone="no"?>
<svg xmlns="http://www.w3.org/2000/svg" xmlns:xlink="http://www.w3.org/1999/xlink"
     contentScriptType="application/ecmascript" contentStyleType="text/css" height="222px" preserveAspectRatio="none"
     style="width:254px;height:222px;" version="1.1" viewBox="0 0 254 222" width="254px" zoomAndPan="magnify">
    <defs>
        <filter height="300%" id="fyih17jh0adqw" width="300%" x="-1" y="-1">
            <feGaussianBlur result="blurOut" stdDeviation="2.0"/>
            <feColorMatrix in="blurOut" result="blurOut2" type="matrix"
                           values="0 0 0 0 0 0 0 0 0 0 0 0 0 0 0 0 0 0 .4 0"/>
            <feOffset dx="4.0" dy="4.0" in="blurOut2" result="blurOut3"/>
            <feBlend in="SourceGraphic" in2="blurOut3" mode="normal"/>
        </filter>
    </defs>
    <g><!--MD5=[6ef569c367bcfacc8dbc2aceeb11f8ed]
class btree.InsertRecException-->
        <a href="../btree/InsertRecException.html" target="_top" title="../btree/InsertRecException.html"
           xlink:actuate="onRequest" xlink:href="../btree/InsertRecException.html" xlink:show="new"
           xlink:title="../btree/InsertRecException.html" xlink:type="simple">
            <rect fill="#FEFECE" filter="url(#fyih17jh0adqw)" height="84.3516" id="btree.InsertRecException"
                  style="stroke: #A80036; stroke-width: 1.5;" width="237" x="6" y="106"/>
            <ellipse cx="53.25" cy="124.9688" fill="#ADD1B2" rx="11" ry="11"
                     style="stroke: #A80036; stroke-width: 1.0;"/>
            <path d="M56.2188,130.6094 Q55.6406,130.9063 55,131.0469 Q54.3594,131.2031 53.6563,131.2031 Q51.1563,131.2031 49.8281,129.5625 Q48.5156,127.9063 48.5156,124.7813 Q48.5156,121.6563 49.8281,120 Q51.1563,118.3438 53.6563,118.3438 Q54.3594,118.3438 55,118.5 Q55.6563,118.6563 56.2188,118.9531 L56.2188,121.6719 Q55.5938,121.0938 55,120.8281 Q54.4063,120.5469 53.7813,120.5469 Q52.4375,120.5469 51.75,121.625 Q51.0625,122.6875 51.0625,124.7813 Q51.0625,126.875 51.75,127.9531 Q52.4375,129.0156 53.7813,129.0156 Q54.4063,129.0156 55,128.75 Q55.5938,128.4688 56.2188,127.8906 L56.2188,130.6094 Z "/>
            <text fill="#000000" font-family="sans-serif" font-size="14" lengthAdjust="spacingAndGlyphs"
                  textLength="134" x="73.75" y="123.9951">InsertRecException
            </text>
            <text fill="#000000" font-family="sans-serif" font-size="10" lengthAdjust="spacingAndGlyphs" textLength="26"
                  x="127.75" y="136.5791">btree
            </text>
            <line style="stroke: #A80036; stroke-width: 1.5;" x1="7" x2="242" y1="143.9375" y2="143.9375"/>
            <ellipse cx="17" cy="154.9375" fill="#84BE84" rx="3" ry="3" style="stroke: #038048; stroke-width: 1.0;"/>
            <text fill="#000000" font-family="sans-serif" font-size="11" lengthAdjust="spacingAndGlyphs"
                  textLength="115" x="26" y="158.1479">InsertRecException()
            </text>
            <ellipse cx="17" cy="167.7422" fill="#84BE84" rx="3" ry="3" style="stroke: #038048; stroke-width: 1.0;"/>
            <text fill="#000000" font-family="sans-serif" font-size="11" lengthAdjust="spacingAndGlyphs"
                  textLength="149" x="26" y="170.9526">InsertRecException(String)
            </text>
            <ellipse cx="17" cy="180.5469" fill="#84BE84" rx="3" ry="3" style="stroke: #038048; stroke-width: 1.0;"/>
            <text fill="#000000" font-family="sans-serif" font-size="11" lengthAdjust="spacingAndGlyphs"
                  textLength="211" x="26" y="183.7573">InsertRecException(Exception, String)
            </text>
        </a><!--MD5=[2a7cd8221fe6583b4d4c6786e4469311]
class chainexception.ChainException-->
        <a href="../chainexception/ChainException.html" target="_top" title="../chainexception/ChainException.html"
           xlink:actuate="onRequest" xlink:href="../chainexception/ChainException.html" xlink:show="new"
           xlink:title="../chainexception/ChainException.html" xlink:type="simple">
            <rect fill="#FEFECE" filter="url(#fyih17jh0adqw)" height="37.9375" id="chainexception.ChainException"
                  style="stroke: #A80036; stroke-width: 1.5;" width="139" x="55" y="8"/>
            <ellipse cx="70" cy="26.9688" fill="#ADD1B2" rx="11" ry="11" style="stroke: #A80036; stroke-width: 1.0;"/>
            <path d="M72.9688,32.6094 Q72.3906,32.9063 71.75,33.0469 Q71.1094,33.2031 70.4063,33.2031 Q67.9063,33.2031 66.5781,31.5625 Q65.2656,29.9063 65.2656,26.7813 Q65.2656,23.6563 66.5781,22 Q67.9063,20.3438 70.4063,20.3438 Q71.1094,20.3438 71.75,20.5 Q72.4063,20.6563 72.9688,20.9531 L72.9688,23.6719 Q72.3438,23.0938 71.75,22.8281 Q71.1563,22.5469 70.5313,22.5469 Q69.1875,22.5469 68.5,23.625 Q67.8125,24.6875 67.8125,26.7813 Q67.8125,28.875 68.5,29.9531 Q69.1875,31.0156 70.5313,31.0156 Q71.1563,31.0156 71.75,30.75 Q72.3438,30.4688 72.9688,29.8906 L72.9688,32.6094 Z "/>
            <text fill="#000000" font-family="sans-serif" font-size="14" lengthAdjust="spacingAndGlyphs"
                  textLength="107" x="84" y="25.9951">ChainException
            </text>
            <text fill="#000000" font-family="sans-serif" font-size="10" lengthAdjust="spacingAndGlyphs" textLength="72"
                  x="101.5" y="38.5791">chainexception
            </text>
        </a><!--MD5=[b42ad551be7be8f4bfc0f9bd2485baf2]
reverse link chainexception.ChainException to btree.InsertRecException-->
        <path d="M124.5,66.259 C124.5,78.9194 124.5,93.0012 124.5,105.8605 " fill="none"
              id="chainexception.ChainException&lt;-btree.InsertRecException"
              style="stroke: #A80036; stroke-width: 1.0;"/>
        <polygon fill="none" points="117.5001,66.1728,124.5,46.1728,131.5001,66.1728,117.5001,66.1728"
                 style="stroke: #A80036; stroke-width: 1.0;"/>
        <text fill="#888888" font-family="sans-serif" font-size="10" lengthAdjust="spacingAndGlyphs" textLength="186"
              x="37.5" y="209.2822">UMLDoclet 2.0.7, PlantUML 1.2019.12
        </text><!--MD5=[29473d4e132020ca6c988a53fc67717c]
@startuml
    set namespaceSeparator none
    hide empty fields
    hide empty methods

    class "<size:14>InsertRecException\n<size:10>btree" as btree.InsertRecException [[../btree/InsertRecException.html]] {
        +InsertRecException()
        +InsertRecException(String)
        +InsertRecException(Exception, String)
    }

    class "<size:14>ChainException\n<size:10>chainexception" as chainexception.ChainException [[../chainexception/ChainException.html]]

    chainexception.ChainException <|- - btree.InsertRecException

    center footer UMLDoclet 2.0.7, PlantUML 1.2019.12
@enduml

PlantUML version 1.2019.12(Sun Nov 03 03:24:54 MST 2019)
(APACHE source distribution)
Java Runtime: Java(TM) SE Runtime Environment
JVM: Java HotSpot(TM) 64-Bit Server VM
Java Version: 11.0.6+8-LTS
Operating System: Linux
Default Encoding: UTF-8
Language: en
Country: US
-->
    </g>
</svg>