<?xml version="1.0" encoding="UTF-8" standalone="no"?>
<svg xmlns="http://www.w3.org/2000/svg" xmlns:xlink="http://www.w3.org/1999/xlink"
     contentScriptType="application/ecmascript" contentStyleType="text/css" height="261px" preserveAspectRatio="none"
     style="width:228px;height:261px;" version="1.1" viewBox="0 0 228 261" width="228px" zoomAndPan="magnify">
    <defs>
        <filter height="300%" id="f1xe83ji819y8e" width="300%" x="-1" y="-1">
            <feGaussianBlur result="blurOut" stdDeviation="2.0"/>
            <feColorMatrix in="blurOut" result="blurOut2" type="matrix"
                           values="0 0 0 0 0 0 0 0 0 0 0 0 0 0 0 0 0 0 .4 0"/>
            <feOffset dx="4.0" dy="4.0" in="blurOut2" result="blurOut3"/>
            <feBlend in="SourceGraphic" in2="blurOut3" mode="normal"/>
        </filter>
    </defs>
    <g><!--MD5=[4b6bfa79419c64f90ca890537aace1cd]
class btree.BTIndexPage-->
        <a href="../btree/BTIndexPage.html" target="_top" title="../btree/BTIndexPage.html" xlink:actuate="onRequest"
           xlink:href="../btree/BTIndexPage.html" xlink:show="new" xlink:title="../btree/BTIndexPage.html"
           xlink:type="simple">
            <rect fill="#FEFECE" filter="url(#f1xe83ji819y8e)" height="122.7656" id="btree.BTIndexPage"
                  style="stroke: #A80036; stroke-width: 1.5;" width="211" x="6" y="106"/>
            <ellipse cx="61.75" cy="124.9688" fill="#ADD1B2" rx="11" ry="11"
                     style="stroke: #A80036; stroke-width: 1.0;"/>
            <path d="M64.7188,130.6094 Q64.1406,130.9063 63.5,131.0469 Q62.8594,131.2031 62.1563,131.2031 Q59.6563,131.2031 58.3281,129.5625 Q57.0156,127.9063 57.0156,124.7813 Q57.0156,121.6563 58.3281,120 Q59.6563,118.3438 62.1563,118.3438 Q62.8594,118.3438 63.5,118.5 Q64.1563,118.6563 64.7188,118.9531 L64.7188,121.6719 Q64.0938,121.0938 63.5,120.8281 Q62.9063,120.5469 62.2813,120.5469 Q60.9375,120.5469 60.25,121.625 Q59.5625,122.6875 59.5625,124.7813 Q59.5625,126.875 60.25,127.9531 Q60.9375,129.0156 62.2813,129.0156 Q62.9063,129.0156 63.5,128.75 Q64.0938,128.4688 64.7188,127.8906 L64.7188,130.6094 Z "/>
            <text fill="#000000" font-family="sans-serif" font-size="14" lengthAdjust="spacingAndGlyphs" textLength="91"
                  x="82.25" y="123.9951">BTIndexPage
            </text>
            <text fill="#000000" font-family="sans-serif" font-size="10" lengthAdjust="spacingAndGlyphs" textLength="26"
                  x="114.75" y="136.5791">btree
            </text>
            <line style="stroke: #A80036; stroke-width: 1.5;" x1="7" x2="216" y1="143.9375" y2="143.9375"/>
            <ellipse cx="17" cy="154.9375" fill="#84BE84" rx="3" ry="3" style="stroke: #038048; stroke-width: 1.0;"/>
            <text fill="#000000" font-family="sans-serif" font-size="11" lengthAdjust="spacingAndGlyphs"
                  textLength="141" x="26" y="158.1479">BTIndexPage(PageId, int)
            </text>
            <ellipse cx="17" cy="167.7422" fill="#84BE84" rx="3" ry="3" style="stroke: #038048; stroke-width: 1.0;"/>
            <text fill="#000000" font-family="sans-serif" font-size="11" lengthAdjust="spacingAndGlyphs"
                  textLength="131" x="26" y="170.9526">BTIndexPage(Page, int)
            </text>
            <ellipse cx="17" cy="180.5469" fill="#84BE84" rx="3" ry="3" style="stroke: #038048; stroke-width: 1.0;"/>
            <text fill="#000000" font-family="sans-serif" font-size="11" lengthAdjust="spacingAndGlyphs" textLength="95"
                  x="26" y="183.7573">BTIndexPage(int)
            </text>
            <ellipse cx="17" cy="193.3516" fill="#84BE84" rx="3" ry="3" style="stroke: #038048; stroke-width: 1.0;"/>
            <text fill="#000000" font-family="sans-serif" font-size="11" lengthAdjust="spacingAndGlyphs"
                  textLength="185" x="26" y="196.562">insertKey(KeyClass, PageId): RID
            </text>
            <ellipse cx="17" cy="206.1563" fill="#84BE84" rx="3" ry="3" style="stroke: #038048; stroke-width: 1.0;"/>
            <text fill="#000000" font-family="sans-serif" font-size="11" lengthAdjust="spacingAndGlyphs"
                  textLength="152" x="26" y="209.3667">getFirst(RID): KeyDataEntry
            </text>
            <ellipse cx="17" cy="218.9609" fill="#84BE84" rx="3" ry="3" style="stroke: #038048; stroke-width: 1.0;"/>
            <text fill="#000000" font-family="sans-serif" font-size="11" lengthAdjust="spacingAndGlyphs"
                  textLength="152" x="26" y="222.1714">getNext(RID): KeyDataEntry
            </text>
        </a><!--MD5=[2274ad5821e56c5f365d5bcbb84652dc]
class btree.BTSortedPage-->
        <a href="../btree/BTSortedPage.html" target="_top" title="../btree/BTSortedPage.html" xlink:actuate="onRequest"
           xlink:href="../btree/BTSortedPage.html" xlink:show="new" xlink:title="../btree/BTSortedPage.html"
           xlink:type="simple">
            <rect fill="#FEFECE" filter="url(#f1xe83ji819y8e)" height="37.9375" id="btree.BTSortedPage"
                  style="stroke: #A80036; stroke-width: 1.5;" width="132" x="45.5" y="8"/>
            <ellipse cx="60.5" cy="26.9688" fill="#ADD1B2" rx="11" ry="11" style="stroke: #A80036; stroke-width: 1.0;"/>
            <path d="M63.4688,32.6094 Q62.8906,32.9063 62.25,33.0469 Q61.6094,33.2031 60.9063,33.2031 Q58.4063,33.2031 57.0781,31.5625 Q55.7656,29.9063 55.7656,26.7813 Q55.7656,23.6563 57.0781,22 Q58.4063,20.3438 60.9063,20.3438 Q61.6094,20.3438 62.25,20.5 Q62.9063,20.6563 63.4688,20.9531 L63.4688,23.6719 Q62.8438,23.0938 62.25,22.8281 Q61.6563,22.5469 61.0313,22.5469 Q59.6875,22.5469 59,23.625 Q58.3125,24.6875 58.3125,26.7813 Q58.3125,28.875 59,29.9531 Q59.6875,31.0156 61.0313,31.0156 Q61.6563,31.0156 62.25,30.75 Q62.8438,30.4688 63.4688,29.8906 L63.4688,32.6094 Z "/>
            <text fill="#000000" font-family="sans-serif" font-size="14" lengthAdjust="spacingAndGlyphs"
                  textLength="100" x="74.5" y="25.9951">BTSortedPage
            </text>
            <text fill="#000000" font-family="sans-serif" font-size="10" lengthAdjust="spacingAndGlyphs" textLength="26"
                  x="111.5" y="38.5791">btree
            </text>
        </a><!--MD5=[8418e65e20d0be2e6181607d1e8be320]
reverse link btree.BTSortedPage to btree.BTIndexPage-->
        <path d="M111.5,66.2474 C111.5,78.5577 111.5,92.4569 111.5,105.9242 " fill="none"
              id="btree.BTSortedPage&lt;-btree.BTIndexPage" style="stroke: #A80036; stroke-width: 1.0;"/>
        <polygon fill="none" points="104.5001,66.2414,111.5,46.2413,118.5001,66.2413,104.5001,66.2414"
                 style="stroke: #A80036; stroke-width: 1.0;"/>
        <text fill="#888888" font-family="sans-serif" font-size="10" lengthAdjust="spacingAndGlyphs" textLength="186"
              x="24.5" y="248.2822">UMLDoclet 2.0.7, PlantUML 1.2019.12
        </text><!--MD5=[15660a952e0826f1186bd9b3289f35c8]
@startuml
    set namespaceSeparator none
    hide empty fields
    hide empty methods

    class "<size:14>BTIndexPage\n<size:10>btree" as btree.BTIndexPage [[../btree/BTIndexPage.html]] {
        +BTIndexPage(PageId, int)
        +BTIndexPage(Page, int)
        +BTIndexPage(int)
        +insertKey(KeyClass, PageId): RID
        +getFirst(RID): KeyDataEntry
        +getNext(RID): KeyDataEntry
    }

    class "<size:14>BTSortedPage\n<size:10>btree" as btree.BTSortedPage [[../btree/BTSortedPage.html]]

    btree.BTSortedPage <|- - btree.BTIndexPage

    center footer UMLDoclet 2.0.7, PlantUML 1.2019.12
@enduml

PlantUML version 1.2019.12(Sun Nov 03 03:24:54 MST 2019)
(APACHE source distribution)
Java Runtime: Java(TM) SE Runtime Environment
JVM: Java HotSpot(TM) 64-Bit Server VM
Java Version: 11.0.6+8-LTS
Operating System: Linux
Default Encoding: UTF-8
Language: en
Country: US
-->
    </g>
</svg>