<?xml version="1.0" encoding="UTF-8" standalone="no"?>
<svg xmlns="http://www.w3.org/2000/svg" xmlns:xlink="http://www.w3.org/1999/xlink"
     contentScriptType="application/ecmascript" contentStyleType="text/css" height="222px" preserveAspectRatio="none"
     style="width:265px;height:222px;" version="1.1" viewBox="0 0 265 222" width="265px" zoomAndPan="magnify">
    <defs>
        <filter height="300%" id="fluis8yzi0us7" width="300%" x="-1" y="-1">
            <feGaussianBlur result="blurOut" stdDeviation="2.0"/>
            <feColorMatrix in="blurOut" result="blurOut2" type="matrix"
                           values="0 0 0 0 0 0 0 0 0 0 0 0 0 0 0 0 0 0 .4 0"/>
            <feOffset dx="4.0" dy="4.0" in="blurOut2" result="blurOut3"/>
            <feBlend in="SourceGraphic" in2="blurOut3" mode="normal"/>
        </filter>
    </defs>
    <g><!--MD5=[470eb6b08deb3d665e2a5ca5a2e6c365]
class btree.ScanDeleteException-->
        <a href="../btree/ScanDeleteException.html" target="_top" title="../btree/ScanDeleteException.html"
           xlink:actuate="onRequest" xlink:href="../btree/ScanDeleteException.html" xlink:show="new"
           xlink:title="../btree/ScanDeleteException.html" xlink:type="simple">
            <rect fill="#FEFECE" filter="url(#fluis8yzi0us7)" height="84.3516" id="btree.ScanDeleteException"
                  style="stroke: #A80036; stroke-width: 1.5;" width="248" x="6" y="106"/>
            <ellipse cx="51.75" cy="124.9688" fill="#ADD1B2" rx="11" ry="11"
                     style="stroke: #A80036; stroke-width: 1.0;"/>
            <path d="M54.7188,130.6094 Q54.1406,130.9063 53.5,131.0469 Q52.8594,131.2031 52.1563,131.2031 Q49.6563,131.2031 48.3281,129.5625 Q47.0156,127.9063 47.0156,124.7813 Q47.0156,121.6563 48.3281,120 Q49.6563,118.3438 52.1563,118.3438 Q52.8594,118.3438 53.5,118.5 Q54.1563,118.6563 54.7188,118.9531 L54.7188,121.6719 Q54.0938,121.0938 53.5,120.8281 Q52.9063,120.5469 52.2813,120.5469 Q50.9375,120.5469 50.25,121.625 Q49.5625,122.6875 49.5625,124.7813 Q49.5625,126.875 50.25,127.9531 Q50.9375,129.0156 52.2813,129.0156 Q52.9063,129.0156 53.5,128.75 Q54.0938,128.4688 54.7188,127.8906 L54.7188,130.6094 Z "/>
            <text fill="#000000" font-family="sans-serif" font-size="14" lengthAdjust="spacingAndGlyphs"
                  textLength="148" x="72.25" y="123.9951">ScanDeleteException
            </text>
            <text fill="#000000" font-family="sans-serif" font-size="10" lengthAdjust="spacingAndGlyphs" textLength="26"
                  x="133.25" y="136.5791">btree
            </text>
            <line style="stroke: #A80036; stroke-width: 1.5;" x1="7" x2="253" y1="143.9375" y2="143.9375"/>
            <ellipse cx="17" cy="154.9375" fill="#84BE84" rx="3" ry="3" style="stroke: #038048; stroke-width: 1.0;"/>
            <text fill="#000000" font-family="sans-serif" font-size="11" lengthAdjust="spacingAndGlyphs"
                  textLength="126" x="26" y="158.1479">ScanDeleteException()
            </text>
            <ellipse cx="17" cy="167.7422" fill="#84BE84" rx="3" ry="3" style="stroke: #038048; stroke-width: 1.0;"/>
            <text fill="#000000" font-family="sans-serif" font-size="11" lengthAdjust="spacingAndGlyphs"
                  textLength="160" x="26" y="170.9526">ScanDeleteException(String)
            </text>
            <ellipse cx="17" cy="180.5469" fill="#84BE84" rx="3" ry="3" style="stroke: #038048; stroke-width: 1.0;"/>
            <text fill="#000000" font-family="sans-serif" font-size="11" lengthAdjust="spacingAndGlyphs"
                  textLength="222" x="26" y="183.7573">ScanDeleteException(Exception, String)
            </text>
        </a><!--MD5=[2a7cd8221fe6583b4d4c6786e4469311]
class chainexception.ChainException-->
        <a href="../chainexception/ChainException.html" target="_top" title="../chainexception/ChainException.html"
           xlink:actuate="onRequest" xlink:href="../chainexception/ChainException.html" xlink:show="new"
           xlink:title="../chainexception/ChainException.html" xlink:type="simple">
            <rect fill="#FEFECE" filter="url(#fluis8yzi0us7)" height="37.9375" id="chainexception.ChainException"
                  style="stroke: #A80036; stroke-width: 1.5;" width="139" x="60.5" y="8"/>
            <ellipse cx="75.5" cy="26.9688" fill="#ADD1B2" rx="11" ry="11" style="stroke: #A80036; stroke-width: 1.0;"/>
            <path d="M78.4688,32.6094 Q77.8906,32.9063 77.25,33.0469 Q76.6094,33.2031 75.9063,33.2031 Q73.4063,33.2031 72.0781,31.5625 Q70.7656,29.9063 70.7656,26.7813 Q70.7656,23.6563 72.0781,22 Q73.4063,20.3438 75.9063,20.3438 Q76.6094,20.3438 77.25,20.5 Q77.9063,20.6563 78.4688,20.9531 L78.4688,23.6719 Q77.8438,23.0938 77.25,22.8281 Q76.6563,22.5469 76.0313,22.5469 Q74.6875,22.5469 74,23.625 Q73.3125,24.6875 73.3125,26.7813 Q73.3125,28.875 74,29.9531 Q74.6875,31.0156 76.0313,31.0156 Q76.6563,31.0156 77.25,30.75 Q77.8438,30.4688 78.4688,29.8906 L78.4688,32.6094 Z "/>
            <text fill="#000000" font-family="sans-serif" font-size="14" lengthAdjust="spacingAndGlyphs"
                  textLength="107" x="89.5" y="25.9951">ChainException
            </text>
            <text fill="#000000" font-family="sans-serif" font-size="10" lengthAdjust="spacingAndGlyphs" textLength="72"
                  x="107" y="38.5791">chainexception
            </text>
        </a><!--MD5=[1b7e30ca93b67b10279a69c69568bbb4]
reverse link chainexception.ChainException to btree.ScanDeleteException-->
        <path d="M130,66.259 C130,78.9194 130,93.0012 130,105.8605 " fill="none"
              id="chainexception.ChainException&lt;-btree.ScanDeleteException"
              style="stroke: #A80036; stroke-width: 1.0;"/>
        <polygon fill="none" points="123.0001,66.1728,130,46.1728,137.0001,66.1728,123.0001,66.1728"
                 style="stroke: #A80036; stroke-width: 1.0;"/>
        <text fill="#888888" font-family="sans-serif" font-size="10" lengthAdjust="spacingAndGlyphs" textLength="186"
              x="43" y="209.2822">UMLDoclet 2.0.7, PlantUML 1.2019.12
        </text><!--MD5=[2bec1f9a3d4b252b68b92b53766ba0c3]
@startuml
    set namespaceSeparator none
    hide empty fields
    hide empty methods

    class "<size:14>ScanDeleteException\n<size:10>btree" as btree.ScanDeleteException [[../btree/ScanDeleteException.html]] {
        +ScanDeleteException()
        +ScanDeleteException(String)
        +ScanDeleteException(Exception, String)
    }

    class "<size:14>ChainException\n<size:10>chainexception" as chainexception.ChainException [[../chainexception/ChainException.html]]

    chainexception.ChainException <|- - btree.ScanDeleteException

    center footer UMLDoclet 2.0.7, PlantUML 1.2019.12
@enduml

PlantUML version 1.2019.12(Sun Nov 03 03:24:54 MST 2019)
(APACHE source distribution)
Java Runtime: Java(TM) SE Runtime Environment
JVM: Java HotSpot(TM) 64-Bit Server VM
Java Version: 11.0.6+8-LTS
Operating System: Linux
Default Encoding: UTF-8
Language: en
Country: US
-->
    </g>
</svg>