<?xml version="1.0" encoding="UTF-8" standalone="no"?>
<svg xmlns="http://www.w3.org/2000/svg" xmlns:xlink="http://www.w3.org/1999/xlink"
     contentScriptType="application/ecmascript" contentStyleType="text/css" height="222px" preserveAspectRatio="none"
     style="width:282px;height:222px;" version="1.1" viewBox="0 0 282 222" width="282px" zoomAndPan="magnify">
    <defs>
        <filter height="300%" id="f9lz0k5tctwjf" width="300%" x="-1" y="-1">
            <feGaussianBlur result="blurOut" stdDeviation="2.0"/>
            <feColorMatrix in="blurOut" result="blurOut2" type="matrix"
                           values="0 0 0 0 0 0 0 0 0 0 0 0 0 0 0 0 0 0 .4 0"/>
            <feOffset dx="4.0" dy="4.0" in="blurOut2" result="blurOut3"/>
            <feBlend in="SourceGraphic" in2="blurOut3" mode="normal"/>
        </filter>
    </defs>
    <g><!--MD5=[7d01ecc351b3f0299a62380c7d0319a7]
class btree.NodeNotMatchException-->
        <a href="../btree/NodeNotMatchException.html" target="_top" title="../btree/NodeNotMatchException.html"
           xlink:actuate="onRequest" xlink:href="../btree/NodeNotMatchException.html" xlink:show="new"
           xlink:title="../btree/NodeNotMatchException.html" xlink:type="simple">
            <rect fill="#FEFECE" filter="url(#f9lz0k5tctwjf)" height="84.3516" id="btree.NodeNotMatchException"
                  style="stroke: #A80036; stroke-width: 1.5;" width="265" x="6" y="106"/>
            <ellipse cx="48.9" cy="124.9688" fill="#ADD1B2" rx="11" ry="11"
                     style="stroke: #A80036; stroke-width: 1.0;"/>
            <path d="M51.8688,130.6094 Q51.2906,130.9063 50.65,131.0469 Q50.0094,131.2031 49.3063,131.2031 Q46.8063,131.2031 45.4781,129.5625 Q44.1656,127.9063 44.1656,124.7813 Q44.1656,121.6563 45.4781,120 Q46.8063,118.3438 49.3063,118.3438 Q50.0094,118.3438 50.65,118.5 Q51.3063,118.6563 51.8688,118.9531 L51.8688,121.6719 Q51.2438,121.0938 50.65,120.8281 Q50.0563,120.5469 49.4313,120.5469 Q48.0875,120.5469 47.4,121.625 Q46.7125,122.6875 46.7125,124.7813 Q46.7125,126.875 47.4,127.9531 Q48.0875,129.0156 49.4313,129.0156 Q50.0563,129.0156 50.65,128.75 Q51.2438,128.4688 51.8688,127.8906 L51.8688,130.6094 Z "/>
            <text fill="#000000" font-family="sans-serif" font-size="14" lengthAdjust="spacingAndGlyphs"
                  textLength="171" x="69.1" y="123.9951">NodeNotMatchException
            </text>
            <text fill="#000000" font-family="sans-serif" font-size="10" lengthAdjust="spacingAndGlyphs" textLength="26"
                  x="141.6" y="136.5791">btree
            </text>
            <line style="stroke: #A80036; stroke-width: 1.5;" x1="7" x2="270" y1="143.9375" y2="143.9375"/>
            <ellipse cx="17" cy="154.9375" fill="#84BE84" rx="3" ry="3" style="stroke: #038048; stroke-width: 1.0;"/>
            <text fill="#000000" font-family="sans-serif" font-size="11" lengthAdjust="spacingAndGlyphs"
                  textLength="143" x="26" y="158.1479">NodeNotMatchException()
            </text>
            <ellipse cx="17" cy="167.7422" fill="#84BE84" rx="3" ry="3" style="stroke: #038048; stroke-width: 1.0;"/>
            <text fill="#000000" font-family="sans-serif" font-size="11" lengthAdjust="spacingAndGlyphs"
                  textLength="177" x="26" y="170.9526">NodeNotMatchException(String)
            </text>
            <ellipse cx="17" cy="180.5469" fill="#84BE84" rx="3" ry="3" style="stroke: #038048; stroke-width: 1.0;"/>
            <text fill="#000000" font-family="sans-serif" font-size="11" lengthAdjust="spacingAndGlyphs"
                  textLength="239" x="26" y="183.7573">NodeNotMatchException(Exception, String)
            </text>
        </a><!--MD5=[2a7cd8221fe6583b4d4c6786e4469311]
class chainexception.ChainException-->
        <a href="../chainexception/ChainException.html" target="_top" title="../chainexception/ChainException.html"
           xlink:actuate="onRequest" xlink:href="../chainexception/ChainException.html" xlink:show="new"
           xlink:title="../chainexception/ChainException.html" xlink:type="simple">
            <rect fill="#FEFECE" filter="url(#f9lz0k5tctwjf)" height="37.9375" id="chainexception.ChainException"
                  style="stroke: #A80036; stroke-width: 1.5;" width="139" x="69" y="8"/>
            <ellipse cx="84" cy="26.9688" fill="#ADD1B2" rx="11" ry="11" style="stroke: #A80036; stroke-width: 1.0;"/>
            <path d="M86.9688,32.6094 Q86.3906,32.9063 85.75,33.0469 Q85.1094,33.2031 84.4063,33.2031 Q81.9063,33.2031 80.5781,31.5625 Q79.2656,29.9063 79.2656,26.7813 Q79.2656,23.6563 80.5781,22 Q81.9063,20.3438 84.4063,20.3438 Q85.1094,20.3438 85.75,20.5 Q86.4063,20.6563 86.9688,20.9531 L86.9688,23.6719 Q86.3438,23.0938 85.75,22.8281 Q85.1563,22.5469 84.5313,22.5469 Q83.1875,22.5469 82.5,23.625 Q81.8125,24.6875 81.8125,26.7813 Q81.8125,28.875 82.5,29.9531 Q83.1875,31.0156 84.5313,31.0156 Q85.1563,31.0156 85.75,30.75 Q86.3438,30.4688 86.9688,29.8906 L86.9688,32.6094 Z "/>
            <text fill="#000000" font-family="sans-serif" font-size="14" lengthAdjust="spacingAndGlyphs"
                  textLength="107" x="98" y="25.9951">ChainException
            </text>
            <text fill="#000000" font-family="sans-serif" font-size="10" lengthAdjust="spacingAndGlyphs" textLength="72"
                  x="115.5" y="38.5791">chainexception
            </text>
        </a><!--MD5=[4ac7ef08e0164651e68cf7bb5ae58af4]
reverse link chainexception.ChainException to btree.NodeNotMatchException-->
        <path d="M138.5,66.259 C138.5,78.9194 138.5,93.0012 138.5,105.8605 " fill="none"
              id="chainexception.ChainException&lt;-btree.NodeNotMatchException"
              style="stroke: #A80036; stroke-width: 1.0;"/>
        <polygon fill="none" points="131.5001,66.1728,138.5,46.1728,145.5001,66.1728,131.5001,66.1728"
                 style="stroke: #A80036; stroke-width: 1.0;"/>
        <text fill="#888888" font-family="sans-serif" font-size="10" lengthAdjust="spacingAndGlyphs" textLength="186"
              x="51.5" y="209.2822">UMLDoclet 2.0.7, PlantUML 1.2019.12
        </text><!--MD5=[51a2a631dca6a49be35e3b6f49dc8d42]
@startuml
    set namespaceSeparator none
    hide empty fields
    hide empty methods

    class "<size:14>NodeNotMatchException\n<size:10>btree" as btree.NodeNotMatchException [[../btree/NodeNotMatchException.html]] {
        +NodeNotMatchException()
        +NodeNotMatchException(String)
        +NodeNotMatchException(Exception, String)
    }

    class "<size:14>ChainException\n<size:10>chainexception" as chainexception.ChainException [[../chainexception/ChainException.html]]

    chainexception.ChainException <|- - btree.NodeNotMatchException

    center footer UMLDoclet 2.0.7, PlantUML 1.2019.12
@enduml

PlantUML version 1.2019.12(Sun Nov 03 03:24:54 MST 2019)
(APACHE source distribution)
Java Runtime: Java(TM) SE Runtime Environment
JVM: Java HotSpot(TM) 64-Bit Server VM
Java Version: 11.0.6+8-LTS
Operating System: Linux
Default Encoding: UTF-8
Language: en
Country: US
-->
    </g>
</svg>