<?xml version="1.0" encoding="UTF-8" standalone="no"?>
<svg xmlns="http://www.w3.org/2000/svg" xmlns:xlink="http://www.w3.org/1999/xlink"
     contentScriptType="application/ecmascript" contentStyleType="text/css" height="222px" preserveAspectRatio="none"
     style="width:278px;height:222px;" version="1.1" viewBox="0 0 278 222" width="278px" zoomAndPan="magnify">
    <defs>
        <filter height="300%" id="f14p1kmxrgckpu" width="300%" x="-1" y="-1">
            <feGaussianBlur result="blurOut" stdDeviation="2.0"/>
            <feColorMatrix in="blurOut" result="blurOut2" type="matrix"
                           values="0 0 0 0 0 0 0 0 0 0 0 0 0 0 0 0 0 0 .4 0"/>
            <feOffset dx="4.0" dy="4.0" in="blurOut2" result="blurOut3"/>
            <feBlend in="SourceGraphic" in2="blurOut3" mode="normal"/>
        </filter>
    </defs>
    <g><!--MD5=[49a5fefac927eb543a4bd8737ae49ed3]
class btree.LeafInsertRecException-->
        <a href="../btree/LeafInsertRecException.html" target="_top" title="../btree/LeafInsertRecException.html"
           xlink:actuate="onRequest" xlink:href="../btree/LeafInsertRecException.html" xlink:show="new"
           xlink:title="../btree/LeafInsertRecException.html" xlink:type="simple">
            <rect fill="#FEFECE" filter="url(#f14p1kmxrgckpu)" height="84.3516" id="btree.LeafInsertRecException"
                  style="stroke: #A80036; stroke-width: 1.5;" width="261" x="6" y="106"/>
            <ellipse cx="51.25" cy="124.9688" fill="#ADD1B2" rx="11" ry="11"
                     style="stroke: #A80036; stroke-width: 1.0;"/>
            <path d="M54.2188,130.6094 Q53.6406,130.9063 53,131.0469 Q52.3594,131.2031 51.6563,131.2031 Q49.1563,131.2031 47.8281,129.5625 Q46.5156,127.9063 46.5156,124.7813 Q46.5156,121.6563 47.8281,120 Q49.1563,118.3438 51.6563,118.3438 Q52.3594,118.3438 53,118.5 Q53.6563,118.6563 54.2188,118.9531 L54.2188,121.6719 Q53.5938,121.0938 53,120.8281 Q52.4063,120.5469 51.7813,120.5469 Q50.4375,120.5469 49.75,121.625 Q49.0625,122.6875 49.0625,124.7813 Q49.0625,126.875 49.75,127.9531 Q50.4375,129.0156 51.7813,129.0156 Q52.4063,129.0156 53,128.75 Q53.5938,128.4688 54.2188,127.8906 L54.2188,130.6094 Z "/>
            <text fill="#000000" font-family="sans-serif" font-size="14" lengthAdjust="spacingAndGlyphs"
                  textLength="162" x="71.75" y="123.9951">LeafInsertRecException
            </text>
            <text fill="#000000" font-family="sans-serif" font-size="10" lengthAdjust="spacingAndGlyphs" textLength="26"
                  x="139.75" y="136.5791">btree
            </text>
            <line style="stroke: #A80036; stroke-width: 1.5;" x1="7" x2="266" y1="143.9375" y2="143.9375"/>
            <ellipse cx="17" cy="154.9375" fill="#84BE84" rx="3" ry="3" style="stroke: #038048; stroke-width: 1.0;"/>
            <text fill="#000000" font-family="sans-serif" font-size="11" lengthAdjust="spacingAndGlyphs"
                  textLength="139" x="26" y="158.1479">LeafInsertRecException()
            </text>
            <ellipse cx="17" cy="167.7422" fill="#84BE84" rx="3" ry="3" style="stroke: #038048; stroke-width: 1.0;"/>
            <text fill="#000000" font-family="sans-serif" font-size="11" lengthAdjust="spacingAndGlyphs"
                  textLength="173" x="26" y="170.9526">LeafInsertRecException(String)
            </text>
            <ellipse cx="17" cy="180.5469" fill="#84BE84" rx="3" ry="3" style="stroke: #038048; stroke-width: 1.0;"/>
            <text fill="#000000" font-family="sans-serif" font-size="11" lengthAdjust="spacingAndGlyphs"
                  textLength="235" x="26" y="183.7573">LeafInsertRecException(Exception, String)
            </text>
        </a><!--MD5=[2a7cd8221fe6583b4d4c6786e4469311]
class chainexception.ChainException-->
        <a href="../chainexception/ChainException.html" target="_top" title="../chainexception/ChainException.html"
           xlink:actuate="onRequest" xlink:href="../chainexception/ChainException.html" xlink:show="new"
           xlink:title="../chainexception/ChainException.html" xlink:type="simple">
            <rect fill="#FEFECE" filter="url(#f14p1kmxrgckpu)" height="37.9375" id="chainexception.ChainException"
                  style="stroke: #A80036; stroke-width: 1.5;" width="139" x="67" y="8"/>
            <ellipse cx="82" cy="26.9688" fill="#ADD1B2" rx="11" ry="11" style="stroke: #A80036; stroke-width: 1.0;"/>
            <path d="M84.9688,32.6094 Q84.3906,32.9063 83.75,33.0469 Q83.1094,33.2031 82.4063,33.2031 Q79.9063,33.2031 78.5781,31.5625 Q77.2656,29.9063 77.2656,26.7813 Q77.2656,23.6563 78.5781,22 Q79.9063,20.3438 82.4063,20.3438 Q83.1094,20.3438 83.75,20.5 Q84.4063,20.6563 84.9688,20.9531 L84.9688,23.6719 Q84.3438,23.0938 83.75,22.8281 Q83.1563,22.5469 82.5313,22.5469 Q81.1875,22.5469 80.5,23.625 Q79.8125,24.6875 79.8125,26.7813 Q79.8125,28.875 80.5,29.9531 Q81.1875,31.0156 82.5313,31.0156 Q83.1563,31.0156 83.75,30.75 Q84.3438,30.4688 84.9688,29.8906 L84.9688,32.6094 Z "/>
            <text fill="#000000" font-family="sans-serif" font-size="14" lengthAdjust="spacingAndGlyphs"
                  textLength="107" x="96" y="25.9951">ChainException
            </text>
            <text fill="#000000" font-family="sans-serif" font-size="10" lengthAdjust="spacingAndGlyphs" textLength="72"
                  x="113.5" y="38.5791">chainexception
            </text>
        </a><!--MD5=[218ad38b42422e9ab8c1b72bb7ac94c4]
reverse link chainexception.ChainException to btree.LeafInsertRecException-->
        <path d="M136.5,66.259 C136.5,78.9194 136.5,93.0012 136.5,105.8605 " fill="none"
              id="chainexception.ChainException&lt;-btree.LeafInsertRecException"
              style="stroke: #A80036; stroke-width: 1.0;"/>
        <polygon fill="none" points="129.5001,66.1728,136.5,46.1728,143.5001,66.1728,129.5001,66.1728"
                 style="stroke: #A80036; stroke-width: 1.0;"/>
        <text fill="#888888" font-family="sans-serif" font-size="10" lengthAdjust="spacingAndGlyphs" textLength="186"
              x="49.5" y="209.2822">UMLDoclet 2.0.7, PlantUML 1.2019.12
        </text><!--MD5=[336eb7007989be1bb5a9899960de90db]
@startuml
    set namespaceSeparator none
    hide empty fields
    hide empty methods

    class "<size:14>LeafInsertRecException\n<size:10>btree" as btree.LeafInsertRecException [[../btree/LeafInsertRecException.html]] {
        +LeafInsertRecException()
        +LeafInsertRecException(String)
        +LeafInsertRecException(Exception, String)
    }

    class "<size:14>ChainException\n<size:10>chainexception" as chainexception.ChainException [[../chainexception/ChainException.html]]

    chainexception.ChainException <|- - btree.LeafInsertRecException

    center footer UMLDoclet 2.0.7, PlantUML 1.2019.12
@enduml

PlantUML version 1.2019.12(Sun Nov 03 03:24:54 MST 2019)
(APACHE source distribution)
Java Runtime: Java(TM) SE Runtime Environment
JVM: Java HotSpot(TM) 64-Bit Server VM
Java Version: 11.0.6+8-LTS
Operating System: Linux
Default Encoding: UTF-8
Language: en
Country: US
-->
    </g>
</svg>