<?xml version="1.0" encoding="UTF-8" standalone="no"?>
<svg xmlns="http://www.w3.org/2000/svg" xmlns:xlink="http://www.w3.org/1999/xlink"
     contentScriptType="application/ecmascript" contentStyleType="text/css" height="222px" preserveAspectRatio="none"
     style="width:286px;height:222px;" version="1.1" viewBox="0 0 286 222" width="286px" zoomAndPan="magnify">
    <defs>
        <filter height="300%" id="f7d6r1ydj2z4n" width="300%" x="-1" y="-1">
            <feGaussianBlur result="blurOut" stdDeviation="2.0"/>
            <feColorMatrix in="blurOut" result="blurOut2" type="matrix"
                           values="0 0 0 0 0 0 0 0 0 0 0 0 0 0 0 0 0 0 .4 0"/>
            <feOffset dx="4.0" dy="4.0" in="blurOut2" result="blurOut3"/>
            <feBlend in="SourceGraphic" in2="blurOut3" mode="normal"/>
        </filter>
    </defs>
    <g><!--MD5=[d1ce2a27d2a459d90819ee45d598603d]
class btree.IndexFullDeleteException-->
        <a href="../btree/IndexFullDeleteException.html" target="_top" title="../btree/IndexFullDeleteException.html"
           xlink:actuate="onRequest" xlink:href="../btree/IndexFullDeleteException.html" xlink:show="new"
           xlink:title="../btree/IndexFullDeleteException.html" xlink:type="simple">
            <rect fill="#FEFECE" filter="url(#f7d6r1ydj2z4n)" height="84.3516" id="btree.IndexFullDeleteException"
                  style="stroke: #A80036; stroke-width: 1.5;" width="269" x="6" y="106"/>
            <ellipse cx="49.35" cy="124.9688" fill="#ADD1B2" rx="11" ry="11"
                     style="stroke: #A80036; stroke-width: 1.0;"/>
            <path d="M52.3188,130.6094 Q51.7406,130.9063 51.1,131.0469 Q50.4594,131.2031 49.7563,131.2031 Q47.2563,131.2031 45.9281,129.5625 Q44.6156,127.9063 44.6156,124.7813 Q44.6156,121.6563 45.9281,120 Q47.2563,118.3438 49.7563,118.3438 Q50.4594,118.3438 51.1,118.5 Q51.7563,118.6563 52.3188,118.9531 L52.3188,121.6719 Q51.6938,121.0938 51.1,120.8281 Q50.5063,120.5469 49.8813,120.5469 Q48.5375,120.5469 47.85,121.625 Q47.1625,122.6875 47.1625,124.7813 Q47.1625,126.875 47.85,127.9531 Q48.5375,129.0156 49.8813,129.0156 Q50.5063,129.0156 51.1,128.75 Q51.6938,128.4688 52.3188,127.8906 L52.3188,130.6094 Z "/>
            <text fill="#000000" font-family="sans-serif" font-size="14" lengthAdjust="spacingAndGlyphs"
                  textLength="174" x="69.65" y="123.9951">IndexFullDeleteException
            </text>
            <text fill="#000000" font-family="sans-serif" font-size="10" lengthAdjust="spacingAndGlyphs" textLength="26"
                  x="143.65" y="136.5791">btree
            </text>
            <line style="stroke: #A80036; stroke-width: 1.5;" x1="7" x2="274" y1="143.9375" y2="143.9375"/>
            <ellipse cx="17" cy="154.9375" fill="#84BE84" rx="3" ry="3" style="stroke: #038048; stroke-width: 1.0;"/>
            <text fill="#000000" font-family="sans-serif" font-size="11" lengthAdjust="spacingAndGlyphs"
                  textLength="147" x="26" y="158.1479">IndexFullDeleteException()
            </text>
            <ellipse cx="17" cy="167.7422" fill="#84BE84" rx="3" ry="3" style="stroke: #038048; stroke-width: 1.0;"/>
            <text fill="#000000" font-family="sans-serif" font-size="11" lengthAdjust="spacingAndGlyphs"
                  textLength="181" x="26" y="170.9526">IndexFullDeleteException(String)
            </text>
            <ellipse cx="17" cy="180.5469" fill="#84BE84" rx="3" ry="3" style="stroke: #038048; stroke-width: 1.0;"/>
            <text fill="#000000" font-family="sans-serif" font-size="11" lengthAdjust="spacingAndGlyphs"
                  textLength="243" x="26" y="183.7573">IndexFullDeleteException(Exception, String)
            </text>
        </a><!--MD5=[2a7cd8221fe6583b4d4c6786e4469311]
class chainexception.ChainException-->
        <a href="../chainexception/ChainException.html" target="_top" title="../chainexception/ChainException.html"
           xlink:actuate="onRequest" xlink:href="../chainexception/ChainException.html" xlink:show="new"
           xlink:title="../chainexception/ChainException.html" xlink:type="simple">
            <rect fill="#FEFECE" filter="url(#f7d6r1ydj2z4n)" height="37.9375" id="chainexception.ChainException"
                  style="stroke: #A80036; stroke-width: 1.5;" width="139" x="71" y="8"/>
            <ellipse cx="86" cy="26.9688" fill="#ADD1B2" rx="11" ry="11" style="stroke: #A80036; stroke-width: 1.0;"/>
            <path d="M88.9688,32.6094 Q88.3906,32.9063 87.75,33.0469 Q87.1094,33.2031 86.4063,33.2031 Q83.9063,33.2031 82.5781,31.5625 Q81.2656,29.9063 81.2656,26.7813 Q81.2656,23.6563 82.5781,22 Q83.9063,20.3438 86.4063,20.3438 Q87.1094,20.3438 87.75,20.5 Q88.4063,20.6563 88.9688,20.9531 L88.9688,23.6719 Q88.3438,23.0938 87.75,22.8281 Q87.1563,22.5469 86.5313,22.5469 Q85.1875,22.5469 84.5,23.625 Q83.8125,24.6875 83.8125,26.7813 Q83.8125,28.875 84.5,29.9531 Q85.1875,31.0156 86.5313,31.0156 Q87.1563,31.0156 87.75,30.75 Q88.3438,30.4688 88.9688,29.8906 L88.9688,32.6094 Z "/>
            <text fill="#000000" font-family="sans-serif" font-size="14" lengthAdjust="spacingAndGlyphs"
                  textLength="107" x="100" y="25.9951">ChainException
            </text>
            <text fill="#000000" font-family="sans-serif" font-size="10" lengthAdjust="spacingAndGlyphs" textLength="72"
                  x="117.5" y="38.5791">chainexception
            </text>
        </a><!--MD5=[9f5faa297a0cdd6fdc3224cb17b187f3]
reverse link chainexception.ChainException to btree.IndexFullDeleteException-->
        <path d="M140.5,66.259 C140.5,78.9194 140.5,93.0012 140.5,105.8605 " fill="none"
              id="chainexception.ChainException&lt;-btree.IndexFullDeleteException"
              style="stroke: #A80036; stroke-width: 1.0;"/>
        <polygon fill="none" points="133.5001,66.1728,140.5,46.1728,147.5001,66.1728,133.5001,66.1728"
                 style="stroke: #A80036; stroke-width: 1.0;"/>
        <text fill="#888888" font-family="sans-serif" font-size="10" lengthAdjust="spacingAndGlyphs" textLength="186"
              x="53.5" y="209.2822">UMLDoclet 2.0.7, PlantUML 1.2019.12
        </text><!--MD5=[dbfa04853d49c1900303a5a16b7574ea]
@startuml
    set namespaceSeparator none
    hide empty fields
    hide empty methods

    class "<size:14>IndexFullDeleteException\n<size:10>btree" as btree.IndexFullDeleteException [[../btree/IndexFullDeleteException.html]] {
        +IndexFullDeleteException()
        +IndexFullDeleteException(String)
        +IndexFullDeleteException(Exception, String)
    }

    class "<size:14>ChainException\n<size:10>chainexception" as chainexception.ChainException [[../chainexception/ChainException.html]]

    chainexception.ChainException <|- - btree.IndexFullDeleteException

    center footer UMLDoclet 2.0.7, PlantUML 1.2019.12
@enduml

PlantUML version 1.2019.12(Sun Nov 03 03:24:54 MST 2019)
(APACHE source distribution)
Java Runtime: Java(TM) SE Runtime Environment
JVM: Java HotSpot(TM) 64-Bit Server VM
Java Version: 11.0.6+8-LTS
Operating System: Linux
Default Encoding: UTF-8
Language: en
Country: US
-->
    </g>
</svg>