<?xml version="1.0" encoding="UTF-8" standalone="no"?>
<svg xmlns="http://www.w3.org/2000/svg" xmlns:xlink="http://www.w3.org/1999/xlink"
     contentScriptType="application/ecmascript" contentStyleType="text/css" height="108px" preserveAspectRatio="none"
     style="width:198px;height:108px;" version="1.1" viewBox="0 0 198 108" width="198px" zoomAndPan="magnify">
    <defs>
        <filter height="300%" id="f53trj7mi6dfw" width="300%" x="-1" y="-1">
            <feGaussianBlur result="blurOut" stdDeviation="2.0"/>
            <feColorMatrix in="blurOut" result="blurOut2" type="matrix"
                           values="0 0 0 0 0 0 0 0 0 0 0 0 0 0 0 0 0 0 .4 0"/>
            <feOffset dx="4.0" dy="4.0" in="blurOut2" result="blurOut3"/>
            <feBlend in="SourceGraphic" in2="blurOut3" mode="normal"/>
        </filter>
    </defs>
    <g><!--MD5=[ebecefc175f4a06074afb4076b75cb49]
class btree.DeleteFashion-->
        <a href="../btree/DeleteFashion.html" target="_top" title="../btree/DeleteFashion.html"
           xlink:actuate="onRequest" xlink:href="../btree/DeleteFashion.html" xlink:show="new"
           xlink:title="../btree/DeleteFashion.html" xlink:type="simple">
            <rect fill="#FEFECE" filter="url(#f53trj7mi6dfw)" height="71.5469" id="btree.DeleteFashion"
                  style="stroke: #A80036; stroke-width: 1.5;" width="132" x="27" y="7"/>
            <ellipse cx="42" cy="25.9688" fill="#ADD1B2" rx="11" ry="11" style="stroke: #A80036; stroke-width: 1.0;"/>
            <path d="M44.9688,31.6094 Q44.3906,31.9063 43.75,32.0469 Q43.1094,32.2031 42.4063,32.2031 Q39.9063,32.2031 38.5781,30.5625 Q37.2656,28.9063 37.2656,25.7813 Q37.2656,22.6563 38.5781,21 Q39.9063,19.3438 42.4063,19.3438 Q43.1094,19.3438 43.75,19.5 Q44.4063,19.6563 44.9688,19.9531 L44.9688,22.6719 Q44.3438,22.0938 43.75,21.8281 Q43.1563,21.5469 42.5313,21.5469 Q41.1875,21.5469 40.5,22.625 Q39.8125,23.6875 39.8125,25.7813 Q39.8125,27.875 40.5,28.9531 Q41.1875,30.0156 42.5313,30.0156 Q43.1563,30.0156 43.75,29.75 Q44.3438,29.4688 44.9688,28.8906 L44.9688,31.6094 Z "/>
            <text fill="#000000" font-family="sans-serif" font-size="14" lengthAdjust="spacingAndGlyphs"
                  textLength="100" x="56" y="24.9951">DeleteFashion
            </text>
            <text fill="#000000" font-family="sans-serif" font-size="10" lengthAdjust="spacingAndGlyphs" textLength="26"
                  x="93" y="37.5791">btree
            </text>
            <line style="stroke: #A80036; stroke-width: 1.5;" x1="28" x2="158" y1="44.9375" y2="44.9375"/>
            <ellipse cx="38" cy="55.9375" fill="none" rx="3" ry="3" style="stroke: #038048; stroke-width: 1.0;"/>
            <text fill="#000000" font-family="sans-serif" font-size="11" lengthAdjust="spacingAndGlyphs"
                  text-decoration="underline" textLength="102" x="47" y="59.1479">NAIVE_DELETE: int
            </text>
            <ellipse cx="38" cy="68.7422" fill="none" rx="3" ry="3" style="stroke: #038048; stroke-width: 1.0;"/>
            <text fill="#000000" font-family="sans-serif" font-size="11" lengthAdjust="spacingAndGlyphs"
                  text-decoration="underline" textLength="96" x="47" y="71.9526">FULL_DELETE: int
            </text>
        </a>
        <text fill="#888888" font-family="sans-serif" font-size="10" lengthAdjust="spacingAndGlyphs" textLength="186"
              x="0" y="94.8291">UMLDoclet 2.0.7, PlantUML 1.2019.12
        </text><!--MD5=[8c635746993b43eb3da96cd15ee4635f]
@startuml
    set namespaceSeparator none
    hide empty fields
    hide empty methods

    class "<size:14>DeleteFashion\n<size:10>btree" as btree.DeleteFashion [[../btree/DeleteFashion.html]] {
        {static} +NAIVE_DELETE: int
        {static} +FULL_DELETE: int
    }

    center footer UMLDoclet 2.0.7, PlantUML 1.2019.12
@enduml

PlantUML version 1.2019.12(Sun Nov 03 03:24:54 MST 2019)
(APACHE source distribution)
Java Runtime: Java(TM) SE Runtime Environment
JVM: Java HotSpot(TM) 64-Bit Server VM
Java Version: 11.0.6+8-LTS
Operating System: Linux
Default Encoding: UTF-8
Language: en
Country: US
-->
    </g>
</svg>