<?xml version="1.0" encoding="UTF-8" standalone="no"?>
<svg xmlns="http://www.w3.org/2000/svg" xmlns:xlink="http://www.w3.org/1999/xlink"
     contentScriptType="application/ecmascript" contentStyleType="text/css" height="222px" preserveAspectRatio="none"
     style="width:269px;height:222px;" version="1.1" viewBox="0 0 269 222" width="269px" zoomAndPan="magnify">
    <defs>
        <filter height="300%" id="f3t8llemg4p2q" width="300%" x="-1" y="-1">
            <feGaussianBlur result="blurOut" stdDeviation="2.0"/>
            <feColorMatrix in="blurOut" result="blurOut2" type="matrix"
                           values="0 0 0 0 0 0 0 0 0 0 0 0 0 0 0 0 0 0 .4 0"/>
            <feOffset dx="4.0" dy="4.0" in="blurOut2" result="blurOut3"/>
            <feBlend in="SourceGraphic" in2="blurOut3" mode="normal"/>
        </filter>
    </defs>
    <g><!--MD5=[2fa7bd3f1a97e485520495a755e80073]
class btree.KeyTooLongException-->
        <a href="../btree/KeyTooLongException.html" target="_top" title="../btree/KeyTooLongException.html"
           xlink:actuate="onRequest" xlink:href="../btree/KeyTooLongException.html" xlink:show="new"
           xlink:title="../btree/KeyTooLongException.html" xlink:type="simple">
            <rect fill="#FEFECE" filter="url(#f3t8llemg4p2q)" height="84.3516" id="btree.KeyTooLongException"
                  style="stroke: #A80036; stroke-width: 1.5;" width="252" x="6" y="106"/>
            <ellipse cx="50.75" cy="124.9688" fill="#ADD1B2" rx="11" ry="11"
                     style="stroke: #A80036; stroke-width: 1.0;"/>
            <path d="M53.7188,130.6094 Q53.1406,130.9063 52.5,131.0469 Q51.8594,131.2031 51.1563,131.2031 Q48.6563,131.2031 47.3281,129.5625 Q46.0156,127.9063 46.0156,124.7813 Q46.0156,121.6563 47.3281,120 Q48.6563,118.3438 51.1563,118.3438 Q51.8594,118.3438 52.5,118.5 Q53.1563,118.6563 53.7188,118.9531 L53.7188,121.6719 Q53.0938,121.0938 52.5,120.8281 Q51.9063,120.5469 51.2813,120.5469 Q49.9375,120.5469 49.25,121.625 Q48.5625,122.6875 48.5625,124.7813 Q48.5625,126.875 49.25,127.9531 Q49.9375,129.0156 51.2813,129.0156 Q51.9063,129.0156 52.5,128.75 Q53.0938,128.4688 53.7188,127.8906 L53.7188,130.6094 Z "/>
            <text fill="#000000" font-family="sans-serif" font-size="14" lengthAdjust="spacingAndGlyphs"
                  textLength="154" x="71.25" y="123.9951">KeyTooLongException
            </text>
            <text fill="#000000" font-family="sans-serif" font-size="10" lengthAdjust="spacingAndGlyphs" textLength="26"
                  x="135.25" y="136.5791">btree
            </text>
            <line style="stroke: #A80036; stroke-width: 1.5;" x1="7" x2="257" y1="143.9375" y2="143.9375"/>
            <ellipse cx="17" cy="154.9375" fill="#84BE84" rx="3" ry="3" style="stroke: #038048; stroke-width: 1.0;"/>
            <text fill="#000000" font-family="sans-serif" font-size="11" lengthAdjust="spacingAndGlyphs"
                  textLength="130" x="26" y="158.1479">KeyTooLongException()
            </text>
            <ellipse cx="17" cy="167.7422" fill="#84BE84" rx="3" ry="3" style="stroke: #038048; stroke-width: 1.0;"/>
            <text fill="#000000" font-family="sans-serif" font-size="11" lengthAdjust="spacingAndGlyphs"
                  textLength="164" x="26" y="170.9526">KeyTooLongException(String)
            </text>
            <ellipse cx="17" cy="180.5469" fill="#84BE84" rx="3" ry="3" style="stroke: #038048; stroke-width: 1.0;"/>
            <text fill="#000000" font-family="sans-serif" font-size="11" lengthAdjust="spacingAndGlyphs"
                  textLength="226" x="26" y="183.7573">KeyTooLongException(Exception, String)
            </text>
        </a><!--MD5=[2a7cd8221fe6583b4d4c6786e4469311]
class chainexception.ChainException-->
        <a href="../chainexception/ChainException.html" target="_top" title="../chainexception/ChainException.html"
           xlink:actuate="onRequest" xlink:href="../chainexception/ChainException.html" xlink:show="new"
           xlink:title="../chainexception/ChainException.html" xlink:type="simple">
            <rect fill="#FEFECE" filter="url(#f3t8llemg4p2q)" height="37.9375" id="chainexception.ChainException"
                  style="stroke: #A80036; stroke-width: 1.5;" width="139" x="62.5" y="8"/>
            <ellipse cx="77.5" cy="26.9688" fill="#ADD1B2" rx="11" ry="11" style="stroke: #A80036; stroke-width: 1.0;"/>
            <path d="M80.4688,32.6094 Q79.8906,32.9063 79.25,33.0469 Q78.6094,33.2031 77.9063,33.2031 Q75.4063,33.2031 74.0781,31.5625 Q72.7656,29.9063 72.7656,26.7813 Q72.7656,23.6563 74.0781,22 Q75.4063,20.3438 77.9063,20.3438 Q78.6094,20.3438 79.25,20.5 Q79.9063,20.6563 80.4688,20.9531 L80.4688,23.6719 Q79.8438,23.0938 79.25,22.8281 Q78.6563,22.5469 78.0313,22.5469 Q76.6875,22.5469 76,23.625 Q75.3125,24.6875 75.3125,26.7813 Q75.3125,28.875 76,29.9531 Q76.6875,31.0156 78.0313,31.0156 Q78.6563,31.0156 79.25,30.75 Q79.8438,30.4688 80.4688,29.8906 L80.4688,32.6094 Z "/>
            <text fill="#000000" font-family="sans-serif" font-size="14" lengthAdjust="spacingAndGlyphs"
                  textLength="107" x="91.5" y="25.9951">ChainException
            </text>
            <text fill="#000000" font-family="sans-serif" font-size="10" lengthAdjust="spacingAndGlyphs" textLength="72"
                  x="109" y="38.5791">chainexception
            </text>
        </a><!--MD5=[609fb9b73d71d8ff9e33dc1e564f7c63]
reverse link chainexception.ChainException to btree.KeyTooLongException-->
        <path d="M132,66.259 C132,78.9194 132,93.0012 132,105.8605 " fill="none"
              id="chainexception.ChainException&lt;-btree.KeyTooLongException"
              style="stroke: #A80036; stroke-width: 1.0;"/>
        <polygon fill="none" points="125.0001,66.1728,132,46.1728,139.0001,66.1728,125.0001,66.1728"
                 style="stroke: #A80036; stroke-width: 1.0;"/>
        <text fill="#888888" font-family="sans-serif" font-size="10" lengthAdjust="spacingAndGlyphs" textLength="186"
              x="45" y="209.2822">UMLDoclet 2.0.7, PlantUML 1.2019.12
        </text><!--MD5=[8b455ee715d484e9a7e39a4803a68859]
@startuml
    set namespaceSeparator none
    hide empty fields
    hide empty methods

    class "<size:14>KeyTooLongException\n<size:10>btree" as btree.KeyTooLongException [[../btree/KeyTooLongException.html]] {
        +KeyTooLongException()
        +KeyTooLongException(String)
        +KeyTooLongException(Exception, String)
    }

    class "<size:14>ChainException\n<size:10>chainexception" as chainexception.ChainException [[../chainexception/ChainException.html]]

    chainexception.ChainException <|- - btree.KeyTooLongException

    center footer UMLDoclet 2.0.7, PlantUML 1.2019.12
@enduml

PlantUML version 1.2019.12(Sun Nov 03 03:24:54 MST 2019)
(APACHE source distribution)
Java Runtime: Java(TM) SE Runtime Environment
JVM: Java HotSpot(TM) 64-Bit Server VM
Java Version: 11.0.6+8-LTS
Operating System: Linux
Default Encoding: UTF-8
Language: en
Country: US
-->
    </g>
</svg>