<?xml version="1.0" encoding="UTF-8" standalone="no"?>
<svg xmlns="http://www.w3.org/2000/svg" xmlns:xlink="http://www.w3.org/1999/xlink"
     contentScriptType="application/ecmascript" contentStyleType="text/css" height="222px" preserveAspectRatio="none"
     style="width:198px;height:222px;" version="1.1" viewBox="0 0 198 222" width="198px" zoomAndPan="magnify">
    <defs>
        <filter height="300%" id="fe0hrr43kabpq" width="300%" x="-1" y="-1">
            <feGaussianBlur result="blurOut" stdDeviation="2.0"/>
            <feColorMatrix in="blurOut" result="blurOut2" type="matrix"
                           values="0 0 0 0 0 0 0 0 0 0 0 0 0 0 0 0 0 0 .4 0"/>
            <feOffset dx="4.0" dy="4.0" in="blurOut2" result="blurOut3"/>
            <feBlend in="SourceGraphic" in2="blurOut3" mode="normal"/>
        </filter>
    </defs>
    <g><!--MD5=[535525f0035e8bbe99f532c1608be136]
class btree.StringKey-->
        <a href="../btree/StringKey.html" target="_top" title="../btree/StringKey.html" xlink:actuate="onRequest"
           xlink:href="../btree/StringKey.html" xlink:show="new" xlink:title="../btree/StringKey.html"
           xlink:type="simple">
            <rect fill="#FEFECE" filter="url(#fe0hrr43kabpq)" height="84.3516" id="btree.StringKey"
                  style="stroke: #A80036; stroke-width: 1.5;" width="137" x="18.5" y="106"/>
            <ellipse cx="51.5" cy="124.9688" fill="#ADD1B2" rx="11" ry="11"
                     style="stroke: #A80036; stroke-width: 1.0;"/>
            <path d="M54.4688,130.6094 Q53.8906,130.9063 53.25,131.0469 Q52.6094,131.2031 51.9063,131.2031 Q49.4063,131.2031 48.0781,129.5625 Q46.7656,127.9063 46.7656,124.7813 Q46.7656,121.6563 48.0781,120 Q49.4063,118.3438 51.9063,118.3438 Q52.6094,118.3438 53.25,118.5 Q53.9063,118.6563 54.4688,118.9531 L54.4688,121.6719 Q53.8438,121.0938 53.25,120.8281 Q52.6563,120.5469 52.0313,120.5469 Q50.6875,120.5469 50,121.625 Q49.3125,122.6875 49.3125,124.7813 Q49.3125,126.875 50,127.9531 Q50.6875,129.0156 52.0313,129.0156 Q52.6563,129.0156 53.25,128.75 Q53.8438,128.4688 54.4688,127.8906 L54.4688,130.6094 Z "/>
            <text fill="#000000" font-family="sans-serif" font-size="14" lengthAdjust="spacingAndGlyphs" textLength="65"
                  x="69.5" y="123.9951">StringKey
            </text>
            <text fill="#000000" font-family="sans-serif" font-size="10" lengthAdjust="spacingAndGlyphs" textLength="26"
                  x="89" y="136.5791">btree
            </text>
            <line style="stroke: #A80036; stroke-width: 1.5;" x1="19.5" x2="154.5" y1="143.9375" y2="143.9375"/>
            <ellipse cx="29.5" cy="154.9375" fill="#84BE84" rx="3" ry="3" style="stroke: #038048; stroke-width: 1.0;"/>
            <text fill="#000000" font-family="sans-serif" font-size="11" lengthAdjust="spacingAndGlyphs" textLength="96"
                  x="38.5" y="158.1479">StringKey(String)
            </text>
            <ellipse cx="29.5" cy="167.7422" fill="#84BE84" rx="3" ry="3" style="stroke: #038048; stroke-width: 1.0;"/>
            <text fill="#000000" font-family="sans-serif" font-size="11" lengthAdjust="spacingAndGlyphs" textLength="88"
                  x="38.5" y="170.9526">getKey(): String
            </text>
            <ellipse cx="29.5" cy="180.5469" fill="#84BE84" rx="3" ry="3" style="stroke: #038048; stroke-width: 1.0;"/>
            <text fill="#000000" font-family="sans-serif" font-size="11" lengthAdjust="spacingAndGlyphs"
                  textLength="111" x="38.5" y="183.7573">setKey(String): void
            </text>
        </a><!--MD5=[8fcd1db7acc05662c3336a98ff49b9df]
class btree.KeyClass-->
        <a href="../btree/KeyClass.html" target="_top" title="../btree/KeyClass.html" xlink:actuate="onRequest"
           xlink:href="../btree/KeyClass.html" xlink:show="new" xlink:title="../btree/KeyClass.html"
           xlink:type="simple">
            <rect fill="#FEFECE" filter="url(#fe0hrr43kabpq)" height="37.9375" id="btree.KeyClass"
                  style="stroke: #A80036; stroke-width: 1.5;" width="94" x="40" y="8"/>
            <ellipse cx="55" cy="26.9688" fill="#A9DCDF" rx="11" ry="11" style="stroke: #A80036; stroke-width: 1.0;"/>
            <path d="M55.1094,22.3125 L53.9531,27.3906 L56.2813,27.3906 L55.1094,22.3125 Z M53.625,20.0781 L56.6094,20.0781 L59.9688,32.4688 L57.5156,32.4688 L56.75,29.4063 L53.4688,29.4063 L52.7188,32.4688 L50.2813,32.4688 L53.625,20.0781 Z "/>
            <text fill="#000000" font-family="sans-serif" font-size="14" font-style="italic"
                  lengthAdjust="spacingAndGlyphs" textLength="62" x="69" y="25.9951">KeyClass
            </text>
            <text fill="#000000" font-family="sans-serif" font-size="10" font-style="italic"
                  lengthAdjust="spacingAndGlyphs" textLength="26" x="87" y="38.5791">btree
            </text>
        </a><!--MD5=[8c88de422b59f35a8c6e4efe7043e2f0]
reverse link btree.KeyClass to btree.StringKey-->
        <path d="M87,66.259 C87,78.9194 87,93.0012 87,105.8605 " fill="none" id="btree.KeyClass&lt;-btree.StringKey"
              style="stroke: #A80036; stroke-width: 1.0;"/>
        <polygon fill="none" points="80.0001,66.1728,87,46.1728,94.0001,66.1728,80.0001,66.1728"
                 style="stroke: #A80036; stroke-width: 1.0;"/>
        <text fill="#888888" font-family="sans-serif" font-size="10" lengthAdjust="spacingAndGlyphs" textLength="186"
              x="0" y="209.2822">UMLDoclet 2.0.7, PlantUML 1.2019.12
        </text><!--MD5=[1a747de7839c39cadef56f29d3eae63e]
@startuml
    set namespaceSeparator none
    hide empty fields
    hide empty methods

    class "<size:14>StringKey\n<size:10>btree" as btree.StringKey [[../btree/StringKey.html]] {
        +StringKey(String)
        +getKey(): String
        +setKey(String): void
    }

    abstract class "<size:14>KeyClass\n<size:10>btree" as btree.KeyClass [[../btree/KeyClass.html]]

    btree.KeyClass <|- - btree.StringKey

    center footer UMLDoclet 2.0.7, PlantUML 1.2019.12
@enduml

PlantUML version 1.2019.12(Sun Nov 03 03:24:54 MST 2019)
(APACHE source distribution)
Java Runtime: Java(TM) SE Runtime Environment
JVM: Java HotSpot(TM) 64-Bit Server VM
Java Version: 11.0.6+8-LTS
Operating System: Linux
Default Encoding: UTF-8
Language: en
Country: US
-->
    </g>
</svg>