<?xml version="1.0" encoding="UTF-8" standalone="no"?>
<svg xmlns="http://www.w3.org/2000/svg" xmlns:xlink="http://www.w3.org/1999/xlink"
     contentScriptType="application/ecmascript" contentStyleType="text/css" height="235px" preserveAspectRatio="none"
     style="width:198px;height:235px;" version="1.1" viewBox="0 0 198 235" width="198px" zoomAndPan="magnify">
    <defs>
        <filter height="300%" id="f1nb4c2etwpixr" width="300%" x="-1" y="-1">
            <feGaussianBlur result="blurOut" stdDeviation="2.0"/>
            <feColorMatrix in="blurOut" result="blurOut2" type="matrix"
                           values="0 0 0 0 0 0 0 0 0 0 0 0 0 0 0 0 0 0 .4 0"/>
            <feOffset dx="4.0" dy="4.0" in="blurOut2" result="blurOut3"/>
            <feBlend in="SourceGraphic" in2="blurOut3" mode="normal"/>
        </filter>
    </defs>
    <g><!--MD5=[37bf28c93900f08add8520dca2d21289]
class btree.IntegerKey-->
        <a href="../btree/IntegerKey.html" target="_top" title="../btree/IntegerKey.html" xlink:actuate="onRequest"
           xlink:href="../btree/IntegerKey.html" xlink:show="new" xlink:title="../btree/IntegerKey.html"
           xlink:type="simple">
            <rect fill="#FEFECE" filter="url(#f1nb4c2etwpixr)" height="97.1563" id="btree.IntegerKey"
                  style="stroke: #A80036; stroke-width: 1.5;" width="143" x="15.5" y="106"/>
            <ellipse cx="47.15" cy="124.9688" fill="#ADD1B2" rx="11" ry="11"
                     style="stroke: #A80036; stroke-width: 1.0;"/>
            <path d="M50.1188,130.6094 Q49.5406,130.9063 48.9,131.0469 Q48.2594,131.2031 47.5563,131.2031 Q45.0563,131.2031 43.7281,129.5625 Q42.4156,127.9063 42.4156,124.7813 Q42.4156,121.6563 43.7281,120 Q45.0563,118.3438 47.5563,118.3438 Q48.2594,118.3438 48.9,118.5 Q49.5563,118.6563 50.1188,118.9531 L50.1188,121.6719 Q49.4938,121.0938 48.9,120.8281 Q48.3063,120.5469 47.6813,120.5469 Q46.3375,120.5469 45.65,121.625 Q44.9625,122.6875 44.9625,124.7813 Q44.9625,126.875 45.65,127.9531 Q46.3375,129.0156 47.6813,129.0156 Q48.3063,129.0156 48.9,128.75 Q49.4938,128.4688 50.1188,127.8906 L50.1188,130.6094 Z "/>
            <text fill="#000000" font-family="sans-serif" font-size="14" lengthAdjust="spacingAndGlyphs" textLength="74"
                  x="64.85" y="123.9951">IntegerKey
            </text>
            <text fill="#000000" font-family="sans-serif" font-size="10" lengthAdjust="spacingAndGlyphs" textLength="26"
                  x="88.85" y="136.5791">btree
            </text>
            <line style="stroke: #A80036; stroke-width: 1.5;" x1="16.5" x2="157.5" y1="143.9375" y2="143.9375"/>
            <ellipse cx="26.5" cy="154.9375" fill="#84BE84" rx="3" ry="3" style="stroke: #038048; stroke-width: 1.0;"/>
            <text fill="#000000" font-family="sans-serif" font-size="11" lengthAdjust="spacingAndGlyphs"
                  textLength="108" x="35.5" y="158.1479">IntegerKey(Integer)
            </text>
            <ellipse cx="26.5" cy="167.7422" fill="#84BE84" rx="3" ry="3" style="stroke: #038048; stroke-width: 1.0;"/>
            <text fill="#000000" font-family="sans-serif" font-size="11" lengthAdjust="spacingAndGlyphs" textLength="82"
                  x="35.5" y="170.9526">IntegerKey(int)
            </text>
            <ellipse cx="26.5" cy="180.5469" fill="#84BE84" rx="3" ry="3" style="stroke: #038048; stroke-width: 1.0;"/>
            <text fill="#000000" font-family="sans-serif" font-size="11" lengthAdjust="spacingAndGlyphs" textLength="94"
                  x="35.5" y="183.7573">getKey(): Integer
            </text>
            <ellipse cx="26.5" cy="193.3516" fill="#84BE84" rx="3" ry="3" style="stroke: #038048; stroke-width: 1.0;"/>
            <text fill="#000000" font-family="sans-serif" font-size="11" lengthAdjust="spacingAndGlyphs"
                  textLength="117" x="35.5" y="196.562">setKey(Integer): void
            </text>
        </a><!--MD5=[8fcd1db7acc05662c3336a98ff49b9df]
class btree.KeyClass-->
        <a href="../btree/KeyClass.html" target="_top" title="../btree/KeyClass.html" xlink:actuate="onRequest"
           xlink:href="../btree/KeyClass.html" xlink:show="new" xlink:title="../btree/KeyClass.html"
           xlink:type="simple">
            <rect fill="#FEFECE" filter="url(#f1nb4c2etwpixr)" height="37.9375" id="btree.KeyClass"
                  style="stroke: #A80036; stroke-width: 1.5;" width="94" x="40" y="8"/>
            <ellipse cx="55" cy="26.9688" fill="#A9DCDF" rx="11" ry="11" style="stroke: #A80036; stroke-width: 1.0;"/>
            <path d="M55.1094,22.3125 L53.9531,27.3906 L56.2813,27.3906 L55.1094,22.3125 Z M53.625,20.0781 L56.6094,20.0781 L59.9688,32.4688 L57.5156,32.4688 L56.75,29.4063 L53.4688,29.4063 L52.7188,32.4688 L50.2813,32.4688 L53.625,20.0781 Z "/>
            <text fill="#000000" font-family="sans-serif" font-size="14" font-style="italic"
                  lengthAdjust="spacingAndGlyphs" textLength="62" x="69" y="25.9951">KeyClass
            </text>
            <text fill="#000000" font-family="sans-serif" font-size="10" font-style="italic"
                  lengthAdjust="spacingAndGlyphs" textLength="26" x="87" y="38.5791">btree
            </text>
        </a><!--MD5=[401090f8ec89dea55d0a0076b96eee41]
reverse link btree.KeyClass to btree.IntegerKey-->
        <path d="M87,66.4138 C87,78.8609 87,92.7643 87,105.7811 " fill="none" id="btree.KeyClass&lt;-btree.IntegerKey"
              style="stroke: #A80036; stroke-width: 1.0;"/>
        <polygon fill="none" points="80.0001,66.0881,87,46.088,94.0001,66.088,80.0001,66.0881"
                 style="stroke: #A80036; stroke-width: 1.0;"/>
        <text fill="#888888" font-family="sans-serif" font-size="10" lengthAdjust="spacingAndGlyphs" textLength="186"
              x="0" y="222.2822">UMLDoclet 2.0.7, PlantUML 1.2019.12
        </text><!--MD5=[9b14f6b6b705fdd30f7e8779137e4e97]
@startuml
    set namespaceSeparator none
    hide empty fields
    hide empty methods

    class "<size:14>IntegerKey\n<size:10>btree" as btree.IntegerKey [[../btree/IntegerKey.html]] {
        +IntegerKey(Integer)
        +IntegerKey(int)
        +getKey(): Integer
        +setKey(Integer): void
    }

    abstract class "<size:14>KeyClass\n<size:10>btree" as btree.KeyClass [[../btree/KeyClass.html]]

    btree.KeyClass <|- - btree.IntegerKey

    center footer UMLDoclet 2.0.7, PlantUML 1.2019.12
@enduml

PlantUML version 1.2019.12(Sun Nov 03 03:24:54 MST 2019)
(APACHE source distribution)
Java Runtime: Java(TM) SE Runtime Environment
JVM: Java HotSpot(TM) 64-Bit Server VM
Java Version: 11.0.6+8-LTS
Operating System: Linux
Default Encoding: UTF-8
Language: en
Country: US
-->
    </g>
</svg>