<?xml version="1.0" encoding="UTF-8" standalone="no"?>
<svg xmlns="http://www.w3.org/2000/svg" xmlns:xlink="http://www.w3.org/1999/xlink"
     contentScriptType="application/ecmascript" contentStyleType="text/css" height="210px" preserveAspectRatio="none"
     style="width:270px;height:210px;" version="1.1" viewBox="0 0 270 210" width="270px" zoomAndPan="magnify">
    <defs>
        <filter height="300%" id="fobaq0ry4lgm2" width="300%" x="-1" y="-1">
            <feGaussianBlur result="blurOut" stdDeviation="2.0"/>
            <feColorMatrix in="blurOut" result="blurOut2" type="matrix"
                           values="0 0 0 0 0 0 0 0 0 0 0 0 0 0 0 0 0 0 .4 0"/>
            <feOffset dx="4.0" dy="4.0" in="blurOut2" result="blurOut3"/>
            <feBlend in="SourceGraphic" in2="blurOut3" mode="normal"/>
        </filter>
    </defs>
    <g><!--MD5=[4263e0871d6ad31bc870f9570b03ade7]
class btree.AddFileEntryException-->
        <a href="../btree/AddFileEntryException.html" target="_top" title="../btree/AddFileEntryException.html"
           xlink:actuate="onRequest" xlink:href="../btree/AddFileEntryException.html" xlink:show="new"
           xlink:title="../btree/AddFileEntryException.html" xlink:type="simple">
            <rect fill="#FEFECE" filter="url(#fobaq0ry4lgm2)" height="71.5469" id="btree.AddFileEntryException"
                  style="stroke: #A80036; stroke-width: 1.5;" width="253" x="6" y="106"/>
            <ellipse cx="51.75" cy="124.9688" fill="#ADD1B2" rx="11" ry="11"
                     style="stroke: #A80036; stroke-width: 1.0;"/>
            <path d="M54.7188,130.6094 Q54.1406,130.9063 53.5,131.0469 Q52.8594,131.2031 52.1563,131.2031 Q49.6563,131.2031 48.3281,129.5625 Q47.0156,127.9063 47.0156,124.7813 Q47.0156,121.6563 48.3281,120 Q49.6563,118.3438 52.1563,118.3438 Q52.8594,118.3438 53.5,118.5 Q54.1563,118.6563 54.7188,118.9531 L54.7188,121.6719 Q54.0938,121.0938 53.5,120.8281 Q52.9063,120.5469 52.2813,120.5469 Q50.9375,120.5469 50.25,121.625 Q49.5625,122.6875 49.5625,124.7813 Q49.5625,126.875 50.25,127.9531 Q50.9375,129.0156 52.2813,129.0156 Q52.9063,129.0156 53.5,128.75 Q54.0938,128.4688 54.7188,127.8906 L54.7188,130.6094 Z "/>
            <text fill="#000000" font-family="sans-serif" font-size="14" lengthAdjust="spacingAndGlyphs"
                  textLength="153" x="72.25" y="123.9951">AddFileEntryException
            </text>
            <text fill="#000000" font-family="sans-serif" font-size="10" lengthAdjust="spacingAndGlyphs" textLength="26"
                  x="135.75" y="136.5791">btree
            </text>
            <line style="stroke: #A80036; stroke-width: 1.5;" x1="7" x2="258" y1="143.9375" y2="143.9375"/>
            <ellipse cx="17" cy="154.9375" fill="#84BE84" rx="3" ry="3" style="stroke: #038048; stroke-width: 1.0;"/>
            <text fill="#000000" font-family="sans-serif" font-size="11" lengthAdjust="spacingAndGlyphs"
                  textLength="131" x="26" y="158.1479">AddFileEntryException()
            </text>
            <ellipse cx="17" cy="167.7422" fill="#84BE84" rx="3" ry="3" style="stroke: #038048; stroke-width: 1.0;"/>
            <text fill="#000000" font-family="sans-serif" font-size="11" lengthAdjust="spacingAndGlyphs"
                  textLength="227" x="26" y="170.9526">AddFileEntryException(Exception, String)
            </text>
        </a><!--MD5=[2a7cd8221fe6583b4d4c6786e4469311]
class chainexception.ChainException-->
        <a href="../chainexception/ChainException.html" target="_top" title="../chainexception/ChainException.html"
           xlink:actuate="onRequest" xlink:href="../chainexception/ChainException.html" xlink:show="new"
           xlink:title="../chainexception/ChainException.html" xlink:type="simple">
            <rect fill="#FEFECE" filter="url(#fobaq0ry4lgm2)" height="37.9375" id="chainexception.ChainException"
                  style="stroke: #A80036; stroke-width: 1.5;" width="139" x="63" y="8"/>
            <ellipse cx="78" cy="26.9688" fill="#ADD1B2" rx="11" ry="11" style="stroke: #A80036; stroke-width: 1.0;"/>
            <path d="M80.9688,32.6094 Q80.3906,32.9063 79.75,33.0469 Q79.1094,33.2031 78.4063,33.2031 Q75.9063,33.2031 74.5781,31.5625 Q73.2656,29.9063 73.2656,26.7813 Q73.2656,23.6563 74.5781,22 Q75.9063,20.3438 78.4063,20.3438 Q79.1094,20.3438 79.75,20.5 Q80.4063,20.6563 80.9688,20.9531 L80.9688,23.6719 Q80.3438,23.0938 79.75,22.8281 Q79.1563,22.5469 78.5313,22.5469 Q77.1875,22.5469 76.5,23.625 Q75.8125,24.6875 75.8125,26.7813 Q75.8125,28.875 76.5,29.9531 Q77.1875,31.0156 78.5313,31.0156 Q79.1563,31.0156 79.75,30.75 Q80.3438,30.4688 80.9688,29.8906 L80.9688,32.6094 Z "/>
            <text fill="#000000" font-family="sans-serif" font-size="14" lengthAdjust="spacingAndGlyphs"
                  textLength="107" x="92" y="25.9951">ChainException
            </text>
            <text fill="#000000" font-family="sans-serif" font-size="10" lengthAdjust="spacingAndGlyphs" textLength="72"
                  x="109.5" y="38.5791">chainexception
            </text>
        </a><!--MD5=[b6eed8a24c9ffc27469baa32ae466c1f]
reverse link chainexception.ChainException to btree.AddFileEntryException-->
        <path d="M132.5,66.5888 C132.5,79.3573 132.5,93.4348 132.5,105.935 " fill="none"
              id="chainexception.ChainException&lt;-btree.AddFileEntryException"
              style="stroke: #A80036; stroke-width: 1.0;"/>
        <polygon fill="none" points="125.5001,66.2484,132.5,46.2484,139.5001,66.2484,125.5001,66.2484"
                 style="stroke: #A80036; stroke-width: 1.0;"/>
        <text fill="#888888" font-family="sans-serif" font-size="10" lengthAdjust="spacingAndGlyphs" textLength="186"
              x="45.5" y="197.2822">UMLDoclet 2.0.7, PlantUML 1.2019.12
        </text><!--MD5=[978c676c604acedd1ac242347411b914]
@startuml
    set namespaceSeparator none
    hide empty fields
    hide empty methods

    class "<size:14>AddFileEntryException\n<size:10>btree" as btree.AddFileEntryException [[../btree/AddFileEntryException.html]] {
        +AddFileEntryException()
        +AddFileEntryException(Exception, String)
    }

    class "<size:14>ChainException\n<size:10>chainexception" as chainexception.ChainException [[../chainexception/ChainException.html]]

    chainexception.ChainException <|- - btree.AddFileEntryException

    center footer UMLDoclet 2.0.7, PlantUML 1.2019.12
@enduml

PlantUML version 1.2019.12(Sun Nov 03 03:24:54 MST 2019)
(APACHE source distribution)
Java Runtime: Java(TM) SE Runtime Environment
JVM: Java HotSpot(TM) 64-Bit Server VM
Java Version: 11.0.6+8-LTS
Operating System: Linux
Default Encoding: UTF-8
Language: en
Country: US
-->
    </g>
</svg>