<?xml version="1.0" encoding="UTF-8" standalone="no"?>
<svg xmlns="http://www.w3.org/2000/svg" xmlns:xlink="http://www.w3.org/1999/xlink"
     contentScriptType="application/ecmascript" contentStyleType="text/css" height="121px" preserveAspectRatio="none"
     style="width:198px;height:121px;" version="1.1" viewBox="0 0 198 121" width="198px" zoomAndPan="magnify">
    <defs>
        <filter height="300%" id="fugb0gh7l24qz" width="300%" x="-1" y="-1">
            <feGaussianBlur result="blurOut" stdDeviation="2.0"/>
            <feColorMatrix in="blurOut" result="blurOut2" type="matrix"
                           values="0 0 0 0 0 0 0 0 0 0 0 0 0 0 0 0 0 0 .4 0"/>
            <feOffset dx="4.0" dy="4.0" in="blurOut2" result="blurOut3"/>
            <feBlend in="SourceGraphic" in2="blurOut3" mode="normal"/>
        </filter>
    </defs>
    <g><!--MD5=[5163b6e069fda2b8a27e39a538564af6]
class btree.NodeType-->
        <a href="../btree/NodeType.html" target="_top" title="../btree/NodeType.html" xlink:actuate="onRequest"
           xlink:href="../btree/NodeType.html" xlink:show="new" xlink:title="../btree/NodeType.html"
           xlink:type="simple">
            <rect fill="#FEFECE" filter="url(#fugb0gh7l24qz)" height="84.3516" id="btree.NodeType"
                  style="stroke: #A80036; stroke-width: 1.5;" width="109" x="38.5" y="7"/>
            <ellipse cx="56.2" cy="25.9688" fill="#ADD1B2" rx="11" ry="11" style="stroke: #A80036; stroke-width: 1.0;"/>
            <path d="M59.1688,31.6094 Q58.5906,31.9063 57.95,32.0469 Q57.3094,32.2031 56.6063,32.2031 Q54.1063,32.2031 52.7781,30.5625 Q51.4656,28.9063 51.4656,25.7813 Q51.4656,22.6563 52.7781,21 Q54.1063,19.3438 56.6063,19.3438 Q57.3094,19.3438 57.95,19.5 Q58.6063,19.6563 59.1688,19.9531 L59.1688,22.6719 Q58.5438,22.0938 57.95,21.8281 Q57.3563,21.5469 56.7313,21.5469 Q55.3875,21.5469 54.7,22.625 Q54.0125,23.6875 54.0125,25.7813 Q54.0125,27.875 54.7,28.9531 Q55.3875,30.0156 56.7313,30.0156 Q57.3563,30.0156 57.95,29.75 Q58.5438,29.4688 59.1688,28.8906 L59.1688,31.6094 Z "/>
            <text fill="#000000" font-family="sans-serif" font-size="14" lengthAdjust="spacingAndGlyphs" textLength="71"
                  x="70.8" y="24.9951">NodeType
            </text>
            <text fill="#000000" font-family="sans-serif" font-size="10" lengthAdjust="spacingAndGlyphs" textLength="26"
                  x="93.3" y="37.5791">btree
            </text>
            <line style="stroke: #A80036; stroke-width: 1.5;" x1="39.5" x2="146.5" y1="44.9375" y2="44.9375"/>
            <ellipse cx="49.5" cy="55.9375" fill="none" rx="3" ry="3" style="stroke: #038048; stroke-width: 1.0;"/>
            <text fill="#000000" font-family="sans-serif" font-size="11" lengthAdjust="spacingAndGlyphs"
                  text-decoration="underline" textLength="71" x="58.5" y="59.1479">INDEX: short
            </text>
            <ellipse cx="49.5" cy="68.7422" fill="none" rx="3" ry="3" style="stroke: #038048; stroke-width: 1.0;"/>
            <text fill="#000000" font-family="sans-serif" font-size="11" lengthAdjust="spacingAndGlyphs"
                  text-decoration="underline" textLength="64" x="58.5" y="71.9526">LEAF: short
            </text>
            <ellipse cx="49.5" cy="81.5469" fill="none" rx="3" ry="3" style="stroke: #038048; stroke-width: 1.0;"/>
            <text fill="#000000" font-family="sans-serif" font-size="11" lengthAdjust="spacingAndGlyphs"
                  text-decoration="underline" textLength="83" x="58.5" y="84.7573">BTHEAD: short
            </text>
        </a>
        <text fill="#888888" font-family="sans-serif" font-size="10" lengthAdjust="spacingAndGlyphs" textLength="186"
              x="0" y="107.6338">UMLDoclet 2.0.7, PlantUML 1.2019.12
        </text><!--MD5=[7677c335d68b70dd1bbaf686760b9f7a]
@startuml
    set namespaceSeparator none
    hide empty fields
    hide empty methods

    class "<size:14>NodeType\n<size:10>btree" as btree.NodeType [[../btree/NodeType.html]] {
        {static} +INDEX: short
        {static} +LEAF: short
        {static} +BTHEAD: short
    }

    center footer UMLDoclet 2.0.7, PlantUML 1.2019.12
@enduml

PlantUML version 1.2019.12(Sun Nov 03 03:24:54 MST 2019)
(APACHE source distribution)
Java Runtime: Java(TM) SE Runtime Environment
JVM: Java HotSpot(TM) 64-Bit Server VM
Java Version: 11.0.6+8-LTS
Operating System: Linux
Default Encoding: UTF-8
Language: en
Country: US
-->
    </g>
</svg>