<?xml version="1.0" encoding="UTF-8" standalone="no"?>
<svg xmlns="http://www.w3.org/2000/svg" xmlns:xlink="http://www.w3.org/1999/xlink"
     contentScriptType="application/ecmascript" contentStyleType="text/css" height="286px" preserveAspectRatio="none"
     style="width:227px;height:286px;" version="1.1" viewBox="0 0 227 286" width="227px" zoomAndPan="magnify">
    <defs>
        <filter height="300%" id="fqgm966undpny" width="300%" x="-1" y="-1">
            <feGaussianBlur result="blurOut" stdDeviation="2.0"/>
            <feColorMatrix in="blurOut" result="blurOut2" type="matrix"
                           values="0 0 0 0 0 0 0 0 0 0 0 0 0 0 0 0 0 0 .4 0"/>
            <feOffset dx="4.0" dy="4.0" in="blurOut2" result="blurOut3"/>
            <feBlend in="SourceGraphic" in2="blurOut3" mode="normal"/>
        </filter>
    </defs>
    <g><!--MD5=[7fddf5fcb25b9aab0a11b2dc49854e76]
class btree.BTLeafPage-->
        <a href="../btree/BTLeafPage.html" target="_top" title="../btree/BTLeafPage.html" xlink:actuate="onRequest"
           xlink:href="../btree/BTLeafPage.html" xlink:show="new" xlink:title="../btree/BTLeafPage.html"
           xlink:type="simple">
            <rect fill="#FEFECE" filter="url(#fqgm966undpny)" height="148.375" id="btree.BTLeafPage"
                  style="stroke: #A80036; stroke-width: 1.5;" width="210" x="6" y="106"/>
            <ellipse cx="65.75" cy="124.9688" fill="#ADD1B2" rx="11" ry="11"
                     style="stroke: #A80036; stroke-width: 1.0;"/>
            <path d="M68.7188,130.6094 Q68.1406,130.9063 67.5,131.0469 Q66.8594,131.2031 66.1563,131.2031 Q63.6563,131.2031 62.3281,129.5625 Q61.0156,127.9063 61.0156,124.7813 Q61.0156,121.6563 62.3281,120 Q63.6563,118.3438 66.1563,118.3438 Q66.8594,118.3438 67.5,118.5 Q68.1563,118.6563 68.7188,118.9531 L68.7188,121.6719 Q68.0938,121.0938 67.5,120.8281 Q66.9063,120.5469 66.2813,120.5469 Q64.9375,120.5469 64.25,121.625 Q63.5625,122.6875 63.5625,124.7813 Q63.5625,126.875 64.25,127.9531 Q64.9375,129.0156 66.2813,129.0156 Q66.9063,129.0156 67.5,128.75 Q68.0938,128.4688 68.7188,127.8906 L68.7188,130.6094 Z "/>
            <text fill="#000000" font-family="sans-serif" font-size="14" lengthAdjust="spacingAndGlyphs" textLength="82"
                  x="86.25" y="123.9951">BTLeafPage
            </text>
            <text fill="#000000" font-family="sans-serif" font-size="10" lengthAdjust="spacingAndGlyphs" textLength="26"
                  x="114.25" y="136.5791">btree
            </text>
            <line style="stroke: #A80036; stroke-width: 1.5;" x1="7" x2="215" y1="143.9375" y2="143.9375"/>
            <ellipse cx="17" cy="154.9375" fill="#84BE84" rx="3" ry="3" style="stroke: #038048; stroke-width: 1.0;"/>
            <text fill="#000000" font-family="sans-serif" font-size="11" lengthAdjust="spacingAndGlyphs"
                  textLength="135" x="26" y="158.1479">BTLeafPage(PageId, int)
            </text>
            <ellipse cx="17" cy="167.7422" fill="#84BE84" rx="3" ry="3" style="stroke: #038048; stroke-width: 1.0;"/>
            <text fill="#000000" font-family="sans-serif" font-size="11" lengthAdjust="spacingAndGlyphs"
                  textLength="125" x="26" y="170.9526">BTLeafPage(Page, int)
            </text>
            <ellipse cx="17" cy="180.5469" fill="#84BE84" rx="3" ry="3" style="stroke: #038048; stroke-width: 1.0;"/>
            <text fill="#000000" font-family="sans-serif" font-size="11" lengthAdjust="spacingAndGlyphs" textLength="89"
                  x="26" y="183.7573">BTLeafPage(int)
            </text>
            <ellipse cx="17" cy="193.3516" fill="#84BE84" rx="3" ry="3" style="stroke: #038048; stroke-width: 1.0;"/>
            <text fill="#000000" font-family="sans-serif" font-size="11" lengthAdjust="spacingAndGlyphs"
                  textLength="184" x="26" y="196.562">insertRecord(KeyClass, RID): RID
            </text>
            <ellipse cx="17" cy="206.1563" fill="#84BE84" rx="3" ry="3" style="stroke: #038048; stroke-width: 1.0;"/>
            <text fill="#000000" font-family="sans-serif" font-size="11" lengthAdjust="spacingAndGlyphs"
                  textLength="152" x="26" y="209.3667">getFirst(RID): KeyDataEntry
            </text>
            <ellipse cx="17" cy="218.9609" fill="#84BE84" rx="3" ry="3" style="stroke: #038048; stroke-width: 1.0;"/>
            <text fill="#000000" font-family="sans-serif" font-size="11" lengthAdjust="spacingAndGlyphs"
                  textLength="152" x="26" y="222.1714">getNext(RID): KeyDataEntry
            </text>
            <ellipse cx="17" cy="231.7656" fill="#84BE84" rx="3" ry="3" style="stroke: #038048; stroke-width: 1.0;"/>
            <text fill="#000000" font-family="sans-serif" font-size="11" lengthAdjust="spacingAndGlyphs"
                  textLength="170" x="26" y="234.9761">getCurrent(RID): KeyDataEntry
            </text>
            <ellipse cx="17" cy="244.5703" fill="#84BE84" rx="3" ry="3" style="stroke: #038048; stroke-width: 1.0;"/>
            <text fill="#000000" font-family="sans-serif" font-size="11" lengthAdjust="spacingAndGlyphs"
                  textLength="182" x="26" y="247.7808">delEntry(KeyDataEntry): boolean
            </text>
        </a><!--MD5=[2274ad5821e56c5f365d5bcbb84652dc]
class btree.BTSortedPage-->
        <a href="../btree/BTSortedPage.html" target="_top" title="../btree/BTSortedPage.html" xlink:actuate="onRequest"
           xlink:href="../btree/BTSortedPage.html" xlink:show="new" xlink:title="../btree/BTSortedPage.html"
           xlink:type="simple">
            <rect fill="#FEFECE" filter="url(#fqgm966undpny)" height="37.9375" id="btree.BTSortedPage"
                  style="stroke: #A80036; stroke-width: 1.5;" width="132" x="45" y="8"/>
            <ellipse cx="60" cy="26.9688" fill="#ADD1B2" rx="11" ry="11" style="stroke: #A80036; stroke-width: 1.0;"/>
            <path d="M62.9688,32.6094 Q62.3906,32.9063 61.75,33.0469 Q61.1094,33.2031 60.4063,33.2031 Q57.9063,33.2031 56.5781,31.5625 Q55.2656,29.9063 55.2656,26.7813 Q55.2656,23.6563 56.5781,22 Q57.9063,20.3438 60.4063,20.3438 Q61.1094,20.3438 61.75,20.5 Q62.4063,20.6563 62.9688,20.9531 L62.9688,23.6719 Q62.3438,23.0938 61.75,22.8281 Q61.1563,22.5469 60.5313,22.5469 Q59.1875,22.5469 58.5,23.625 Q57.8125,24.6875 57.8125,26.7813 Q57.8125,28.875 58.5,29.9531 Q59.1875,31.0156 60.5313,31.0156 Q61.1563,31.0156 61.75,30.75 Q62.3438,30.4688 62.9688,29.8906 L62.9688,32.6094 Z "/>
            <text fill="#000000" font-family="sans-serif" font-size="14" lengthAdjust="spacingAndGlyphs"
                  textLength="100" x="74" y="25.9951">BTSortedPage
            </text>
            <text fill="#000000" font-family="sans-serif" font-size="10" lengthAdjust="spacingAndGlyphs" textLength="26"
                  x="111" y="38.5791">btree
            </text>
        </a><!--MD5=[b4629112fb581f4e717243bfc91cb0a3]
reverse link btree.BTSortedPage to btree.BTLeafPage-->
        <path d="M111,66.2748 C111,78.3766 111,92.1219 111,105.7707 " fill="none"
              id="btree.BTSortedPage&lt;-btree.BTLeafPage" style="stroke: #A80036; stroke-width: 1.0;"/>
        <polygon fill="none" points="104.0001,66.0682,111,46.0682,118.0001,66.0682,104.0001,66.0682"
                 style="stroke: #A80036; stroke-width: 1.0;"/>
        <text fill="#888888" font-family="sans-serif" font-size="10" lengthAdjust="spacingAndGlyphs" textLength="186"
              x="24" y="273.2822">UMLDoclet 2.0.7, PlantUML 1.2019.12
        </text><!--MD5=[109c6bec36f45be5fc92ad010b309d88]
@startuml
    set namespaceSeparator none
    hide empty fields
    hide empty methods

    class "<size:14>BTLeafPage\n<size:10>btree" as btree.BTLeafPage [[../btree/BTLeafPage.html]] {
        +BTLeafPage(PageId, int)
        +BTLeafPage(Page, int)
        +BTLeafPage(int)
        +insertRecord(KeyClass, RID): RID
        +getFirst(RID): KeyDataEntry
        +getNext(RID): KeyDataEntry
        +getCurrent(RID): KeyDataEntry
        +delEntry(KeyDataEntry): boolean
    }

    class "<size:14>BTSortedPage\n<size:10>btree" as btree.BTSortedPage [[../btree/BTSortedPage.html]]

    btree.BTSortedPage <|- - btree.BTLeafPage

    center footer UMLDoclet 2.0.7, PlantUML 1.2019.12
@enduml

PlantUML version 1.2019.12(Sun Nov 03 03:24:54 MST 2019)
(APACHE source distribution)
Java Runtime: Java(TM) SE Runtime Environment
JVM: Java HotSpot(TM) 64-Bit Server VM
Java Version: 11.0.6+8-LTS
Operating System: Linux
Default Encoding: UTF-8
Language: en
Country: US
-->
    </g>
</svg>