<?xml version="1.0" encoding="UTF-8" standalone="no"?>
<svg xmlns="http://www.w3.org/2000/svg" xmlns:xlink="http://www.w3.org/1999/xlink"
     contentScriptType="application/ecmascript" contentStyleType="text/css" height="222px" preserveAspectRatio="none"
     style="width:293px;height:222px;" version="1.1" viewBox="0 0 293 222" width="293px" zoomAndPan="magnify">
    <defs>
        <filter height="300%" id="fvqugo2o40paj" width="300%" x="-1" y="-1">
            <feGaussianBlur result="blurOut" stdDeviation="2.0"/>
            <feColorMatrix in="blurOut" result="blurOut2" type="matrix"
                           values="0 0 0 0 0 0 0 0 0 0 0 0 0 0 0 0 0 0 .4 0"/>
            <feOffset dx="4.0" dy="4.0" in="blurOut2" result="blurOut3"/>
            <feBlend in="SourceGraphic" in2="blurOut3" mode="normal"/>
        </filter>
    </defs>
    <g><!--MD5=[8da18b8795ff723cebc4a22c8e2f74fa]
class btree.LeafRedistributeException-->
        <a href="../btree/LeafRedistributeException.html" target="_top" title="../btree/LeafRedistributeException.html"
           xlink:actuate="onRequest" xlink:href="../btree/LeafRedistributeException.html" xlink:show="new"
           xlink:title="../btree/LeafRedistributeException.html" xlink:type="simple">
            <rect fill="#FEFECE" filter="url(#fvqugo2o40paj)" height="84.3516" id="btree.LeafRedistributeException"
                  style="stroke: #A80036; stroke-width: 1.5;" width="276" x="6" y="106"/>
            <ellipse cx="49.8" cy="124.9688" fill="#ADD1B2" rx="11" ry="11"
                     style="stroke: #A80036; stroke-width: 1.0;"/>
            <path d="M52.7688,130.6094 Q52.1906,130.9063 51.55,131.0469 Q50.9094,131.2031 50.2063,131.2031 Q47.7063,131.2031 46.3781,129.5625 Q45.0656,127.9063 45.0656,124.7813 Q45.0656,121.6563 46.3781,120 Q47.7063,118.3438 50.2063,118.3438 Q50.9094,118.3438 51.55,118.5 Q52.2063,118.6563 52.7688,118.9531 L52.7688,121.6719 Q52.1438,121.0938 51.55,120.8281 Q50.9563,120.5469 50.3313,120.5469 Q48.9875,120.5469 48.3,121.625 Q47.6125,122.6875 47.6125,124.7813 Q47.6125,126.875 48.3,127.9531 Q48.9875,129.0156 50.3313,129.0156 Q50.9563,129.0156 51.55,128.75 Q52.1438,128.4688 52.7688,127.8906 L52.7688,130.6094 Z "/>
            <text fill="#000000" font-family="sans-serif" font-size="14" lengthAdjust="spacingAndGlyphs"
                  textLength="180" x="70.2" y="123.9951">LeafRedistributeException
            </text>
            <text fill="#000000" font-family="sans-serif" font-size="10" lengthAdjust="spacingAndGlyphs" textLength="26"
                  x="147.2" y="136.5791">btree
            </text>
            <line style="stroke: #A80036; stroke-width: 1.5;" x1="7" x2="281" y1="143.9375" y2="143.9375"/>
            <ellipse cx="17" cy="154.9375" fill="#84BE84" rx="3" ry="3" style="stroke: #038048; stroke-width: 1.0;"/>
            <text fill="#000000" font-family="sans-serif" font-size="11" lengthAdjust="spacingAndGlyphs"
                  textLength="154" x="26" y="158.1479">LeafRedistributeException()
            </text>
            <ellipse cx="17" cy="167.7422" fill="#84BE84" rx="3" ry="3" style="stroke: #038048; stroke-width: 1.0;"/>
            <text fill="#000000" font-family="sans-serif" font-size="11" lengthAdjust="spacingAndGlyphs"
                  textLength="188" x="26" y="170.9526">LeafRedistributeException(String)
            </text>
            <ellipse cx="17" cy="180.5469" fill="#84BE84" rx="3" ry="3" style="stroke: #038048; stroke-width: 1.0;"/>
            <text fill="#000000" font-family="sans-serif" font-size="11" lengthAdjust="spacingAndGlyphs"
                  textLength="250" x="26" y="183.7573">LeafRedistributeException(Exception, String)
            </text>
        </a><!--MD5=[2a7cd8221fe6583b4d4c6786e4469311]
class chainexception.ChainException-->
        <a href="../chainexception/ChainException.html" target="_top" title="../chainexception/ChainException.html"
           xlink:actuate="onRequest" xlink:href="../chainexception/ChainException.html" xlink:show="new"
           xlink:title="../chainexception/ChainException.html" xlink:type="simple">
            <rect fill="#FEFECE" filter="url(#fvqugo2o40paj)" height="37.9375" id="chainexception.ChainException"
                  style="stroke: #A80036; stroke-width: 1.5;" width="139" x="74.5" y="8"/>
            <ellipse cx="89.5" cy="26.9688" fill="#ADD1B2" rx="11" ry="11" style="stroke: #A80036; stroke-width: 1.0;"/>
            <path d="M92.4688,32.6094 Q91.8906,32.9063 91.25,33.0469 Q90.6094,33.2031 89.9063,33.2031 Q87.4063,33.2031 86.0781,31.5625 Q84.7656,29.9063 84.7656,26.7813 Q84.7656,23.6563 86.0781,22 Q87.4063,20.3438 89.9063,20.3438 Q90.6094,20.3438 91.25,20.5 Q91.9063,20.6563 92.4688,20.9531 L92.4688,23.6719 Q91.8438,23.0938 91.25,22.8281 Q90.6563,22.5469 90.0313,22.5469 Q88.6875,22.5469 88,23.625 Q87.3125,24.6875 87.3125,26.7813 Q87.3125,28.875 88,29.9531 Q88.6875,31.0156 90.0313,31.0156 Q90.6563,31.0156 91.25,30.75 Q91.8438,30.4688 92.4688,29.8906 L92.4688,32.6094 Z "/>
            <text fill="#000000" font-family="sans-serif" font-size="14" lengthAdjust="spacingAndGlyphs"
                  textLength="107" x="103.5" y="25.9951">ChainException
            </text>
            <text fill="#000000" font-family="sans-serif" font-size="10" lengthAdjust="spacingAndGlyphs" textLength="72"
                  x="121" y="38.5791">chainexception
            </text>
        </a><!--MD5=[2dd3ec761f5ac72ecdee95438f854dbd]
reverse link chainexception.ChainException to btree.LeafRedistributeException-->
        <path d="M144,66.259 C144,78.9194 144,93.0012 144,105.8605 " fill="none"
              id="chainexception.ChainException&lt;-btree.LeafRedistributeException"
              style="stroke: #A80036; stroke-width: 1.0;"/>
        <polygon fill="none" points="137.0001,66.1728,144,46.1728,151.0001,66.1728,137.0001,66.1728"
                 style="stroke: #A80036; stroke-width: 1.0;"/>
        <text fill="#888888" font-family="sans-serif" font-size="10" lengthAdjust="spacingAndGlyphs" textLength="186"
              x="57" y="209.2822">UMLDoclet 2.0.7, PlantUML 1.2019.12
        </text><!--MD5=[c0e9bab5762bb4a049721f5f80086b95]
@startuml
    set namespaceSeparator none
    hide empty fields
    hide empty methods

    class "<size:14>LeafRedistributeException\n<size:10>btree" as btree.LeafRedistributeException [[../btree/LeafRedistributeException.html]] {
        +LeafRedistributeException()
        +LeafRedistributeException(String)
        +LeafRedistributeException(Exception, String)
    }

    class "<size:14>ChainException\n<size:10>chainexception" as chainexception.ChainException [[../chainexception/ChainException.html]]

    chainexception.ChainException <|- - btree.LeafRedistributeException

    center footer UMLDoclet 2.0.7, PlantUML 1.2019.12
@enduml

PlantUML version 1.2019.12(Sun Nov 03 03:24:54 MST 2019)
(APACHE source distribution)
Java Runtime: Java(TM) SE Runtime Environment
JVM: Java HotSpot(TM) 64-Bit Server VM
Java Version: 11.0.6+8-LTS
Operating System: Linux
Default Encoding: UTF-8
Language: en
Country: US
-->
    </g>
</svg>