<?xml version="1.0" encoding="UTF-8" standalone="no"?>
<svg xmlns="http://www.w3.org/2000/svg" xmlns:xlink="http://www.w3.org/1999/xlink"
     contentScriptType="application/ecmascript" contentStyleType="text/css" height="176px" preserveAspectRatio="none"
     style="width:198px;height:176px;" version="1.1" viewBox="0 0 198 176" width="198px" zoomAndPan="magnify">
    <defs>
        <filter height="300%" id="f1v6uehdqui7bq" width="300%" x="-1" y="-1">
            <feGaussianBlur result="blurOut" stdDeviation="2.0"/>
            <feColorMatrix in="blurOut" result="blurOut2" type="matrix"
                           values="0 0 0 0 0 0 0 0 0 0 0 0 0 0 0 0 0 0 .4 0"/>
            <feOffset dx="4.0" dy="4.0" in="blurOut2" result="blurOut3"/>
            <feBlend in="SourceGraphic" in2="blurOut3" mode="normal"/>
        </filter>
    </defs>
    <g><!--MD5=[b18403838f2180ffc52bcf39f00f94bd]
class btree.IndexData-->
        <a href="../btree/IndexData.html" target="_top" title="../btree/IndexData.html" xlink:actuate="onRequest"
           xlink:href="../btree/IndexData.html" xlink:show="new" xlink:title="../btree/IndexData.html"
           xlink:type="simple">
            <rect fill="#FEFECE" filter="url(#f1v6uehdqui7bq)" height="37.9375" id="btree.IndexData"
                  style="stroke: #A80036; stroke-width: 1.5;" width="101" x="36.5" y="106"/>
            <ellipse cx="51.5" cy="124.9688" fill="#ADD1B2" rx="11" ry="11"
                     style="stroke: #A80036; stroke-width: 1.0;"/>
            <path d="M54.4688,130.6094 Q53.8906,130.9063 53.25,131.0469 Q52.6094,131.2031 51.9063,131.2031 Q49.4063,131.2031 48.0781,129.5625 Q46.7656,127.9063 46.7656,124.7813 Q46.7656,121.6563 48.0781,120 Q49.4063,118.3438 51.9063,118.3438 Q52.6094,118.3438 53.25,118.5 Q53.9063,118.6563 54.4688,118.9531 L54.4688,121.6719 Q53.8438,121.0938 53.25,120.8281 Q52.6563,120.5469 52.0313,120.5469 Q50.6875,120.5469 50,121.625 Q49.3125,122.6875 49.3125,124.7813 Q49.3125,126.875 50,127.9531 Q50.6875,129.0156 52.0313,129.0156 Q52.6563,129.0156 53.25,128.75 Q53.8438,128.4688 54.4688,127.8906 L54.4688,130.6094 Z "/>
            <text fill="#000000" font-family="sans-serif" font-size="14" lengthAdjust="spacingAndGlyphs" textLength="69"
                  x="65.5" y="123.9951">IndexData
            </text>
            <text fill="#000000" font-family="sans-serif" font-size="10" lengthAdjust="spacingAndGlyphs" textLength="26"
                  x="87" y="136.5791">btree
            </text>
        </a><!--MD5=[619f0b0e126f5b9b41d25570e970d3fa]
class btree.DataClass-->
        <a href="../btree/DataClass.html" target="_top" title="../btree/DataClass.html" xlink:actuate="onRequest"
           xlink:href="../btree/DataClass.html" xlink:show="new" xlink:title="../btree/DataClass.html"
           xlink:type="simple">
            <rect fill="#FEFECE" filter="url(#f1v6uehdqui7bq)" height="37.9375" id="btree.DataClass"
                  style="stroke: #A80036; stroke-width: 1.5;" width="101" x="36.5" y="8"/>
            <ellipse cx="51.5" cy="26.9688" fill="#A9DCDF" rx="11" ry="11" style="stroke: #A80036; stroke-width: 1.0;"/>
            <path d="M51.6094,22.3125 L50.4531,27.3906 L52.7813,27.3906 L51.6094,22.3125 Z M50.125,20.0781 L53.1094,20.0781 L56.4688,32.4688 L54.0156,32.4688 L53.25,29.4063 L49.9688,29.4063 L49.2188,32.4688 L46.7813,32.4688 L50.125,20.0781 Z "/>
            <text fill="#000000" font-family="sans-serif" font-size="14" font-style="italic"
                  lengthAdjust="spacingAndGlyphs" textLength="69" x="65.5" y="25.9951">DataClass
            </text>
            <text fill="#000000" font-family="sans-serif" font-size="10" font-style="italic"
                  lengthAdjust="spacingAndGlyphs" textLength="26" x="87" y="38.5791">btree
            </text>
        </a><!--MD5=[7ce01a5ddfaf700e62283fc5136ca7df]
reverse link btree.DataClass to btree.IndexData-->
        <path d="M87,66.692 C87,80.1338 87,94.5458 87,105.6786 " fill="none" id="btree.DataClass&lt;-btree.IndexData"
              style="stroke: #A80036; stroke-width: 1.0;"/>
        <polygon fill="none" points="80.0001,66.3617,87,46.3616,94.0001,66.3616,80.0001,66.3617"
                 style="stroke: #A80036; stroke-width: 1.0;"/>
        <text fill="#888888" font-family="sans-serif" font-size="10" lengthAdjust="spacingAndGlyphs" textLength="186"
              x="0" y="163.2822">UMLDoclet 2.0.7, PlantUML 1.2019.12
        </text><!--MD5=[3450acf1810ec3b66f039acfb449050f]
@startuml
    set namespaceSeparator none
    hide empty fields
    hide empty methods

    class "<size:14>IndexData\n<size:10>btree" as btree.IndexData [[../btree/IndexData.html]] {
    }

    abstract class "<size:14>DataClass\n<size:10>btree" as btree.DataClass [[../btree/DataClass.html]]

    btree.DataClass <|- - btree.IndexData

    center footer UMLDoclet 2.0.7, PlantUML 1.2019.12
@enduml

PlantUML version 1.2019.12(Sun Nov 03 03:24:54 MST 2019)
(APACHE source distribution)
Java Runtime: Java(TM) SE Runtime Environment
JVM: Java HotSpot(TM) 64-Bit Server VM
Java Version: 11.0.6+8-LTS
Operating System: Linux
Default Encoding: UTF-8
Language: en
Country: US
-->
    </g>
</svg>