<?xml version="1.0" encoding="UTF-8" standalone="no"?>
<svg xmlns="http://www.w3.org/2000/svg" xmlns:xlink="http://www.w3.org/1999/xlink"
     contentScriptType="application/ecmascript" contentStyleType="text/css" height="222px" preserveAspectRatio="none"
     style="width:243px;height:222px;" version="1.1" viewBox="0 0 243 222" width="243px" zoomAndPan="magnify">
    <defs>
        <filter height="300%" id="f159xw43xunrgp" width="300%" x="-1" y="-1">
            <feGaussianBlur result="blurOut" stdDeviation="2.0"/>
            <feColorMatrix in="blurOut" result="blurOut2" type="matrix"
                           values="0 0 0 0 0 0 0 0 0 0 0 0 0 0 0 0 0 0 .4 0"/>
            <feOffset dx="4.0" dy="4.0" in="blurOut2" result="blurOut3"/>
            <feBlend in="SourceGraphic" in2="blurOut3" mode="normal"/>
        </filter>
    </defs>
    <g><!--MD5=[4b55e71b3b4250edea15bf1409a55820]
class btree.IteratorException-->
        <a href="../btree/IteratorException.html" target="_top" title="../btree/IteratorException.html"
           xlink:actuate="onRequest" xlink:href="../btree/IteratorException.html" xlink:show="new"
           xlink:title="../btree/IteratorException.html" xlink:type="simple">
            <rect fill="#FEFECE" filter="url(#f159xw43xunrgp)" height="84.3516" id="btree.IteratorException"
                  style="stroke: #A80036; stroke-width: 1.5;" width="226" x="6" y="106"/>
            <ellipse cx="56.25" cy="124.9688" fill="#ADD1B2" rx="11" ry="11"
                     style="stroke: #A80036; stroke-width: 1.0;"/>
            <path d="M59.2188,130.6094 Q58.6406,130.9063 58,131.0469 Q57.3594,131.2031 56.6563,131.2031 Q54.1563,131.2031 52.8281,129.5625 Q51.5156,127.9063 51.5156,124.7813 Q51.5156,121.6563 52.8281,120 Q54.1563,118.3438 56.6563,118.3438 Q57.3594,118.3438 58,118.5 Q58.6563,118.6563 59.2188,118.9531 L59.2188,121.6719 Q58.5938,121.0938 58,120.8281 Q57.4063,120.5469 56.7813,120.5469 Q55.4375,120.5469 54.75,121.625 Q54.0625,122.6875 54.0625,124.7813 Q54.0625,126.875 54.75,127.9531 Q55.4375,129.0156 56.7813,129.0156 Q57.4063,129.0156 58,128.75 Q58.5938,128.4688 59.2188,127.8906 L59.2188,130.6094 Z "/>
            <text fill="#000000" font-family="sans-serif" font-size="14" lengthAdjust="spacingAndGlyphs"
                  textLength="117" x="76.75" y="123.9951">IteratorException
            </text>
            <text fill="#000000" font-family="sans-serif" font-size="10" lengthAdjust="spacingAndGlyphs" textLength="26"
                  x="122.25" y="136.5791">btree
            </text>
            <line style="stroke: #A80036; stroke-width: 1.5;" x1="7" x2="231" y1="143.9375" y2="143.9375"/>
            <ellipse cx="17" cy="154.9375" fill="#84BE84" rx="3" ry="3" style="stroke: #038048; stroke-width: 1.0;"/>
            <text fill="#000000" font-family="sans-serif" font-size="11" lengthAdjust="spacingAndGlyphs"
                  textLength="104" x="26" y="158.1479">IteratorException()
            </text>
            <ellipse cx="17" cy="167.7422" fill="#84BE84" rx="3" ry="3" style="stroke: #038048; stroke-width: 1.0;"/>
            <text fill="#000000" font-family="sans-serif" font-size="11" lengthAdjust="spacingAndGlyphs"
                  textLength="138" x="26" y="170.9526">IteratorException(String)
            </text>
            <ellipse cx="17" cy="180.5469" fill="#84BE84" rx="3" ry="3" style="stroke: #038048; stroke-width: 1.0;"/>
            <text fill="#000000" font-family="sans-serif" font-size="11" lengthAdjust="spacingAndGlyphs"
                  textLength="200" x="26" y="183.7573">IteratorException(Exception, String)
            </text>
        </a><!--MD5=[2a7cd8221fe6583b4d4c6786e4469311]
class chainexception.ChainException-->
        <a href="../chainexception/ChainException.html" target="_top" title="../chainexception/ChainException.html"
           xlink:actuate="onRequest" xlink:href="../chainexception/ChainException.html" xlink:show="new"
           xlink:title="../chainexception/ChainException.html" xlink:type="simple">
            <rect fill="#FEFECE" filter="url(#f159xw43xunrgp)" height="37.9375" id="chainexception.ChainException"
                  style="stroke: #A80036; stroke-width: 1.5;" width="139" x="49.5" y="8"/>
            <ellipse cx="64.5" cy="26.9688" fill="#ADD1B2" rx="11" ry="11" style="stroke: #A80036; stroke-width: 1.0;"/>
            <path d="M67.4688,32.6094 Q66.8906,32.9063 66.25,33.0469 Q65.6094,33.2031 64.9063,33.2031 Q62.4063,33.2031 61.0781,31.5625 Q59.7656,29.9063 59.7656,26.7813 Q59.7656,23.6563 61.0781,22 Q62.4063,20.3438 64.9063,20.3438 Q65.6094,20.3438 66.25,20.5 Q66.9063,20.6563 67.4688,20.9531 L67.4688,23.6719 Q66.8438,23.0938 66.25,22.8281 Q65.6563,22.5469 65.0313,22.5469 Q63.6875,22.5469 63,23.625 Q62.3125,24.6875 62.3125,26.7813 Q62.3125,28.875 63,29.9531 Q63.6875,31.0156 65.0313,31.0156 Q65.6563,31.0156 66.25,30.75 Q66.8438,30.4688 67.4688,29.8906 L67.4688,32.6094 Z "/>
            <text fill="#000000" font-family="sans-serif" font-size="14" lengthAdjust="spacingAndGlyphs"
                  textLength="107" x="78.5" y="25.9951">ChainException
            </text>
            <text fill="#000000" font-family="sans-serif" font-size="10" lengthAdjust="spacingAndGlyphs" textLength="72"
                  x="96" y="38.5791">chainexception
            </text>
        </a><!--MD5=[70126711ea9c8169193e7144ddbe3508]
reverse link chainexception.ChainException to btree.IteratorException-->
        <path d="M119,66.259 C119,78.9194 119,93.0012 119,105.8605 " fill="none"
              id="chainexception.ChainException&lt;-btree.IteratorException"
              style="stroke: #A80036; stroke-width: 1.0;"/>
        <polygon fill="none" points="112.0001,66.1728,119,46.1728,126.0001,66.1728,112.0001,66.1728"
                 style="stroke: #A80036; stroke-width: 1.0;"/>
        <text fill="#888888" font-family="sans-serif" font-size="10" lengthAdjust="spacingAndGlyphs" textLength="186"
              x="32" y="209.2822">UMLDoclet 2.0.7, PlantUML 1.2019.12
        </text><!--MD5=[3f5f29cf4c56d7040d60f73f2de68a0c]
@startuml
    set namespaceSeparator none
    hide empty fields
    hide empty methods

    class "<size:14>IteratorException\n<size:10>btree" as btree.IteratorException [[../btree/IteratorException.html]] {
        +IteratorException()
        +IteratorException(String)
        +IteratorException(Exception, String)
    }

    class "<size:14>ChainException\n<size:10>chainexception" as chainexception.ChainException [[../chainexception/ChainException.html]]

    chainexception.ChainException <|- - btree.IteratorException

    center footer UMLDoclet 2.0.7, PlantUML 1.2019.12
@enduml

PlantUML version 1.2019.12(Sun Nov 03 03:24:54 MST 2019)
(APACHE source distribution)
Java Runtime: Java(TM) SE Runtime Environment
JVM: Java HotSpot(TM) 64-Bit Server VM
Java Version: 11.0.6+8-LTS
Operating System: Linux
Default Encoding: UTF-8
Language: en
Country: US
-->
    </g>
</svg>