<?xml version="1.0" encoding="UTF-8" standalone="no"?>
<svg xmlns="http://www.w3.org/2000/svg" xmlns:xlink="http://www.w3.org/1999/xlink"
     contentScriptType="application/ecmascript" contentStyleType="text/css" height="222px" preserveAspectRatio="none"
     style="width:261px;height:222px;" version="1.1" viewBox="0 0 261 222" width="261px" zoomAndPan="magnify">
    <defs>
        <filter height="300%" id="f1os9cw8xzppqk" width="300%" x="-1" y="-1">
            <feGaussianBlur result="blurOut" stdDeviation="2.0"/>
            <feColorMatrix in="blurOut" result="blurOut2" type="matrix"
                           values="0 0 0 0 0 0 0 0 0 0 0 0 0 0 0 0 0 0 .4 0"/>
            <feOffset dx="4.0" dy="4.0" in="blurOut2" result="blurOut3"/>
            <feBlend in="SourceGraphic" in2="blurOut3" mode="normal"/>
        </filter>
    </defs>
    <g><!--MD5=[82c379429a2c84f137d920a6b4e226db]
class btree.UnpinPageException-->
        <a href="../btree/UnpinPageException.html" target="_top" title="../btree/UnpinPageException.html"
           xlink:actuate="onRequest" xlink:href="../btree/UnpinPageException.html" xlink:show="new"
           xlink:title="../btree/UnpinPageException.html" xlink:type="simple">
            <rect fill="#FEFECE" filter="url(#f1os9cw8xzppqk)" height="84.3516" id="btree.UnpinPageException"
                  style="stroke: #A80036; stroke-width: 1.5;" width="244" x="6" y="106"/>
            <ellipse cx="52.25" cy="124.9688" fill="#ADD1B2" rx="11" ry="11"
                     style="stroke: #A80036; stroke-width: 1.0;"/>
            <path d="M55.2188,130.6094 Q54.6406,130.9063 54,131.0469 Q53.3594,131.2031 52.6563,131.2031 Q50.1563,131.2031 48.8281,129.5625 Q47.5156,127.9063 47.5156,124.7813 Q47.5156,121.6563 48.8281,120 Q50.1563,118.3438 52.6563,118.3438 Q53.3594,118.3438 54,118.5 Q54.6563,118.6563 55.2188,118.9531 L55.2188,121.6719 Q54.5938,121.0938 54,120.8281 Q53.4063,120.5469 52.7813,120.5469 Q51.4375,120.5469 50.75,121.625 Q50.0625,122.6875 50.0625,124.7813 Q50.0625,126.875 50.75,127.9531 Q51.4375,129.0156 52.7813,129.0156 Q53.4063,129.0156 54,128.75 Q54.5938,128.4688 55.2188,127.8906 L55.2188,130.6094 Z "/>
            <text fill="#000000" font-family="sans-serif" font-size="14" lengthAdjust="spacingAndGlyphs"
                  textLength="143" x="72.75" y="123.9951">UnpinPageException
            </text>
            <text fill="#000000" font-family="sans-serif" font-size="10" lengthAdjust="spacingAndGlyphs" textLength="26"
                  x="131.25" y="136.5791">btree
            </text>
            <line style="stroke: #A80036; stroke-width: 1.5;" x1="7" x2="249" y1="143.9375" y2="143.9375"/>
            <ellipse cx="17" cy="154.9375" fill="#84BE84" rx="3" ry="3" style="stroke: #038048; stroke-width: 1.0;"/>
            <text fill="#000000" font-family="sans-serif" font-size="11" lengthAdjust="spacingAndGlyphs"
                  textLength="122" x="26" y="158.1479">UnpinPageException()
            </text>
            <ellipse cx="17" cy="167.7422" fill="#84BE84" rx="3" ry="3" style="stroke: #038048; stroke-width: 1.0;"/>
            <text fill="#000000" font-family="sans-serif" font-size="11" lengthAdjust="spacingAndGlyphs"
                  textLength="156" x="26" y="170.9526">UnpinPageException(String)
            </text>
            <ellipse cx="17" cy="180.5469" fill="#84BE84" rx="3" ry="3" style="stroke: #038048; stroke-width: 1.0;"/>
            <text fill="#000000" font-family="sans-serif" font-size="11" lengthAdjust="spacingAndGlyphs"
                  textLength="218" x="26" y="183.7573">UnpinPageException(Exception, String)
            </text>
        </a><!--MD5=[2a7cd8221fe6583b4d4c6786e4469311]
class chainexception.ChainException-->
        <a href="../chainexception/ChainException.html" target="_top" title="../chainexception/ChainException.html"
           xlink:actuate="onRequest" xlink:href="../chainexception/ChainException.html" xlink:show="new"
           xlink:title="../chainexception/ChainException.html" xlink:type="simple">
            <rect fill="#FEFECE" filter="url(#f1os9cw8xzppqk)" height="37.9375" id="chainexception.ChainException"
                  style="stroke: #A80036; stroke-width: 1.5;" width="139" x="58.5" y="8"/>
            <ellipse cx="73.5" cy="26.9688" fill="#ADD1B2" rx="11" ry="11" style="stroke: #A80036; stroke-width: 1.0;"/>
            <path d="M76.4688,32.6094 Q75.8906,32.9063 75.25,33.0469 Q74.6094,33.2031 73.9063,33.2031 Q71.4063,33.2031 70.0781,31.5625 Q68.7656,29.9063 68.7656,26.7813 Q68.7656,23.6563 70.0781,22 Q71.4063,20.3438 73.9063,20.3438 Q74.6094,20.3438 75.25,20.5 Q75.9063,20.6563 76.4688,20.9531 L76.4688,23.6719 Q75.8438,23.0938 75.25,22.8281 Q74.6563,22.5469 74.0313,22.5469 Q72.6875,22.5469 72,23.625 Q71.3125,24.6875 71.3125,26.7813 Q71.3125,28.875 72,29.9531 Q72.6875,31.0156 74.0313,31.0156 Q74.6563,31.0156 75.25,30.75 Q75.8438,30.4688 76.4688,29.8906 L76.4688,32.6094 Z "/>
            <text fill="#000000" font-family="sans-serif" font-size="14" lengthAdjust="spacingAndGlyphs"
                  textLength="107" x="87.5" y="25.9951">ChainException
            </text>
            <text fill="#000000" font-family="sans-serif" font-size="10" lengthAdjust="spacingAndGlyphs" textLength="72"
                  x="105" y="38.5791">chainexception
            </text>
        </a><!--MD5=[7a762d41f460586b62ff7f36a31398ee]
reverse link chainexception.ChainException to btree.UnpinPageException-->
        <path d="M128,66.259 C128,78.9194 128,93.0012 128,105.8605 " fill="none"
              id="chainexception.ChainException&lt;-btree.UnpinPageException"
              style="stroke: #A80036; stroke-width: 1.0;"/>
        <polygon fill="none" points="121.0001,66.1728,128,46.1728,135.0001,66.1728,121.0001,66.1728"
                 style="stroke: #A80036; stroke-width: 1.0;"/>
        <text fill="#888888" font-family="sans-serif" font-size="10" lengthAdjust="spacingAndGlyphs" textLength="186"
              x="41" y="209.2822">UMLDoclet 2.0.7, PlantUML 1.2019.12
        </text><!--MD5=[eade935df7fbde07b03e47480d3cfc01]
@startuml
    set namespaceSeparator none
    hide empty fields
    hide empty methods

    class "<size:14>UnpinPageException\n<size:10>btree" as btree.UnpinPageException [[../btree/UnpinPageException.html]] {
        +UnpinPageException()
        +UnpinPageException(String)
        +UnpinPageException(Exception, String)
    }

    class "<size:14>ChainException\n<size:10>chainexception" as chainexception.ChainException [[../chainexception/ChainException.html]]

    chainexception.ChainException <|- - btree.UnpinPageException

    center footer UMLDoclet 2.0.7, PlantUML 1.2019.12
@enduml

PlantUML version 1.2019.12(Sun Nov 03 03:24:54 MST 2019)
(APACHE source distribution)
Java Runtime: Java(TM) SE Runtime Environment
JVM: Java HotSpot(TM) 64-Bit Server VM
Java Version: 11.0.6+8-LTS
Operating System: Linux
Default Encoding: UTF-8
Language: en
Country: US
-->
    </g>
</svg>