<?xml version="1.0" encoding="UTF-8" standalone="no"?>
<svg xmlns="http://www.w3.org/2000/svg" xmlns:xlink="http://www.w3.org/1999/xlink"
     contentScriptType="application/ecmascript" contentStyleType="text/css" height="222px" preserveAspectRatio="none"
     style="width:285px;height:222px;" version="1.1" viewBox="0 0 285 222" width="285px" zoomAndPan="magnify">
    <defs>
        <filter height="300%" id="f1nbizfeyuc2hg" width="300%" x="-1" y="-1">
            <feGaussianBlur result="blurOut" stdDeviation="2.0"/>
            <feColorMatrix in="blurOut" result="blurOut2" type="matrix"
                           values="0 0 0 0 0 0 0 0 0 0 0 0 0 0 0 0 0 0 .4 0"/>
            <feOffset dx="4.0" dy="4.0" in="blurOut2" result="blurOut3"/>
            <feBlend in="SourceGraphic" in2="blurOut3" mode="normal"/>
        </filter>
    </defs>
    <g><!--MD5=[d0f77ef4443668f10ed9a27cf3115644]
class btree.DeleteFileEntryException-->
        <a href="../btree/DeleteFileEntryException.html" target="_top" title="../btree/DeleteFileEntryException.html"
           xlink:actuate="onRequest" xlink:href="../btree/DeleteFileEntryException.html" xlink:show="new"
           xlink:title="../btree/DeleteFileEntryException.html" xlink:type="simple">
            <rect fill="#FEFECE" filter="url(#f1nbizfeyuc2hg)" height="84.3516" id="btree.DeleteFileEntryException"
                  style="stroke: #A80036; stroke-width: 1.5;" width="268" x="6" y="106"/>
            <ellipse cx="49.8" cy="124.9688" fill="#ADD1B2" rx="11" ry="11"
                     style="stroke: #A80036; stroke-width: 1.0;"/>
            <path d="M52.7688,130.6094 Q52.1906,130.9063 51.55,131.0469 Q50.9094,131.2031 50.2063,131.2031 Q47.7063,131.2031 46.3781,129.5625 Q45.0656,127.9063 45.0656,124.7813 Q45.0656,121.6563 46.3781,120 Q47.7063,118.3438 50.2063,118.3438 Q50.9094,118.3438 51.55,118.5 Q52.2063,118.6563 52.7688,118.9531 L52.7688,121.6719 Q52.1438,121.0938 51.55,120.8281 Q50.9563,120.5469 50.3313,120.5469 Q48.9875,120.5469 48.3,121.625 Q47.6125,122.6875 47.6125,124.7813 Q47.6125,126.875 48.3,127.9531 Q48.9875,129.0156 50.3313,129.0156 Q50.9563,129.0156 51.55,128.75 Q52.1438,128.4688 52.7688,127.8906 L52.7688,130.6094 Z "/>
            <text fill="#000000" font-family="sans-serif" font-size="14" lengthAdjust="spacingAndGlyphs"
                  textLength="172" x="70.2" y="123.9951">DeleteFileEntryException
            </text>
            <text fill="#000000" font-family="sans-serif" font-size="10" lengthAdjust="spacingAndGlyphs" textLength="26"
                  x="143.2" y="136.5791">btree
            </text>
            <line style="stroke: #A80036; stroke-width: 1.5;" x1="7" x2="273" y1="143.9375" y2="143.9375"/>
            <ellipse cx="17" cy="154.9375" fill="#84BE84" rx="3" ry="3" style="stroke: #038048; stroke-width: 1.0;"/>
            <text fill="#000000" font-family="sans-serif" font-size="11" lengthAdjust="spacingAndGlyphs"
                  textLength="146" x="26" y="158.1479">DeleteFileEntryException()
            </text>
            <ellipse cx="17" cy="167.7422" fill="#84BE84" rx="3" ry="3" style="stroke: #038048; stroke-width: 1.0;"/>
            <text fill="#000000" font-family="sans-serif" font-size="11" lengthAdjust="spacingAndGlyphs"
                  textLength="180" x="26" y="170.9526">DeleteFileEntryException(String)
            </text>
            <ellipse cx="17" cy="180.5469" fill="#84BE84" rx="3" ry="3" style="stroke: #038048; stroke-width: 1.0;"/>
            <text fill="#000000" font-family="sans-serif" font-size="11" lengthAdjust="spacingAndGlyphs"
                  textLength="242" x="26" y="183.7573">DeleteFileEntryException(Exception, String)
            </text>
        </a><!--MD5=[2a7cd8221fe6583b4d4c6786e4469311]
class chainexception.ChainException-->
        <a href="../chainexception/ChainException.html" target="_top" title="../chainexception/ChainException.html"
           xlink:actuate="onRequest" xlink:href="../chainexception/ChainException.html" xlink:show="new"
           xlink:title="../chainexception/ChainException.html" xlink:type="simple">
            <rect fill="#FEFECE" filter="url(#f1nbizfeyuc2hg)" height="37.9375" id="chainexception.ChainException"
                  style="stroke: #A80036; stroke-width: 1.5;" width="139" x="70.5" y="8"/>
            <ellipse cx="85.5" cy="26.9688" fill="#ADD1B2" rx="11" ry="11" style="stroke: #A80036; stroke-width: 1.0;"/>
            <path d="M88.4688,32.6094 Q87.8906,32.9063 87.25,33.0469 Q86.6094,33.2031 85.9063,33.2031 Q83.4063,33.2031 82.0781,31.5625 Q80.7656,29.9063 80.7656,26.7813 Q80.7656,23.6563 82.0781,22 Q83.4063,20.3438 85.9063,20.3438 Q86.6094,20.3438 87.25,20.5 Q87.9063,20.6563 88.4688,20.9531 L88.4688,23.6719 Q87.8438,23.0938 87.25,22.8281 Q86.6563,22.5469 86.0313,22.5469 Q84.6875,22.5469 84,23.625 Q83.3125,24.6875 83.3125,26.7813 Q83.3125,28.875 84,29.9531 Q84.6875,31.0156 86.0313,31.0156 Q86.6563,31.0156 87.25,30.75 Q87.8438,30.4688 88.4688,29.8906 L88.4688,32.6094 Z "/>
            <text fill="#000000" font-family="sans-serif" font-size="14" lengthAdjust="spacingAndGlyphs"
                  textLength="107" x="99.5" y="25.9951">ChainException
            </text>
            <text fill="#000000" font-family="sans-serif" font-size="10" lengthAdjust="spacingAndGlyphs" textLength="72"
                  x="117" y="38.5791">chainexception
            </text>
        </a><!--MD5=[e1e64b6340d65669c9eb29a03032e13a]
reverse link chainexception.ChainException to btree.DeleteFileEntryException-->
        <path d="M140,66.259 C140,78.9194 140,93.0012 140,105.8605 " fill="none"
              id="chainexception.ChainException&lt;-btree.DeleteFileEntryException"
              style="stroke: #A80036; stroke-width: 1.0;"/>
        <polygon fill="none" points="133.0001,66.1728,140,46.1728,147.0001,66.1728,133.0001,66.1728"
                 style="stroke: #A80036; stroke-width: 1.0;"/>
        <text fill="#888888" font-family="sans-serif" font-size="10" lengthAdjust="spacingAndGlyphs" textLength="186"
              x="53" y="209.2822">UMLDoclet 2.0.7, PlantUML 1.2019.12
        </text><!--MD5=[bf613c9b00d722111f5669fb099468c0]
@startuml
    set namespaceSeparator none
    hide empty fields
    hide empty methods

    class "<size:14>DeleteFileEntryException\n<size:10>btree" as btree.DeleteFileEntryException [[../btree/DeleteFileEntryException.html]] {
        +DeleteFileEntryException()
        +DeleteFileEntryException(String)
        +DeleteFileEntryException(Exception, String)
    }

    class "<size:14>ChainException\n<size:10>chainexception" as chainexception.ChainException [[../chainexception/ChainException.html]]

    chainexception.ChainException <|- - btree.DeleteFileEntryException

    center footer UMLDoclet 2.0.7, PlantUML 1.2019.12
@enduml

PlantUML version 1.2019.12(Sun Nov 03 03:24:54 MST 2019)
(APACHE source distribution)
Java Runtime: Java(TM) SE Runtime Environment
JVM: Java HotSpot(TM) 64-Bit Server VM
Java Version: 11.0.6+8-LTS
Operating System: Linux
Default Encoding: UTF-8
Language: en
Country: US
-->
    </g>
</svg>