<?xml version="1.0" encoding="UTF-8" standalone="no"?>
<svg xmlns="http://www.w3.org/2000/svg" xmlns:xlink="http://www.w3.org/1999/xlink"
     contentScriptType="application/ecmascript" contentStyleType="text/css" height="222px" preserveAspectRatio="none"
     style="width:245px;height:222px;" version="1.1" viewBox="0 0 245 222" width="245px" zoomAndPan="magnify">
    <defs>
        <filter height="300%" id="fwpbcdvbzlm98" width="300%" x="-1" y="-1">
            <feGaussianBlur result="blurOut" stdDeviation="2.0"/>
            <feColorMatrix in="blurOut" result="blurOut2" type="matrix"
                           values="0 0 0 0 0 0 0 0 0 0 0 0 0 0 0 0 0 0 .4 0"/>
            <feOffset dx="4.0" dy="4.0" in="blurOut2" result="blurOut3"/>
            <feBlend in="SourceGraphic" in2="blurOut3" mode="normal"/>
        </filter>
    </defs>
    <g><!--MD5=[fe6745a2ac4c48114e11dcffda3fec8f]
class btree.ConvertException-->
        <a href="../btree/ConvertException.html" target="_top" title="../btree/ConvertException.html"
           xlink:actuate="onRequest" xlink:href="../btree/ConvertException.html" xlink:show="new"
           xlink:title="../btree/ConvertException.html" xlink:type="simple">
            <rect fill="#FEFECE" filter="url(#fwpbcdvbzlm98)" height="84.3516" id="btree.ConvertException"
                  style="stroke: #A80036; stroke-width: 1.5;" width="228" x="6" y="106"/>
            <ellipse cx="54.75" cy="124.9688" fill="#ADD1B2" rx="11" ry="11"
                     style="stroke: #A80036; stroke-width: 1.0;"/>
            <path d="M57.7188,130.6094 Q57.1406,130.9063 56.5,131.0469 Q55.8594,131.2031 55.1563,131.2031 Q52.6563,131.2031 51.3281,129.5625 Q50.0156,127.9063 50.0156,124.7813 Q50.0156,121.6563 51.3281,120 Q52.6563,118.3438 55.1563,118.3438 Q55.8594,118.3438 56.5,118.5 Q57.1563,118.6563 57.7188,118.9531 L57.7188,121.6719 Q57.0938,121.0938 56.5,120.8281 Q55.9063,120.5469 55.2813,120.5469 Q53.9375,120.5469 53.25,121.625 Q52.5625,122.6875 52.5625,124.7813 Q52.5625,126.875 53.25,127.9531 Q53.9375,129.0156 55.2813,129.0156 Q55.9063,129.0156 56.5,128.75 Q57.0938,128.4688 57.7188,127.8906 L57.7188,130.6094 Z "/>
            <text fill="#000000" font-family="sans-serif" font-size="14" lengthAdjust="spacingAndGlyphs"
                  textLength="122" x="75.25" y="123.9951">ConvertException
            </text>
            <text fill="#000000" font-family="sans-serif" font-size="10" lengthAdjust="spacingAndGlyphs" textLength="26"
                  x="123.25" y="136.5791">btree
            </text>
            <line style="stroke: #A80036; stroke-width: 1.5;" x1="7" x2="233" y1="143.9375" y2="143.9375"/>
            <ellipse cx="17" cy="154.9375" fill="#84BE84" rx="3" ry="3" style="stroke: #038048; stroke-width: 1.0;"/>
            <text fill="#000000" font-family="sans-serif" font-size="11" lengthAdjust="spacingAndGlyphs"
                  textLength="106" x="26" y="158.1479">ConvertException()
            </text>
            <ellipse cx="17" cy="167.7422" fill="#84BE84" rx="3" ry="3" style="stroke: #038048; stroke-width: 1.0;"/>
            <text fill="#000000" font-family="sans-serif" font-size="11" lengthAdjust="spacingAndGlyphs"
                  textLength="140" x="26" y="170.9526">ConvertException(String)
            </text>
            <ellipse cx="17" cy="180.5469" fill="#84BE84" rx="3" ry="3" style="stroke: #038048; stroke-width: 1.0;"/>
            <text fill="#000000" font-family="sans-serif" font-size="11" lengthAdjust="spacingAndGlyphs"
                  textLength="202" x="26" y="183.7573">ConvertException(Exception, String)
            </text>
        </a><!--MD5=[2a7cd8221fe6583b4d4c6786e4469311]
class chainexception.ChainException-->
        <a href="../chainexception/ChainException.html" target="_top" title="../chainexception/ChainException.html"
           xlink:actuate="onRequest" xlink:href="../chainexception/ChainException.html" xlink:show="new"
           xlink:title="../chainexception/ChainException.html" xlink:type="simple">
            <rect fill="#FEFECE" filter="url(#fwpbcdvbzlm98)" height="37.9375" id="chainexception.ChainException"
                  style="stroke: #A80036; stroke-width: 1.5;" width="139" x="50.5" y="8"/>
            <ellipse cx="65.5" cy="26.9688" fill="#ADD1B2" rx="11" ry="11" style="stroke: #A80036; stroke-width: 1.0;"/>
            <path d="M68.4688,32.6094 Q67.8906,32.9063 67.25,33.0469 Q66.6094,33.2031 65.9063,33.2031 Q63.4063,33.2031 62.0781,31.5625 Q60.7656,29.9063 60.7656,26.7813 Q60.7656,23.6563 62.0781,22 Q63.4063,20.3438 65.9063,20.3438 Q66.6094,20.3438 67.25,20.5 Q67.9063,20.6563 68.4688,20.9531 L68.4688,23.6719 Q67.8438,23.0938 67.25,22.8281 Q66.6563,22.5469 66.0313,22.5469 Q64.6875,22.5469 64,23.625 Q63.3125,24.6875 63.3125,26.7813 Q63.3125,28.875 64,29.9531 Q64.6875,31.0156 66.0313,31.0156 Q66.6563,31.0156 67.25,30.75 Q67.8438,30.4688 68.4688,29.8906 L68.4688,32.6094 Z "/>
            <text fill="#000000" font-family="sans-serif" font-size="14" lengthAdjust="spacingAndGlyphs"
                  textLength="107" x="79.5" y="25.9951">ChainException
            </text>
            <text fill="#000000" font-family="sans-serif" font-size="10" lengthAdjust="spacingAndGlyphs" textLength="72"
                  x="97" y="38.5791">chainexception
            </text>
        </a><!--MD5=[5e97bbfbcd031551db80f33b1cd517f0]
reverse link chainexception.ChainException to btree.ConvertException-->
        <path d="M120,66.259 C120,78.9194 120,93.0012 120,105.8605 " fill="none"
              id="chainexception.ChainException&lt;-btree.ConvertException"
              style="stroke: #A80036; stroke-width: 1.0;"/>
        <polygon fill="none" points="113.0001,66.1728,120,46.1728,127.0001,66.1728,113.0001,66.1728"
                 style="stroke: #A80036; stroke-width: 1.0;"/>
        <text fill="#888888" font-family="sans-serif" font-size="10" lengthAdjust="spacingAndGlyphs" textLength="186"
              x="33" y="209.2822">UMLDoclet 2.0.7, PlantUML 1.2019.12
        </text><!--MD5=[f7eb1f65c1cfd7958f472604ac3bf70d]
@startuml
    set namespaceSeparator none
    hide empty fields
    hide empty methods

    class "<size:14>ConvertException\n<size:10>btree" as btree.ConvertException [[../btree/ConvertException.html]] {
        +ConvertException()
        +ConvertException(String)
        +ConvertException(Exception, String)
    }

    class "<size:14>ChainException\n<size:10>chainexception" as chainexception.ChainException [[../chainexception/ChainException.html]]

    chainexception.ChainException <|- - btree.ConvertException

    center footer UMLDoclet 2.0.7, PlantUML 1.2019.12
@enduml

PlantUML version 1.2019.12(Sun Nov 03 03:24:54 MST 2019)
(APACHE source distribution)
Java Runtime: Java(TM) SE Runtime Environment
JVM: Java HotSpot(TM) 64-Bit Server VM
Java Version: 11.0.6+8-LTS
Operating System: Linux
Default Encoding: UTF-8
Language: en
Country: US
-->
    </g>
</svg>