<?xml version="1.0" encoding="UTF-8" standalone="no"?>
<svg xmlns="http://www.w3.org/2000/svg" xmlns:xlink="http://www.w3.org/1999/xlink"
     contentScriptType="application/ecmascript" contentStyleType="text/css" height="222px" preserveAspectRatio="none"
     style="width:271px;height:222px;" version="1.1" viewBox="0 0 271 222" width="271px" zoomAndPan="magnify">
    <defs>
        <filter height="300%" id="f10osnbfk94fk1" width="300%" x="-1" y="-1">
            <feGaussianBlur result="blurOut" stdDeviation="2.0"/>
            <feColorMatrix in="blurOut" result="blurOut2" type="matrix"
                           values="0 0 0 0 0 0 0 0 0 0 0 0 0 0 0 0 0 0 .4 0"/>
            <feOffset dx="4.0" dy="4.0" in="blurOut2" result="blurOut3"/>
            <feBlend in="SourceGraphic" in2="blurOut3" mode="normal"/>
        </filter>
    </defs>
    <g><!--MD5=[0053250ced04e50844825d57bd0f6592]
class btree.IndexSearchException-->
        <a href="../btree/IndexSearchException.html" target="_top" title="../btree/IndexSearchException.html"
           xlink:actuate="onRequest" xlink:href="../btree/IndexSearchException.html" xlink:show="new"
           xlink:title="../btree/IndexSearchException.html" xlink:type="simple">
            <rect fill="#FEFECE" filter="url(#f10osnbfk94fk1)" height="84.3516" id="btree.IndexSearchException"
                  style="stroke: #A80036; stroke-width: 1.5;" width="254" x="6" y="106"/>
            <ellipse cx="52.25" cy="124.9688" fill="#ADD1B2" rx="11" ry="11"
                     style="stroke: #A80036; stroke-width: 1.0;"/>
            <path d="M55.2188,130.6094 Q54.6406,130.9063 54,131.0469 Q53.3594,131.2031 52.6563,131.2031 Q50.1563,131.2031 48.8281,129.5625 Q47.5156,127.9063 47.5156,124.7813 Q47.5156,121.6563 48.8281,120 Q50.1563,118.3438 52.6563,118.3438 Q53.3594,118.3438 54,118.5 Q54.6563,118.6563 55.2188,118.9531 L55.2188,121.6719 Q54.5938,121.0938 54,120.8281 Q53.4063,120.5469 52.7813,120.5469 Q51.4375,120.5469 50.75,121.625 Q50.0625,122.6875 50.0625,124.7813 Q50.0625,126.875 50.75,127.9531 Q51.4375,129.0156 52.7813,129.0156 Q53.4063,129.0156 54,128.75 Q54.5938,128.4688 55.2188,127.8906 L55.2188,130.6094 Z "/>
            <text fill="#000000" font-family="sans-serif" font-size="14" lengthAdjust="spacingAndGlyphs"
                  textLength="153" x="72.75" y="123.9951">IndexSearchException
            </text>
            <text fill="#000000" font-family="sans-serif" font-size="10" lengthAdjust="spacingAndGlyphs" textLength="26"
                  x="136.25" y="136.5791">btree
            </text>
            <line style="stroke: #A80036; stroke-width: 1.5;" x1="7" x2="259" y1="143.9375" y2="143.9375"/>
            <ellipse cx="17" cy="154.9375" fill="#84BE84" rx="3" ry="3" style="stroke: #038048; stroke-width: 1.0;"/>
            <text fill="#000000" font-family="sans-serif" font-size="11" lengthAdjust="spacingAndGlyphs"
                  textLength="132" x="26" y="158.1479">IndexSearchException()
            </text>
            <ellipse cx="17" cy="167.7422" fill="#84BE84" rx="3" ry="3" style="stroke: #038048; stroke-width: 1.0;"/>
            <text fill="#000000" font-family="sans-serif" font-size="11" lengthAdjust="spacingAndGlyphs"
                  textLength="166" x="26" y="170.9526">IndexSearchException(String)
            </text>
            <ellipse cx="17" cy="180.5469" fill="#84BE84" rx="3" ry="3" style="stroke: #038048; stroke-width: 1.0;"/>
            <text fill="#000000" font-family="sans-serif" font-size="11" lengthAdjust="spacingAndGlyphs"
                  textLength="228" x="26" y="183.7573">IndexSearchException(Exception, String)
            </text>
        </a><!--MD5=[2a7cd8221fe6583b4d4c6786e4469311]
class chainexception.ChainException-->
        <a href="../chainexception/ChainException.html" target="_top" title="../chainexception/ChainException.html"
           xlink:actuate="onRequest" xlink:href="../chainexception/ChainException.html" xlink:show="new"
           xlink:title="../chainexception/ChainException.html" xlink:type="simple">
            <rect fill="#FEFECE" filter="url(#f10osnbfk94fk1)" height="37.9375" id="chainexception.ChainException"
                  style="stroke: #A80036; stroke-width: 1.5;" width="139" x="63.5" y="8"/>
            <ellipse cx="78.5" cy="26.9688" fill="#ADD1B2" rx="11" ry="11" style="stroke: #A80036; stroke-width: 1.0;"/>
            <path d="M81.4688,32.6094 Q80.8906,32.9063 80.25,33.0469 Q79.6094,33.2031 78.9063,33.2031 Q76.4063,33.2031 75.0781,31.5625 Q73.7656,29.9063 73.7656,26.7813 Q73.7656,23.6563 75.0781,22 Q76.4063,20.3438 78.9063,20.3438 Q79.6094,20.3438 80.25,20.5 Q80.9063,20.6563 81.4688,20.9531 L81.4688,23.6719 Q80.8438,23.0938 80.25,22.8281 Q79.6563,22.5469 79.0313,22.5469 Q77.6875,22.5469 77,23.625 Q76.3125,24.6875 76.3125,26.7813 Q76.3125,28.875 77,29.9531 Q77.6875,31.0156 79.0313,31.0156 Q79.6563,31.0156 80.25,30.75 Q80.8438,30.4688 81.4688,29.8906 L81.4688,32.6094 Z "/>
            <text fill="#000000" font-family="sans-serif" font-size="14" lengthAdjust="spacingAndGlyphs"
                  textLength="107" x="92.5" y="25.9951">ChainException
            </text>
            <text fill="#000000" font-family="sans-serif" font-size="10" lengthAdjust="spacingAndGlyphs" textLength="72"
                  x="110" y="38.5791">chainexception
            </text>
        </a><!--MD5=[49788e771839a6b70da448ee2a4f2e53]
reverse link chainexception.ChainException to btree.IndexSearchException-->
        <path d="M133,66.259 C133,78.9194 133,93.0012 133,105.8605 " fill="none"
              id="chainexception.ChainException&lt;-btree.IndexSearchException"
              style="stroke: #A80036; stroke-width: 1.0;"/>
        <polygon fill="none" points="126.0001,66.1728,133,46.1728,140.0001,66.1728,126.0001,66.1728"
                 style="stroke: #A80036; stroke-width: 1.0;"/>
        <text fill="#888888" font-family="sans-serif" font-size="10" lengthAdjust="spacingAndGlyphs" textLength="186"
              x="46" y="209.2822">UMLDoclet 2.0.7, PlantUML 1.2019.12
        </text><!--MD5=[18b87382bc58c07f474013850f24434c]
@startuml
    set namespaceSeparator none
    hide empty fields
    hide empty methods

    class "<size:14>IndexSearchException\n<size:10>btree" as btree.IndexSearchException [[../btree/IndexSearchException.html]] {
        +IndexSearchException()
        +IndexSearchException(String)
        +IndexSearchException(Exception, String)
    }

    class "<size:14>ChainException\n<size:10>chainexception" as chainexception.ChainException [[../chainexception/ChainException.html]]

    chainexception.ChainException <|- - btree.IndexSearchException

    center footer UMLDoclet 2.0.7, PlantUML 1.2019.12
@enduml

PlantUML version 1.2019.12(Sun Nov 03 03:24:54 MST 2019)
(APACHE source distribution)
Java Runtime: Java(TM) SE Runtime Environment
JVM: Java HotSpot(TM) 64-Bit Server VM
Java Version: 11.0.6+8-LTS
Operating System: Linux
Default Encoding: UTF-8
Language: en
Country: US
-->
    </g>
</svg>