<?xml version="1.0" encoding="UTF-8" standalone="no"?>
<svg xmlns="http://www.w3.org/2000/svg" xmlns:xlink="http://www.w3.org/1999/xlink"
     contentScriptType="application/ecmascript" contentStyleType="text/css" height="197px" preserveAspectRatio="none"
     style="width:282px;height:197px;" version="1.1" viewBox="0 0 282 197" width="282px" zoomAndPan="magnify">
    <defs>
        <filter height="300%" id="f1k23jd9ge6l1k" width="300%" x="-1" y="-1">
            <feGaussianBlur result="blurOut" stdDeviation="2.0"/>
            <feColorMatrix in="blurOut" result="blurOut2" type="matrix"
                           values="0 0 0 0 0 0 0 0 0 0 0 0 0 0 0 0 0 0 .4 0"/>
            <feOffset dx="4.0" dy="4.0" in="blurOut2" result="blurOut3"/>
            <feBlend in="SourceGraphic" in2="blurOut3" mode="normal"/>
        </filter>
    </defs>
    <g><!--MD5=[975f8de265503b0c2b250fb555613a48]
class bufmgr.PageUnpinnedException-->
        <a href="../bufmgr/PageUnpinnedException.html" target="_top" title="../bufmgr/PageUnpinnedException.html"
           xlink:actuate="onRequest" xlink:href="../bufmgr/PageUnpinnedException.html" xlink:show="new"
           xlink:title="../bufmgr/PageUnpinnedException.html" xlink:type="simple">
            <rect fill="#FEFECE" filter="url(#f1k23jd9ge6l1k)" height="58.7422" id="bufmgr.PageUnpinnedException"
                  style="stroke: #A80036; stroke-width: 1.5;" width="265" x="6" y="106"/>
            <ellipse cx="49.35" cy="124.9688" fill="#ADD1B2" rx="11" ry="11"
                     style="stroke: #A80036; stroke-width: 1.0;"/>
            <path d="M52.3188,130.6094 Q51.7406,130.9063 51.1,131.0469 Q50.4594,131.2031 49.7563,131.2031 Q47.2563,131.2031 45.9281,129.5625 Q44.6156,127.9063 44.6156,124.7813 Q44.6156,121.6563 45.9281,120 Q47.2563,118.3438 49.7563,118.3438 Q50.4594,118.3438 51.1,118.5 Q51.7563,118.6563 52.3188,118.9531 L52.3188,121.6719 Q51.6938,121.0938 51.1,120.8281 Q50.5063,120.5469 49.8813,120.5469 Q48.5375,120.5469 47.85,121.625 Q47.1625,122.6875 47.1625,124.7813 Q47.1625,126.875 47.85,127.9531 Q48.5375,129.0156 49.8813,129.0156 Q50.5063,129.0156 51.1,128.75 Q51.6938,128.4688 52.3188,127.8906 L52.3188,130.6094 Z "/>
            <text fill="#000000" font-family="sans-serif" font-size="14" lengthAdjust="spacingAndGlyphs"
                  textLength="170" x="69.65" y="123.9951">PageUnpinnedException
            </text>
            <text fill="#000000" font-family="sans-serif" font-size="10" lengthAdjust="spacingAndGlyphs" textLength="36"
                  x="136.65" y="136.5791">bufmgr
            </text>
            <line style="stroke: #A80036; stroke-width: 1.5;" x1="7" x2="270" y1="143.9375" y2="143.9375"/>
            <ellipse cx="17" cy="154.9375" fill="#84BE84" rx="3" ry="3" style="stroke: #038048; stroke-width: 1.0;"/>
            <text fill="#000000" font-family="sans-serif" font-size="11" lengthAdjust="spacingAndGlyphs"
                  textLength="239" x="26" y="158.1479">PageUnpinnedException(Exception, String)
            </text>
        </a><!--MD5=[2a7cd8221fe6583b4d4c6786e4469311]
class chainexception.ChainException-->
        <a href="../chainexception/ChainException.html" target="_top" title="../chainexception/ChainException.html"
           xlink:actuate="onRequest" xlink:href="../chainexception/ChainException.html" xlink:show="new"
           xlink:title="../chainexception/ChainException.html" xlink:type="simple">
            <rect fill="#FEFECE" filter="url(#f1k23jd9ge6l1k)" height="37.9375" id="chainexception.ChainException"
                  style="stroke: #A80036; stroke-width: 1.5;" width="139" x="69" y="8"/>
            <ellipse cx="84" cy="26.9688" fill="#ADD1B2" rx="11" ry="11" style="stroke: #A80036; stroke-width: 1.0;"/>
            <path d="M86.9688,32.6094 Q86.3906,32.9063 85.75,33.0469 Q85.1094,33.2031 84.4063,33.2031 Q81.9063,33.2031 80.5781,31.5625 Q79.2656,29.9063 79.2656,26.7813 Q79.2656,23.6563 80.5781,22 Q81.9063,20.3438 84.4063,20.3438 Q85.1094,20.3438 85.75,20.5 Q86.4063,20.6563 86.9688,20.9531 L86.9688,23.6719 Q86.3438,23.0938 85.75,22.8281 Q85.1563,22.5469 84.5313,22.5469 Q83.1875,22.5469 82.5,23.625 Q81.8125,24.6875 81.8125,26.7813 Q81.8125,28.875 82.5,29.9531 Q83.1875,31.0156 84.5313,31.0156 Q85.1563,31.0156 85.75,30.75 Q86.3438,30.4688 86.9688,29.8906 L86.9688,32.6094 Z "/>
            <text fill="#000000" font-family="sans-serif" font-size="14" lengthAdjust="spacingAndGlyphs"
                  textLength="107" x="98" y="25.9951">ChainException
            </text>
            <text fill="#000000" font-family="sans-serif" font-size="10" lengthAdjust="spacingAndGlyphs" textLength="72"
                  x="115.5" y="38.5791">chainexception
            </text>
        </a><!--MD5=[0b5aaeff3223091dd795f8df87228a19]
reverse link chainexception.ChainException to bufmgr.PageUnpinnedException-->
        <path d="M138.5,66.3533 C138.5,79.4123 138.5,93.7197 138.5,105.9146 " fill="none"
              id="chainexception.ChainException&lt;-bufmgr.PageUnpinnedException"
              style="stroke: #A80036; stroke-width: 1.0;"/>
        <polygon fill="none" points="131.5001,66.1479,138.5,46.1479,145.5001,66.1478,131.5001,66.1479"
                 style="stroke: #A80036; stroke-width: 1.0;"/>
        <text fill="#888888" font-family="sans-serif" font-size="10" lengthAdjust="spacingAndGlyphs" textLength="186"
              x="51.5" y="184.2822">UMLDoclet 2.0.7, PlantUML 1.2019.12
        </text><!--MD5=[acd452743899f6db71878bd6c183d596]
@startuml
    set namespaceSeparator none
    hide empty fields
    hide empty methods

    class "<size:14>PageUnpinnedException\n<size:10>bufmgr" as bufmgr.PageUnpinnedException [[../bufmgr/PageUnpinnedException.html]] {
        +PageUnpinnedException(Exception, String)
    }

    class "<size:14>ChainException\n<size:10>chainexception" as chainexception.ChainException [[../chainexception/ChainException.html]]

    chainexception.ChainException <|- - bufmgr.PageUnpinnedException

    center footer UMLDoclet 2.0.7, PlantUML 1.2019.12
@enduml

PlantUML version 1.2019.12(Sun Nov 03 03:24:54 MST 2019)
(APACHE source distribution)
Java Runtime: Java(TM) SE Runtime Environment
JVM: Java HotSpot(TM) 64-Bit Server VM
Java Version: 11.0.6+8-LTS
Operating System: Linux
Default Encoding: UTF-8
Language: en
Country: US
-->
    </g>
</svg>