<?xml version="1.0" encoding="UTF-8" standalone="no"?>
<svg xmlns="http://www.w3.org/2000/svg" xmlns:xlink="http://www.w3.org/1999/xlink"
     contentScriptType="application/ecmascript" contentStyleType="text/css" height="197px" preserveAspectRatio="none"
     style="width:272px;height:197px;" version="1.1" viewBox="0 0 272 197" width="272px" zoomAndPan="magnify">
    <defs>
        <filter height="300%" id="f12608qhgmh3cn" width="300%" x="-1" y="-1">
            <feGaussianBlur result="blurOut" stdDeviation="2.0"/>
            <feColorMatrix in="blurOut" result="blurOut2" type="matrix"
                           values="0 0 0 0 0 0 0 0 0 0 0 0 0 0 0 0 0 0 .4 0"/>
            <feOffset dx="4.0" dy="4.0" in="blurOut2" result="blurOut3"/>
            <feBlend in="SourceGraphic" in2="blurOut3" mode="normal"/>
        </filter>
    </defs>
    <g><!--MD5=[5c5900a3095c7ec15992928e14d4bbdb]
class bufmgr.InvalidBufferException-->
        <a href="../bufmgr/InvalidBufferException.html" target="_top" title="../bufmgr/InvalidBufferException.html"
           xlink:actuate="onRequest" xlink:href="../bufmgr/InvalidBufferException.html" xlink:show="new"
           xlink:title="../bufmgr/InvalidBufferException.html" xlink:type="simple">
            <rect fill="#FEFECE" filter="url(#f12608qhgmh3cn)" height="58.7422" id="bufmgr.InvalidBufferException"
                  style="stroke: #A80036; stroke-width: 1.5;" width="255" x="6" y="106"/>
            <ellipse cx="53.75" cy="124.9688" fill="#ADD1B2" rx="11" ry="11"
                     style="stroke: #A80036; stroke-width: 1.0;"/>
            <path d="M56.7188,130.6094 Q56.1406,130.9063 55.5,131.0469 Q54.8594,131.2031 54.1563,131.2031 Q51.6563,131.2031 50.3281,129.5625 Q49.0156,127.9063 49.0156,124.7813 Q49.0156,121.6563 50.3281,120 Q51.6563,118.3438 54.1563,118.3438 Q54.8594,118.3438 55.5,118.5 Q56.1563,118.6563 56.7188,118.9531 L56.7188,121.6719 Q56.0938,121.0938 55.5,120.8281 Q54.9063,120.5469 54.2813,120.5469 Q52.9375,120.5469 52.25,121.625 Q51.5625,122.6875 51.5625,124.7813 Q51.5625,126.875 52.25,127.9531 Q52.9375,129.0156 54.2813,129.0156 Q54.9063,129.0156 55.5,128.75 Q56.0938,128.4688 56.7188,127.8906 L56.7188,130.6094 Z "/>
            <text fill="#000000" font-family="sans-serif" font-size="14" lengthAdjust="spacingAndGlyphs"
                  textLength="151" x="74.25" y="123.9951">InvalidBufferException
            </text>
            <text fill="#000000" font-family="sans-serif" font-size="10" lengthAdjust="spacingAndGlyphs" textLength="36"
                  x="131.75" y="136.5791">bufmgr
            </text>
            <line style="stroke: #A80036; stroke-width: 1.5;" x1="7" x2="260" y1="143.9375" y2="143.9375"/>
            <ellipse cx="17" cy="154.9375" fill="#84BE84" rx="3" ry="3" style="stroke: #038048; stroke-width: 1.0;"/>
            <text fill="#000000" font-family="sans-serif" font-size="11" lengthAdjust="spacingAndGlyphs"
                  textLength="229" x="26" y="158.1479">InvalidBufferException(Exception, String)
            </text>
        </a><!--MD5=[2a7cd8221fe6583b4d4c6786e4469311]
class chainexception.ChainException-->
        <a href="../chainexception/ChainException.html" target="_top" title="../chainexception/ChainException.html"
           xlink:actuate="onRequest" xlink:href="../chainexception/ChainException.html" xlink:show="new"
           xlink:title="../chainexception/ChainException.html" xlink:type="simple">
            <rect fill="#FEFECE" filter="url(#f12608qhgmh3cn)" height="37.9375" id="chainexception.ChainException"
                  style="stroke: #A80036; stroke-width: 1.5;" width="139" x="64" y="8"/>
            <ellipse cx="79" cy="26.9688" fill="#ADD1B2" rx="11" ry="11" style="stroke: #A80036; stroke-width: 1.0;"/>
            <path d="M81.9688,32.6094 Q81.3906,32.9063 80.75,33.0469 Q80.1094,33.2031 79.4063,33.2031 Q76.9063,33.2031 75.5781,31.5625 Q74.2656,29.9063 74.2656,26.7813 Q74.2656,23.6563 75.5781,22 Q76.9063,20.3438 79.4063,20.3438 Q80.1094,20.3438 80.75,20.5 Q81.4063,20.6563 81.9688,20.9531 L81.9688,23.6719 Q81.3438,23.0938 80.75,22.8281 Q80.1563,22.5469 79.5313,22.5469 Q78.1875,22.5469 77.5,23.625 Q76.8125,24.6875 76.8125,26.7813 Q76.8125,28.875 77.5,29.9531 Q78.1875,31.0156 79.5313,31.0156 Q80.1563,31.0156 80.75,30.75 Q81.3438,30.4688 81.9688,29.8906 L81.9688,32.6094 Z "/>
            <text fill="#000000" font-family="sans-serif" font-size="14" lengthAdjust="spacingAndGlyphs"
                  textLength="107" x="93" y="25.9951">ChainException
            </text>
            <text fill="#000000" font-family="sans-serif" font-size="10" lengthAdjust="spacingAndGlyphs" textLength="72"
                  x="110.5" y="38.5791">chainexception
            </text>
        </a><!--MD5=[5bf35d9bbfb85e34c093063985a4fe7a]
reverse link chainexception.ChainException to bufmgr.InvalidBufferException-->
        <path d="M133.5,66.3533 C133.5,79.4123 133.5,93.7197 133.5,105.9146 " fill="none"
              id="chainexception.ChainException&lt;-bufmgr.InvalidBufferException"
              style="stroke: #A80036; stroke-width: 1.0;"/>
        <polygon fill="none" points="126.5001,66.1479,133.5,46.1479,140.5001,66.1478,126.5001,66.1479"
                 style="stroke: #A80036; stroke-width: 1.0;"/>
        <text fill="#888888" font-family="sans-serif" font-size="10" lengthAdjust="spacingAndGlyphs" textLength="186"
              x="46.5" y="184.2822">UMLDoclet 2.0.7, PlantUML 1.2019.12
        </text><!--MD5=[6e525e9d65813e336bb490e115ad4f06]
@startuml
    set namespaceSeparator none
    hide empty fields
    hide empty methods

    class "<size:14>InvalidBufferException\n<size:10>bufmgr" as bufmgr.InvalidBufferException [[../bufmgr/InvalidBufferException.html]] {
        +InvalidBufferException(Exception, String)
    }

    class "<size:14>ChainException\n<size:10>chainexception" as chainexception.ChainException [[../chainexception/ChainException.html]]

    chainexception.ChainException <|- - bufmgr.InvalidBufferException

    center footer UMLDoclet 2.0.7, PlantUML 1.2019.12
@enduml

PlantUML version 1.2019.12(Sun Nov 03 03:24:54 MST 2019)
(APACHE source distribution)
Java Runtime: Java(TM) SE Runtime Environment
JVM: Java HotSpot(TM) 64-Bit Server VM
Java Version: 11.0.6+8-LTS
Operating System: Linux
Default Encoding: UTF-8
Language: en
Country: US
-->
    </g>
</svg>