<?xml version="1.0" encoding="UTF-8" standalone="no"?>
<svg xmlns="http://www.w3.org/2000/svg" xmlns:xlink="http://www.w3.org/1999/xlink"
     contentScriptType="application/ecmascript" contentStyleType="text/css" height="197px" preserveAspectRatio="none"
     style="width:241px;height:197px;" version="1.1" viewBox="0 0 241 197" width="241px" zoomAndPan="magnify">
    <defs>
        <filter height="300%" id="f17p6upxdl34cj" width="300%" x="-1" y="-1">
            <feGaussianBlur result="blurOut" stdDeviation="2.0"/>
            <feColorMatrix in="blurOut" result="blurOut2" type="matrix"
                           values="0 0 0 0 0 0 0 0 0 0 0 0 0 0 0 0 0 0 .4 0"/>
            <feOffset dx="4.0" dy="4.0" in="blurOut2" result="blurOut3"/>
            <feBlend in="SourceGraphic" in2="blurOut3" mode="normal"/>
        </filter>
    </defs>
    <g><!--MD5=[22719550d87229ea56737a9b00f19a2d]
class bufmgr.BufMgrException-->
        <a href="../bufmgr/BufMgrException.html" target="_top" title="../bufmgr/BufMgrException.html"
           xlink:actuate="onRequest" xlink:href="../bufmgr/BufMgrException.html" xlink:show="new"
           xlink:title="../bufmgr/BufMgrException.html" xlink:type="simple">
            <rect fill="#FEFECE" filter="url(#f17p6upxdl34cj)" height="58.7422" id="bufmgr.BufMgrException"
                  style="stroke: #A80036; stroke-width: 1.5;" width="224" x="6" y="106"/>
            <ellipse cx="55.25" cy="124.9688" fill="#ADD1B2" rx="11" ry="11"
                     style="stroke: #A80036; stroke-width: 1.0;"/>
            <path d="M58.2188,130.6094 Q57.6406,130.9063 57,131.0469 Q56.3594,131.2031 55.6563,131.2031 Q53.1563,131.2031 51.8281,129.5625 Q50.5156,127.9063 50.5156,124.7813 Q50.5156,121.6563 51.8281,120 Q53.1563,118.3438 55.6563,118.3438 Q56.3594,118.3438 57,118.5 Q57.6563,118.6563 58.2188,118.9531 L58.2188,121.6719 Q57.5938,121.0938 57,120.8281 Q56.4063,120.5469 55.7813,120.5469 Q54.4375,120.5469 53.75,121.625 Q53.0625,122.6875 53.0625,124.7813 Q53.0625,126.875 53.75,127.9531 Q54.4375,129.0156 55.7813,129.0156 Q56.4063,129.0156 57,128.75 Q57.5938,128.4688 58.2188,127.8906 L58.2188,130.6094 Z "/>
            <text fill="#000000" font-family="sans-serif" font-size="14" lengthAdjust="spacingAndGlyphs"
                  textLength="117" x="75.75" y="123.9951">BufMgrException
            </text>
            <text fill="#000000" font-family="sans-serif" font-size="10" lengthAdjust="spacingAndGlyphs" textLength="36"
                  x="116.25" y="136.5791">bufmgr
            </text>
            <line style="stroke: #A80036; stroke-width: 1.5;" x1="7" x2="229" y1="143.9375" y2="143.9375"/>
            <ellipse cx="17" cy="154.9375" fill="#84BE84" rx="3" ry="3" style="stroke: #038048; stroke-width: 1.0;"/>
            <text fill="#000000" font-family="sans-serif" font-size="11" lengthAdjust="spacingAndGlyphs"
                  textLength="198" x="26" y="158.1479">BufMgrException(Exception, String)
            </text>
        </a><!--MD5=[2a7cd8221fe6583b4d4c6786e4469311]
class chainexception.ChainException-->
        <a href="../chainexception/ChainException.html" target="_top" title="../chainexception/ChainException.html"
           xlink:actuate="onRequest" xlink:href="../chainexception/ChainException.html" xlink:show="new"
           xlink:title="../chainexception/ChainException.html" xlink:type="simple">
            <rect fill="#FEFECE" filter="url(#f17p6upxdl34cj)" height="37.9375" id="chainexception.ChainException"
                  style="stroke: #A80036; stroke-width: 1.5;" width="139" x="48.5" y="8"/>
            <ellipse cx="63.5" cy="26.9688" fill="#ADD1B2" rx="11" ry="11" style="stroke: #A80036; stroke-width: 1.0;"/>
            <path d="M66.4688,32.6094 Q65.8906,32.9063 65.25,33.0469 Q64.6094,33.2031 63.9063,33.2031 Q61.4063,33.2031 60.0781,31.5625 Q58.7656,29.9063 58.7656,26.7813 Q58.7656,23.6563 60.0781,22 Q61.4063,20.3438 63.9063,20.3438 Q64.6094,20.3438 65.25,20.5 Q65.9063,20.6563 66.4688,20.9531 L66.4688,23.6719 Q65.8438,23.0938 65.25,22.8281 Q64.6563,22.5469 64.0313,22.5469 Q62.6875,22.5469 62,23.625 Q61.3125,24.6875 61.3125,26.7813 Q61.3125,28.875 62,29.9531 Q62.6875,31.0156 64.0313,31.0156 Q64.6563,31.0156 65.25,30.75 Q65.8438,30.4688 66.4688,29.8906 L66.4688,32.6094 Z "/>
            <text fill="#000000" font-family="sans-serif" font-size="14" lengthAdjust="spacingAndGlyphs"
                  textLength="107" x="77.5" y="25.9951">ChainException
            </text>
            <text fill="#000000" font-family="sans-serif" font-size="10" lengthAdjust="spacingAndGlyphs" textLength="72"
                  x="95" y="38.5791">chainexception
            </text>
        </a><!--MD5=[e7919f77a50058012ca90455d19432c9]
reverse link chainexception.ChainException to bufmgr.BufMgrException-->
        <path d="M118,66.3533 C118,79.4123 118,93.7197 118,105.9146 " fill="none"
              id="chainexception.ChainException&lt;-bufmgr.BufMgrException"
              style="stroke: #A80036; stroke-width: 1.0;"/>
        <polygon fill="none" points="111.0001,66.1479,118,46.1479,125.0001,66.1478,111.0001,66.1479"
                 style="stroke: #A80036; stroke-width: 1.0;"/>
        <text fill="#888888" font-family="sans-serif" font-size="10" lengthAdjust="spacingAndGlyphs" textLength="186"
              x="31" y="184.2822">UMLDoclet 2.0.7, PlantUML 1.2019.12
        </text><!--MD5=[32ff94778d1664c6a91970b3c427c34e]
@startuml
    set namespaceSeparator none
    hide empty fields
    hide empty methods

    class "<size:14>BufMgrException\n<size:10>bufmgr" as bufmgr.BufMgrException [[../bufmgr/BufMgrException.html]] {
        +BufMgrException(Exception, String)
    }

    class "<size:14>ChainException\n<size:10>chainexception" as chainexception.ChainException [[../chainexception/ChainException.html]]

    chainexception.ChainException <|- - bufmgr.BufMgrException

    center footer UMLDoclet 2.0.7, PlantUML 1.2019.12
@enduml

PlantUML version 1.2019.12(Sun Nov 03 03:24:54 MST 2019)
(APACHE source distribution)
Java Runtime: Java(TM) SE Runtime Environment
JVM: Java HotSpot(TM) 64-Bit Server VM
Java Version: 11.0.6+8-LTS
Operating System: Linux
Default Encoding: UTF-8
Language: en
Country: US
-->
    </g>
</svg>