<?xml version="1.0" encoding="UTF-8" standalone="no"?>
<svg xmlns="http://www.w3.org/2000/svg" xmlns:xlink="http://www.w3.org/1999/xlink"
     contentScriptType="application/ecmascript" contentStyleType="text/css" height="197px" preserveAspectRatio="none"
     style="width:318px;height:197px;" version="1.1" viewBox="0 0 318 197" width="318px" zoomAndPan="magnify">
    <defs>
        <filter height="300%" id="f2kpmqvqpnvav" width="300%" x="-1" y="-1">
            <feGaussianBlur result="blurOut" stdDeviation="2.0"/>
            <feColorMatrix in="blurOut" result="blurOut2" type="matrix"
                           values="0 0 0 0 0 0 0 0 0 0 0 0 0 0 0 0 0 0 .4 0"/>
            <feOffset dx="4.0" dy="4.0" in="blurOut2" result="blurOut3"/>
            <feBlend in="SourceGraphic" in2="blurOut3" mode="normal"/>
        </filter>
    </defs>
    <g><!--MD5=[d205cb8364eb64a384e251770da1ac07]
class bufmgr.InvalidFrameNumberException-->
        <a href="../bufmgr/InvalidFrameNumberException.html" target="_top"
           title="../bufmgr/InvalidFrameNumberException.html" xlink:actuate="onRequest"
           xlink:href="../bufmgr/InvalidFrameNumberException.html" xlink:show="new"
           xlink:title="../bufmgr/InvalidFrameNumberException.html" xlink:type="simple">
            <rect fill="#FEFECE" filter="url(#f2kpmqvqpnvav)" height="58.7422" id="bufmgr.InvalidFrameNumberException"
                  style="stroke: #A80036; stroke-width: 1.5;" width="301" x="6" y="106"/>
            <ellipse cx="48.45" cy="124.9688" fill="#ADD1B2" rx="11" ry="11"
                     style="stroke: #A80036; stroke-width: 1.0;"/>
            <path d="M51.4188,130.6094 Q50.8406,130.9063 50.2,131.0469 Q49.5594,131.2031 48.8563,131.2031 Q46.3563,131.2031 45.0281,129.5625 Q43.7156,127.9063 43.7156,124.7813 Q43.7156,121.6563 45.0281,120 Q46.3563,118.3438 48.8563,118.3438 Q49.5594,118.3438 50.2,118.5 Q50.8563,118.6563 51.4188,118.9531 L51.4188,121.6719 Q50.7938,121.0938 50.2,120.8281 Q49.6063,120.5469 48.9813,120.5469 Q47.6375,120.5469 46.95,121.625 Q46.2625,122.6875 46.2625,124.7813 Q46.2625,126.875 46.95,127.9531 Q47.6375,129.0156 48.9813,129.0156 Q49.6063,129.0156 50.2,128.75 Q50.7938,128.4688 51.4188,127.8906 L51.4188,130.6094 Z "/>
            <text fill="#000000" font-family="sans-serif" font-size="14" lengthAdjust="spacingAndGlyphs"
                  textLength="208" x="68.55" y="123.9951">InvalidFrameNumberException
            </text>
            <text fill="#000000" font-family="sans-serif" font-size="10" lengthAdjust="spacingAndGlyphs" textLength="36"
                  x="154.55" y="136.5791">bufmgr
            </text>
            <line style="stroke: #A80036; stroke-width: 1.5;" x1="7" x2="306" y1="143.9375" y2="143.9375"/>
            <ellipse cx="17" cy="154.9375" fill="#84BE84" rx="3" ry="3" style="stroke: #038048; stroke-width: 1.0;"/>
            <text fill="#000000" font-family="sans-serif" font-size="11" lengthAdjust="spacingAndGlyphs"
                  textLength="275" x="26" y="158.1479">InvalidFrameNumberException(Exception, String)
            </text>
        </a><!--MD5=[2a7cd8221fe6583b4d4c6786e4469311]
class chainexception.ChainException-->
        <a href="../chainexception/ChainException.html" target="_top" title="../chainexception/ChainException.html"
           xlink:actuate="onRequest" xlink:href="../chainexception/ChainException.html" xlink:show="new"
           xlink:title="../chainexception/ChainException.html" xlink:type="simple">
            <rect fill="#FEFECE" filter="url(#f2kpmqvqpnvav)" height="37.9375" id="chainexception.ChainException"
                  style="stroke: #A80036; stroke-width: 1.5;" width="139" x="87" y="8"/>
            <ellipse cx="102" cy="26.9688" fill="#ADD1B2" rx="11" ry="11" style="stroke: #A80036; stroke-width: 1.0;"/>
            <path d="M104.9688,32.6094 Q104.3906,32.9063 103.75,33.0469 Q103.1094,33.2031 102.4063,33.2031 Q99.9063,33.2031 98.5781,31.5625 Q97.2656,29.9063 97.2656,26.7813 Q97.2656,23.6563 98.5781,22 Q99.9063,20.3438 102.4063,20.3438 Q103.1094,20.3438 103.75,20.5 Q104.4063,20.6563 104.9688,20.9531 L104.9688,23.6719 Q104.3438,23.0938 103.75,22.8281 Q103.1563,22.5469 102.5313,22.5469 Q101.1875,22.5469 100.5,23.625 Q99.8125,24.6875 99.8125,26.7813 Q99.8125,28.875 100.5,29.9531 Q101.1875,31.0156 102.5313,31.0156 Q103.1563,31.0156 103.75,30.75 Q104.3438,30.4688 104.9688,29.8906 L104.9688,32.6094 Z "/>
            <text fill="#000000" font-family="sans-serif" font-size="14" lengthAdjust="spacingAndGlyphs"
                  textLength="107" x="116" y="25.9951">ChainException
            </text>
            <text fill="#000000" font-family="sans-serif" font-size="10" lengthAdjust="spacingAndGlyphs" textLength="72"
                  x="133.5" y="38.5791">chainexception
            </text>
        </a><!--MD5=[9eeb1e5c63830e2d048b44a507d34dad]
reverse link chainexception.ChainException to bufmgr.InvalidFrameNumberException-->
        <path d="M156.5,66.3533 C156.5,79.4123 156.5,93.7197 156.5,105.9146 " fill="none"
              id="chainexception.ChainException&lt;-bufmgr.InvalidFrameNumberException"
              style="stroke: #A80036; stroke-width: 1.0;"/>
        <polygon fill="none" points="149.5001,66.1479,156.5,46.1479,163.5001,66.1478,149.5001,66.1479"
                 style="stroke: #A80036; stroke-width: 1.0;"/>
        <text fill="#888888" font-family="sans-serif" font-size="10" lengthAdjust="spacingAndGlyphs" textLength="186"
              x="69.5" y="184.2822">UMLDoclet 2.0.7, PlantUML 1.2019.12
        </text><!--MD5=[1b298a0a31e55a17efa8fcbd4d6ecc5f]
@startuml
    set namespaceSeparator none
    hide empty fields
    hide empty methods

    class "<size:14>InvalidFrameNumberException\n<size:10>bufmgr" as bufmgr.InvalidFrameNumberException [[../bufmgr/InvalidFrameNumberException.html]] {
        +InvalidFrameNumberException(Exception, String)
    }

    class "<size:14>ChainException\n<size:10>chainexception" as chainexception.ChainException [[../chainexception/ChainException.html]]

    chainexception.ChainException <|- - bufmgr.InvalidFrameNumberException

    center footer UMLDoclet 2.0.7, PlantUML 1.2019.12
@enduml

PlantUML version 1.2019.12(Sun Nov 03 03:24:54 MST 2019)
(APACHE source distribution)
Java Runtime: Java(TM) SE Runtime Environment
JVM: Java HotSpot(TM) 64-Bit Server VM
Java Version: 11.0.6+8-LTS
Operating System: Linux
Default Encoding: UTF-8
Language: en
Country: US
-->
    </g>
</svg>