<?xml version="1.0" encoding="UTF-8" standalone="no"?>
<svg xmlns="http://www.w3.org/2000/svg" xmlns:xlink="http://www.w3.org/1999/xlink"
     contentScriptType="application/ecmascript" contentStyleType="text/css" height="197px" preserveAspectRatio="none"
     style="width:276px;height:197px;" version="1.1" viewBox="0 0 276 197" width="276px" zoomAndPan="magnify">
    <defs>
        <filter height="300%" id="f1yk2s6meltp0" width="300%" x="-1" y="-1">
            <feGaussianBlur result="blurOut" stdDeviation="2.0"/>
            <feColorMatrix in="blurOut" result="blurOut2" type="matrix"
                           values="0 0 0 0 0 0 0 0 0 0 0 0 0 0 0 0 0 0 .4 0"/>
            <feOffset dx="4.0" dy="4.0" in="blurOut2" result="blurOut3"/>
            <feBlend in="SourceGraphic" in2="blurOut3" mode="normal"/>
        </filter>
    </defs>
    <g><!--MD5=[1e8dd92f4d34d252db6c1b34200de5b8]
class bufmgr.PageNotReadException-->
        <a href="../bufmgr/PageNotReadException.html" target="_top" title="../bufmgr/PageNotReadException.html"
           xlink:actuate="onRequest" xlink:href="../bufmgr/PageNotReadException.html" xlink:show="new"
           xlink:title="../bufmgr/PageNotReadException.html" xlink:type="simple">
            <rect fill="#FEFECE" filter="url(#f1yk2s6meltp0)" height="58.7422" id="bufmgr.PageNotReadException"
                  style="stroke: #A80036; stroke-width: 1.5;" width="259" x="6" y="106"/>
            <ellipse cx="49.8" cy="124.9688" fill="#ADD1B2" rx="11" ry="11"
                     style="stroke: #A80036; stroke-width: 1.0;"/>
            <path d="M52.7688,130.6094 Q52.1906,130.9063 51.55,131.0469 Q50.9094,131.2031 50.2063,131.2031 Q47.7063,131.2031 46.3781,129.5625 Q45.0656,127.9063 45.0656,124.7813 Q45.0656,121.6563 46.3781,120 Q47.7063,118.3438 50.2063,118.3438 Q50.9094,118.3438 51.55,118.5 Q52.2063,118.6563 52.7688,118.9531 L52.7688,121.6719 Q52.1438,121.0938 51.55,120.8281 Q50.9563,120.5469 50.3313,120.5469 Q48.9875,120.5469 48.3,121.625 Q47.6125,122.6875 47.6125,124.7813 Q47.6125,126.875 48.3,127.9531 Q48.9875,129.0156 50.3313,129.0156 Q50.9563,129.0156 51.55,128.75 Q52.1438,128.4688 52.7688,127.8906 L52.7688,130.6094 Z "/>
            <text fill="#000000" font-family="sans-serif" font-size="14" lengthAdjust="spacingAndGlyphs"
                  textLength="163" x="70.2" y="123.9951">PageNotReadException
            </text>
            <text fill="#000000" font-family="sans-serif" font-size="10" lengthAdjust="spacingAndGlyphs" textLength="36"
                  x="133.7" y="136.5791">bufmgr
            </text>
            <line style="stroke: #A80036; stroke-width: 1.5;" x1="7" x2="264" y1="143.9375" y2="143.9375"/>
            <ellipse cx="17" cy="154.9375" fill="#84BE84" rx="3" ry="3" style="stroke: #038048; stroke-width: 1.0;"/>
            <text fill="#000000" font-family="sans-serif" font-size="11" lengthAdjust="spacingAndGlyphs"
                  textLength="233" x="26" y="158.1479">PageNotReadException(Exception, String)
            </text>
        </a><!--MD5=[2a7cd8221fe6583b4d4c6786e4469311]
class chainexception.ChainException-->
        <a href="../chainexception/ChainException.html" target="_top" title="../chainexception/ChainException.html"
           xlink:actuate="onRequest" xlink:href="../chainexception/ChainException.html" xlink:show="new"
           xlink:title="../chainexception/ChainException.html" xlink:type="simple">
            <rect fill="#FEFECE" filter="url(#f1yk2s6meltp0)" height="37.9375" id="chainexception.ChainException"
                  style="stroke: #A80036; stroke-width: 1.5;" width="139" x="66" y="8"/>
            <ellipse cx="81" cy="26.9688" fill="#ADD1B2" rx="11" ry="11" style="stroke: #A80036; stroke-width: 1.0;"/>
            <path d="M83.9688,32.6094 Q83.3906,32.9063 82.75,33.0469 Q82.1094,33.2031 81.4063,33.2031 Q78.9063,33.2031 77.5781,31.5625 Q76.2656,29.9063 76.2656,26.7813 Q76.2656,23.6563 77.5781,22 Q78.9063,20.3438 81.4063,20.3438 Q82.1094,20.3438 82.75,20.5 Q83.4063,20.6563 83.9688,20.9531 L83.9688,23.6719 Q83.3438,23.0938 82.75,22.8281 Q82.1563,22.5469 81.5313,22.5469 Q80.1875,22.5469 79.5,23.625 Q78.8125,24.6875 78.8125,26.7813 Q78.8125,28.875 79.5,29.9531 Q80.1875,31.0156 81.5313,31.0156 Q82.1563,31.0156 82.75,30.75 Q83.3438,30.4688 83.9688,29.8906 L83.9688,32.6094 Z "/>
            <text fill="#000000" font-family="sans-serif" font-size="14" lengthAdjust="spacingAndGlyphs"
                  textLength="107" x="95" y="25.9951">ChainException
            </text>
            <text fill="#000000" font-family="sans-serif" font-size="10" lengthAdjust="spacingAndGlyphs" textLength="72"
                  x="112.5" y="38.5791">chainexception
            </text>
        </a><!--MD5=[dbed5ae79574367199b7d14669050bc9]
reverse link chainexception.ChainException to bufmgr.PageNotReadException-->
        <path d="M135.5,66.3533 C135.5,79.4123 135.5,93.7197 135.5,105.9146 " fill="none"
              id="chainexception.ChainException&lt;-bufmgr.PageNotReadException"
              style="stroke: #A80036; stroke-width: 1.0;"/>
        <polygon fill="none" points="128.5001,66.1479,135.5,46.1479,142.5001,66.1478,128.5001,66.1479"
                 style="stroke: #A80036; stroke-width: 1.0;"/>
        <text fill="#888888" font-family="sans-serif" font-size="10" lengthAdjust="spacingAndGlyphs" textLength="186"
              x="48.5" y="184.2822">UMLDoclet 2.0.7, PlantUML 1.2019.12
        </text><!--MD5=[110dae41fe07d361e3a9f239dc540951]
@startuml
    set namespaceSeparator none
    hide empty fields
    hide empty methods

    class "<size:14>PageNotReadException\n<size:10>bufmgr" as bufmgr.PageNotReadException [[../bufmgr/PageNotReadException.html]] {
        +PageNotReadException(Exception, String)
    }

    class "<size:14>ChainException\n<size:10>chainexception" as chainexception.ChainException [[../chainexception/ChainException.html]]

    chainexception.ChainException <|- - bufmgr.PageNotReadException

    center footer UMLDoclet 2.0.7, PlantUML 1.2019.12
@enduml

PlantUML version 1.2019.12(Sun Nov 03 03:24:54 MST 2019)
(APACHE source distribution)
Java Runtime: Java(TM) SE Runtime Environment
JVM: Java HotSpot(TM) 64-Bit Server VM
Java Version: 11.0.6+8-LTS
Operating System: Linux
Default Encoding: UTF-8
Language: en
Country: US
-->
    </g>
</svg>