<?xml version="1.0" encoding="UTF-8" standalone="no"?>
<svg xmlns="http://www.w3.org/2000/svg" xmlns:xlink="http://www.w3.org/1999/xlink"
     contentScriptType="application/ecmascript" contentStyleType="text/css" height="197px" preserveAspectRatio="none"
     style="width:267px;height:197px;" version="1.1" viewBox="0 0 267 197" width="267px" zoomAndPan="magnify">
    <defs>
        <filter height="300%" id="ff3f0ac0u3mxr" width="300%" x="-1" y="-1">
            <feGaussianBlur result="blurOut" stdDeviation="2.0"/>
            <feColorMatrix in="blurOut" result="blurOut2" type="matrix"
                           values="0 0 0 0 0 0 0 0 0 0 0 0 0 0 0 0 0 0 .4 0"/>
            <feOffset dx="4.0" dy="4.0" in="blurOut2" result="blurOut3"/>
            <feBlend in="SourceGraphic" in2="blurOut3" mode="normal"/>
        </filter>
    </defs>
    <g><!--MD5=[f9665659da7f76243f898ef8b71228db]
class bufmgr.PagePinnedException-->
        <a href="../bufmgr/PagePinnedException.html" target="_top" title="../bufmgr/PagePinnedException.html"
           xlink:actuate="onRequest" xlink:href="../bufmgr/PagePinnedException.html" xlink:show="new"
           xlink:title="../bufmgr/PagePinnedException.html" xlink:type="simple">
            <rect fill="#FEFECE" filter="url(#ff3f0ac0u3mxr)" height="58.7422" id="bufmgr.PagePinnedException"
                  style="stroke: #A80036; stroke-width: 1.5;" width="250" x="6" y="106"/>
            <ellipse cx="51.25" cy="124.9688" fill="#ADD1B2" rx="11" ry="11"
                     style="stroke: #A80036; stroke-width: 1.0;"/>
            <path d="M54.2188,130.6094 Q53.6406,130.9063 53,131.0469 Q52.3594,131.2031 51.6563,131.2031 Q49.1563,131.2031 47.8281,129.5625 Q46.5156,127.9063 46.5156,124.7813 Q46.5156,121.6563 47.8281,120 Q49.1563,118.3438 51.6563,118.3438 Q52.3594,118.3438 53,118.5 Q53.6563,118.6563 54.2188,118.9531 L54.2188,121.6719 Q53.5938,121.0938 53,120.8281 Q52.4063,120.5469 51.7813,120.5469 Q50.4375,120.5469 49.75,121.625 Q49.0625,122.6875 49.0625,124.7813 Q49.0625,126.875 49.75,127.9531 Q50.4375,129.0156 51.7813,129.0156 Q52.4063,129.0156 53,128.75 Q53.5938,128.4688 54.2188,127.8906 L54.2188,130.6094 Z "/>
            <text fill="#000000" font-family="sans-serif" font-size="14" lengthAdjust="spacingAndGlyphs"
                  textLength="151" x="71.75" y="123.9951">PagePinnedException
            </text>
            <text fill="#000000" font-family="sans-serif" font-size="10" lengthAdjust="spacingAndGlyphs" textLength="36"
                  x="129.25" y="136.5791">bufmgr
            </text>
            <line style="stroke: #A80036; stroke-width: 1.5;" x1="7" x2="255" y1="143.9375" y2="143.9375"/>
            <ellipse cx="17" cy="154.9375" fill="#84BE84" rx="3" ry="3" style="stroke: #038048; stroke-width: 1.0;"/>
            <text fill="#000000" font-family="sans-serif" font-size="11" lengthAdjust="spacingAndGlyphs"
                  textLength="224" x="26" y="158.1479">PagePinnedException(Exception, String)
            </text>
        </a><!--MD5=[2a7cd8221fe6583b4d4c6786e4469311]
class chainexception.ChainException-->
        <a href="../chainexception/ChainException.html" target="_top" title="../chainexception/ChainException.html"
           xlink:actuate="onRequest" xlink:href="../chainexception/ChainException.html" xlink:show="new"
           xlink:title="../chainexception/ChainException.html" xlink:type="simple">
            <rect fill="#FEFECE" filter="url(#ff3f0ac0u3mxr)" height="37.9375" id="chainexception.ChainException"
                  style="stroke: #A80036; stroke-width: 1.5;" width="139" x="61.5" y="8"/>
            <ellipse cx="76.5" cy="26.9688" fill="#ADD1B2" rx="11" ry="11" style="stroke: #A80036; stroke-width: 1.0;"/>
            <path d="M79.4688,32.6094 Q78.8906,32.9063 78.25,33.0469 Q77.6094,33.2031 76.9063,33.2031 Q74.4063,33.2031 73.0781,31.5625 Q71.7656,29.9063 71.7656,26.7813 Q71.7656,23.6563 73.0781,22 Q74.4063,20.3438 76.9063,20.3438 Q77.6094,20.3438 78.25,20.5 Q78.9063,20.6563 79.4688,20.9531 L79.4688,23.6719 Q78.8438,23.0938 78.25,22.8281 Q77.6563,22.5469 77.0313,22.5469 Q75.6875,22.5469 75,23.625 Q74.3125,24.6875 74.3125,26.7813 Q74.3125,28.875 75,29.9531 Q75.6875,31.0156 77.0313,31.0156 Q77.6563,31.0156 78.25,30.75 Q78.8438,30.4688 79.4688,29.8906 L79.4688,32.6094 Z "/>
            <text fill="#000000" font-family="sans-serif" font-size="14" lengthAdjust="spacingAndGlyphs"
                  textLength="107" x="90.5" y="25.9951">ChainException
            </text>
            <text fill="#000000" font-family="sans-serif" font-size="10" lengthAdjust="spacingAndGlyphs" textLength="72"
                  x="108" y="38.5791">chainexception
            </text>
        </a><!--MD5=[c09b3f59dd78536dd7e054290cc0e1c0]
reverse link chainexception.ChainException to bufmgr.PagePinnedException-->
        <path d="M131,66.3533 C131,79.4123 131,93.7197 131,105.9146 " fill="none"
              id="chainexception.ChainException&lt;-bufmgr.PagePinnedException"
              style="stroke: #A80036; stroke-width: 1.0;"/>
        <polygon fill="none" points="124.0001,66.1479,131,46.1479,138.0001,66.1478,124.0001,66.1479"
                 style="stroke: #A80036; stroke-width: 1.0;"/>
        <text fill="#888888" font-family="sans-serif" font-size="10" lengthAdjust="spacingAndGlyphs" textLength="186"
              x="44" y="184.2822">UMLDoclet 2.0.7, PlantUML 1.2019.12
        </text><!--MD5=[a408ae915a09fdfd2d105bef8f9e78b0]
@startuml
    set namespaceSeparator none
    hide empty fields
    hide empty methods

    class "<size:14>PagePinnedException\n<size:10>bufmgr" as bufmgr.PagePinnedException [[../bufmgr/PagePinnedException.html]] {
        +PagePinnedException(Exception, String)
    }

    class "<size:14>ChainException\n<size:10>chainexception" as chainexception.ChainException [[../chainexception/ChainException.html]]

    chainexception.ChainException <|- - bufmgr.PagePinnedException

    center footer UMLDoclet 2.0.7, PlantUML 1.2019.12
@enduml

PlantUML version 1.2019.12(Sun Nov 03 03:24:54 MST 2019)
(APACHE source distribution)
Java Runtime: Java(TM) SE Runtime Environment
JVM: Java HotSpot(TM) 64-Bit Server VM
Java Version: 11.0.6+8-LTS
Operating System: Linux
Default Encoding: UTF-8
Language: en
Country: US
-->
    </g>
</svg>