<?xml version="1.0" encoding="UTF-8" standalone="no"?>
<svg xmlns="http://www.w3.org/2000/svg" xmlns:xlink="http://www.w3.org/1999/xlink"
     contentScriptType="application/ecmascript" contentStyleType="text/css" height="197px" preserveAspectRatio="none"
     style="width:312px;height:197px;" version="1.1" viewBox="0 0 312 197" width="312px" zoomAndPan="magnify">
    <defs>
        <filter height="300%" id="f1p78sgfmr5epx" width="300%" x="-1" y="-1">
            <feGaussianBlur result="blurOut" stdDeviation="2.0"/>
            <feColorMatrix in="blurOut" result="blurOut2" type="matrix"
                           values="0 0 0 0 0 0 0 0 0 0 0 0 0 0 0 0 0 0 .4 0"/>
            <feOffset dx="4.0" dy="4.0" in="blurOut2" result="blurOut3"/>
            <feBlend in="SourceGraphic" in2="blurOut3" mode="normal"/>
        </filter>
    </defs>
    <g><!--MD5=[00aba8d08d5f756a0ef07aaff1a7b35f]
class bufmgr.HashEntryNotFoundException-->
        <a href="../bufmgr/HashEntryNotFoundException.html" target="_top"
           title="../bufmgr/HashEntryNotFoundException.html" xlink:actuate="onRequest"
           xlink:href="../bufmgr/HashEntryNotFoundException.html" xlink:show="new"
           xlink:title="../bufmgr/HashEntryNotFoundException.html" xlink:type="simple">
            <rect fill="#FEFECE" filter="url(#f1p78sgfmr5epx)" height="58.7422" id="bufmgr.HashEntryNotFoundException"
                  style="stroke: #A80036; stroke-width: 1.5;" width="295" x="6" y="106"/>
            <ellipse cx="46.65" cy="124.9688" fill="#ADD1B2" rx="11" ry="11"
                     style="stroke: #A80036; stroke-width: 1.0;"/>
            <path d="M49.6188,130.6094 Q49.0406,130.9063 48.4,131.0469 Q47.7594,131.2031 47.0563,131.2031 Q44.5563,131.2031 43.2281,129.5625 Q41.9156,127.9063 41.9156,124.7813 Q41.9156,121.6563 43.2281,120 Q44.5563,118.3438 47.0563,118.3438 Q47.7594,118.3438 48.4,118.5 Q49.0563,118.6563 49.6188,118.9531 L49.6188,121.6719 Q48.9938,121.0938 48.4,120.8281 Q47.8063,120.5469 47.1813,120.5469 Q45.8375,120.5469 45.15,121.625 Q44.4625,122.6875 44.4625,124.7813 Q44.4625,126.875 45.15,127.9531 Q45.8375,129.0156 47.1813,129.0156 Q47.8063,129.0156 48.4,128.75 Q48.9938,128.4688 49.6188,127.8906 L49.6188,130.6094 Z "/>
            <text fill="#000000" font-family="sans-serif" font-size="14" lengthAdjust="spacingAndGlyphs"
                  textLength="206" x="66.35" y="123.9951">HashEntryNotFoundException
            </text>
            <text fill="#000000" font-family="sans-serif" font-size="10" lengthAdjust="spacingAndGlyphs" textLength="36"
                  x="151.35" y="136.5791">bufmgr
            </text>
            <line style="stroke: #A80036; stroke-width: 1.5;" x1="7" x2="300" y1="143.9375" y2="143.9375"/>
            <ellipse cx="17" cy="154.9375" fill="#84BE84" rx="3" ry="3" style="stroke: #038048; stroke-width: 1.0;"/>
            <text fill="#000000" font-family="sans-serif" font-size="11" lengthAdjust="spacingAndGlyphs"
                  textLength="269" x="26" y="158.1479">HashEntryNotFoundException(Exception, String)
            </text>
        </a><!--MD5=[2a7cd8221fe6583b4d4c6786e4469311]
class chainexception.ChainException-->
        <a href="../chainexception/ChainException.html" target="_top" title="../chainexception/ChainException.html"
           xlink:actuate="onRequest" xlink:href="../chainexception/ChainException.html" xlink:show="new"
           xlink:title="../chainexception/ChainException.html" xlink:type="simple">
            <rect fill="#FEFECE" filter="url(#f1p78sgfmr5epx)" height="37.9375" id="chainexception.ChainException"
                  style="stroke: #A80036; stroke-width: 1.5;" width="139" x="84" y="8"/>
            <ellipse cx="99" cy="26.9688" fill="#ADD1B2" rx="11" ry="11" style="stroke: #A80036; stroke-width: 1.0;"/>
            <path d="M101.9688,32.6094 Q101.3906,32.9063 100.75,33.0469 Q100.1094,33.2031 99.4063,33.2031 Q96.9063,33.2031 95.5781,31.5625 Q94.2656,29.9063 94.2656,26.7813 Q94.2656,23.6563 95.5781,22 Q96.9063,20.3438 99.4063,20.3438 Q100.1094,20.3438 100.75,20.5 Q101.4063,20.6563 101.9688,20.9531 L101.9688,23.6719 Q101.3438,23.0938 100.75,22.8281 Q100.1563,22.5469 99.5313,22.5469 Q98.1875,22.5469 97.5,23.625 Q96.8125,24.6875 96.8125,26.7813 Q96.8125,28.875 97.5,29.9531 Q98.1875,31.0156 99.5313,31.0156 Q100.1563,31.0156 100.75,30.75 Q101.3438,30.4688 101.9688,29.8906 L101.9688,32.6094 Z "/>
            <text fill="#000000" font-family="sans-serif" font-size="14" lengthAdjust="spacingAndGlyphs"
                  textLength="107" x="113" y="25.9951">ChainException
            </text>
            <text fill="#000000" font-family="sans-serif" font-size="10" lengthAdjust="spacingAndGlyphs" textLength="72"
                  x="130.5" y="38.5791">chainexception
            </text>
        </a><!--MD5=[099df022acbedc8cac7d90d91a62449b]
reverse link chainexception.ChainException to bufmgr.HashEntryNotFoundException-->
        <path d="M153.5,66.3533 C153.5,79.4123 153.5,93.7197 153.5,105.9146 " fill="none"
              id="chainexception.ChainException&lt;-bufmgr.HashEntryNotFoundException"
              style="stroke: #A80036; stroke-width: 1.0;"/>
        <polygon fill="none" points="146.5001,66.1479,153.5,46.1479,160.5001,66.1478,146.5001,66.1479"
                 style="stroke: #A80036; stroke-width: 1.0;"/>
        <text fill="#888888" font-family="sans-serif" font-size="10" lengthAdjust="spacingAndGlyphs" textLength="186"
              x="66.5" y="184.2822">UMLDoclet 2.0.7, PlantUML 1.2019.12
        </text><!--MD5=[f98c0db61d45103f26c3f5a0622e482a]
@startuml
    set namespaceSeparator none
    hide empty fields
    hide empty methods

    class "<size:14>HashEntryNotFoundException\n<size:10>bufmgr" as bufmgr.HashEntryNotFoundException [[../bufmgr/HashEntryNotFoundException.html]] {
        +HashEntryNotFoundException(Exception, String)
    }

    class "<size:14>ChainException\n<size:10>chainexception" as chainexception.ChainException [[../chainexception/ChainException.html]]

    chainexception.ChainException <|- - bufmgr.HashEntryNotFoundException

    center footer UMLDoclet 2.0.7, PlantUML 1.2019.12
@enduml

PlantUML version 1.2019.12(Sun Nov 03 03:24:54 MST 2019)
(APACHE source distribution)
Java Runtime: Java(TM) SE Runtime Environment
JVM: Java HotSpot(TM) 64-Bit Server VM
Java Version: 11.0.6+8-LTS
Operating System: Linux
Default Encoding: UTF-8
Language: en
Country: US
-->
    </g>
</svg>