<?xml version="1.0" encoding="UTF-8" standalone="no"?>
<svg xmlns="http://www.w3.org/2000/svg" xmlns:xlink="http://www.w3.org/1999/xlink"
     contentScriptType="application/ecmascript" contentStyleType="text/css" height="197px" preserveAspectRatio="none"
     style="width:286px;height:197px;" version="1.1" viewBox="0 0 286 197" width="286px" zoomAndPan="magnify">
    <defs>
        <filter height="300%" id="f1mbwzjp3uyq8l" width="300%" x="-1" y="-1">
            <feGaussianBlur result="blurOut" stdDeviation="2.0"/>
            <feColorMatrix in="blurOut" result="blurOut2" type="matrix"
                           values="0 0 0 0 0 0 0 0 0 0 0 0 0 0 0 0 0 0 .4 0"/>
            <feOffset dx="4.0" dy="4.0" in="blurOut2" result="blurOut3"/>
            <feBlend in="SourceGraphic" in2="blurOut3" mode="normal"/>
        </filter>
    </defs>
    <g><!--MD5=[6dd2d44efc7cdeff963f70eece5777fa]
class bufmgr.HashOperationException-->
        <a href="../bufmgr/HashOperationException.html" target="_top" title="../bufmgr/HashOperationException.html"
           xlink:actuate="onRequest" xlink:href="../bufmgr/HashOperationException.html" xlink:show="new"
           xlink:title="../bufmgr/HashOperationException.html" xlink:type="simple">
            <rect fill="#FEFECE" filter="url(#f1mbwzjp3uyq8l)" height="58.7422" id="bufmgr.HashOperationException"
                  style="stroke: #A80036; stroke-width: 1.5;" width="269" x="6" y="106"/>
            <ellipse cx="50.75" cy="124.9688" fill="#ADD1B2" rx="11" ry="11"
                     style="stroke: #A80036; stroke-width: 1.0;"/>
            <path d="M53.7188,130.6094 Q53.1406,130.9063 52.5,131.0469 Q51.8594,131.2031 51.1563,131.2031 Q48.6563,131.2031 47.3281,129.5625 Q46.0156,127.9063 46.0156,124.7813 Q46.0156,121.6563 47.3281,120 Q48.6563,118.3438 51.1563,118.3438 Q51.8594,118.3438 52.5,118.5 Q53.1563,118.6563 53.7188,118.9531 L53.7188,121.6719 Q53.0938,121.0938 52.5,120.8281 Q51.9063,120.5469 51.2813,120.5469 Q49.9375,120.5469 49.25,121.625 Q48.5625,122.6875 48.5625,124.7813 Q48.5625,126.875 49.25,127.9531 Q49.9375,129.0156 51.2813,129.0156 Q51.9063,129.0156 52.5,128.75 Q53.0938,128.4688 53.7188,127.8906 L53.7188,130.6094 Z "/>
            <text fill="#000000" font-family="sans-serif" font-size="14" lengthAdjust="spacingAndGlyphs"
                  textLength="171" x="71.25" y="123.9951">HashOperationException
            </text>
            <text fill="#000000" font-family="sans-serif" font-size="10" lengthAdjust="spacingAndGlyphs" textLength="36"
                  x="138.75" y="136.5791">bufmgr
            </text>
            <line style="stroke: #A80036; stroke-width: 1.5;" x1="7" x2="274" y1="143.9375" y2="143.9375"/>
            <ellipse cx="17" cy="154.9375" fill="#84BE84" rx="3" ry="3" style="stroke: #038048; stroke-width: 1.0;"/>
            <text fill="#000000" font-family="sans-serif" font-size="11" lengthAdjust="spacingAndGlyphs"
                  textLength="243" x="26" y="158.1479">HashOperationException(Exception, String)
            </text>
        </a><!--MD5=[2a7cd8221fe6583b4d4c6786e4469311]
class chainexception.ChainException-->
        <a href="../chainexception/ChainException.html" target="_top" title="../chainexception/ChainException.html"
           xlink:actuate="onRequest" xlink:href="../chainexception/ChainException.html" xlink:show="new"
           xlink:title="../chainexception/ChainException.html" xlink:type="simple">
            <rect fill="#FEFECE" filter="url(#f1mbwzjp3uyq8l)" height="37.9375" id="chainexception.ChainException"
                  style="stroke: #A80036; stroke-width: 1.5;" width="139" x="71" y="8"/>
            <ellipse cx="86" cy="26.9688" fill="#ADD1B2" rx="11" ry="11" style="stroke: #A80036; stroke-width: 1.0;"/>
            <path d="M88.9688,32.6094 Q88.3906,32.9063 87.75,33.0469 Q87.1094,33.2031 86.4063,33.2031 Q83.9063,33.2031 82.5781,31.5625 Q81.2656,29.9063 81.2656,26.7813 Q81.2656,23.6563 82.5781,22 Q83.9063,20.3438 86.4063,20.3438 Q87.1094,20.3438 87.75,20.5 Q88.4063,20.6563 88.9688,20.9531 L88.9688,23.6719 Q88.3438,23.0938 87.75,22.8281 Q87.1563,22.5469 86.5313,22.5469 Q85.1875,22.5469 84.5,23.625 Q83.8125,24.6875 83.8125,26.7813 Q83.8125,28.875 84.5,29.9531 Q85.1875,31.0156 86.5313,31.0156 Q87.1563,31.0156 87.75,30.75 Q88.3438,30.4688 88.9688,29.8906 L88.9688,32.6094 Z "/>
            <text fill="#000000" font-family="sans-serif" font-size="14" lengthAdjust="spacingAndGlyphs"
                  textLength="107" x="100" y="25.9951">ChainException
            </text>
            <text fill="#000000" font-family="sans-serif" font-size="10" lengthAdjust="spacingAndGlyphs" textLength="72"
                  x="117.5" y="38.5791">chainexception
            </text>
        </a><!--MD5=[2b18f18b23c8b0864713375a91efb76a]
reverse link chainexception.ChainException to bufmgr.HashOperationException-->
        <path d="M140.5,66.3533 C140.5,79.4123 140.5,93.7197 140.5,105.9146 " fill="none"
              id="chainexception.ChainException&lt;-bufmgr.HashOperationException"
              style="stroke: #A80036; stroke-width: 1.0;"/>
        <polygon fill="none" points="133.5001,66.1479,140.5,46.1479,147.5001,66.1478,133.5001,66.1479"
                 style="stroke: #A80036; stroke-width: 1.0;"/>
        <text fill="#888888" font-family="sans-serif" font-size="10" lengthAdjust="spacingAndGlyphs" textLength="186"
              x="53.5" y="184.2822">UMLDoclet 2.0.7, PlantUML 1.2019.12
        </text><!--MD5=[2b1b86698c4b2a82e7f93a3aca070e3c]
@startuml
    set namespaceSeparator none
    hide empty fields
    hide empty methods

    class "<size:14>HashOperationException\n<size:10>bufmgr" as bufmgr.HashOperationException [[../bufmgr/HashOperationException.html]] {
        +HashOperationException(Exception, String)
    }

    class "<size:14>ChainException\n<size:10>chainexception" as chainexception.ChainException [[../chainexception/ChainException.html]]

    chainexception.ChainException <|- - bufmgr.HashOperationException

    center footer UMLDoclet 2.0.7, PlantUML 1.2019.12
@enduml

PlantUML version 1.2019.12(Sun Nov 03 03:24:54 MST 2019)
(APACHE source distribution)
Java Runtime: Java(TM) SE Runtime Environment
JVM: Java HotSpot(TM) 64-Bit Server VM
Java Version: 11.0.6+8-LTS
Operating System: Linux
Default Encoding: UTF-8
Language: en
Country: US
-->
    </g>
</svg>