<?xml version="1.0" encoding="UTF-8" standalone="no"?>
<svg xmlns="http://www.w3.org/2000/svg" xmlns:xlink="http://www.w3.org/1999/xlink"
     contentScriptType="application/ecmascript" contentStyleType="text/css" height="235px" preserveAspectRatio="none"
     style="width:198px;height:235px;" version="1.1" viewBox="0 0 198 235" width="198px" zoomAndPan="magnify">
    <defs>
        <filter height="300%" id="f1lk4qfi4o8izn" width="300%" x="-1" y="-1">
            <feGaussianBlur result="blurOut" stdDeviation="2.0"/>
            <feColorMatrix in="blurOut" result="blurOut2" type="matrix"
                           values="0 0 0 0 0 0 0 0 0 0 0 0 0 0 0 0 0 0 .4 0"/>
            <feOffset dx="4.0" dy="4.0" in="blurOut2" result="blurOut3"/>
            <feBlend in="SourceGraphic" in2="blurOut3" mode="normal"/>
        </filter>
    </defs>
    <g><!--MD5=[7bd2969ac2e1365d6237604ccfb15f7f]
class diskmgr.Page-->
        <a href="../diskmgr/Page.html" target="_top" title="../diskmgr/Page.html" xlink:actuate="onRequest"
           xlink:href="../diskmgr/Page.html" xlink:show="new" xlink:title="../diskmgr/Page.html" xlink:type="simple">
            <rect fill="#FEFECE" filter="url(#f1lk4qfi4o8izn)" height="97.1563" id="diskmgr.Page"
                  style="stroke: #A80036; stroke-width: 1.5;" width="143" x="15.5" y="106"/>
            <ellipse cx="63.75" cy="124.9688" fill="#ADD1B2" rx="11" ry="11"
                     style="stroke: #A80036; stroke-width: 1.0;"/>
            <path d="M66.7188,130.6094 Q66.1406,130.9063 65.5,131.0469 Q64.8594,131.2031 64.1563,131.2031 Q61.6563,131.2031 60.3281,129.5625 Q59.0156,127.9063 59.0156,124.7813 Q59.0156,121.6563 60.3281,120 Q61.6563,118.3438 64.1563,118.3438 Q64.8594,118.3438 65.5,118.5 Q66.1563,118.6563 66.7188,118.9531 L66.7188,121.6719 Q66.0938,121.0938 65.5,120.8281 Q64.9063,120.5469 64.2813,120.5469 Q62.9375,120.5469 62.25,121.625 Q61.5625,122.6875 61.5625,124.7813 Q61.5625,126.875 62.25,127.9531 Q62.9375,129.0156 64.2813,129.0156 Q64.9063,129.0156 65.5,128.75 Q66.0938,128.4688 66.7188,127.8906 L66.7188,130.6094 Z "/>
            <text fill="#000000" font-family="sans-serif" font-size="14" lengthAdjust="spacingAndGlyphs" textLength="35"
                  x="85.75" y="123.9951">Page
            </text>
            <text fill="#000000" font-family="sans-serif" font-size="10" lengthAdjust="spacingAndGlyphs" textLength="38"
                  x="84.25" y="136.5791">diskmgr
            </text>
            <line style="stroke: #A80036; stroke-width: 1.5;" x1="16.5" x2="157.5" y1="143.9375" y2="143.9375"/>
            <ellipse cx="26.5" cy="154.9375" fill="#84BE84" rx="3" ry="3" style="stroke: #038048; stroke-width: 1.0;"/>
            <text fill="#000000" font-family="sans-serif" font-size="11" lengthAdjust="spacingAndGlyphs" textLength="36"
                  x="35.5" y="158.1479">Page()
            </text>
            <ellipse cx="26.5" cy="167.7422" fill="#84BE84" rx="3" ry="3" style="stroke: #038048; stroke-width: 1.0;"/>
            <text fill="#000000" font-family="sans-serif" font-size="11" lengthAdjust="spacingAndGlyphs" textLength="68"
                  x="35.5" y="170.9526">Page(byte[])
            </text>
            <ellipse cx="26.5" cy="180.5469" fill="#84BE84" rx="3" ry="3" style="stroke: #038048; stroke-width: 1.0;"/>
            <text fill="#000000" font-family="sans-serif" font-size="11" lengthAdjust="spacingAndGlyphs" textLength="94"
                  x="35.5" y="183.7573">getpage(): byte[]
            </text>
            <ellipse cx="26.5" cy="193.3516" fill="#84BE84" rx="3" ry="3" style="stroke: #038048; stroke-width: 1.0;"/>
            <text fill="#000000" font-family="sans-serif" font-size="11" lengthAdjust="spacingAndGlyphs"
                  textLength="117" x="35.5" y="196.562">setpage(byte[]): void
            </text>
        </a><!--MD5=[349d101bc5b57a3de1b8b252b2bcdd93]
class global.GlobalConst-->
        <a href="../global/GlobalConst.html" target="_top" title="../global/GlobalConst.html" xlink:actuate="onRequest"
           xlink:href="../global/GlobalConst.html" xlink:show="new" xlink:title="../global/GlobalConst.html"
           xlink:type="simple">
            <rect fill="#FEFECE" filter="url(#f1lk4qfi4o8izn)" height="37.9375" id="global.GlobalConst"
                  style="stroke: #A80036; stroke-width: 1.5;" width="116" x="29" y="8"/>
            <ellipse cx="44" cy="26.9688" fill="#B4A7E5" rx="11" ry="11" style="stroke: #A80036; stroke-width: 1.0;"/>
            <path d="M39.9219,22.7344 L39.9219,20.5781 L47.3125,20.5781 L47.3125,22.7344 L44.8438,22.7344 L44.8438,30.8125 L47.3125,30.8125 L47.3125,32.9688 L39.9219,32.9688 L39.9219,30.8125 L42.3906,30.8125 L42.3906,22.7344 L39.9219,22.7344 Z "/>
            <text fill="#000000" font-family="sans-serif" font-size="14" font-style="italic"
                  lengthAdjust="spacingAndGlyphs" textLength="84" x="58" y="25.9951">GlobalConst
            </text>
            <text fill="#000000" font-family="sans-serif" font-size="10" font-style="italic"
                  lengthAdjust="spacingAndGlyphs" textLength="28" x="86" y="38.5791">global
            </text>
        </a><!--MD5=[f3826a40fc9b858943c10bde6789180a]
reverse link global.GlobalConst to diskmgr.Page-->
        <path d="M87,66.4138 C87,78.8609 87,92.7643 87,105.7811 " fill="none" id="global.GlobalConst&lt;-diskmgr.Page"
              style="stroke: #A80036; stroke-width: 1.0; stroke-dasharray: 7.0,7.0;"/>
        <polygon fill="none" points="80.0001,66.0881,87,46.088,94.0001,66.088,80.0001,66.0881"
                 style="stroke: #A80036; stroke-width: 1.0;"/>
        <text fill="#888888" font-family="sans-serif" font-size="10" lengthAdjust="spacingAndGlyphs" textLength="186"
              x="0" y="222.2822">UMLDoclet 2.0.7, PlantUML 1.2019.12
        </text><!--MD5=[a3dacef08f6ca18e0ca8b2f730ef3b9e]
@startuml
    set namespaceSeparator none
    hide empty fields
    hide empty methods

    class "<size:14>Page\n<size:10>diskmgr" as diskmgr.Page [[../diskmgr/Page.html]] {
        +Page()
        +Page(byte[])
        +getpage(): byte[]
        +setpage(byte[]): void
    }

    interface "<size:14>GlobalConst\n<size:10>global" as global.GlobalConst [[../global/GlobalConst.html]]

    global.GlobalConst <|.. diskmgr.Page

    center footer UMLDoclet 2.0.7, PlantUML 1.2019.12
@enduml

PlantUML version 1.2019.12(Sun Nov 03 03:24:54 MST 2019)
(APACHE source distribution)
Java Runtime: Java(TM) SE Runtime Environment
JVM: Java HotSpot(TM) 64-Bit Server VM
Java Version: 11.0.6+8-LTS
Operating System: Linux
Default Encoding: UTF-8
Language: en
Country: US
-->
    </g>
</svg>