<?xml version="1.0" encoding="UTF-8" standalone="no"?>
<svg xmlns="http://www.w3.org/2000/svg" xmlns:xlink="http://www.w3.org/1999/xlink"
     contentScriptType="application/ecmascript" contentStyleType="text/css" height="197px" preserveAspectRatio="none"
     style="width:281px;height:197px;" version="1.1" viewBox="0 0 281 197" width="281px" zoomAndPan="magnify">
    <defs>
        <filter height="300%" id="ffl2p9ejdg093" width="300%" x="-1" y="-1">
            <feGaussianBlur result="blurOut" stdDeviation="2.0"/>
            <feColorMatrix in="blurOut" result="blurOut2" type="matrix"
                           values="0 0 0 0 0 0 0 0 0 0 0 0 0 0 0 0 0 0 .4 0"/>
            <feOffset dx="4.0" dy="4.0" in="blurOut2" result="blurOut3"/>
            <feBlend in="SourceGraphic" in2="blurOut3" mode="normal"/>
        </filter>
    </defs>
    <g><!--MD5=[89399e6336e8223e139cedc02bba7555]
class diskmgr.InvalidRunSizeException-->
        <a href="../diskmgr/InvalidRunSizeException.html" target="_top" title="../diskmgr/InvalidRunSizeException.html"
           xlink:actuate="onRequest" xlink:href="../diskmgr/InvalidRunSizeException.html" xlink:show="new"
           xlink:title="../diskmgr/InvalidRunSizeException.html" xlink:type="simple">
            <rect fill="#FEFECE" filter="url(#ffl2p9ejdg093)" height="58.7422" id="diskmgr.InvalidRunSizeException"
                  style="stroke: #A80036; stroke-width: 1.5;" width="264" x="6" y="106"/>
            <ellipse cx="50.25" cy="124.9688" fill="#ADD1B2" rx="11" ry="11"
                     style="stroke: #A80036; stroke-width: 1.0;"/>
            <path d="M53.2188,130.6094 Q52.6406,130.9063 52,131.0469 Q51.3594,131.2031 50.6563,131.2031 Q48.1563,131.2031 46.8281,129.5625 Q45.5156,127.9063 45.5156,124.7813 Q45.5156,121.6563 46.8281,120 Q48.1563,118.3438 50.6563,118.3438 Q51.3594,118.3438 52,118.5 Q52.6563,118.6563 53.2188,118.9531 L53.2188,121.6719 Q52.5938,121.0938 52,120.8281 Q51.4063,120.5469 50.7813,120.5469 Q49.4375,120.5469 48.75,121.625 Q48.0625,122.6875 48.0625,124.7813 Q48.0625,126.875 48.75,127.9531 Q49.4375,129.0156 50.7813,129.0156 Q51.4063,129.0156 52,128.75 Q52.5938,128.4688 53.2188,127.8906 L53.2188,130.6094 Z "/>
            <text fill="#000000" font-family="sans-serif" font-size="14" lengthAdjust="spacingAndGlyphs"
                  textLength="167" x="70.75" y="123.9951">InvalidRunSizeException
            </text>
            <text fill="#000000" font-family="sans-serif" font-size="10" lengthAdjust="spacingAndGlyphs" textLength="38"
                  x="135.25" y="136.5791">diskmgr
            </text>
            <line style="stroke: #A80036; stroke-width: 1.5;" x1="7" x2="269" y1="143.9375" y2="143.9375"/>
            <ellipse cx="17" cy="154.9375" fill="#84BE84" rx="3" ry="3" style="stroke: #038048; stroke-width: 1.0;"/>
            <text fill="#000000" font-family="sans-serif" font-size="11" lengthAdjust="spacingAndGlyphs"
                  textLength="238" x="26" y="158.1479">InvalidRunSizeException(Exception, String)
            </text>
        </a><!--MD5=[2a7cd8221fe6583b4d4c6786e4469311]
class chainexception.ChainException-->
        <a href="../chainexception/ChainException.html" target="_top" title="../chainexception/ChainException.html"
           xlink:actuate="onRequest" xlink:href="../chainexception/ChainException.html" xlink:show="new"
           xlink:title="../chainexception/ChainException.html" xlink:type="simple">
            <rect fill="#FEFECE" filter="url(#ffl2p9ejdg093)" height="37.9375" id="chainexception.ChainException"
                  style="stroke: #A80036; stroke-width: 1.5;" width="139" x="68.5" y="8"/>
            <ellipse cx="83.5" cy="26.9688" fill="#ADD1B2" rx="11" ry="11" style="stroke: #A80036; stroke-width: 1.0;"/>
            <path d="M86.4688,32.6094 Q85.8906,32.9063 85.25,33.0469 Q84.6094,33.2031 83.9063,33.2031 Q81.4063,33.2031 80.0781,31.5625 Q78.7656,29.9063 78.7656,26.7813 Q78.7656,23.6563 80.0781,22 Q81.4063,20.3438 83.9063,20.3438 Q84.6094,20.3438 85.25,20.5 Q85.9063,20.6563 86.4688,20.9531 L86.4688,23.6719 Q85.8438,23.0938 85.25,22.8281 Q84.6563,22.5469 84.0313,22.5469 Q82.6875,22.5469 82,23.625 Q81.3125,24.6875 81.3125,26.7813 Q81.3125,28.875 82,29.9531 Q82.6875,31.0156 84.0313,31.0156 Q84.6563,31.0156 85.25,30.75 Q85.8438,30.4688 86.4688,29.8906 L86.4688,32.6094 Z "/>
            <text fill="#000000" font-family="sans-serif" font-size="14" lengthAdjust="spacingAndGlyphs"
                  textLength="107" x="97.5" y="25.9951">ChainException
            </text>
            <text fill="#000000" font-family="sans-serif" font-size="10" lengthAdjust="spacingAndGlyphs" textLength="72"
                  x="115" y="38.5791">chainexception
            </text>
        </a><!--MD5=[1bc4c304ce90317f47f93752130185a0]
reverse link chainexception.ChainException to diskmgr.InvalidRunSizeException-->
        <path d="M138,66.3533 C138,79.4123 138,93.7197 138,105.9146 " fill="none"
              id="chainexception.ChainException&lt;-diskmgr.InvalidRunSizeException"
              style="stroke: #A80036; stroke-width: 1.0;"/>
        <polygon fill="none" points="131.0001,66.1479,138,46.1479,145.0001,66.1478,131.0001,66.1479"
                 style="stroke: #A80036; stroke-width: 1.0;"/>
        <text fill="#888888" font-family="sans-serif" font-size="10" lengthAdjust="spacingAndGlyphs" textLength="186"
              x="51" y="184.2822">UMLDoclet 2.0.7, PlantUML 1.2019.12
        </text><!--MD5=[ff5e6bb9a7d9fb161f29dc0b55f492c3]
@startuml
    set namespaceSeparator none
    hide empty fields
    hide empty methods

    class "<size:14>InvalidRunSizeException\n<size:10>diskmgr" as diskmgr.InvalidRunSizeException [[../diskmgr/InvalidRunSizeException.html]] {
        +InvalidRunSizeException(Exception, String)
    }

    class "<size:14>ChainException\n<size:10>chainexception" as chainexception.ChainException [[../chainexception/ChainException.html]]

    chainexception.ChainException <|- - diskmgr.InvalidRunSizeException

    center footer UMLDoclet 2.0.7, PlantUML 1.2019.12
@enduml

PlantUML version 1.2019.12(Sun Nov 03 03:24:54 MST 2019)
(APACHE source distribution)
Java Runtime: Java(TM) SE Runtime Environment
JVM: Java HotSpot(TM) 64-Bit Server VM
Java Version: 11.0.6+8-LTS
Operating System: Linux
Default Encoding: UTF-8
Language: en
Country: US
-->
    </g>
</svg>