<?xml version="1.0" encoding="UTF-8" standalone="no"?>
<svg xmlns="http://www.w3.org/2000/svg" xmlns:xlink="http://www.w3.org/1999/xlink"
     contentScriptType="application/ecmascript" contentStyleType="text/css" height="197px" preserveAspectRatio="none"
     style="width:232px;height:197px;" version="1.1" viewBox="0 0 232 197" width="232px" zoomAndPan="magnify">
    <defs>
        <filter height="300%" id="fiioir1so7apg" width="300%" x="-1" y="-1">
            <feGaussianBlur result="blurOut" stdDeviation="2.0"/>
            <feColorMatrix in="blurOut" result="blurOut2" type="matrix"
                           values="0 0 0 0 0 0 0 0 0 0 0 0 0 0 0 0 0 0 .4 0"/>
            <feOffset dx="4.0" dy="4.0" in="blurOut2" result="blurOut3"/>
            <feBlend in="SourceGraphic" in2="blurOut3" mode="normal"/>
        </filter>
    </defs>
    <g><!--MD5=[2f46f245f89eda8e1069d6f70955b287]
class diskmgr.FileIOException-->
        <a href="../diskmgr/FileIOException.html" target="_top" title="../diskmgr/FileIOException.html"
           xlink:actuate="onRequest" xlink:href="../diskmgr/FileIOException.html" xlink:show="new"
           xlink:title="../diskmgr/FileIOException.html" xlink:type="simple">
            <rect fill="#FEFECE" filter="url(#fiioir1so7apg)" height="58.7422" id="diskmgr.FileIOException"
                  style="stroke: #A80036; stroke-width: 1.5;" width="215" x="6" y="106"/>
            <ellipse cx="56.75" cy="124.9688" fill="#ADD1B2" rx="11" ry="11"
                     style="stroke: #A80036; stroke-width: 1.0;"/>
            <path d="M59.7188,130.6094 Q59.1406,130.9063 58.5,131.0469 Q57.8594,131.2031 57.1563,131.2031 Q54.6563,131.2031 53.3281,129.5625 Q52.0156,127.9063 52.0156,124.7813 Q52.0156,121.6563 53.3281,120 Q54.6563,118.3438 57.1563,118.3438 Q57.8594,118.3438 58.5,118.5 Q59.1563,118.6563 59.7188,118.9531 L59.7188,121.6719 Q59.0938,121.0938 58.5,120.8281 Q57.9063,120.5469 57.2813,120.5469 Q55.9375,120.5469 55.25,121.625 Q54.5625,122.6875 54.5625,124.7813 Q54.5625,126.875 55.25,127.9531 Q55.9375,129.0156 57.2813,129.0156 Q57.9063,129.0156 58.5,128.75 Q59.0938,128.4688 59.7188,127.8906 L59.7188,130.6094 Z "/>
            <text fill="#000000" font-family="sans-serif" font-size="14" lengthAdjust="spacingAndGlyphs"
                  textLength="105" x="77.25" y="123.9951">FileIOException
            </text>
            <text fill="#000000" font-family="sans-serif" font-size="10" lengthAdjust="spacingAndGlyphs" textLength="38"
                  x="110.75" y="136.5791">diskmgr
            </text>
            <line style="stroke: #A80036; stroke-width: 1.5;" x1="7" x2="220" y1="143.9375" y2="143.9375"/>
            <ellipse cx="17" cy="154.9375" fill="#84BE84" rx="3" ry="3" style="stroke: #038048; stroke-width: 1.0;"/>
            <text fill="#000000" font-family="sans-serif" font-size="11" lengthAdjust="spacingAndGlyphs"
                  textLength="189" x="26" y="158.1479">FileIOException(Exception, String)
            </text>
        </a><!--MD5=[2a7cd8221fe6583b4d4c6786e4469311]
class chainexception.ChainException-->
        <a href="../chainexception/ChainException.html" target="_top" title="../chainexception/ChainException.html"
           xlink:actuate="onRequest" xlink:href="../chainexception/ChainException.html" xlink:show="new"
           xlink:title="../chainexception/ChainException.html" xlink:type="simple">
            <rect fill="#FEFECE" filter="url(#fiioir1so7apg)" height="37.9375" id="chainexception.ChainException"
                  style="stroke: #A80036; stroke-width: 1.5;" width="139" x="44" y="8"/>
            <ellipse cx="59" cy="26.9688" fill="#ADD1B2" rx="11" ry="11" style="stroke: #A80036; stroke-width: 1.0;"/>
            <path d="M61.9688,32.6094 Q61.3906,32.9063 60.75,33.0469 Q60.1094,33.2031 59.4063,33.2031 Q56.9063,33.2031 55.5781,31.5625 Q54.2656,29.9063 54.2656,26.7813 Q54.2656,23.6563 55.5781,22 Q56.9063,20.3438 59.4063,20.3438 Q60.1094,20.3438 60.75,20.5 Q61.4063,20.6563 61.9688,20.9531 L61.9688,23.6719 Q61.3438,23.0938 60.75,22.8281 Q60.1563,22.5469 59.5313,22.5469 Q58.1875,22.5469 57.5,23.625 Q56.8125,24.6875 56.8125,26.7813 Q56.8125,28.875 57.5,29.9531 Q58.1875,31.0156 59.5313,31.0156 Q60.1563,31.0156 60.75,30.75 Q61.3438,30.4688 61.9688,29.8906 L61.9688,32.6094 Z "/>
            <text fill="#000000" font-family="sans-serif" font-size="14" lengthAdjust="spacingAndGlyphs"
                  textLength="107" x="73" y="25.9951">ChainException
            </text>
            <text fill="#000000" font-family="sans-serif" font-size="10" lengthAdjust="spacingAndGlyphs" textLength="72"
                  x="90.5" y="38.5791">chainexception
            </text>
        </a><!--MD5=[9554d6c3ad3496e1072acc02ca1937b6]
reverse link chainexception.ChainException to diskmgr.FileIOException-->
        <path d="M113.5,66.3533 C113.5,79.4123 113.5,93.7197 113.5,105.9146 " fill="none"
              id="chainexception.ChainException&lt;-diskmgr.FileIOException"
              style="stroke: #A80036; stroke-width: 1.0;"/>
        <polygon fill="none" points="106.5001,66.1479,113.5,46.1479,120.5001,66.1478,106.5001,66.1479"
                 style="stroke: #A80036; stroke-width: 1.0;"/>
        <text fill="#888888" font-family="sans-serif" font-size="10" lengthAdjust="spacingAndGlyphs" textLength="186"
              x="26.5" y="184.2822">UMLDoclet 2.0.7, PlantUML 1.2019.12
        </text><!--MD5=[c238425c19f02b1f1ffd03d7fefa75a7]
@startuml
    set namespaceSeparator none
    hide empty fields
    hide empty methods

    class "<size:14>FileIOException\n<size:10>diskmgr" as diskmgr.FileIOException [[../diskmgr/FileIOException.html]] {
        +FileIOException(Exception, String)
    }

    class "<size:14>ChainException\n<size:10>chainexception" as chainexception.ChainException [[../chainexception/ChainException.html]]

    chainexception.ChainException <|- - diskmgr.FileIOException

    center footer UMLDoclet 2.0.7, PlantUML 1.2019.12
@enduml

PlantUML version 1.2019.12(Sun Nov 03 03:24:54 MST 2019)
(APACHE source distribution)
Java Runtime: Java(TM) SE Runtime Environment
JVM: Java HotSpot(TM) 64-Bit Server VM
Java Version: 11.0.6+8-LTS
Operating System: Linux
Default Encoding: UTF-8
Language: en
Country: US
-->
    </g>
</svg>