<?xml version="1.0" encoding="UTF-8" standalone="no"?>
<svg xmlns="http://www.w3.org/2000/svg" xmlns:xlink="http://www.w3.org/1999/xlink"
     contentScriptType="application/ecmascript" contentStyleType="text/css" height="197px" preserveAspectRatio="none"
     style="width:246px;height:197px;" version="1.1" viewBox="0 0 246 197" width="246px" zoomAndPan="magnify">
    <defs>
        <filter height="300%" id="f7vdz9ztf5h4v" width="300%" x="-1" y="-1">
            <feGaussianBlur result="blurOut" stdDeviation="2.0"/>
            <feColorMatrix in="blurOut" result="blurOut2" type="matrix"
                           values="0 0 0 0 0 0 0 0 0 0 0 0 0 0 0 0 0 0 .4 0"/>
            <feOffset dx="4.0" dy="4.0" in="blurOut2" result="blurOut3"/>
            <feBlend in="SourceGraphic" in2="blurOut3" mode="normal"/>
        </filter>
    </defs>
    <g><!--MD5=[53ef5c5ae11b72de28b66d6b292116a0]
class diskmgr.DiskMgrException-->
        <a href="../diskmgr/DiskMgrException.html" target="_top" title="../diskmgr/DiskMgrException.html"
           xlink:actuate="onRequest" xlink:href="../diskmgr/DiskMgrException.html" xlink:show="new"
           xlink:title="../diskmgr/DiskMgrException.html" xlink:type="simple">
            <rect fill="#FEFECE" filter="url(#f7vdz9ztf5h4v)" height="58.7422" id="diskmgr.DiskMgrException"
                  style="stroke: #A80036; stroke-width: 1.5;" width="229" x="6" y="106"/>
            <ellipse cx="54.25" cy="124.9688" fill="#ADD1B2" rx="11" ry="11"
                     style="stroke: #A80036; stroke-width: 1.0;"/>
            <path d="M57.2188,130.6094 Q56.6406,130.9063 56,131.0469 Q55.3594,131.2031 54.6563,131.2031 Q52.1563,131.2031 50.8281,129.5625 Q49.5156,127.9063 49.5156,124.7813 Q49.5156,121.6563 50.8281,120 Q52.1563,118.3438 54.6563,118.3438 Q55.3594,118.3438 56,118.5 Q56.6563,118.6563 57.2188,118.9531 L57.2188,121.6719 Q56.5938,121.0938 56,120.8281 Q55.4063,120.5469 54.7813,120.5469 Q53.4375,120.5469 52.75,121.625 Q52.0625,122.6875 52.0625,124.7813 Q52.0625,126.875 52.75,127.9531 Q53.4375,129.0156 54.7813,129.0156 Q55.4063,129.0156 56,128.75 Q56.5938,128.4688 57.2188,127.8906 L57.2188,130.6094 Z "/>
            <text fill="#000000" font-family="sans-serif" font-size="14" lengthAdjust="spacingAndGlyphs"
                  textLength="124" x="74.75" y="123.9951">DiskMgrException
            </text>
            <text fill="#000000" font-family="sans-serif" font-size="10" lengthAdjust="spacingAndGlyphs" textLength="38"
                  x="117.75" y="136.5791">diskmgr
            </text>
            <line style="stroke: #A80036; stroke-width: 1.5;" x1="7" x2="234" y1="143.9375" y2="143.9375"/>
            <ellipse cx="17" cy="154.9375" fill="#84BE84" rx="3" ry="3" style="stroke: #038048; stroke-width: 1.0;"/>
            <text fill="#000000" font-family="sans-serif" font-size="11" lengthAdjust="spacingAndGlyphs"
                  textLength="203" x="26" y="158.1479">DiskMgrException(Exception, String)
            </text>
        </a><!--MD5=[2a7cd8221fe6583b4d4c6786e4469311]
class chainexception.ChainException-->
        <a href="../chainexception/ChainException.html" target="_top" title="../chainexception/ChainException.html"
           xlink:actuate="onRequest" xlink:href="../chainexception/ChainException.html" xlink:show="new"
           xlink:title="../chainexception/ChainException.html" xlink:type="simple">
            <rect fill="#FEFECE" filter="url(#f7vdz9ztf5h4v)" height="37.9375" id="chainexception.ChainException"
                  style="stroke: #A80036; stroke-width: 1.5;" width="139" x="51" y="8"/>
            <ellipse cx="66" cy="26.9688" fill="#ADD1B2" rx="11" ry="11" style="stroke: #A80036; stroke-width: 1.0;"/>
            <path d="M68.9688,32.6094 Q68.3906,32.9063 67.75,33.0469 Q67.1094,33.2031 66.4063,33.2031 Q63.9063,33.2031 62.5781,31.5625 Q61.2656,29.9063 61.2656,26.7813 Q61.2656,23.6563 62.5781,22 Q63.9063,20.3438 66.4063,20.3438 Q67.1094,20.3438 67.75,20.5 Q68.4063,20.6563 68.9688,20.9531 L68.9688,23.6719 Q68.3438,23.0938 67.75,22.8281 Q67.1563,22.5469 66.5313,22.5469 Q65.1875,22.5469 64.5,23.625 Q63.8125,24.6875 63.8125,26.7813 Q63.8125,28.875 64.5,29.9531 Q65.1875,31.0156 66.5313,31.0156 Q67.1563,31.0156 67.75,30.75 Q68.3438,30.4688 68.9688,29.8906 L68.9688,32.6094 Z "/>
            <text fill="#000000" font-family="sans-serif" font-size="14" lengthAdjust="spacingAndGlyphs"
                  textLength="107" x="80" y="25.9951">ChainException
            </text>
            <text fill="#000000" font-family="sans-serif" font-size="10" lengthAdjust="spacingAndGlyphs" textLength="72"
                  x="97.5" y="38.5791">chainexception
            </text>
        </a><!--MD5=[9062da74ddd71a4ccfd1f7ede7660531]
reverse link chainexception.ChainException to diskmgr.DiskMgrException-->
        <path d="M120.5,66.3533 C120.5,79.4123 120.5,93.7197 120.5,105.9146 " fill="none"
              id="chainexception.ChainException&lt;-diskmgr.DiskMgrException"
              style="stroke: #A80036; stroke-width: 1.0;"/>
        <polygon fill="none" points="113.5001,66.1479,120.5,46.1479,127.5001,66.1478,113.5001,66.1479"
                 style="stroke: #A80036; stroke-width: 1.0;"/>
        <text fill="#888888" font-family="sans-serif" font-size="10" lengthAdjust="spacingAndGlyphs" textLength="186"
              x="33.5" y="184.2822">UMLDoclet 2.0.7, PlantUML 1.2019.12
        </text><!--MD5=[b402e89182a31889fdca3d0069576faf]
@startuml
    set namespaceSeparator none
    hide empty fields
    hide empty methods

    class "<size:14>DiskMgrException\n<size:10>diskmgr" as diskmgr.DiskMgrException [[../diskmgr/DiskMgrException.html]] {
        +DiskMgrException(Exception, String)
    }

    class "<size:14>ChainException\n<size:10>chainexception" as chainexception.ChainException [[../chainexception/ChainException.html]]

    chainexception.ChainException <|- - diskmgr.DiskMgrException

    center footer UMLDoclet 2.0.7, PlantUML 1.2019.12
@enduml

PlantUML version 1.2019.12(Sun Nov 03 03:24:54 MST 2019)
(APACHE source distribution)
Java Runtime: Java(TM) SE Runtime Environment
JVM: Java HotSpot(TM) 64-Bit Server VM
Java Version: 11.0.6+8-LTS
Operating System: Linux
Default Encoding: UTF-8
Language: en
Country: US
-->
    </g>
</svg>