<?xml version="1.0" encoding="UTF-8" standalone="no"?>
<svg xmlns="http://www.w3.org/2000/svg" xmlns:xlink="http://www.w3.org/1999/xlink"
     contentScriptType="application/ecmascript" contentStyleType="text/css" height="197px" preserveAspectRatio="none"
     style="width:302px;height:197px;" version="1.1" viewBox="0 0 302 197" width="302px" zoomAndPan="magnify">
    <defs>
        <filter height="300%" id="fng67u09u1075" width="300%" x="-1" y="-1">
            <feGaussianBlur result="blurOut" stdDeviation="2.0"/>
            <feColorMatrix in="blurOut" result="blurOut2" type="matrix"
                           values="0 0 0 0 0 0 0 0 0 0 0 0 0 0 0 0 0 0 .4 0"/>
            <feOffset dx="4.0" dy="4.0" in="blurOut2" result="blurOut3"/>
            <feBlend in="SourceGraphic" in2="blurOut3" mode="normal"/>
        </filter>
    </defs>
    <g><!--MD5=[5a15cc1771b0ce7540c5a9b3faf79793]
class diskmgr.FileEntryNotFoundException-->
        <a href="../diskmgr/FileEntryNotFoundException.html" target="_top"
           title="../diskmgr/FileEntryNotFoundException.html" xlink:actuate="onRequest"
           xlink:href="../diskmgr/FileEntryNotFoundException.html" xlink:show="new"
           xlink:title="../diskmgr/FileEntryNotFoundException.html" xlink:type="simple">
            <rect fill="#FEFECE" filter="url(#fng67u09u1075)" height="58.7422" id="diskmgr.FileEntryNotFoundException"
                  style="stroke: #A80036; stroke-width: 1.5;" width="285" x="6" y="106"/>
            <ellipse cx="47.55" cy="124.9688" fill="#ADD1B2" rx="11" ry="11"
                     style="stroke: #A80036; stroke-width: 1.0;"/>
            <path d="M50.5188,130.6094 Q49.9406,130.9063 49.3,131.0469 Q48.6594,131.2031 47.9563,131.2031 Q45.4563,131.2031 44.1281,129.5625 Q42.8156,127.9063 42.8156,124.7813 Q42.8156,121.6563 44.1281,120 Q45.4563,118.3438 47.9563,118.3438 Q48.6594,118.3438 49.3,118.5 Q49.9563,118.6563 50.5188,118.9531 L50.5188,121.6719 Q49.8938,121.0938 49.3,120.8281 Q48.7063,120.5469 48.0813,120.5469 Q46.7375,120.5469 46.05,121.625 Q45.3625,122.6875 45.3625,124.7813 Q45.3625,126.875 46.05,127.9531 Q46.7375,129.0156 48.0813,129.0156 Q48.7063,129.0156 49.3,128.75 Q49.8938,128.4688 50.5188,127.8906 L50.5188,130.6094 Z "/>
            <text fill="#000000" font-family="sans-serif" font-size="14" lengthAdjust="spacingAndGlyphs"
                  textLength="194" x="67.45" y="123.9951">FileEntryNotFoundException
            </text>
            <text fill="#000000" font-family="sans-serif" font-size="10" lengthAdjust="spacingAndGlyphs" textLength="38"
                  x="145.45" y="136.5791">diskmgr
            </text>
            <line style="stroke: #A80036; stroke-width: 1.5;" x1="7" x2="290" y1="143.9375" y2="143.9375"/>
            <ellipse cx="17" cy="154.9375" fill="#84BE84" rx="3" ry="3" style="stroke: #038048; stroke-width: 1.0;"/>
            <text fill="#000000" font-family="sans-serif" font-size="11" lengthAdjust="spacingAndGlyphs"
                  textLength="259" x="26" y="158.1479">FileEntryNotFoundException(Exception, String)
            </text>
        </a><!--MD5=[2a7cd8221fe6583b4d4c6786e4469311]
class chainexception.ChainException-->
        <a href="../chainexception/ChainException.html" target="_top" title="../chainexception/ChainException.html"
           xlink:actuate="onRequest" xlink:href="../chainexception/ChainException.html" xlink:show="new"
           xlink:title="../chainexception/ChainException.html" xlink:type="simple">
            <rect fill="#FEFECE" filter="url(#fng67u09u1075)" height="37.9375" id="chainexception.ChainException"
                  style="stroke: #A80036; stroke-width: 1.5;" width="139" x="79" y="8"/>
            <ellipse cx="94" cy="26.9688" fill="#ADD1B2" rx="11" ry="11" style="stroke: #A80036; stroke-width: 1.0;"/>
            <path d="M96.9688,32.6094 Q96.3906,32.9063 95.75,33.0469 Q95.1094,33.2031 94.4063,33.2031 Q91.9063,33.2031 90.5781,31.5625 Q89.2656,29.9063 89.2656,26.7813 Q89.2656,23.6563 90.5781,22 Q91.9063,20.3438 94.4063,20.3438 Q95.1094,20.3438 95.75,20.5 Q96.4063,20.6563 96.9688,20.9531 L96.9688,23.6719 Q96.3438,23.0938 95.75,22.8281 Q95.1563,22.5469 94.5313,22.5469 Q93.1875,22.5469 92.5,23.625 Q91.8125,24.6875 91.8125,26.7813 Q91.8125,28.875 92.5,29.9531 Q93.1875,31.0156 94.5313,31.0156 Q95.1563,31.0156 95.75,30.75 Q96.3438,30.4688 96.9688,29.8906 L96.9688,32.6094 Z "/>
            <text fill="#000000" font-family="sans-serif" font-size="14" lengthAdjust="spacingAndGlyphs"
                  textLength="107" x="108" y="25.9951">ChainException
            </text>
            <text fill="#000000" font-family="sans-serif" font-size="10" lengthAdjust="spacingAndGlyphs" textLength="72"
                  x="125.5" y="38.5791">chainexception
            </text>
        </a><!--MD5=[d9be1e58ab3e1b1b1050d83b8a667b4f]
reverse link chainexception.ChainException to diskmgr.FileEntryNotFoundException-->
        <path d="M148.5,66.3533 C148.5,79.4123 148.5,93.7197 148.5,105.9146 " fill="none"
              id="chainexception.ChainException&lt;-diskmgr.FileEntryNotFoundException"
              style="stroke: #A80036; stroke-width: 1.0;"/>
        <polygon fill="none" points="141.5001,66.1479,148.5,46.1479,155.5001,66.1478,141.5001,66.1479"
                 style="stroke: #A80036; stroke-width: 1.0;"/>
        <text fill="#888888" font-family="sans-serif" font-size="10" lengthAdjust="spacingAndGlyphs" textLength="186"
              x="61.5" y="184.2822">UMLDoclet 2.0.7, PlantUML 1.2019.12
        </text><!--MD5=[aa52da6d6535658fdecd161e55b4d82b]
@startuml
    set namespaceSeparator none
    hide empty fields
    hide empty methods

    class "<size:14>FileEntryNotFoundException\n<size:10>diskmgr" as diskmgr.FileEntryNotFoundException [[../diskmgr/FileEntryNotFoundException.html]] {
        +FileEntryNotFoundException(Exception, String)
    }

    class "<size:14>ChainException\n<size:10>chainexception" as chainexception.ChainException [[../chainexception/ChainException.html]]

    chainexception.ChainException <|- - diskmgr.FileEntryNotFoundException

    center footer UMLDoclet 2.0.7, PlantUML 1.2019.12
@enduml

PlantUML version 1.2019.12(Sun Nov 03 03:24:54 MST 2019)
(APACHE source distribution)
Java Runtime: Java(TM) SE Runtime Environment
JVM: Java HotSpot(TM) 64-Bit Server VM
Java Version: 11.0.6+8-LTS
Operating System: Linux
Default Encoding: UTF-8
Language: en
Country: US
-->
    </g>
</svg>