<?xml version="1.0" encoding="UTF-8" standalone="no"?>
<svg xmlns="http://www.w3.org/2000/svg" xmlns:xlink="http://www.w3.org/1999/xlink"
     contentScriptType="application/ecmascript" contentStyleType="text/css" height="282px" preserveAspectRatio="none"
     style="width:356px;height:282px;" version="1.1" viewBox="0 0 356 282" width="356px" zoomAndPan="magnify">
    <defs>
        <filter height="300%" id="f154lqu4guzbq0" width="300%" x="-1" y="-1">
            <feGaussianBlur result="blurOut" stdDeviation="2.0"/>
            <feColorMatrix in="blurOut" result="blurOut2" type="matrix"
                           values="0 0 0 0 0 0 0 0 0 0 0 0 0 0 0 0 0 0 .4 0"/>
            <feOffset dx="4.0" dy="4.0" in="blurOut2" result="blurOut3"/>
            <feBlend in="SourceGraphic" in2="blurOut3" mode="normal"/>
        </filter>
    </defs>
    <g><!--MD5=[c288af23d7c92a0d98af92066f4ae2b2]
class global.ExtendedSystemDefs-->
        <a href="../global/ExtendedSystemDefs.html" target="_top" title="../global/ExtendedSystemDefs.html"
           xlink:actuate="onRequest" xlink:href="../global/ExtendedSystemDefs.html" xlink:show="new"
           xlink:title="../global/ExtendedSystemDefs.html" xlink:type="simple">
            <rect fill="#FEFECE" filter="url(#f154lqu4guzbq0)" height="143.5703" id="global.ExtendedSystemDefs"
                  style="stroke: #A80036; stroke-width: 1.5;" width="339" x="6" y="106"/>
            <ellipse cx="96.75" cy="124.9688" fill="#ADD1B2" rx="11" ry="11"
                     style="stroke: #A80036; stroke-width: 1.0;"/>
            <path d="M99.7188,130.6094 Q99.1406,130.9063 98.5,131.0469 Q97.8594,131.2031 97.1563,131.2031 Q94.6563,131.2031 93.3281,129.5625 Q92.0156,127.9063 92.0156,124.7813 Q92.0156,121.6563 93.3281,120 Q94.6563,118.3438 97.1563,118.3438 Q97.8594,118.3438 98.5,118.5 Q99.1563,118.6563 99.7188,118.9531 L99.7188,121.6719 Q99.0938,121.0938 98.5,120.8281 Q97.9063,120.5469 97.2813,120.5469 Q95.9375,120.5469 95.25,121.625 Q94.5625,122.6875 94.5625,124.7813 Q94.5625,126.875 95.25,127.9531 Q95.9375,129.0156 97.2813,129.0156 Q97.9063,129.0156 98.5,128.75 Q99.0938,128.4688 99.7188,127.8906 L99.7188,130.6094 Z "/>
            <text fill="#000000" font-family="sans-serif" font-size="14" lengthAdjust="spacingAndGlyphs"
                  textLength="149" x="117.25" y="123.9951">ExtendedSystemDefs
            </text>
            <text fill="#000000" font-family="sans-serif" font-size="10" lengthAdjust="spacingAndGlyphs" textLength="28"
                  x="177.75" y="136.5791">global
            </text>
            <line style="stroke: #A80036; stroke-width: 1.5;" x1="7" x2="344" y1="143.9375" y2="143.9375"/>
            <ellipse cx="17" cy="154.9375" fill="none" rx="3" ry="3" style="stroke: #038048; stroke-width: 1.0;"/>
            <text fill="#000000" font-family="sans-serif" font-size="11" lengthAdjust="spacingAndGlyphs"
                  text-decoration="underline" textLength="184" x="26" y="158.1479">MINIBASE_CATALOGPTR: Catalog
            </text>
            <ellipse cx="17" cy="167.7422" fill="none" rx="3" ry="3" style="stroke: #038048; stroke-width: 1.0;"/>
            <text fill="#000000" font-family="sans-serif" font-size="11" lengthAdjust="spacingAndGlyphs"
                  text-decoration="underline" textLength="180" x="26" y="170.9526">MINIBASE_ATTRCAT: AttrCatalog
            </text>
            <ellipse cx="17" cy="180.5469" fill="none" rx="3" ry="3" style="stroke: #038048; stroke-width: 1.0;"/>
            <text fill="#000000" font-family="sans-serif" font-size="11" lengthAdjust="spacingAndGlyphs"
                  text-decoration="underline" textLength="169" x="26" y="183.7573">MINIBASE_RELCAT: RelCatalog
            </text>
            <ellipse cx="17" cy="193.3516" fill="none" rx="3" ry="3" style="stroke: #038048; stroke-width: 1.0;"/>
            <text fill="#000000" font-family="sans-serif" font-size="11" lengthAdjust="spacingAndGlyphs"
                  text-decoration="underline" textLength="181" x="26" y="196.562">MINIBASE_INDCAT: IndexCatalog
            </text>
            <line style="stroke: #A80036; stroke-width: 1.5;" x1="7" x2="344" y1="203.1563" y2="203.1563"/>
            <ellipse cx="17" cy="214.1563" fill="#84BE84" rx="3" ry="3" style="stroke: #038048; stroke-width: 1.0;"/>
            <text fill="#000000" font-family="sans-serif" font-size="11" lengthAdjust="spacingAndGlyphs"
                  textLength="249" x="26" y="217.3667">ExtendedSystemDefs(String, int, int, String)
            </text>
            <ellipse cx="17" cy="226.9609" fill="#84BE84" rx="3" ry="3" style="stroke: #038048; stroke-width: 1.0;"/>
            <text fill="#000000" font-family="sans-serif" font-size="11" lengthAdjust="spacingAndGlyphs"
                  textLength="313" x="26" y="230.1714">ExtendedSystemDefs(String, String, int, int, int, String)
            </text>
            <ellipse cx="17" cy="239.7656" fill="#84BE84" rx="3" ry="3" style="stroke: #038048; stroke-width: 1.0;"/>
            <text fill="#000000" font-family="sans-serif" font-size="11" lengthAdjust="spacingAndGlyphs" textLength="70"
                  x="26" y="242.9761">init(int): void
            </text>
        </a><!--MD5=[cab052b5c2ab16e5510e7cce580d2572]
class global.SystemDefs-->
        <a href="../global/SystemDefs.html" target="_top" title="../global/SystemDefs.html" xlink:actuate="onRequest"
           xlink:href="../global/SystemDefs.html" xlink:show="new" xlink:title="../global/SystemDefs.html"
           xlink:type="simple">
            <rect fill="#FEFECE" filter="url(#f154lqu4guzbq0)" height="37.9375" id="global.SystemDefs"
                  style="stroke: #A80036; stroke-width: 1.5;" width="115" x="118" y="8"/>
            <ellipse cx="133" cy="26.9688" fill="#ADD1B2" rx="11" ry="11" style="stroke: #A80036; stroke-width: 1.0;"/>
            <path d="M135.9688,32.6094 Q135.3906,32.9063 134.75,33.0469 Q134.1094,33.2031 133.4063,33.2031 Q130.9063,33.2031 129.5781,31.5625 Q128.2656,29.9063 128.2656,26.7813 Q128.2656,23.6563 129.5781,22 Q130.9063,20.3438 133.4063,20.3438 Q134.1094,20.3438 134.75,20.5 Q135.4063,20.6563 135.9688,20.9531 L135.9688,23.6719 Q135.3438,23.0938 134.75,22.8281 Q134.1563,22.5469 133.5313,22.5469 Q132.1875,22.5469 131.5,23.625 Q130.8125,24.6875 130.8125,26.7813 Q130.8125,28.875 131.5,29.9531 Q132.1875,31.0156 133.5313,31.0156 Q134.1563,31.0156 134.75,30.75 Q135.3438,30.4688 135.9688,29.8906 L135.9688,32.6094 Z "/>
            <text fill="#000000" font-family="sans-serif" font-size="14" lengthAdjust="spacingAndGlyphs" textLength="83"
                  x="147" y="25.9951">SystemDefs
            </text>
            <text fill="#000000" font-family="sans-serif" font-size="10" lengthAdjust="spacingAndGlyphs" textLength="28"
                  x="174.5" y="38.5791">global
            </text>
        </a><!--MD5=[cc458b470281678b602e6acaf7f00b54]
reverse link global.SystemDefs to global.ExtendedSystemDefs-->
        <path d="M175.5,66.3323 C175.5,78.423 175.5,92.1339 175.5,105.7064 " fill="none"
              id="global.SystemDefs&lt;-global.ExtendedSystemDefs" style="stroke: #A80036; stroke-width: 1.0;"/>
        <polygon fill="none" points="168.5001,66.1243,175.5,46.1243,182.5001,66.1242,168.5001,66.1243"
                 style="stroke: #A80036; stroke-width: 1.0;"/>
        <text fill="#888888" font-family="sans-serif" font-size="10" lengthAdjust="spacingAndGlyphs" textLength="186"
              x="88.5" y="269.2822">UMLDoclet 2.0.7, PlantUML 1.2019.12
        </text><!--MD5=[4c0f6b182f22c6834fa61450ab5c937a]
@startuml
    set namespaceSeparator none
    hide empty fields
    hide empty methods

    class "<size:14>ExtendedSystemDefs\n<size:10>global" as global.ExtendedSystemDefs [[../global/ExtendedSystemDefs.html]] {
        {static} +MINIBASE_CATALOGPTR: Catalog
        {static} +MINIBASE_ATTRCAT: AttrCatalog
        {static} +MINIBASE_RELCAT: RelCatalog
        {static} +MINIBASE_INDCAT: IndexCatalog
        +ExtendedSystemDefs(String, int, int, String)
        +ExtendedSystemDefs(String, String, int, int, int, String)
        +init(int): void
    }

    class "<size:14>SystemDefs\n<size:10>global" as global.SystemDefs [[../global/SystemDefs.html]]

    global.SystemDefs <|- - global.ExtendedSystemDefs

    center footer UMLDoclet 2.0.7, PlantUML 1.2019.12
@enduml

PlantUML version 1.2019.12(Sun Nov 03 03:24:54 MST 2019)
(APACHE source distribution)
Java Runtime: Java(TM) SE Runtime Environment
JVM: Java HotSpot(TM) 64-Bit Server VM
Java Version: 11.0.6+8-LTS
Operating System: Linux
Default Encoding: UTF-8
Language: en
Country: US
-->
    </g>
</svg>