<?xml version="1.0" encoding="UTF-8" standalone="no"?>
<svg xmlns="http://www.w3.org/2000/svg" xmlns:xlink="http://www.w3.org/1999/xlink"
     contentScriptType="application/ecmascript" contentStyleType="text/css" height="210px" preserveAspectRatio="none"
     style="width:341px;height:210px;" version="1.1" viewBox="0 0 341 210" width="341px" zoomAndPan="magnify">
    <defs>
        <filter height="300%" id="f1ca97anttqsn4" width="300%" x="-1" y="-1">
            <feGaussianBlur result="blurOut" stdDeviation="2.0"/>
            <feColorMatrix in="blurOut" result="blurOut2" type="matrix"
                           values="0 0 0 0 0 0 0 0 0 0 0 0 0 0 0 0 0 0 .4 0"/>
            <feOffset dx="4.0" dy="4.0" in="blurOut2" result="blurOut3"/>
            <feBlend in="SourceGraphic" in2="blurOut3" mode="normal"/>
        </filter>
    </defs>
    <g><!--MD5=[291b40bcef66fc11277004d171eb6150]
class heap.FieldNumberOutOfBoundException-->
        <a href="../heap/FieldNumberOutOfBoundException.html" target="_top"
           title="../heap/FieldNumberOutOfBoundException.html" xlink:actuate="onRequest"
           xlink:href="../heap/FieldNumberOutOfBoundException.html" xlink:show="new"
           xlink:title="../heap/FieldNumberOutOfBoundException.html" xlink:type="simple">
            <rect fill="#FEFECE" filter="url(#f1ca97anttqsn4)" height="71.5469" id="heap.FieldNumberOutOfBoundException"
                  style="stroke: #A80036; stroke-width: 1.5;" width="324" x="6" y="106"/>
            <ellipse cx="43.95" cy="124.9688" fill="#ADD1B2" rx="11" ry="11"
                     style="stroke: #A80036; stroke-width: 1.0;"/>
            <path d="M46.9188,130.6094 Q46.3406,130.9063 45.7,131.0469 Q45.0594,131.2031 44.3563,131.2031 Q41.8563,131.2031 40.5281,129.5625 Q39.2156,127.9063 39.2156,124.7813 Q39.2156,121.6563 40.5281,120 Q41.8563,118.3438 44.3563,118.3438 Q45.0594,118.3438 45.7,118.5 Q46.3563,118.6563 46.9188,118.9531 L46.9188,121.6719 Q46.2938,121.0938 45.7,120.8281 Q45.1063,120.5469 44.4813,120.5469 Q43.1375,120.5469 42.45,121.625 Q41.7625,122.6875 41.7625,124.7813 Q41.7625,126.875 42.45,127.9531 Q43.1375,129.0156 44.4813,129.0156 Q45.1063,129.0156 45.7,128.75 Q46.2938,128.4688 46.9188,127.8906 L46.9188,130.6094 Z "/>
            <text fill="#000000" font-family="sans-serif" font-size="14" lengthAdjust="spacingAndGlyphs"
                  textLength="241" x="63.05" y="123.9951">FieldNumberOutOfBoundException
            </text>
            <text fill="#000000" font-family="sans-serif" font-size="10" lengthAdjust="spacingAndGlyphs" textLength="24"
                  x="171.55" y="136.5791">heap
            </text>
            <line style="stroke: #A80036; stroke-width: 1.5;" x1="7" x2="329" y1="143.9375" y2="143.9375"/>
            <ellipse cx="17" cy="154.9375" fill="#84BE84" rx="3" ry="3" style="stroke: #038048; stroke-width: 1.0;"/>
            <text fill="#000000" font-family="sans-serif" font-size="11" lengthAdjust="spacingAndGlyphs"
                  textLength="202" x="26" y="158.1479">FieldNumberOutOfBoundException()
            </text>
            <ellipse cx="17" cy="167.7422" fill="#84BE84" rx="3" ry="3" style="stroke: #038048; stroke-width: 1.0;"/>
            <text fill="#000000" font-family="sans-serif" font-size="11" lengthAdjust="spacingAndGlyphs"
                  textLength="298" x="26" y="170.9526">FieldNumberOutOfBoundException(Exception, String)
            </text>
        </a><!--MD5=[2a7cd8221fe6583b4d4c6786e4469311]
class chainexception.ChainException-->
        <a href="../chainexception/ChainException.html" target="_top" title="../chainexception/ChainException.html"
           xlink:actuate="onRequest" xlink:href="../chainexception/ChainException.html" xlink:show="new"
           xlink:title="../chainexception/ChainException.html" xlink:type="simple">
            <rect fill="#FEFECE" filter="url(#f1ca97anttqsn4)" height="37.9375" id="chainexception.ChainException"
                  style="stroke: #A80036; stroke-width: 1.5;" width="139" x="98.5" y="8"/>
            <ellipse cx="113.5" cy="26.9688" fill="#ADD1B2" rx="11" ry="11"
                     style="stroke: #A80036; stroke-width: 1.0;"/>
            <path d="M116.4688,32.6094 Q115.8906,32.9063 115.25,33.0469 Q114.6094,33.2031 113.9063,33.2031 Q111.4063,33.2031 110.0781,31.5625 Q108.7656,29.9063 108.7656,26.7813 Q108.7656,23.6563 110.0781,22 Q111.4063,20.3438 113.9063,20.3438 Q114.6094,20.3438 115.25,20.5 Q115.9063,20.6563 116.4688,20.9531 L116.4688,23.6719 Q115.8438,23.0938 115.25,22.8281 Q114.6563,22.5469 114.0313,22.5469 Q112.6875,22.5469 112,23.625 Q111.3125,24.6875 111.3125,26.7813 Q111.3125,28.875 112,29.9531 Q112.6875,31.0156 114.0313,31.0156 Q114.6563,31.0156 115.25,30.75 Q115.8438,30.4688 116.4688,29.8906 L116.4688,32.6094 Z "/>
            <text fill="#000000" font-family="sans-serif" font-size="14" lengthAdjust="spacingAndGlyphs"
                  textLength="107" x="127.5" y="25.9951">ChainException
            </text>
            <text fill="#000000" font-family="sans-serif" font-size="10" lengthAdjust="spacingAndGlyphs" textLength="72"
                  x="145" y="38.5791">chainexception
            </text>
        </a><!--MD5=[7aa918bf8cd8008b54eca641164c6648]
reverse link chainexception.ChainException to heap.FieldNumberOutOfBoundException-->
        <path d="M168,66.5888 C168,79.3573 168,93.4348 168,105.935 " fill="none"
              id="chainexception.ChainException&lt;-heap.FieldNumberOutOfBoundException"
              style="stroke: #A80036; stroke-width: 1.0;"/>
        <polygon fill="none" points="161.0001,66.2484,168,46.2484,175.0001,66.2484,161.0001,66.2484"
                 style="stroke: #A80036; stroke-width: 1.0;"/>
        <text fill="#888888" font-family="sans-serif" font-size="10" lengthAdjust="spacingAndGlyphs" textLength="186"
              x="81" y="197.2822">UMLDoclet 2.0.7, PlantUML 1.2019.12
        </text><!--MD5=[596ac6454404aace661a23017b133b0f]
@startuml
    set namespaceSeparator none
    hide empty fields
    hide empty methods

    class "<size:14>FieldNumberOutOfBoundException\n<size:10>heap" as heap.FieldNumberOutOfBoundException [[../heap/FieldNumberOutOfBoundException.html]] {
        +FieldNumberOutOfBoundException()
        +FieldNumberOutOfBoundException(Exception, String)
    }

    class "<size:14>ChainException\n<size:10>chainexception" as chainexception.ChainException [[../chainexception/ChainException.html]]

    chainexception.ChainException <|- - heap.FieldNumberOutOfBoundException

    center footer UMLDoclet 2.0.7, PlantUML 1.2019.12
@enduml

PlantUML version 1.2019.12(Sun Nov 03 03:24:54 MST 2019)
(APACHE source distribution)
Java Runtime: Java(TM) SE Runtime Environment
JVM: Java HotSpot(TM) 64-Bit Server VM
Java Version: 11.0.6+8-LTS
Operating System: Linux
Default Encoding: UTF-8
Language: en
Country: US
-->
    </g>
</svg>