<?xml version="1.0" encoding="UTF-8" standalone="no"?>
<svg xmlns="http://www.w3.org/2000/svg" xmlns:xlink="http://www.w3.org/1999/xlink"
     contentScriptType="application/ecmascript" contentStyleType="text/css" height="286px" preserveAspectRatio="none"
     style="width:254px;height:286px;" version="1.1" viewBox="0 0 254 286" width="254px" zoomAndPan="magnify">
    <defs>
        <filter height="300%" id="f9k0velhnh40d" width="300%" x="-1" y="-1">
            <feGaussianBlur result="blurOut" stdDeviation="2.0"/>
            <feColorMatrix in="blurOut" result="blurOut2" type="matrix"
                           values="0 0 0 0 0 0 0 0 0 0 0 0 0 0 0 0 0 0 .4 0"/>
            <feOffset dx="4.0" dy="4.0" in="blurOut2" result="blurOut3"/>
            <feBlend in="SourceGraphic" in2="blurOut3" mode="normal"/>
        </filter>
    </defs>
    <g><!--MD5=[73a60d95ce016ba2884e3fd17bf6ca4a]
class heap.Heapfile-->
        <a href="../heap/Heapfile.html" target="_top" title="../heap/Heapfile.html" xlink:actuate="onRequest"
           xlink:href="../heap/Heapfile.html" xlink:show="new" xlink:title="../heap/Heapfile.html" xlink:type="simple">
            <rect fill="#FEFECE" filter="url(#f9k0velhnh40d)" height="148.375" id="heap.Heapfile"
                  style="stroke: #A80036; stroke-width: 1.5;" width="222" x="6" y="106"/>
            <ellipse cx="85.25" cy="124.9688" fill="#ADD1B2" rx="11" ry="11"
                     style="stroke: #A80036; stroke-width: 1.0;"/>
            <path d="M88.2188,130.6094 Q87.6406,130.9063 87,131.0469 Q86.3594,131.2031 85.6563,131.2031 Q83.1563,131.2031 81.8281,129.5625 Q80.5156,127.9063 80.5156,124.7813 Q80.5156,121.6563 81.8281,120 Q83.1563,118.3438 85.6563,118.3438 Q86.3594,118.3438 87,118.5 Q87.6563,118.6563 88.2188,118.9531 L88.2188,121.6719 Q87.5938,121.0938 87,120.8281 Q86.4063,120.5469 85.7813,120.5469 Q84.4375,120.5469 83.75,121.625 Q83.0625,122.6875 83.0625,124.7813 Q83.0625,126.875 83.75,127.9531 Q84.4375,129.0156 85.7813,129.0156 Q86.4063,129.0156 87,128.75 Q87.5938,128.4688 88.2188,127.8906 L88.2188,130.6094 Z "/>
            <text fill="#000000" font-family="sans-serif" font-size="14" lengthAdjust="spacingAndGlyphs" textLength="55"
                  x="105.75" y="123.9951">Heapfile
            </text>
            <text fill="#000000" font-family="sans-serif" font-size="10" lengthAdjust="spacingAndGlyphs" textLength="24"
                  x="121.25" y="136.5791">heap
            </text>
            <line style="stroke: #A80036; stroke-width: 1.5;" x1="7" x2="227" y1="143.9375" y2="143.9375"/>
            <ellipse cx="17" cy="154.9375" fill="#84BE84" rx="3" ry="3" style="stroke: #038048; stroke-width: 1.0;"/>
            <text fill="#000000" font-family="sans-serif" font-size="11" lengthAdjust="spacingAndGlyphs" textLength="88"
                  x="26" y="158.1479">Heapfile(String)
            </text>
            <ellipse cx="17" cy="167.7422" fill="#84BE84" rx="3" ry="3" style="stroke: #038048; stroke-width: 1.0;"/>
            <text fill="#000000" font-family="sans-serif" font-size="11" lengthAdjust="spacingAndGlyphs" textLength="87"
                  x="26" y="170.9526">getRecCnt(): int
            </text>
            <ellipse cx="17" cy="180.5469" fill="#84BE84" rx="3" ry="3" style="stroke: #038048; stroke-width: 1.0;"/>
            <text fill="#000000" font-family="sans-serif" font-size="11" lengthAdjust="spacingAndGlyphs"
                  textLength="138" x="26" y="183.7573">insertRecord(byte[]): RID
            </text>
            <ellipse cx="17" cy="193.3516" fill="#84BE84" rx="3" ry="3" style="stroke: #038048; stroke-width: 1.0;"/>
            <text fill="#000000" font-family="sans-serif" font-size="11" lengthAdjust="spacingAndGlyphs"
                  textLength="153" x="26" y="196.562">deleteRecord(RID): boolean
            </text>
            <ellipse cx="17" cy="206.1563" fill="#84BE84" rx="3" ry="3" style="stroke: #038048; stroke-width: 1.0;"/>
            <text fill="#000000" font-family="sans-serif" font-size="11" lengthAdjust="spacingAndGlyphs"
                  textLength="196" x="26" y="209.3667">updateRecord(RID, Tuple): boolean
            </text>
            <ellipse cx="17" cy="218.9609" fill="#84BE84" rx="3" ry="3" style="stroke: #038048; stroke-width: 1.0;"/>
            <text fill="#000000" font-family="sans-serif" font-size="11" lengthAdjust="spacingAndGlyphs"
                  textLength="122" x="26" y="222.1714">getRecord(RID): Tuple
            </text>
            <ellipse cx="17" cy="231.7656" fill="#84BE84" rx="3" ry="3" style="stroke: #038048; stroke-width: 1.0;"/>
            <text fill="#000000" font-family="sans-serif" font-size="11" lengthAdjust="spacingAndGlyphs"
                  textLength="100" x="26" y="234.9761">openScan(): Scan
            </text>
            <ellipse cx="17" cy="244.5703" fill="#84BE84" rx="3" ry="3" style="stroke: #038048; stroke-width: 1.0;"/>
            <text fill="#000000" font-family="sans-serif" font-size="11" lengthAdjust="spacingAndGlyphs" textLength="93"
                  x="26" y="247.7808">deleteFile(): void
            </text>
        </a><!--MD5=[7a13b0ae032197b8063f42c5429ed57f]
class heap.Filetype-->
        <rect fill="#FEFECE" filter="url(#f9k0velhnh40d)" height="37.9375" id="heap.Filetype"
              style="stroke: #A80036; stroke-width: 1.5;" width="85" x="6.5" y="8"/>
        <ellipse cx="21.5" cy="26.9688" fill="#B4A7E5" rx="11" ry="11" style="stroke: #A80036; stroke-width: 1.0;"/>
        <path d="M17.4219,22.7344 L17.4219,20.5781 L24.8125,20.5781 L24.8125,22.7344 L22.3438,22.7344 L22.3438,30.8125 L24.8125,30.8125 L24.8125,32.9688 L17.4219,32.9688 L17.4219,30.8125 L19.8906,30.8125 L19.8906,22.7344 L17.4219,22.7344 Z "/>
        <text fill="#000000" font-family="sans-serif" font-size="14" font-style="italic" lengthAdjust="spacingAndGlyphs"
              textLength="53" x="35.5" y="25.9951">Filetype
        </text>
        <text fill="#000000" font-family="sans-serif" font-size="10" font-style="italic" lengthAdjust="spacingAndGlyphs"
              textLength="24" x="50" y="38.5791">heap
        </text><!--MD5=[349d101bc5b57a3de1b8b252b2bcdd93]
class global.GlobalConst-->
        <a href="../global/GlobalConst.html" target="_top" title="../global/GlobalConst.html" xlink:actuate="onRequest"
           xlink:href="../global/GlobalConst.html" xlink:show="new" xlink:title="../global/GlobalConst.html"
           xlink:type="simple">
            <rect fill="#FEFECE" filter="url(#f9k0velhnh40d)" height="37.9375" id="global.GlobalConst"
                  style="stroke: #A80036; stroke-width: 1.5;" width="116" x="127" y="8"/>
            <ellipse cx="142" cy="26.9688" fill="#B4A7E5" rx="11" ry="11" style="stroke: #A80036; stroke-width: 1.0;"/>
            <path d="M137.9219,22.7344 L137.9219,20.5781 L145.3125,20.5781 L145.3125,22.7344 L142.8438,22.7344 L142.8438,30.8125 L145.3125,30.8125 L145.3125,32.9688 L137.9219,32.9688 L137.9219,30.8125 L140.3906,30.8125 L140.3906,22.7344 L137.9219,22.7344 Z "/>
            <text fill="#000000" font-family="sans-serif" font-size="14" font-style="italic"
                  lengthAdjust="spacingAndGlyphs" textLength="84" x="156" y="25.9951">GlobalConst
            </text>
            <text fill="#000000" font-family="sans-serif" font-size="10" font-style="italic"
                  lengthAdjust="spacingAndGlyphs" textLength="28" x="184" y="38.5791">global
            </text>
        </a><!--MD5=[50e440a1c1fffe880b11647126d12de4]
reverse link heap.Filetype to heap.Heapfile-->
        <path d="M65.6442,64.4494 C71.2153,76.9844 77.6359,91.4308 84.0092,105.7707 " fill="none"
              id="heap.Filetype&lt;-heap.Heapfile"
              style="stroke: #A80036; stroke-width: 1.0; stroke-dasharray: 7.0,7.0;"/>
        <polygon fill="none" points="59.2009,67.1874,57.4748,46.0682,71.9943,61.5015,59.2009,67.1874"
                 style="stroke: #A80036; stroke-width: 1.0;"/><!--MD5=[9894b21d402d075db4c508537603a358]
reverse link global.GlobalConst to heap.Heapfile-->
        <path d="M168.3558,64.4494 C162.7847,76.9844 156.3641,91.4308 149.9908,105.7707 " fill="none"
              id="global.GlobalConst&lt;-heap.Heapfile"
              style="stroke: #A80036; stroke-width: 1.0; stroke-dasharray: 7.0,7.0;"/>
        <polygon fill="none" points="162.0057,61.5015,176.5252,46.0682,174.7991,67.1874,162.0057,61.5015"
                 style="stroke: #A80036; stroke-width: 1.0;"/>
        <text fill="#888888" font-family="sans-serif" font-size="10" lengthAdjust="spacingAndGlyphs" textLength="186"
              x="37.5" y="273.2822">UMLDoclet 2.0.7, PlantUML 1.2019.12
        </text><!--MD5=[47d5592df09eb1688035495a39e06631]
@startuml
    set namespaceSeparator none
    hide empty fields
    hide empty methods

    class "<size:14>Heapfile\n<size:10>heap" as heap.Heapfile [[../heap/Heapfile.html]] {
        +Heapfile(String)
        +getRecCnt(): int
        +insertRecord(byte[]): RID
        +deleteRecord(RID): boolean
        +updateRecord(RID, Tuple): boolean
        +getRecord(RID): Tuple
        +openScan(): Scan
        +deleteFile(): void
    }

    interface "<size:14>Filetype\n<size:10>heap" as heap.Filetype
    interface "<size:14>GlobalConst\n<size:10>global" as global.GlobalConst [[../global/GlobalConst.html]]

    heap.Filetype <|.. heap.Heapfile
    global.GlobalConst <|.. heap.Heapfile

    center footer UMLDoclet 2.0.7, PlantUML 1.2019.12
@enduml

PlantUML version 1.2019.12(Sun Nov 03 03:24:54 MST 2019)
(APACHE source distribution)
Java Runtime: Java(TM) SE Runtime Environment
JVM: Java HotSpot(TM) 64-Bit Server VM
Java Version: 11.0.6+8-LTS
Operating System: Linux
Default Encoding: UTF-8
Language: en
Country: US
-->
    </g>
</svg>