<?xml version="1.0" encoding="UTF-8" standalone="no"?>
<svg xmlns="http://www.w3.org/2000/svg" xmlns:xlink="http://www.w3.org/1999/xlink"
     contentScriptType="application/ecmascript" contentStyleType="text/css" height="210px" preserveAspectRatio="none"
     style="width:260px;height:210px;" version="1.1" viewBox="0 0 260 210" width="260px" zoomAndPan="magnify">
    <defs>
        <filter height="300%" id="frve0j92qbfnm" width="300%" x="-1" y="-1">
            <feGaussianBlur result="blurOut" stdDeviation="2.0"/>
            <feColorMatrix in="blurOut" result="blurOut2" type="matrix"
                           values="0 0 0 0 0 0 0 0 0 0 0 0 0 0 0 0 0 0 .4 0"/>
            <feOffset dx="4.0" dy="4.0" in="blurOut2" result="blurOut3"/>
            <feBlend in="SourceGraphic" in2="blurOut3" mode="normal"/>
        </filter>
    </defs>
    <g><!--MD5=[c9d6054a8356a0fce370927fb2d4af3c]
class heap.HFDiskMgrException-->
        <a href="../heap/HFDiskMgrException.html" target="_top" title="../heap/HFDiskMgrException.html"
           xlink:actuate="onRequest" xlink:href="../heap/HFDiskMgrException.html" xlink:show="new"
           xlink:title="../heap/HFDiskMgrException.html" xlink:type="simple">
            <rect fill="#FEFECE" filter="url(#frve0j92qbfnm)" height="71.5469" id="heap.HFDiskMgrException"
                  style="stroke: #A80036; stroke-width: 1.5;" width="243" x="6" y="106"/>
            <ellipse cx="52.25" cy="124.9688" fill="#ADD1B2" rx="11" ry="11"
                     style="stroke: #A80036; stroke-width: 1.0;"/>
            <path d="M55.2188,130.6094 Q54.6406,130.9063 54,131.0469 Q53.3594,131.2031 52.6563,131.2031 Q50.1563,131.2031 48.8281,129.5625 Q47.5156,127.9063 47.5156,124.7813 Q47.5156,121.6563 48.8281,120 Q50.1563,118.3438 52.6563,118.3438 Q53.3594,118.3438 54,118.5 Q54.6563,118.6563 55.2188,118.9531 L55.2188,121.6719 Q54.5938,121.0938 54,120.8281 Q53.4063,120.5469 52.7813,120.5469 Q51.4375,120.5469 50.75,121.625 Q50.0625,122.6875 50.0625,124.7813 Q50.0625,126.875 50.75,127.9531 Q51.4375,129.0156 52.7813,129.0156 Q53.4063,129.0156 54,128.75 Q54.5938,128.4688 55.2188,127.8906 L55.2188,130.6094 Z "/>
            <text fill="#000000" font-family="sans-serif" font-size="14" lengthAdjust="spacingAndGlyphs"
                  textLength="142" x="72.75" y="123.9951">HFDiskMgrException
            </text>
            <text fill="#000000" font-family="sans-serif" font-size="10" lengthAdjust="spacingAndGlyphs" textLength="24"
                  x="131.75" y="136.5791">heap
            </text>
            <line style="stroke: #A80036; stroke-width: 1.5;" x1="7" x2="248" y1="143.9375" y2="143.9375"/>
            <ellipse cx="17" cy="154.9375" fill="#84BE84" rx="3" ry="3" style="stroke: #038048; stroke-width: 1.0;"/>
            <text fill="#000000" font-family="sans-serif" font-size="11" lengthAdjust="spacingAndGlyphs"
                  textLength="121" x="26" y="158.1479">HFDiskMgrException()
            </text>
            <ellipse cx="17" cy="167.7422" fill="#84BE84" rx="3" ry="3" style="stroke: #038048; stroke-width: 1.0;"/>
            <text fill="#000000" font-family="sans-serif" font-size="11" lengthAdjust="spacingAndGlyphs"
                  textLength="217" x="26" y="170.9526">HFDiskMgrException(Exception, String)
            </text>
        </a><!--MD5=[2a7cd8221fe6583b4d4c6786e4469311]
class chainexception.ChainException-->
        <a href="../chainexception/ChainException.html" target="_top" title="../chainexception/ChainException.html"
           xlink:actuate="onRequest" xlink:href="../chainexception/ChainException.html" xlink:show="new"
           xlink:title="../chainexception/ChainException.html" xlink:type="simple">
            <rect fill="#FEFECE" filter="url(#frve0j92qbfnm)" height="37.9375" id="chainexception.ChainException"
                  style="stroke: #A80036; stroke-width: 1.5;" width="139" x="58" y="8"/>
            <ellipse cx="73" cy="26.9688" fill="#ADD1B2" rx="11" ry="11" style="stroke: #A80036; stroke-width: 1.0;"/>
            <path d="M75.9688,32.6094 Q75.3906,32.9063 74.75,33.0469 Q74.1094,33.2031 73.4063,33.2031 Q70.9063,33.2031 69.5781,31.5625 Q68.2656,29.9063 68.2656,26.7813 Q68.2656,23.6563 69.5781,22 Q70.9063,20.3438 73.4063,20.3438 Q74.1094,20.3438 74.75,20.5 Q75.4063,20.6563 75.9688,20.9531 L75.9688,23.6719 Q75.3438,23.0938 74.75,22.8281 Q74.1563,22.5469 73.5313,22.5469 Q72.1875,22.5469 71.5,23.625 Q70.8125,24.6875 70.8125,26.7813 Q70.8125,28.875 71.5,29.9531 Q72.1875,31.0156 73.5313,31.0156 Q74.1563,31.0156 74.75,30.75 Q75.3438,30.4688 75.9688,29.8906 L75.9688,32.6094 Z "/>
            <text fill="#000000" font-family="sans-serif" font-size="14" lengthAdjust="spacingAndGlyphs"
                  textLength="107" x="87" y="25.9951">ChainException
            </text>
            <text fill="#000000" font-family="sans-serif" font-size="10" lengthAdjust="spacingAndGlyphs" textLength="72"
                  x="104.5" y="38.5791">chainexception
            </text>
        </a><!--MD5=[6358c7d0a50117a31d27dc911784a7cc]
reverse link chainexception.ChainException to heap.HFDiskMgrException-->
        <path d="M127.5,66.5888 C127.5,79.3573 127.5,93.4348 127.5,105.935 " fill="none"
              id="chainexception.ChainException&lt;-heap.HFDiskMgrException"
              style="stroke: #A80036; stroke-width: 1.0;"/>
        <polygon fill="none" points="120.5001,66.2484,127.5,46.2484,134.5001,66.2484,120.5001,66.2484"
                 style="stroke: #A80036; stroke-width: 1.0;"/>
        <text fill="#888888" font-family="sans-serif" font-size="10" lengthAdjust="spacingAndGlyphs" textLength="186"
              x="40.5" y="197.2822">UMLDoclet 2.0.7, PlantUML 1.2019.12
        </text><!--MD5=[05e27253adabee8d8cadd4fa2c8bd152]
@startuml
    set namespaceSeparator none
    hide empty fields
    hide empty methods

    class "<size:14>HFDiskMgrException\n<size:10>heap" as heap.HFDiskMgrException [[../heap/HFDiskMgrException.html]] {
        +HFDiskMgrException()
        +HFDiskMgrException(Exception, String)
    }

    class "<size:14>ChainException\n<size:10>chainexception" as chainexception.ChainException [[../chainexception/ChainException.html]]

    chainexception.ChainException <|- - heap.HFDiskMgrException

    center footer UMLDoclet 2.0.7, PlantUML 1.2019.12
@enduml

PlantUML version 1.2019.12(Sun Nov 03 03:24:54 MST 2019)
(APACHE source distribution)
Java Runtime: Java(TM) SE Runtime Environment
JVM: Java HotSpot(TM) 64-Bit Server VM
Java Version: 11.0.6+8-LTS
Operating System: Linux
Default Encoding: UTF-8
Language: en
Country: US
-->
    </g>
</svg>