<?xml version="1.0" encoding="UTF-8" standalone="no"?>
<svg xmlns="http://www.w3.org/2000/svg" xmlns:xlink="http://www.w3.org/1999/xlink"
     contentScriptType="application/ecmascript" contentStyleType="text/css" height="210px" preserveAspectRatio="none"
     style="width:264px;height:210px;" version="1.1" viewBox="0 0 264 210" width="264px" zoomAndPan="magnify">
    <defs>
        <filter height="300%" id="f15zhqg3u2v106" width="300%" x="-1" y="-1">
            <feGaussianBlur result="blurOut" stdDeviation="2.0"/>
            <feColorMatrix in="blurOut" result="blurOut2" type="matrix"
                           values="0 0 0 0 0 0 0 0 0 0 0 0 0 0 0 0 0 0 .4 0"/>
            <feOffset dx="4.0" dy="4.0" in="blurOut2" result="blurOut3"/>
            <feBlend in="SourceGraphic" in2="blurOut3" mode="normal"/>
        </filter>
    </defs>
    <g><!--MD5=[567142ac8130f6d7c9f2e8824c41613b]
class heap.InvalidTypeException-->
        <a href="../heap/InvalidTypeException.html" target="_top" title="../heap/InvalidTypeException.html"
           xlink:actuate="onRequest" xlink:href="../heap/InvalidTypeException.html" xlink:show="new"
           xlink:title="../heap/InvalidTypeException.html" xlink:type="simple">
            <rect fill="#FEFECE" filter="url(#f15zhqg3u2v106)" height="71.5469" id="heap.InvalidTypeException"
                  style="stroke: #A80036; stroke-width: 1.5;" width="247" x="6" y="106"/>
            <ellipse cx="53.25" cy="124.9688" fill="#ADD1B2" rx="11" ry="11"
                     style="stroke: #A80036; stroke-width: 1.0;"/>
            <path d="M56.2188,130.6094 Q55.6406,130.9063 55,131.0469 Q54.3594,131.2031 53.6563,131.2031 Q51.1563,131.2031 49.8281,129.5625 Q48.5156,127.9063 48.5156,124.7813 Q48.5156,121.6563 49.8281,120 Q51.1563,118.3438 53.6563,118.3438 Q54.3594,118.3438 55,118.5 Q55.6563,118.6563 56.2188,118.9531 L56.2188,121.6719 Q55.5938,121.0938 55,120.8281 Q54.4063,120.5469 53.7813,120.5469 Q52.4375,120.5469 51.75,121.625 Q51.0625,122.6875 51.0625,124.7813 Q51.0625,126.875 51.75,127.9531 Q52.4375,129.0156 53.7813,129.0156 Q54.4063,129.0156 55,128.75 Q55.5938,128.4688 56.2188,127.8906 L56.2188,130.6094 Z "/>
            <text fill="#000000" font-family="sans-serif" font-size="14" lengthAdjust="spacingAndGlyphs"
                  textLength="144" x="73.75" y="123.9951">InvalidTypeException
            </text>
            <text fill="#000000" font-family="sans-serif" font-size="10" lengthAdjust="spacingAndGlyphs" textLength="24"
                  x="133.75" y="136.5791">heap
            </text>
            <line style="stroke: #A80036; stroke-width: 1.5;" x1="7" x2="252" y1="143.9375" y2="143.9375"/>
            <ellipse cx="17" cy="154.9375" fill="#84BE84" rx="3" ry="3" style="stroke: #038048; stroke-width: 1.0;"/>
            <text fill="#000000" font-family="sans-serif" font-size="11" lengthAdjust="spacingAndGlyphs"
                  textLength="125" x="26" y="158.1479">InvalidTypeException()
            </text>
            <ellipse cx="17" cy="167.7422" fill="#84BE84" rx="3" ry="3" style="stroke: #038048; stroke-width: 1.0;"/>
            <text fill="#000000" font-family="sans-serif" font-size="11" lengthAdjust="spacingAndGlyphs"
                  textLength="221" x="26" y="170.9526">InvalidTypeException(Exception, String)
            </text>
        </a><!--MD5=[2a7cd8221fe6583b4d4c6786e4469311]
class chainexception.ChainException-->
        <a href="../chainexception/ChainException.html" target="_top" title="../chainexception/ChainException.html"
           xlink:actuate="onRequest" xlink:href="../chainexception/ChainException.html" xlink:show="new"
           xlink:title="../chainexception/ChainException.html" xlink:type="simple">
            <rect fill="#FEFECE" filter="url(#f15zhqg3u2v106)" height="37.9375" id="chainexception.ChainException"
                  style="stroke: #A80036; stroke-width: 1.5;" width="139" x="60" y="8"/>
            <ellipse cx="75" cy="26.9688" fill="#ADD1B2" rx="11" ry="11" style="stroke: #A80036; stroke-width: 1.0;"/>
            <path d="M77.9688,32.6094 Q77.3906,32.9063 76.75,33.0469 Q76.1094,33.2031 75.4063,33.2031 Q72.9063,33.2031 71.5781,31.5625 Q70.2656,29.9063 70.2656,26.7813 Q70.2656,23.6563 71.5781,22 Q72.9063,20.3438 75.4063,20.3438 Q76.1094,20.3438 76.75,20.5 Q77.4063,20.6563 77.9688,20.9531 L77.9688,23.6719 Q77.3438,23.0938 76.75,22.8281 Q76.1563,22.5469 75.5313,22.5469 Q74.1875,22.5469 73.5,23.625 Q72.8125,24.6875 72.8125,26.7813 Q72.8125,28.875 73.5,29.9531 Q74.1875,31.0156 75.5313,31.0156 Q76.1563,31.0156 76.75,30.75 Q77.3438,30.4688 77.9688,29.8906 L77.9688,32.6094 Z "/>
            <text fill="#000000" font-family="sans-serif" font-size="14" lengthAdjust="spacingAndGlyphs"
                  textLength="107" x="89" y="25.9951">ChainException
            </text>
            <text fill="#000000" font-family="sans-serif" font-size="10" lengthAdjust="spacingAndGlyphs" textLength="72"
                  x="106.5" y="38.5791">chainexception
            </text>
        </a><!--MD5=[54e500cb529ea7225aa93cab217ee675]
reverse link chainexception.ChainException to heap.InvalidTypeException-->
        <path d="M129.5,66.5888 C129.5,79.3573 129.5,93.4348 129.5,105.935 " fill="none"
              id="chainexception.ChainException&lt;-heap.InvalidTypeException"
              style="stroke: #A80036; stroke-width: 1.0;"/>
        <polygon fill="none" points="122.5001,66.2484,129.5,46.2484,136.5001,66.2484,122.5001,66.2484"
                 style="stroke: #A80036; stroke-width: 1.0;"/>
        <text fill="#888888" font-family="sans-serif" font-size="10" lengthAdjust="spacingAndGlyphs" textLength="186"
              x="42.5" y="197.2822">UMLDoclet 2.0.7, PlantUML 1.2019.12
        </text><!--MD5=[533942627eef9c5555766d593f4b9d36]
@startuml
    set namespaceSeparator none
    hide empty fields
    hide empty methods

    class "<size:14>InvalidTypeException\n<size:10>heap" as heap.InvalidTypeException [[../heap/InvalidTypeException.html]] {
        +InvalidTypeException()
        +InvalidTypeException(Exception, String)
    }

    class "<size:14>ChainException\n<size:10>chainexception" as chainexception.ChainException [[../chainexception/ChainException.html]]

    chainexception.ChainException <|- - heap.InvalidTypeException

    center footer UMLDoclet 2.0.7, PlantUML 1.2019.12
@enduml

PlantUML version 1.2019.12(Sun Nov 03 03:24:54 MST 2019)
(APACHE source distribution)
Java Runtime: Java(TM) SE Runtime Environment
JVM: Java HotSpot(TM) 64-Bit Server VM
Java Version: 11.0.6+8-LTS
Operating System: Linux
Default Encoding: UTF-8
Language: en
Country: US
-->
    </g>
</svg>