<?xml version="1.0" encoding="UTF-8" standalone="no"?>
<svg xmlns="http://www.w3.org/2000/svg" xmlns:xlink="http://www.w3.org/1999/xlink"
     contentScriptType="application/ecmascript" contentStyleType="text/css" height="210px" preserveAspectRatio="none"
     style="width:305px;height:210px;" version="1.1" viewBox="0 0 305 210" width="305px" zoomAndPan="magnify">
    <defs>
        <filter height="300%" id="f1c0yalhs5wim8" width="300%" x="-1" y="-1">
            <feGaussianBlur result="blurOut" stdDeviation="2.0"/>
            <feColorMatrix in="blurOut" result="blurOut2" type="matrix"
                           values="0 0 0 0 0 0 0 0 0 0 0 0 0 0 0 0 0 0 .4 0"/>
            <feOffset dx="4.0" dy="4.0" in="blurOut2" result="blurOut3"/>
            <feBlend in="SourceGraphic" in2="blurOut3" mode="normal"/>
        </filter>
    </defs>
    <g><!--MD5=[ab61e6686dbf169e03617f49aee4cfe9]
class heap.SpaceNotAvailableException-->
        <a href="../heap/SpaceNotAvailableException.html" target="_top" title="../heap/SpaceNotAvailableException.html"
           xlink:actuate="onRequest" xlink:href="../heap/SpaceNotAvailableException.html" xlink:show="new"
           xlink:title="../heap/SpaceNotAvailableException.html" xlink:type="simple">
            <rect fill="#FEFECE" filter="url(#f1c0yalhs5wim8)" height="71.5469" id="heap.SpaceNotAvailableException"
                  style="stroke: #A80036; stroke-width: 1.5;" width="288" x="6" y="106"/>
            <ellipse cx="48.9" cy="124.9688" fill="#ADD1B2" rx="11" ry="11"
                     style="stroke: #A80036; stroke-width: 1.0;"/>
            <path d="M51.8688,130.6094 Q51.2906,130.9063 50.65,131.0469 Q50.0094,131.2031 49.3063,131.2031 Q46.8063,131.2031 45.4781,129.5625 Q44.1656,127.9063 44.1656,124.7813 Q44.1656,121.6563 45.4781,120 Q46.8063,118.3438 49.3063,118.3438 Q50.0094,118.3438 50.65,118.5 Q51.3063,118.6563 51.8688,118.9531 L51.8688,121.6719 Q51.2438,121.0938 50.65,120.8281 Q50.0563,120.5469 49.4313,120.5469 Q48.0875,120.5469 47.4,121.625 Q46.7125,122.6875 46.7125,124.7813 Q46.7125,126.875 47.4,127.9531 Q48.0875,129.0156 49.4313,129.0156 Q50.0563,129.0156 50.65,128.75 Q51.2438,128.4688 51.8688,127.8906 L51.8688,130.6094 Z "/>
            <text fill="#000000" font-family="sans-serif" font-size="14" lengthAdjust="spacingAndGlyphs"
                  textLength="194" x="69.1" y="123.9951">SpaceNotAvailableException
            </text>
            <text fill="#000000" font-family="sans-serif" font-size="10" lengthAdjust="spacingAndGlyphs" textLength="24"
                  x="154.1" y="136.5791">heap
            </text>
            <line style="stroke: #A80036; stroke-width: 1.5;" x1="7" x2="293" y1="143.9375" y2="143.9375"/>
            <ellipse cx="17" cy="154.9375" fill="#84BE84" rx="3" ry="3" style="stroke: #038048; stroke-width: 1.0;"/>
            <text fill="#000000" font-family="sans-serif" font-size="11" lengthAdjust="spacingAndGlyphs"
                  textLength="166" x="26" y="158.1479">SpaceNotAvailableException()
            </text>
            <ellipse cx="17" cy="167.7422" fill="#84BE84" rx="3" ry="3" style="stroke: #038048; stroke-width: 1.0;"/>
            <text fill="#000000" font-family="sans-serif" font-size="11" lengthAdjust="spacingAndGlyphs"
                  textLength="262" x="26" y="170.9526">SpaceNotAvailableException(Exception, String)
            </text>
        </a><!--MD5=[2a7cd8221fe6583b4d4c6786e4469311]
class chainexception.ChainException-->
        <a href="../chainexception/ChainException.html" target="_top" title="../chainexception/ChainException.html"
           xlink:actuate="onRequest" xlink:href="../chainexception/ChainException.html" xlink:show="new"
           xlink:title="../chainexception/ChainException.html" xlink:type="simple">
            <rect fill="#FEFECE" filter="url(#f1c0yalhs5wim8)" height="37.9375" id="chainexception.ChainException"
                  style="stroke: #A80036; stroke-width: 1.5;" width="139" x="80.5" y="8"/>
            <ellipse cx="95.5" cy="26.9688" fill="#ADD1B2" rx="11" ry="11" style="stroke: #A80036; stroke-width: 1.0;"/>
            <path d="M98.4688,32.6094 Q97.8906,32.9063 97.25,33.0469 Q96.6094,33.2031 95.9063,33.2031 Q93.4063,33.2031 92.0781,31.5625 Q90.7656,29.9063 90.7656,26.7813 Q90.7656,23.6563 92.0781,22 Q93.4063,20.3438 95.9063,20.3438 Q96.6094,20.3438 97.25,20.5 Q97.9063,20.6563 98.4688,20.9531 L98.4688,23.6719 Q97.8438,23.0938 97.25,22.8281 Q96.6563,22.5469 96.0313,22.5469 Q94.6875,22.5469 94,23.625 Q93.3125,24.6875 93.3125,26.7813 Q93.3125,28.875 94,29.9531 Q94.6875,31.0156 96.0313,31.0156 Q96.6563,31.0156 97.25,30.75 Q97.8438,30.4688 98.4688,29.8906 L98.4688,32.6094 Z "/>
            <text fill="#000000" font-family="sans-serif" font-size="14" lengthAdjust="spacingAndGlyphs"
                  textLength="107" x="109.5" y="25.9951">ChainException
            </text>
            <text fill="#000000" font-family="sans-serif" font-size="10" lengthAdjust="spacingAndGlyphs" textLength="72"
                  x="127" y="38.5791">chainexception
            </text>
        </a><!--MD5=[476440de1d1d0eb0aa2fe40f11878d9d]
reverse link chainexception.ChainException to heap.SpaceNotAvailableException-->
        <path d="M150,66.5888 C150,79.3573 150,93.4348 150,105.935 " fill="none"
              id="chainexception.ChainException&lt;-heap.SpaceNotAvailableException"
              style="stroke: #A80036; stroke-width: 1.0;"/>
        <polygon fill="none" points="143.0001,66.2484,150,46.2484,157.0001,66.2484,143.0001,66.2484"
                 style="stroke: #A80036; stroke-width: 1.0;"/>
        <text fill="#888888" font-family="sans-serif" font-size="10" lengthAdjust="spacingAndGlyphs" textLength="186"
              x="63" y="197.2822">UMLDoclet 2.0.7, PlantUML 1.2019.12
        </text><!--MD5=[aeeefd566a4e7d0d14358f380552a19e]
@startuml
    set namespaceSeparator none
    hide empty fields
    hide empty methods

    class "<size:14>SpaceNotAvailableException\n<size:10>heap" as heap.SpaceNotAvailableException [[../heap/SpaceNotAvailableException.html]] {
        +SpaceNotAvailableException()
        +SpaceNotAvailableException(Exception, String)
    }

    class "<size:14>ChainException\n<size:10>chainexception" as chainexception.ChainException [[../chainexception/ChainException.html]]

    chainexception.ChainException <|- - heap.SpaceNotAvailableException

    center footer UMLDoclet 2.0.7, PlantUML 1.2019.12
@enduml

PlantUML version 1.2019.12(Sun Nov 03 03:24:54 MST 2019)
(APACHE source distribution)
Java Runtime: Java(TM) SE Runtime Environment
JVM: Java HotSpot(TM) 64-Bit Server VM
Java Version: 11.0.6+8-LTS
Operating System: Linux
Default Encoding: UTF-8
Language: en
Country: US
-->
    </g>
</svg>