<?xml version="1.0" encoding="UTF-8" standalone="no"?>
<svg xmlns="http://www.w3.org/2000/svg" xmlns:xlink="http://www.w3.org/1999/xlink"
     contentScriptType="application/ecmascript" contentStyleType="text/css" height="210px" preserveAspectRatio="none"
     style="width:304px;height:210px;" version="1.1" viewBox="0 0 304 210" width="304px" zoomAndPan="magnify">
    <defs>
        <filter height="300%" id="f15lq51bv5znus" width="300%" x="-1" y="-1">
            <feGaussianBlur result="blurOut" stdDeviation="2.0"/>
            <feColorMatrix in="blurOut" result="blurOut2" type="matrix"
                           values="0 0 0 0 0 0 0 0 0 0 0 0 0 0 0 0 0 0 .4 0"/>
            <feOffset dx="4.0" dy="4.0" in="blurOut2" result="blurOut3"/>
            <feBlend in="SourceGraphic" in2="blurOut3" mode="normal"/>
        </filter>
    </defs>
    <g><!--MD5=[ae27a0e7b523382c932e4d3eae711251]
class heap.InvalidSlotNumberException-->
        <a href="../heap/InvalidSlotNumberException.html" target="_top" title="../heap/InvalidSlotNumberException.html"
           xlink:actuate="onRequest" xlink:href="../heap/InvalidSlotNumberException.html" xlink:show="new"
           xlink:title="../heap/InvalidSlotNumberException.html" xlink:type="simple">
            <rect fill="#FEFECE" filter="url(#f15lq51bv5znus)" height="71.5469" id="heap.InvalidSlotNumberException"
                  style="stroke: #A80036; stroke-width: 1.5;" width="287" x="6" y="106"/>
            <ellipse cx="49.8" cy="124.9688" fill="#ADD1B2" rx="11" ry="11"
                     style="stroke: #A80036; stroke-width: 1.0;"/>
            <path d="M52.7688,130.6094 Q52.1906,130.9063 51.55,131.0469 Q50.9094,131.2031 50.2063,131.2031 Q47.7063,131.2031 46.3781,129.5625 Q45.0656,127.9063 45.0656,124.7813 Q45.0656,121.6563 46.3781,120 Q47.7063,118.3438 50.2063,118.3438 Q50.9094,118.3438 51.55,118.5 Q52.2063,118.6563 52.7688,118.9531 L52.7688,121.6719 Q52.1438,121.0938 51.55,120.8281 Q50.9563,120.5469 50.3313,120.5469 Q48.9875,120.5469 48.3,121.625 Q47.6125,122.6875 47.6125,124.7813 Q47.6125,126.875 48.3,127.9531 Q48.9875,129.0156 50.3313,129.0156 Q50.9563,129.0156 51.55,128.75 Q52.1438,128.4688 52.7688,127.8906 L52.7688,130.6094 Z "/>
            <text fill="#000000" font-family="sans-serif" font-size="14" lengthAdjust="spacingAndGlyphs"
                  textLength="191" x="70.2" y="123.9951">InvalidSlotNumberException
            </text>
            <text fill="#000000" font-family="sans-serif" font-size="10" lengthAdjust="spacingAndGlyphs" textLength="24"
                  x="153.7" y="136.5791">heap
            </text>
            <line style="stroke: #A80036; stroke-width: 1.5;" x1="7" x2="292" y1="143.9375" y2="143.9375"/>
            <ellipse cx="17" cy="154.9375" fill="#84BE84" rx="3" ry="3" style="stroke: #038048; stroke-width: 1.0;"/>
            <text fill="#000000" font-family="sans-serif" font-size="11" lengthAdjust="spacingAndGlyphs"
                  textLength="165" x="26" y="158.1479">InvalidSlotNumberException()
            </text>
            <ellipse cx="17" cy="167.7422" fill="#84BE84" rx="3" ry="3" style="stroke: #038048; stroke-width: 1.0;"/>
            <text fill="#000000" font-family="sans-serif" font-size="11" lengthAdjust="spacingAndGlyphs"
                  textLength="261" x="26" y="170.9526">InvalidSlotNumberException(Exception, String)
            </text>
        </a><!--MD5=[2a7cd8221fe6583b4d4c6786e4469311]
class chainexception.ChainException-->
        <a href="../chainexception/ChainException.html" target="_top" title="../chainexception/ChainException.html"
           xlink:actuate="onRequest" xlink:href="../chainexception/ChainException.html" xlink:show="new"
           xlink:title="../chainexception/ChainException.html" xlink:type="simple">
            <rect fill="#FEFECE" filter="url(#f15lq51bv5znus)" height="37.9375" id="chainexception.ChainException"
                  style="stroke: #A80036; stroke-width: 1.5;" width="139" x="80" y="8"/>
            <ellipse cx="95" cy="26.9688" fill="#ADD1B2" rx="11" ry="11" style="stroke: #A80036; stroke-width: 1.0;"/>
            <path d="M97.9688,32.6094 Q97.3906,32.9063 96.75,33.0469 Q96.1094,33.2031 95.4063,33.2031 Q92.9063,33.2031 91.5781,31.5625 Q90.2656,29.9063 90.2656,26.7813 Q90.2656,23.6563 91.5781,22 Q92.9063,20.3438 95.4063,20.3438 Q96.1094,20.3438 96.75,20.5 Q97.4063,20.6563 97.9688,20.9531 L97.9688,23.6719 Q97.3438,23.0938 96.75,22.8281 Q96.1563,22.5469 95.5313,22.5469 Q94.1875,22.5469 93.5,23.625 Q92.8125,24.6875 92.8125,26.7813 Q92.8125,28.875 93.5,29.9531 Q94.1875,31.0156 95.5313,31.0156 Q96.1563,31.0156 96.75,30.75 Q97.3438,30.4688 97.9688,29.8906 L97.9688,32.6094 Z "/>
            <text fill="#000000" font-family="sans-serif" font-size="14" lengthAdjust="spacingAndGlyphs"
                  textLength="107" x="109" y="25.9951">ChainException
            </text>
            <text fill="#000000" font-family="sans-serif" font-size="10" lengthAdjust="spacingAndGlyphs" textLength="72"
                  x="126.5" y="38.5791">chainexception
            </text>
        </a><!--MD5=[bbb38e36f2ed0f2b8c7fb6f09f96c48c]
reverse link chainexception.ChainException to heap.InvalidSlotNumberException-->
        <path d="M149.5,66.5888 C149.5,79.3573 149.5,93.4348 149.5,105.935 " fill="none"
              id="chainexception.ChainException&lt;-heap.InvalidSlotNumberException"
              style="stroke: #A80036; stroke-width: 1.0;"/>
        <polygon fill="none" points="142.5001,66.2484,149.5,46.2484,156.5001,66.2484,142.5001,66.2484"
                 style="stroke: #A80036; stroke-width: 1.0;"/>
        <text fill="#888888" font-family="sans-serif" font-size="10" lengthAdjust="spacingAndGlyphs" textLength="186"
              x="62.5" y="197.2822">UMLDoclet 2.0.7, PlantUML 1.2019.12
        </text><!--MD5=[5bb51b6f4e4bf78470266e79b9c2d203]
@startuml
    set namespaceSeparator none
    hide empty fields
    hide empty methods

    class "<size:14>InvalidSlotNumberException\n<size:10>heap" as heap.InvalidSlotNumberException [[../heap/InvalidSlotNumberException.html]] {
        +InvalidSlotNumberException()
        +InvalidSlotNumberException(Exception, String)
    }

    class "<size:14>ChainException\n<size:10>chainexception" as chainexception.ChainException [[../chainexception/ChainException.html]]

    chainexception.ChainException <|- - heap.InvalidSlotNumberException

    center footer UMLDoclet 2.0.7, PlantUML 1.2019.12
@enduml

PlantUML version 1.2019.12(Sun Nov 03 03:24:54 MST 2019)
(APACHE source distribution)
Java Runtime: Java(TM) SE Runtime Environment
JVM: Java HotSpot(TM) 64-Bit Server VM
Java Version: 11.0.6+8-LTS
Operating System: Linux
Default Encoding: UTF-8
Language: en
Country: US
-->
    </g>
</svg>