<?xml version="1.0" encoding="UTF-8" standalone="no"?>
<svg xmlns="http://www.w3.org/2000/svg" xmlns:xlink="http://www.w3.org/1999/xlink"
     contentScriptType="application/ecmascript" contentStyleType="text/css" height="210px" preserveAspectRatio="none"
     style="width:216px;height:210px;" version="1.1" viewBox="0 0 216 210" width="216px" zoomAndPan="magnify">
    <defs>
        <filter height="300%" id="f1p0f2wnv7mj5m" width="300%" x="-1" y="-1">
            <feGaussianBlur result="blurOut" stdDeviation="2.0"/>
            <feColorMatrix in="blurOut" result="blurOut2" type="matrix"
                           values="0 0 0 0 0 0 0 0 0 0 0 0 0 0 0 0 0 0 .4 0"/>
            <feOffset dx="4.0" dy="4.0" in="blurOut2" result="blurOut3"/>
            <feBlend in="SourceGraphic" in2="blurOut3" mode="normal"/>
        </filter>
    </defs>
    <g><!--MD5=[c516754574e20c4d4d7f8c583afcb40e]
class heap.HFException-->
        <a href="../heap/HFException.html" target="_top" title="../heap/HFException.html" xlink:actuate="onRequest"
           xlink:href="../heap/HFException.html" xlink:show="new" xlink:title="../heap/HFException.html"
           xlink:type="simple">
            <rect fill="#FEFECE" filter="url(#f1p0f2wnv7mj5m)" height="71.5469" id="heap.HFException"
                  style="stroke: #A80036; stroke-width: 1.5;" width="198" x="6" y="106"/>
            <ellipse cx="57.75" cy="124.9688" fill="#ADD1B2" rx="11" ry="11"
                     style="stroke: #A80036; stroke-width: 1.0;"/>
            <path d="M60.7188,130.6094 Q60.1406,130.9063 59.5,131.0469 Q58.8594,131.2031 58.1563,131.2031 Q55.6563,131.2031 54.3281,129.5625 Q53.0156,127.9063 53.0156,124.7813 Q53.0156,121.6563 54.3281,120 Q55.6563,118.3438 58.1563,118.3438 Q58.8594,118.3438 59.5,118.5 Q60.1563,118.6563 60.7188,118.9531 L60.7188,121.6719 Q60.0938,121.0938 59.5,120.8281 Q58.9063,120.5469 58.2813,120.5469 Q56.9375,120.5469 56.25,121.625 Q55.5625,122.6875 55.5625,124.7813 Q55.5625,126.875 56.25,127.9531 Q56.9375,129.0156 58.2813,129.0156 Q58.9063,129.0156 59.5,128.75 Q60.0938,128.4688 60.7188,127.8906 L60.7188,130.6094 Z "/>
            <text fill="#000000" font-family="sans-serif" font-size="14" lengthAdjust="spacingAndGlyphs" textLength="86"
                  x="78.25" y="123.9951">HFException
            </text>
            <text fill="#000000" font-family="sans-serif" font-size="10" lengthAdjust="spacingAndGlyphs" textLength="24"
                  x="109.25" y="136.5791">heap
            </text>
            <line style="stroke: #A80036; stroke-width: 1.5;" x1="7" x2="203" y1="143.9375" y2="143.9375"/>
            <ellipse cx="17" cy="154.9375" fill="#84BE84" rx="3" ry="3" style="stroke: #038048; stroke-width: 1.0;"/>
            <text fill="#000000" font-family="sans-serif" font-size="11" lengthAdjust="spacingAndGlyphs" textLength="76"
                  x="26" y="158.1479">HFException()
            </text>
            <ellipse cx="17" cy="167.7422" fill="#84BE84" rx="3" ry="3" style="stroke: #038048; stroke-width: 1.0;"/>
            <text fill="#000000" font-family="sans-serif" font-size="11" lengthAdjust="spacingAndGlyphs"
                  textLength="172" x="26" y="170.9526">HFException(Exception, String)
            </text>
        </a><!--MD5=[2a7cd8221fe6583b4d4c6786e4469311]
class chainexception.ChainException-->
        <a href="../chainexception/ChainException.html" target="_top" title="../chainexception/ChainException.html"
           xlink:actuate="onRequest" xlink:href="../chainexception/ChainException.html" xlink:show="new"
           xlink:title="../chainexception/ChainException.html" xlink:type="simple">
            <rect fill="#FEFECE" filter="url(#f1p0f2wnv7mj5m)" height="37.9375" id="chainexception.ChainException"
                  style="stroke: #A80036; stroke-width: 1.5;" width="139" x="35.5" y="8"/>
            <ellipse cx="50.5" cy="26.9688" fill="#ADD1B2" rx="11" ry="11" style="stroke: #A80036; stroke-width: 1.0;"/>
            <path d="M53.4688,32.6094 Q52.8906,32.9063 52.25,33.0469 Q51.6094,33.2031 50.9063,33.2031 Q48.4063,33.2031 47.0781,31.5625 Q45.7656,29.9063 45.7656,26.7813 Q45.7656,23.6563 47.0781,22 Q48.4063,20.3438 50.9063,20.3438 Q51.6094,20.3438 52.25,20.5 Q52.9063,20.6563 53.4688,20.9531 L53.4688,23.6719 Q52.8438,23.0938 52.25,22.8281 Q51.6563,22.5469 51.0313,22.5469 Q49.6875,22.5469 49,23.625 Q48.3125,24.6875 48.3125,26.7813 Q48.3125,28.875 49,29.9531 Q49.6875,31.0156 51.0313,31.0156 Q51.6563,31.0156 52.25,30.75 Q52.8438,30.4688 53.4688,29.8906 L53.4688,32.6094 Z "/>
            <text fill="#000000" font-family="sans-serif" font-size="14" lengthAdjust="spacingAndGlyphs"
                  textLength="107" x="64.5" y="25.9951">ChainException
            </text>
            <text fill="#000000" font-family="sans-serif" font-size="10" lengthAdjust="spacingAndGlyphs" textLength="72"
                  x="82" y="38.5791">chainexception
            </text>
        </a><!--MD5=[895bd6f0e03361cfa3d3420ff032ccc8]
reverse link chainexception.ChainException to heap.HFException-->
        <path d="M105,66.5888 C105,79.3573 105,93.4348 105,105.935 " fill="none"
              id="chainexception.ChainException&lt;-heap.HFException" style="stroke: #A80036; stroke-width: 1.0;"/>
        <polygon fill="none" points="98.0001,66.2484,105,46.2484,112.0001,66.2484,98.0001,66.2484"
                 style="stroke: #A80036; stroke-width: 1.0;"/>
        <text fill="#888888" font-family="sans-serif" font-size="10" lengthAdjust="spacingAndGlyphs" textLength="186"
              x="18" y="197.2822">UMLDoclet 2.0.7, PlantUML 1.2019.12
        </text><!--MD5=[df3091471a189a6c0b78372bbc92081c]
@startuml
    set namespaceSeparator none
    hide empty fields
    hide empty methods

    class "<size:14>HFException\n<size:10>heap" as heap.HFException [[../heap/HFException.html]] {
        +HFException()
        +HFException(Exception, String)
    }

    class "<size:14>ChainException\n<size:10>chainexception" as chainexception.ChainException [[../chainexception/ChainException.html]]

    chainexception.ChainException <|- - heap.HFException

    center footer UMLDoclet 2.0.7, PlantUML 1.2019.12
@enduml

PlantUML version 1.2019.12(Sun Nov 03 03:24:54 MST 2019)
(APACHE source distribution)
Java Runtime: Java(TM) SE Runtime Environment
JVM: Java HotSpot(TM) 64-Bit Server VM
Java Version: 11.0.6+8-LTS
Operating System: Linux
Default Encoding: UTF-8
Language: en
Country: US
-->
    </g>
</svg>