<?xml version="1.0" encoding="UTF-8" standalone="no"?>
<svg xmlns="http://www.w3.org/2000/svg" xmlns:xlink="http://www.w3.org/1999/xlink"
     contentScriptType="application/ecmascript" contentStyleType="text/css" height="235px" preserveAspectRatio="none"
     style="width:198px;height:235px;" version="1.1" viewBox="0 0 198 235" width="198px" zoomAndPan="magnify">
    <defs>
        <filter height="300%" id="fuh03cg99tzzb" width="300%" x="-1" y="-1">
            <feGaussianBlur result="blurOut" stdDeviation="2.0"/>
            <feColorMatrix in="blurOut" result="blurOut2" type="matrix"
                           values="0 0 0 0 0 0 0 0 0 0 0 0 0 0 0 0 0 0 .4 0"/>
            <feOffset dx="4.0" dy="4.0" in="blurOut2" result="blurOut3"/>
            <feBlend in="SourceGraphic" in2="blurOut3" mode="normal"/>
        </filter>
    </defs>
    <g><!--MD5=[d8ffd407495feed7092884ba96a1f624]
class heap.Scan-->
        <a href="../heap/Scan.html" target="_top" title="../heap/Scan.html" xlink:actuate="onRequest"
           xlink:href="../heap/Scan.html" xlink:show="new" xlink:title="../heap/Scan.html" xlink:type="simple">
            <rect fill="#FEFECE" filter="url(#fuh03cg99tzzb)" height="97.1563" id="heap.Scan"
                  style="stroke: #A80036; stroke-width: 1.5;" width="150" x="12" y="106"/>
            <ellipse cx="65.75" cy="124.9688" fill="#ADD1B2" rx="11" ry="11"
                     style="stroke: #A80036; stroke-width: 1.0;"/>
            <path d="M68.7188,130.6094 Q68.1406,130.9063 67.5,131.0469 Q66.8594,131.2031 66.1563,131.2031 Q63.6563,131.2031 62.3281,129.5625 Q61.0156,127.9063 61.0156,124.7813 Q61.0156,121.6563 62.3281,120 Q63.6563,118.3438 66.1563,118.3438 Q66.8594,118.3438 67.5,118.5 Q68.1563,118.6563 68.7188,118.9531 L68.7188,121.6719 Q68.0938,121.0938 67.5,120.8281 Q66.9063,120.5469 66.2813,120.5469 Q64.9375,120.5469 64.25,121.625 Q63.5625,122.6875 63.5625,124.7813 Q63.5625,126.875 64.25,127.9531 Q64.9375,129.0156 66.2813,129.0156 Q66.9063,129.0156 67.5,128.75 Q68.0938,128.4688 68.7188,127.8906 L68.7188,130.6094 Z "/>
            <text fill="#000000" font-family="sans-serif" font-size="14" lengthAdjust="spacingAndGlyphs" textLength="34"
                  x="86.25" y="123.9951">Scan
            </text>
            <text fill="#000000" font-family="sans-serif" font-size="10" lengthAdjust="spacingAndGlyphs" textLength="24"
                  x="91.25" y="136.5791">heap
            </text>
            <line style="stroke: #A80036; stroke-width: 1.5;" x1="13" x2="161" y1="143.9375" y2="143.9375"/>
            <ellipse cx="23" cy="154.9375" fill="#84BE84" rx="3" ry="3" style="stroke: #038048; stroke-width: 1.0;"/>
            <text fill="#000000" font-family="sans-serif" font-size="11" lengthAdjust="spacingAndGlyphs" textLength="82"
                  x="32" y="158.1479">Scan(Heapfile)
            </text>
            <ellipse cx="23" cy="167.7422" fill="#84BE84" rx="3" ry="3" style="stroke: #038048; stroke-width: 1.0;"/>
            <text fill="#000000" font-family="sans-serif" font-size="11" lengthAdjust="spacingAndGlyphs"
                  textLength="108" x="32" y="170.9526">getNext(RID): Tuple
            </text>
            <ellipse cx="23" cy="180.5469" fill="#84BE84" rx="3" ry="3" style="stroke: #038048; stroke-width: 1.0;"/>
            <text fill="#000000" font-family="sans-serif" font-size="11" lengthAdjust="spacingAndGlyphs"
                  textLength="124" x="32" y="183.7573">position(RID): boolean
            </text>
            <ellipse cx="23" cy="193.3516" fill="#84BE84" rx="3" ry="3" style="stroke: #038048; stroke-width: 1.0;"/>
            <text fill="#000000" font-family="sans-serif" font-size="11" lengthAdjust="spacingAndGlyphs" textLength="96"
                  x="32" y="196.562">closescan(): void
            </text>
        </a><!--MD5=[349d101bc5b57a3de1b8b252b2bcdd93]
class global.GlobalConst-->
        <a href="../global/GlobalConst.html" target="_top" title="../global/GlobalConst.html" xlink:actuate="onRequest"
           xlink:href="../global/GlobalConst.html" xlink:show="new" xlink:title="../global/GlobalConst.html"
           xlink:type="simple">
            <rect fill="#FEFECE" filter="url(#fuh03cg99tzzb)" height="37.9375" id="global.GlobalConst"
                  style="stroke: #A80036; stroke-width: 1.5;" width="116" x="29" y="8"/>
            <ellipse cx="44" cy="26.9688" fill="#B4A7E5" rx="11" ry="11" style="stroke: #A80036; stroke-width: 1.0;"/>
            <path d="M39.9219,22.7344 L39.9219,20.5781 L47.3125,20.5781 L47.3125,22.7344 L44.8438,22.7344 L44.8438,30.8125 L47.3125,30.8125 L47.3125,32.9688 L39.9219,32.9688 L39.9219,30.8125 L42.3906,30.8125 L42.3906,22.7344 L39.9219,22.7344 Z "/>
            <text fill="#000000" font-family="sans-serif" font-size="14" font-style="italic"
                  lengthAdjust="spacingAndGlyphs" textLength="84" x="58" y="25.9951">GlobalConst
            </text>
            <text fill="#000000" font-family="sans-serif" font-size="10" font-style="italic"
                  lengthAdjust="spacingAndGlyphs" textLength="28" x="86" y="38.5791">global
            </text>
        </a><!--MD5=[c8115266a7b5a1d083b7285078178bec]
reverse link global.GlobalConst to heap.Scan-->
        <path d="M87,66.4138 C87,78.8609 87,92.7643 87,105.7811 " fill="none" id="global.GlobalConst&lt;-heap.Scan"
              style="stroke: #A80036; stroke-width: 1.0; stroke-dasharray: 7.0,7.0;"/>
        <polygon fill="none" points="80.0001,66.0881,87,46.088,94.0001,66.088,80.0001,66.0881"
                 style="stroke: #A80036; stroke-width: 1.0;"/>
        <text fill="#888888" font-family="sans-serif" font-size="10" lengthAdjust="spacingAndGlyphs" textLength="186"
              x="0" y="222.2822">UMLDoclet 2.0.7, PlantUML 1.2019.12
        </text><!--MD5=[6f059f53b9fde743893417137c0555e5]
@startuml
    set namespaceSeparator none
    hide empty fields
    hide empty methods

    class "<size:14>Scan\n<size:10>heap" as heap.Scan [[../heap/Scan.html]] {
        +Scan(Heapfile)
        +getNext(RID): Tuple
        +position(RID): boolean
        +closescan(): void
    }

    interface "<size:14>GlobalConst\n<size:10>global" as global.GlobalConst [[../global/GlobalConst.html]]

    global.GlobalConst <|.. heap.Scan

    center footer UMLDoclet 2.0.7, PlantUML 1.2019.12
@enduml

PlantUML version 1.2019.12(Sun Nov 03 03:24:54 MST 2019)
(APACHE source distribution)
Java Runtime: Java(TM) SE Runtime Environment
JVM: Java HotSpot(TM) 64-Bit Server VM
Java Version: 11.0.6+8-LTS
Operating System: Linux
Default Encoding: UTF-8
Language: en
Country: US
-->
    </g>
</svg>