<?xml version="1.0" encoding="UTF-8" standalone="no"?>
<svg xmlns="http://www.w3.org/2000/svg" xmlns:xlink="http://www.w3.org/1999/xlink"
     contentScriptType="application/ecmascript" contentStyleType="text/css" height="95px" preserveAspectRatio="none"
     style="width:323px;height:95px;" version="1.1" viewBox="0 0 323 95" width="323px" zoomAndPan="magnify">
    <defs>
        <filter height="300%" id="f1o4ab3v28z6db" width="300%" x="-1" y="-1">
            <feGaussianBlur result="blurOut" stdDeviation="2.0"/>
            <feColorMatrix in="blurOut" result="blurOut2" type="matrix"
                           values="0 0 0 0 0 0 0 0 0 0 0 0 0 0 0 0 0 0 .4 0"/>
            <feOffset dx="4.0" dy="4.0" in="blurOut2" result="blurOut3"/>
            <feBlend in="SourceGraphic" in2="blurOut3" mode="normal"/>
        </filter>
    </defs>
    <g><!--MD5=[08a6d1e0a9624b97e92c66599a1648c3]
class index.IndexUtils-->
        <a href="../index/IndexUtils.html" target="_top" title="../index/IndexUtils.html" xlink:actuate="onRequest"
           xlink:href="../index/IndexUtils.html" xlink:show="new" xlink:title="../index/IndexUtils.html"
           xlink:type="simple">
            <rect fill="#FEFECE" filter="url(#f1o4ab3v28z6db)" height="58.7422" id="index.IndexUtils"
                  style="stroke: #A80036; stroke-width: 1.5;" width="305" x="7" y="7"/>
            <ellipse cx="122.25" cy="25.9688" fill="#ADD1B2" rx="11" ry="11"
                     style="stroke: #A80036; stroke-width: 1.0;"/>
            <path d="M125.2188,31.6094 Q124.6406,31.9063 124,32.0469 Q123.3594,32.2031 122.6563,32.2031 Q120.1563,32.2031 118.8281,30.5625 Q117.5156,28.9063 117.5156,25.7813 Q117.5156,22.6563 118.8281,21 Q120.1563,19.3438 122.6563,19.3438 Q123.3594,19.3438 124,19.5 Q124.6563,19.6563 125.2188,19.9531 L125.2188,22.6719 Q124.5938,22.0938 124,21.8281 Q123.4063,21.5469 122.7813,21.5469 Q121.4375,21.5469 120.75,22.625 Q120.0625,23.6875 120.0625,25.7813 Q120.0625,27.875 120.75,28.9531 Q121.4375,30.0156 122.7813,30.0156 Q123.4063,30.0156 124,29.75 Q124.5938,29.4688 125.2188,28.8906 L125.2188,31.6094 Z "/>
            <text fill="#000000" font-family="sans-serif" font-size="14" lengthAdjust="spacingAndGlyphs" textLength="66"
                  x="142.75" y="24.9951">IndexUtils
            </text>
            <text fill="#000000" font-family="sans-serif" font-size="10" lengthAdjust="spacingAndGlyphs" textLength="26"
                  x="162.75" y="37.5791">index
            </text>
            <line style="stroke: #A80036; stroke-width: 1.5;" x1="8" x2="311" y1="44.9375" y2="44.9375"/>
            <ellipse cx="18" cy="55.9375" fill="#84BE84" rx="3" ry="3" style="stroke: #038048; stroke-width: 1.0;"/>
            <text fill="#000000" font-family="sans-serif" font-size="11" lengthAdjust="spacingAndGlyphs"
                  text-decoration="underline" textLength="279" x="27" y="59.1479">BTree_scan(CondExpr[], IndexFile):
                IndexFileScan
            </text>
        </a>
        <text fill="#888888" font-family="sans-serif" font-size="10" lengthAdjust="spacingAndGlyphs" textLength="186"
              x="66.5" y="82.0244">UMLDoclet 2.0.7, PlantUML 1.2019.12
        </text><!--MD5=[e1aa2038c1039aed0887a714c5fb1489]
@startuml
    set namespaceSeparator none
    hide empty fields
    hide empty methods

    class "<size:14>IndexUtils\n<size:10>index" as index.IndexUtils [[../index/IndexUtils.html]] {
        {static} +BTree_scan(CondExpr[], IndexFile): IndexFileScan
    }

    center footer UMLDoclet 2.0.7, PlantUML 1.2019.12
@enduml

PlantUML version 1.2019.12(Sun Nov 03 03:24:54 MST 2019)
(APACHE source distribution)
Java Runtime: Java(TM) SE Runtime Environment
JVM: Java HotSpot(TM) 64-Bit Server VM
Java Version: 11.0.6+8-LTS
Operating System: Linux
Default Encoding: UTF-8
Language: en
Country: US
-->
    </g>
</svg>