<?xml version="1.0" encoding="UTF-8" standalone="no"?>
<svg xmlns="http://www.w3.org/2000/svg" xmlns:xlink="http://www.w3.org/1999/xlink"
     contentScriptType="application/ecmascript" contentStyleType="text/css" height="222px" preserveAspectRatio="none"
     style="width:231px;height:222px;" version="1.1" viewBox="0 0 231 222" width="231px" zoomAndPan="magnify">
    <defs>
        <filter height="300%" id="fx63w7xhhyya7" width="300%" x="-1" y="-1">
            <feGaussianBlur result="blurOut" stdDeviation="2.0"/>
            <feColorMatrix in="blurOut" result="blurOut2" type="matrix"
                           values="0 0 0 0 0 0 0 0 0 0 0 0 0 0 0 0 0 0 .4 0"/>
            <feOffset dx="4.0" dy="4.0" in="blurOut2" result="blurOut3"/>
            <feBlend in="SourceGraphic" in2="blurOut3" mode="normal"/>
        </filter>
    </defs>
    <g><!--MD5=[89885c742d47cbb0beea133ac8a15042]
class index.IndexException-->
        <a href="../index/IndexException.html" target="_top" title="../index/IndexException.html"
           xlink:actuate="onRequest" xlink:href="../index/IndexException.html" xlink:show="new"
           xlink:title="../index/IndexException.html" xlink:type="simple">
            <rect fill="#FEFECE" filter="url(#fx63w7xhhyya7)" height="84.3516" id="index.IndexException"
                  style="stroke: #A80036; stroke-width: 1.5;" width="214" x="6" y="106"/>
            <ellipse cx="56.25" cy="124.9688" fill="#ADD1B2" rx="11" ry="11"
                     style="stroke: #A80036; stroke-width: 1.0;"/>
            <path d="M59.2188,130.6094 Q58.6406,130.9063 58,131.0469 Q57.3594,131.2031 56.6563,131.2031 Q54.1563,131.2031 52.8281,129.5625 Q51.5156,127.9063 51.5156,124.7813 Q51.5156,121.6563 52.8281,120 Q54.1563,118.3438 56.6563,118.3438 Q57.3594,118.3438 58,118.5 Q58.6563,118.6563 59.2188,118.9531 L59.2188,121.6719 Q58.5938,121.0938 58,120.8281 Q57.4063,120.5469 56.7813,120.5469 Q55.4375,120.5469 54.75,121.625 Q54.0625,122.6875 54.0625,124.7813 Q54.0625,126.875 54.75,127.9531 Q55.4375,129.0156 56.7813,129.0156 Q57.4063,129.0156 58,128.75 Q58.5938,128.4688 59.2188,127.8906 L59.2188,130.6094 Z "/>
            <text fill="#000000" font-family="sans-serif" font-size="14" lengthAdjust="spacingAndGlyphs"
                  textLength="105" x="76.75" y="123.9951">IndexException
            </text>
            <text fill="#000000" font-family="sans-serif" font-size="10" lengthAdjust="spacingAndGlyphs" textLength="26"
                  x="116.25" y="136.5791">index
            </text>
            <line style="stroke: #A80036; stroke-width: 1.5;" x1="7" x2="219" y1="143.9375" y2="143.9375"/>
            <ellipse cx="17" cy="154.9375" fill="#84BE84" rx="3" ry="3" style="stroke: #038048; stroke-width: 1.0;"/>
            <text fill="#000000" font-family="sans-serif" font-size="11" lengthAdjust="spacingAndGlyphs" textLength="92"
                  x="26" y="158.1479">IndexException()
            </text>
            <ellipse cx="17" cy="167.7422" fill="#84BE84" rx="3" ry="3" style="stroke: #038048; stroke-width: 1.0;"/>
            <text fill="#000000" font-family="sans-serif" font-size="11" lengthAdjust="spacingAndGlyphs"
                  textLength="126" x="26" y="170.9526">IndexException(String)
            </text>
            <ellipse cx="17" cy="180.5469" fill="#84BE84" rx="3" ry="3" style="stroke: #038048; stroke-width: 1.0;"/>
            <text fill="#000000" font-family="sans-serif" font-size="11" lengthAdjust="spacingAndGlyphs"
                  textLength="188" x="26" y="183.7573">IndexException(Exception, String)
            </text>
        </a><!--MD5=[2a7cd8221fe6583b4d4c6786e4469311]
class chainexception.ChainException-->
        <a href="../chainexception/ChainException.html" target="_top" title="../chainexception/ChainException.html"
           xlink:actuate="onRequest" xlink:href="../chainexception/ChainException.html" xlink:show="new"
           xlink:title="../chainexception/ChainException.html" xlink:type="simple">
            <rect fill="#FEFECE" filter="url(#fx63w7xhhyya7)" height="37.9375" id="chainexception.ChainException"
                  style="stroke: #A80036; stroke-width: 1.5;" width="139" x="43.5" y="8"/>
            <ellipse cx="58.5" cy="26.9688" fill="#ADD1B2" rx="11" ry="11" style="stroke: #A80036; stroke-width: 1.0;"/>
            <path d="M61.4688,32.6094 Q60.8906,32.9063 60.25,33.0469 Q59.6094,33.2031 58.9063,33.2031 Q56.4063,33.2031 55.0781,31.5625 Q53.7656,29.9063 53.7656,26.7813 Q53.7656,23.6563 55.0781,22 Q56.4063,20.3438 58.9063,20.3438 Q59.6094,20.3438 60.25,20.5 Q60.9063,20.6563 61.4688,20.9531 L61.4688,23.6719 Q60.8438,23.0938 60.25,22.8281 Q59.6563,22.5469 59.0313,22.5469 Q57.6875,22.5469 57,23.625 Q56.3125,24.6875 56.3125,26.7813 Q56.3125,28.875 57,29.9531 Q57.6875,31.0156 59.0313,31.0156 Q59.6563,31.0156 60.25,30.75 Q60.8438,30.4688 61.4688,29.8906 L61.4688,32.6094 Z "/>
            <text fill="#000000" font-family="sans-serif" font-size="14" lengthAdjust="spacingAndGlyphs"
                  textLength="107" x="72.5" y="25.9951">ChainException
            </text>
            <text fill="#000000" font-family="sans-serif" font-size="10" lengthAdjust="spacingAndGlyphs" textLength="72"
                  x="90" y="38.5791">chainexception
            </text>
        </a><!--MD5=[3a39e422ea7a3b71719d9148863ed115]
reverse link chainexception.ChainException to index.IndexException-->
        <path d="M113,66.259 C113,78.9194 113,93.0012 113,105.8605 " fill="none"
              id="chainexception.ChainException&lt;-index.IndexException" style="stroke: #A80036; stroke-width: 1.0;"/>
        <polygon fill="none" points="106.0001,66.1728,113,46.1728,120.0001,66.1728,106.0001,66.1728"
                 style="stroke: #A80036; stroke-width: 1.0;"/>
        <text fill="#888888" font-family="sans-serif" font-size="10" lengthAdjust="spacingAndGlyphs" textLength="186"
              x="26" y="209.2822">UMLDoclet 2.0.7, PlantUML 1.2019.12
        </text><!--MD5=[5aa92654a6da5420c55819d9bcb34650]
@startuml
    set namespaceSeparator none
    hide empty fields
    hide empty methods

    class "<size:14>IndexException\n<size:10>index" as index.IndexException [[../index/IndexException.html]] {
        +IndexException()
        +IndexException(String)
        +IndexException(Exception, String)
    }

    class "<size:14>ChainException\n<size:10>chainexception" as chainexception.ChainException [[../chainexception/ChainException.html]]

    chainexception.ChainException <|- - index.IndexException

    center footer UMLDoclet 2.0.7, PlantUML 1.2019.12
@enduml

PlantUML version 1.2019.12(Sun Nov 03 03:24:54 MST 2019)
(APACHE source distribution)
Java Runtime: Java(TM) SE Runtime Environment
JVM: Java HotSpot(TM) 64-Bit Server VM
Java Version: 11.0.6+8-LTS
Operating System: Linux
Default Encoding: UTF-8
Language: en
Country: US
-->
    </g>
</svg>