<?xml version="1.0" encoding="UTF-8" standalone="no"?>
<svg xmlns="http://www.w3.org/2000/svg" xmlns:xlink="http://www.w3.org/1999/xlink"
     contentScriptType="application/ecmascript" contentStyleType="text/css" height="222px" preserveAspectRatio="none"
     style="width:309px;height:222px;" version="1.1" viewBox="0 0 309 222" width="309px" zoomAndPan="magnify">
    <defs>
        <filter height="300%" id="fexxvwvc8kg05" width="300%" x="-1" y="-1">
            <feGaussianBlur result="blurOut" stdDeviation="2.0"/>
            <feColorMatrix in="blurOut" result="blurOut2" type="matrix"
                           values="0 0 0 0 0 0 0 0 0 0 0 0 0 0 0 0 0 0 .4 0"/>
            <feOffset dx="4.0" dy="4.0" in="blurOut2" result="blurOut3"/>
            <feBlend in="SourceGraphic" in2="blurOut3" mode="normal"/>
        </filter>
    </defs>
    <g><!--MD5=[b9709a7628674bc80b979da8a0413560]
class index.UnknownIndexTypeException-->
        <a href="../index/UnknownIndexTypeException.html" target="_top" title="../index/UnknownIndexTypeException.html"
           xlink:actuate="onRequest" xlink:href="../index/UnknownIndexTypeException.html" xlink:show="new"
           xlink:title="../index/UnknownIndexTypeException.html" xlink:type="simple">
            <rect fill="#FEFECE" filter="url(#fexxvwvc8kg05)" height="84.3516" id="index.UnknownIndexTypeException"
                  style="stroke: #A80036; stroke-width: 1.5;" width="292" x="6" y="106"/>
            <ellipse cx="46.2" cy="124.9688" fill="#ADD1B2" rx="11" ry="11"
                     style="stroke: #A80036; stroke-width: 1.0;"/>
            <path d="M49.1688,130.6094 Q48.5906,130.9063 47.95,131.0469 Q47.3094,131.2031 46.6063,131.2031 Q44.1063,131.2031 42.7781,129.5625 Q41.4656,127.9063 41.4656,124.7813 Q41.4656,121.6563 42.7781,120 Q44.1063,118.3438 46.6063,118.3438 Q47.3094,118.3438 47.95,118.5 Q48.6063,118.6563 49.1688,118.9531 L49.1688,121.6719 Q48.5438,121.0938 47.95,120.8281 Q47.3563,120.5469 46.7313,120.5469 Q45.3875,120.5469 44.7,121.625 Q44.0125,122.6875 44.0125,124.7813 Q44.0125,126.875 44.7,127.9531 Q45.3875,129.0156 46.7313,129.0156 Q47.3563,129.0156 47.95,128.75 Q48.5438,128.4688 49.1688,127.8906 L49.1688,130.6094 Z "/>
            <text fill="#000000" font-family="sans-serif" font-size="14" lengthAdjust="spacingAndGlyphs"
                  textLength="204" x="65.8" y="123.9951">UnknownIndexTypeException
            </text>
            <text fill="#000000" font-family="sans-serif" font-size="10" lengthAdjust="spacingAndGlyphs" textLength="26"
                  x="154.8" y="136.5791">index
            </text>
            <line style="stroke: #A80036; stroke-width: 1.5;" x1="7" x2="297" y1="143.9375" y2="143.9375"/>
            <ellipse cx="17" cy="154.9375" fill="#84BE84" rx="3" ry="3" style="stroke: #038048; stroke-width: 1.0;"/>
            <text fill="#000000" font-family="sans-serif" font-size="11" lengthAdjust="spacingAndGlyphs"
                  textLength="170" x="26" y="158.1479">UnknownIndexTypeException()
            </text>
            <ellipse cx="17" cy="167.7422" fill="#84BE84" rx="3" ry="3" style="stroke: #038048; stroke-width: 1.0;"/>
            <text fill="#000000" font-family="sans-serif" font-size="11" lengthAdjust="spacingAndGlyphs"
                  textLength="204" x="26" y="170.9526">UnknownIndexTypeException(String)
            </text>
            <ellipse cx="17" cy="180.5469" fill="#84BE84" rx="3" ry="3" style="stroke: #038048; stroke-width: 1.0;"/>
            <text fill="#000000" font-family="sans-serif" font-size="11" lengthAdjust="spacingAndGlyphs"
                  textLength="266" x="26" y="183.7573">UnknownIndexTypeException(Exception, String)
            </text>
        </a><!--MD5=[2a7cd8221fe6583b4d4c6786e4469311]
class chainexception.ChainException-->
        <a href="../chainexception/ChainException.html" target="_top" title="../chainexception/ChainException.html"
           xlink:actuate="onRequest" xlink:href="../chainexception/ChainException.html" xlink:show="new"
           xlink:title="../chainexception/ChainException.html" xlink:type="simple">
            <rect fill="#FEFECE" filter="url(#fexxvwvc8kg05)" height="37.9375" id="chainexception.ChainException"
                  style="stroke: #A80036; stroke-width: 1.5;" width="139" x="82.5" y="8"/>
            <ellipse cx="97.5" cy="26.9688" fill="#ADD1B2" rx="11" ry="11" style="stroke: #A80036; stroke-width: 1.0;"/>
            <path d="M100.4688,32.6094 Q99.8906,32.9063 99.25,33.0469 Q98.6094,33.2031 97.9063,33.2031 Q95.4063,33.2031 94.0781,31.5625 Q92.7656,29.9063 92.7656,26.7813 Q92.7656,23.6563 94.0781,22 Q95.4063,20.3438 97.9063,20.3438 Q98.6094,20.3438 99.25,20.5 Q99.9063,20.6563 100.4688,20.9531 L100.4688,23.6719 Q99.8438,23.0938 99.25,22.8281 Q98.6563,22.5469 98.0313,22.5469 Q96.6875,22.5469 96,23.625 Q95.3125,24.6875 95.3125,26.7813 Q95.3125,28.875 96,29.9531 Q96.6875,31.0156 98.0313,31.0156 Q98.6563,31.0156 99.25,30.75 Q99.8438,30.4688 100.4688,29.8906 L100.4688,32.6094 Z "/>
            <text fill="#000000" font-family="sans-serif" font-size="14" lengthAdjust="spacingAndGlyphs"
                  textLength="107" x="111.5" y="25.9951">ChainException
            </text>
            <text fill="#000000" font-family="sans-serif" font-size="10" lengthAdjust="spacingAndGlyphs" textLength="72"
                  x="129" y="38.5791">chainexception
            </text>
        </a><!--MD5=[4008f84e6ff5937a1ba6120134dd4780]
reverse link chainexception.ChainException to index.UnknownIndexTypeException-->
        <path d="M152,66.259 C152,78.9194 152,93.0012 152,105.8605 " fill="none"
              id="chainexception.ChainException&lt;-index.UnknownIndexTypeException"
              style="stroke: #A80036; stroke-width: 1.0;"/>
        <polygon fill="none" points="145.0001,66.1728,152,46.1728,159.0001,66.1728,145.0001,66.1728"
                 style="stroke: #A80036; stroke-width: 1.0;"/>
        <text fill="#888888" font-family="sans-serif" font-size="10" lengthAdjust="spacingAndGlyphs" textLength="186"
              x="65" y="209.2822">UMLDoclet 2.0.7, PlantUML 1.2019.12
        </text><!--MD5=[317b2d41ad727b888c92f41d3913f090]
@startuml
    set namespaceSeparator none
    hide empty fields
    hide empty methods

    class "<size:14>UnknownIndexTypeException\n<size:10>index" as index.UnknownIndexTypeException [[../index/UnknownIndexTypeException.html]] {
        +UnknownIndexTypeException()
        +UnknownIndexTypeException(String)
        +UnknownIndexTypeException(Exception, String)
    }

    class "<size:14>ChainException\n<size:10>chainexception" as chainexception.ChainException [[../chainexception/ChainException.html]]

    chainexception.ChainException <|- - index.UnknownIndexTypeException

    center footer UMLDoclet 2.0.7, PlantUML 1.2019.12
@enduml

PlantUML version 1.2019.12(Sun Nov 03 03:24:54 MST 2019)
(APACHE source distribution)
Java Runtime: Java(TM) SE Runtime Environment
JVM: Java HotSpot(TM) 64-Bit Server VM
Java Version: 11.0.6+8-LTS
Operating System: Linux
Default Encoding: UTF-8
Language: en
Country: US
-->
    </g>
</svg>