<?xml version="1.0" encoding="UTF-8" standalone="no"?>
<svg xmlns="http://www.w3.org/2000/svg" xmlns:xlink="http://www.w3.org/1999/xlink"
     contentScriptType="application/ecmascript" contentStyleType="text/css" height="222px" preserveAspectRatio="none"
     style="width:282px;height:222px;" version="1.1" viewBox="0 0 282 222" width="282px" zoomAndPan="magnify">
    <defs>
        <filter height="300%" id="f5s8arf1ccflt" width="300%" x="-1" y="-1">
            <feGaussianBlur result="blurOut" stdDeviation="2.0"/>
            <feColorMatrix in="blurOut" result="blurOut2" type="matrix"
                           values="0 0 0 0 0 0 0 0 0 0 0 0 0 0 0 0 0 0 .4 0"/>
            <feOffset dx="4.0" dy="4.0" in="blurOut2" result="blurOut3"/>
            <feBlend in="SourceGraphic" in2="blurOut3" mode="normal"/>
        </filter>
    </defs>
    <g><!--MD5=[ed4423af0e2a5660adafeb412df6b08e]
class iterator.OBuf-->
        <a href="../iterator/OBuf.html" target="_top" title="../iterator/OBuf.html" xlink:actuate="onRequest"
           xlink:href="../iterator/OBuf.html" xlink:show="new" xlink:title="../iterator/OBuf.html" xlink:type="simple">
            <rect fill="#FEFECE" filter="url(#f5s8arf1ccflt)" height="84.3516" id="iterator.OBuf"
                  style="stroke: #A80036; stroke-width: 1.5;" width="265" x="6" y="106"/>
            <ellipse cx="116.25" cy="124.9688" fill="#ADD1B2" rx="11" ry="11"
                     style="stroke: #A80036; stroke-width: 1.0;"/>
            <path d="M119.2188,130.6094 Q118.6406,130.9063 118,131.0469 Q117.3594,131.2031 116.6563,131.2031 Q114.1563,131.2031 112.8281,129.5625 Q111.5156,127.9063 111.5156,124.7813 Q111.5156,121.6563 112.8281,120 Q114.1563,118.3438 116.6563,118.3438 Q117.3594,118.3438 118,118.5 Q118.6563,118.6563 119.2188,118.9531 L119.2188,121.6719 Q118.5938,121.0938 118,120.8281 Q117.4063,120.5469 116.7813,120.5469 Q115.4375,120.5469 114.75,121.625 Q114.0625,122.6875 114.0625,124.7813 Q114.0625,126.875 114.75,127.9531 Q115.4375,129.0156 116.7813,129.0156 Q117.4063,129.0156 118,128.75 Q118.5938,128.4688 119.2188,127.8906 L119.2188,130.6094 Z "/>
            <text fill="#000000" font-family="sans-serif" font-size="14" lengthAdjust="spacingAndGlyphs" textLength="34"
                  x="137.75" y="123.9951">OBuf
            </text>
            <text fill="#000000" font-family="sans-serif" font-size="10" lengthAdjust="spacingAndGlyphs" textLength="36"
                  x="136.75" y="136.5791">iterator
            </text>
            <line style="stroke: #A80036; stroke-width: 1.5;" x1="7" x2="270" y1="143.9375" y2="143.9375"/>
            <ellipse cx="17" cy="154.9375" fill="#84BE84" rx="3" ry="3" style="stroke: #038048; stroke-width: 1.0;"/>
            <text fill="#000000" font-family="sans-serif" font-size="11" lengthAdjust="spacingAndGlyphs"
                  textLength="239" x="26" y="158.1479">init(byte[], int, int, Heapfile, boolean): void
            </text>
            <ellipse cx="17" cy="167.7422" fill="#84BE84" rx="3" ry="3" style="stroke: #038048; stroke-width: 1.0;"/>
            <text fill="#000000" font-family="sans-serif" font-size="11" lengthAdjust="spacingAndGlyphs" textLength="96"
                  x="26" y="170.9526">Put(Tuple): Tuple
            </text>
            <ellipse cx="17" cy="180.5469" fill="#84BE84" rx="3" ry="3" style="stroke: #038048; stroke-width: 1.0;"/>
            <text fill="#000000" font-family="sans-serif" font-size="11" lengthAdjust="spacingAndGlyphs" textLength="68"
                  x="26" y="183.7573">flush(): long
            </text>
        </a><!--MD5=[349d101bc5b57a3de1b8b252b2bcdd93]
class global.GlobalConst-->
        <a href="../global/GlobalConst.html" target="_top" title="../global/GlobalConst.html" xlink:actuate="onRequest"
           xlink:href="../global/GlobalConst.html" xlink:show="new" xlink:title="../global/GlobalConst.html"
           xlink:type="simple">
            <rect fill="#FEFECE" filter="url(#f5s8arf1ccflt)" height="37.9375" id="global.GlobalConst"
                  style="stroke: #A80036; stroke-width: 1.5;" width="116" x="80.5" y="8"/>
            <ellipse cx="95.5" cy="26.9688" fill="#B4A7E5" rx="11" ry="11" style="stroke: #A80036; stroke-width: 1.0;"/>
            <path d="M91.4219,22.7344 L91.4219,20.5781 L98.8125,20.5781 L98.8125,22.7344 L96.3438,22.7344 L96.3438,30.8125 L98.8125,30.8125 L98.8125,32.9688 L91.4219,32.9688 L91.4219,30.8125 L93.8906,30.8125 L93.8906,22.7344 L91.4219,22.7344 Z "/>
            <text fill="#000000" font-family="sans-serif" font-size="14" font-style="italic"
                  lengthAdjust="spacingAndGlyphs" textLength="84" x="109.5" y="25.9951">GlobalConst
            </text>
            <text fill="#000000" font-family="sans-serif" font-size="10" font-style="italic"
                  lengthAdjust="spacingAndGlyphs" textLength="28" x="137.5" y="38.5791">global
            </text>
        </a><!--MD5=[d97c723ab628b9698f7d9af05f86a283]
reverse link global.GlobalConst to iterator.OBuf-->
        <path d="M138.5,66.259 C138.5,78.9194 138.5,93.0012 138.5,105.8605 " fill="none"
              id="global.GlobalConst&lt;-iterator.OBuf"
              style="stroke: #A80036; stroke-width: 1.0; stroke-dasharray: 7.0,7.0;"/>
        <polygon fill="none" points="131.5001,66.1728,138.5,46.1728,145.5001,66.1728,131.5001,66.1728"
                 style="stroke: #A80036; stroke-width: 1.0;"/>
        <text fill="#888888" font-family="sans-serif" font-size="10" lengthAdjust="spacingAndGlyphs" textLength="186"
              x="51.5" y="209.2822">UMLDoclet 2.0.7, PlantUML 1.2019.12
        </text><!--MD5=[b8b362b5dbb628cc6d9a70a0ef1efa52]
@startuml
    set namespaceSeparator none
    hide empty fields
    hide empty methods

    class "<size:14>OBuf\n<size:10>iterator" as iterator.OBuf [[../iterator/OBuf.html]] {
        +init(byte[], int, int, Heapfile, boolean): void
        +Put(Tuple): Tuple
        +flush(): long
    }

    interface "<size:14>GlobalConst\n<size:10>global" as global.GlobalConst [[../global/GlobalConst.html]]

    global.GlobalConst <|.. iterator.OBuf

    center footer UMLDoclet 2.0.7, PlantUML 1.2019.12
@enduml

PlantUML version 1.2019.12(Sun Nov 03 03:24:54 MST 2019)
(APACHE source distribution)
Java Runtime: Java(TM) SE Runtime Environment
JVM: Java HotSpot(TM) 64-Bit Server VM
Java Version: 11.0.6+8-LTS
Operating System: Linux
Default Encoding: UTF-8
Language: en
Country: US
-->
    </g>
</svg>