<?xml version="1.0" encoding="UTF-8" standalone="no"?>
<svg xmlns="http://www.w3.org/2000/svg" xmlns:xlink="http://www.w3.org/1999/xlink"
     contentScriptType="application/ecmascript" contentStyleType="text/css" height="222px" preserveAspectRatio="none"
     style="width:299px;height:222px;" version="1.1" viewBox="0 0 299 222" width="299px" zoomAndPan="magnify">
    <defs>
        <filter height="300%" id="ff7jbyhuegxbw" width="300%" x="-1" y="-1">
            <feGaussianBlur result="blurOut" stdDeviation="2.0"/>
            <feColorMatrix in="blurOut" result="blurOut2" type="matrix"
                           values="0 0 0 0 0 0 0 0 0 0 0 0 0 0 0 0 0 0 .4 0"/>
            <feOffset dx="4.0" dy="4.0" in="blurOut2" result="blurOut3"/>
            <feBlend in="SourceGraphic" in2="blurOut3" mode="normal"/>
        </filter>
    </defs>
    <g><!--MD5=[3fe375d989be0622ef96a219755dbd45]
class iterator.UnknownKeyTypeException-->
        <a href="../iterator/UnknownKeyTypeException.html" target="_top"
           title="../iterator/UnknownKeyTypeException.html" xlink:actuate="onRequest"
           xlink:href="../iterator/UnknownKeyTypeException.html" xlink:show="new"
           xlink:title="../iterator/UnknownKeyTypeException.html" xlink:type="simple">
            <rect fill="#FEFECE" filter="url(#ff7jbyhuegxbw)" height="84.3516" id="iterator.UnknownKeyTypeException"
                  style="stroke: #A80036; stroke-width: 1.5;" width="282" x="6" y="106"/>
            <ellipse cx="47.1" cy="124.9688" fill="#ADD1B2" rx="11" ry="11"
                     style="stroke: #A80036; stroke-width: 1.0;"/>
            <path d="M50.0688,130.6094 Q49.4906,130.9063 48.85,131.0469 Q48.2094,131.2031 47.5063,131.2031 Q45.0063,131.2031 43.6781,129.5625 Q42.3656,127.9063 42.3656,124.7813 Q42.3656,121.6563 43.6781,120 Q45.0063,118.3438 47.5063,118.3438 Q48.2094,118.3438 48.85,118.5 Q49.5063,118.6563 50.0688,118.9531 L50.0688,121.6719 Q49.4438,121.0938 48.85,120.8281 Q48.2563,120.5469 47.6313,120.5469 Q46.2875,120.5469 45.6,121.625 Q44.9125,122.6875 44.9125,124.7813 Q44.9125,126.875 45.6,127.9531 Q46.2875,129.0156 47.6313,129.0156 Q48.2563,129.0156 48.85,128.75 Q49.4438,128.4688 50.0688,127.8906 L50.0688,130.6094 Z "/>
            <text fill="#000000" font-family="sans-serif" font-size="14" lengthAdjust="spacingAndGlyphs"
                  textLength="192" x="66.9" y="123.9951">UnknownKeyTypeException
            </text>
            <text fill="#000000" font-family="sans-serif" font-size="10" lengthAdjust="spacingAndGlyphs" textLength="36"
                  x="144.9" y="136.5791">iterator
            </text>
            <line style="stroke: #A80036; stroke-width: 1.5;" x1="7" x2="287" y1="143.9375" y2="143.9375"/>
            <ellipse cx="17" cy="154.9375" fill="#84BE84" rx="3" ry="3" style="stroke: #038048; stroke-width: 1.0;"/>
            <text fill="#000000" font-family="sans-serif" font-size="11" lengthAdjust="spacingAndGlyphs"
                  textLength="160" x="26" y="158.1479">UnknownKeyTypeException()
            </text>
            <ellipse cx="17" cy="167.7422" fill="#84BE84" rx="3" ry="3" style="stroke: #038048; stroke-width: 1.0;"/>
            <text fill="#000000" font-family="sans-serif" font-size="11" lengthAdjust="spacingAndGlyphs"
                  textLength="194" x="26" y="170.9526">UnknownKeyTypeException(String)
            </text>
            <ellipse cx="17" cy="180.5469" fill="#84BE84" rx="3" ry="3" style="stroke: #038048; stroke-width: 1.0;"/>
            <text fill="#000000" font-family="sans-serif" font-size="11" lengthAdjust="spacingAndGlyphs"
                  textLength="256" x="26" y="183.7573">UnknownKeyTypeException(Exception, String)
            </text>
        </a><!--MD5=[2a7cd8221fe6583b4d4c6786e4469311]
class chainexception.ChainException-->
        <a href="../chainexception/ChainException.html" target="_top" title="../chainexception/ChainException.html"
           xlink:actuate="onRequest" xlink:href="../chainexception/ChainException.html" xlink:show="new"
           xlink:title="../chainexception/ChainException.html" xlink:type="simple">
            <rect fill="#FEFECE" filter="url(#ff7jbyhuegxbw)" height="37.9375" id="chainexception.ChainException"
                  style="stroke: #A80036; stroke-width: 1.5;" width="139" x="77.5" y="8"/>
            <ellipse cx="92.5" cy="26.9688" fill="#ADD1B2" rx="11" ry="11" style="stroke: #A80036; stroke-width: 1.0;"/>
            <path d="M95.4688,32.6094 Q94.8906,32.9063 94.25,33.0469 Q93.6094,33.2031 92.9063,33.2031 Q90.4063,33.2031 89.0781,31.5625 Q87.7656,29.9063 87.7656,26.7813 Q87.7656,23.6563 89.0781,22 Q90.4063,20.3438 92.9063,20.3438 Q93.6094,20.3438 94.25,20.5 Q94.9063,20.6563 95.4688,20.9531 L95.4688,23.6719 Q94.8438,23.0938 94.25,22.8281 Q93.6563,22.5469 93.0313,22.5469 Q91.6875,22.5469 91,23.625 Q90.3125,24.6875 90.3125,26.7813 Q90.3125,28.875 91,29.9531 Q91.6875,31.0156 93.0313,31.0156 Q93.6563,31.0156 94.25,30.75 Q94.8438,30.4688 95.4688,29.8906 L95.4688,32.6094 Z "/>
            <text fill="#000000" font-family="sans-serif" font-size="14" lengthAdjust="spacingAndGlyphs"
                  textLength="107" x="106.5" y="25.9951">ChainException
            </text>
            <text fill="#000000" font-family="sans-serif" font-size="10" lengthAdjust="spacingAndGlyphs" textLength="72"
                  x="124" y="38.5791">chainexception
            </text>
        </a><!--MD5=[96bf47a38586e113985ef3482f32dfd5]
reverse link chainexception.ChainException to iterator.UnknownKeyTypeException-->
        <path d="M147,66.259 C147,78.9194 147,93.0012 147,105.8605 " fill="none"
              id="chainexception.ChainException&lt;-iterator.UnknownKeyTypeException"
              style="stroke: #A80036; stroke-width: 1.0;"/>
        <polygon fill="none" points="140.0001,66.1728,147,46.1728,154.0001,66.1728,140.0001,66.1728"
                 style="stroke: #A80036; stroke-width: 1.0;"/>
        <text fill="#888888" font-family="sans-serif" font-size="10" lengthAdjust="spacingAndGlyphs" textLength="186"
              x="60" y="209.2822">UMLDoclet 2.0.7, PlantUML 1.2019.12
        </text><!--MD5=[ec13c42c78987483f00014c97b9d3c94]
@startuml
    set namespaceSeparator none
    hide empty fields
    hide empty methods

    class "<size:14>UnknownKeyTypeException\n<size:10>iterator" as iterator.UnknownKeyTypeException [[../iterator/UnknownKeyTypeException.html]] {
        +UnknownKeyTypeException()
        +UnknownKeyTypeException(String)
        +UnknownKeyTypeException(Exception, String)
    }

    class "<size:14>ChainException\n<size:10>chainexception" as chainexception.ChainException [[../chainexception/ChainException.html]]

    chainexception.ChainException <|- - iterator.UnknownKeyTypeException

    center footer UMLDoclet 2.0.7, PlantUML 1.2019.12
@enduml

PlantUML version 1.2019.12(Sun Nov 03 03:24:54 MST 2019)
(APACHE source distribution)
Java Runtime: Java(TM) SE Runtime Environment
JVM: Java HotSpot(TM) 64-Bit Server VM
Java Version: 11.0.6+8-LTS
Operating System: Linux
Default Encoding: UTF-8
Language: en
Country: US
-->
    </g>
</svg>