<?xml version="1.0" encoding="UTF-8" standalone="no"?>
<svg xmlns="http://www.w3.org/2000/svg" xmlns:xlink="http://www.w3.org/1999/xlink"
     contentScriptType="application/ecmascript" contentStyleType="text/css" height="210px" preserveAspectRatio="none"
     style="width:268px;height:210px;" version="1.1" viewBox="0 0 268 210" width="268px" zoomAndPan="magnify">
    <defs>
        <filter height="300%" id="f5mtvde511k21" width="300%" x="-1" y="-1">
            <feGaussianBlur result="blurOut" stdDeviation="2.0"/>
            <feColorMatrix in="blurOut" result="blurOut2" type="matrix"
                           values="0 0 0 0 0 0 0 0 0 0 0 0 0 0 0 0 0 0 .4 0"/>
            <feOffset dx="4.0" dy="4.0" in="blurOut2" result="blurOut3"/>
            <feBlend in="SourceGraphic" in2="blurOut3" mode="normal"/>
        </filter>
    </defs>
    <g><!--MD5=[ac8538e89fb04c20283c81e35308813d]
class iterator.NestedLoopException-->
        <a href="../iterator/NestedLoopException.html" target="_top" title="../iterator/NestedLoopException.html"
           xlink:actuate="onRequest" xlink:href="../iterator/NestedLoopException.html" xlink:show="new"
           xlink:title="../iterator/NestedLoopException.html" xlink:type="simple">
            <rect fill="#FEFECE" filter="url(#f5mtvde511k21)" height="71.5469" id="iterator.NestedLoopException"
                  style="stroke: #A80036; stroke-width: 1.5;" width="251" x="6" y="106"/>
            <ellipse cx="51.25" cy="124.9688" fill="#ADD1B2" rx="11" ry="11"
                     style="stroke: #A80036; stroke-width: 1.0;"/>
            <path d="M54.2188,130.6094 Q53.6406,130.9063 53,131.0469 Q52.3594,131.2031 51.6563,131.2031 Q49.1563,131.2031 47.8281,129.5625 Q46.5156,127.9063 46.5156,124.7813 Q46.5156,121.6563 47.8281,120 Q49.1563,118.3438 51.6563,118.3438 Q52.3594,118.3438 53,118.5 Q53.6563,118.6563 54.2188,118.9531 L54.2188,121.6719 Q53.5938,121.0938 53,120.8281 Q52.4063,120.5469 51.7813,120.5469 Q50.4375,120.5469 49.75,121.625 Q49.0625,122.6875 49.0625,124.7813 Q49.0625,126.875 49.75,127.9531 Q50.4375,129.0156 51.7813,129.0156 Q52.4063,129.0156 53,128.75 Q53.5938,128.4688 54.2188,127.8906 L54.2188,130.6094 Z "/>
            <text fill="#000000" font-family="sans-serif" font-size="14" lengthAdjust="spacingAndGlyphs"
                  textLength="152" x="71.75" y="123.9951">NestedLoopException
            </text>
            <text fill="#000000" font-family="sans-serif" font-size="10" lengthAdjust="spacingAndGlyphs" textLength="36"
                  x="129.75" y="136.5791">iterator
            </text>
            <line style="stroke: #A80036; stroke-width: 1.5;" x1="7" x2="256" y1="143.9375" y2="143.9375"/>
            <ellipse cx="17" cy="154.9375" fill="#84BE84" rx="3" ry="3" style="stroke: #038048; stroke-width: 1.0;"/>
            <text fill="#000000" font-family="sans-serif" font-size="11" lengthAdjust="spacingAndGlyphs"
                  textLength="163" x="26" y="158.1479">NestedLoopException(String)
            </text>
            <ellipse cx="17" cy="167.7422" fill="#84BE84" rx="3" ry="3" style="stroke: #038048; stroke-width: 1.0;"/>
            <text fill="#000000" font-family="sans-serif" font-size="11" lengthAdjust="spacingAndGlyphs"
                  textLength="225" x="26" y="170.9526">NestedLoopException(Exception, String)
            </text>
        </a><!--MD5=[2a7cd8221fe6583b4d4c6786e4469311]
class chainexception.ChainException-->
        <a href="../chainexception/ChainException.html" target="_top" title="../chainexception/ChainException.html"
           xlink:actuate="onRequest" xlink:href="../chainexception/ChainException.html" xlink:show="new"
           xlink:title="../chainexception/ChainException.html" xlink:type="simple">
            <rect fill="#FEFECE" filter="url(#f5mtvde511k21)" height="37.9375" id="chainexception.ChainException"
                  style="stroke: #A80036; stroke-width: 1.5;" width="139" x="62" y="8"/>
            <ellipse cx="77" cy="26.9688" fill="#ADD1B2" rx="11" ry="11" style="stroke: #A80036; stroke-width: 1.0;"/>
            <path d="M79.9688,32.6094 Q79.3906,32.9063 78.75,33.0469 Q78.1094,33.2031 77.4063,33.2031 Q74.9063,33.2031 73.5781,31.5625 Q72.2656,29.9063 72.2656,26.7813 Q72.2656,23.6563 73.5781,22 Q74.9063,20.3438 77.4063,20.3438 Q78.1094,20.3438 78.75,20.5 Q79.4063,20.6563 79.9688,20.9531 L79.9688,23.6719 Q79.3438,23.0938 78.75,22.8281 Q78.1563,22.5469 77.5313,22.5469 Q76.1875,22.5469 75.5,23.625 Q74.8125,24.6875 74.8125,26.7813 Q74.8125,28.875 75.5,29.9531 Q76.1875,31.0156 77.5313,31.0156 Q78.1563,31.0156 78.75,30.75 Q79.3438,30.4688 79.9688,29.8906 L79.9688,32.6094 Z "/>
            <text fill="#000000" font-family="sans-serif" font-size="14" lengthAdjust="spacingAndGlyphs"
                  textLength="107" x="91" y="25.9951">ChainException
            </text>
            <text fill="#000000" font-family="sans-serif" font-size="10" lengthAdjust="spacingAndGlyphs" textLength="72"
                  x="108.5" y="38.5791">chainexception
            </text>
        </a><!--MD5=[2bc0172617ea8e39c54bbc7982ac4b78]
reverse link chainexception.ChainException to iterator.NestedLoopException-->
        <path d="M131.5,66.5888 C131.5,79.3573 131.5,93.4348 131.5,105.935 " fill="none"
              id="chainexception.ChainException&lt;-iterator.NestedLoopException"
              style="stroke: #A80036; stroke-width: 1.0;"/>
        <polygon fill="none" points="124.5001,66.2484,131.5,46.2484,138.5001,66.2484,124.5001,66.2484"
                 style="stroke: #A80036; stroke-width: 1.0;"/>
        <text fill="#888888" font-family="sans-serif" font-size="10" lengthAdjust="spacingAndGlyphs" textLength="186"
              x="44.5" y="197.2822">UMLDoclet 2.0.7, PlantUML 1.2019.12
        </text><!--MD5=[8051382f947c3885e676e10784133314]
@startuml
    set namespaceSeparator none
    hide empty fields
    hide empty methods

    class "<size:14>NestedLoopException\n<size:10>iterator" as iterator.NestedLoopException [[../iterator/NestedLoopException.html]] {
        +NestedLoopException(String)
        +NestedLoopException(Exception, String)
    }

    class "<size:14>ChainException\n<size:10>chainexception" as chainexception.ChainException [[../chainexception/ChainException.html]]

    chainexception.ChainException <|- - iterator.NestedLoopException

    center footer UMLDoclet 2.0.7, PlantUML 1.2019.12
@enduml

PlantUML version 1.2019.12(Sun Nov 03 03:24:54 MST 2019)
(APACHE source distribution)
Java Runtime: Java(TM) SE Runtime Environment
JVM: Java HotSpot(TM) 64-Bit Server VM
Java Version: 11.0.6+8-LTS
Operating System: Linux
Default Encoding: UTF-8
Language: en
Country: US
-->
    </g>
</svg>