<?xml version="1.0" encoding="UTF-8" standalone="no"?>
<svg xmlns="http://www.w3.org/2000/svg" xmlns:xlink="http://www.w3.org/1999/xlink"
     contentScriptType="application/ecmascript" contentStyleType="text/css" height="210px" preserveAspectRatio="none"
     style="width:228px;height:210px;" version="1.1" viewBox="0 0 228 210" width="228px" zoomAndPan="magnify">
    <defs>
        <filter height="300%" id="f9n9wdlkdjmpb" width="300%" x="-1" y="-1">
            <feGaussianBlur result="blurOut" stdDeviation="2.0"/>
            <feColorMatrix in="blurOut" result="blurOut2" type="matrix"
                           values="0 0 0 0 0 0 0 0 0 0 0 0 0 0 0 0 0 0 .4 0"/>
            <feOffset dx="4.0" dy="4.0" in="blurOut2" result="blurOut3"/>
            <feBlend in="SourceGraphic" in2="blurOut3" mode="normal"/>
        </filter>
    </defs>
    <g><!--MD5=[4b3e71e16a78547070951a661fc6f6f1]
class iterator.JoinsException-->
        <a href="../iterator/JoinsException.html" target="_top" title="../iterator/JoinsException.html"
           xlink:actuate="onRequest" xlink:href="../iterator/JoinsException.html" xlink:show="new"
           xlink:title="../iterator/JoinsException.html" xlink:type="simple">
            <rect fill="#FEFECE" filter="url(#f9n9wdlkdjmpb)" height="71.5469" id="iterator.JoinsException"
                  style="stroke: #A80036; stroke-width: 1.5;" width="211" x="6" y="106"/>
            <ellipse cx="57.25" cy="124.9688" fill="#ADD1B2" rx="11" ry="11"
                     style="stroke: #A80036; stroke-width: 1.0;"/>
            <path d="M60.2188,130.6094 Q59.6406,130.9063 59,131.0469 Q58.3594,131.2031 57.6563,131.2031 Q55.1563,131.2031 53.8281,129.5625 Q52.5156,127.9063 52.5156,124.7813 Q52.5156,121.6563 53.8281,120 Q55.1563,118.3438 57.6563,118.3438 Q58.3594,118.3438 59,118.5 Q59.6563,118.6563 60.2188,118.9531 L60.2188,121.6719 Q59.5938,121.0938 59,120.8281 Q58.4063,120.5469 57.7813,120.5469 Q56.4375,120.5469 55.75,121.625 Q55.0625,122.6875 55.0625,124.7813 Q55.0625,126.875 55.75,127.9531 Q56.4375,129.0156 57.7813,129.0156 Q58.4063,129.0156 59,128.75 Q59.5938,128.4688 60.2188,127.8906 L60.2188,130.6094 Z "/>
            <text fill="#000000" font-family="sans-serif" font-size="14" lengthAdjust="spacingAndGlyphs"
                  textLength="100" x="77.75" y="123.9951">JoinsException
            </text>
            <text fill="#000000" font-family="sans-serif" font-size="10" lengthAdjust="spacingAndGlyphs" textLength="36"
                  x="109.75" y="136.5791">iterator
            </text>
            <line style="stroke: #A80036; stroke-width: 1.5;" x1="7" x2="216" y1="143.9375" y2="143.9375"/>
            <ellipse cx="17" cy="154.9375" fill="#84BE84" rx="3" ry="3" style="stroke: #038048; stroke-width: 1.0;"/>
            <text fill="#000000" font-family="sans-serif" font-size="11" lengthAdjust="spacingAndGlyphs"
                  textLength="123" x="26" y="158.1479">JoinsException(String)
            </text>
            <ellipse cx="17" cy="167.7422" fill="#84BE84" rx="3" ry="3" style="stroke: #038048; stroke-width: 1.0;"/>
            <text fill="#000000" font-family="sans-serif" font-size="11" lengthAdjust="spacingAndGlyphs"
                  textLength="185" x="26" y="170.9526">JoinsException(Exception, String)
            </text>
        </a><!--MD5=[2a7cd8221fe6583b4d4c6786e4469311]
class chainexception.ChainException-->
        <a href="../chainexception/ChainException.html" target="_top" title="../chainexception/ChainException.html"
           xlink:actuate="onRequest" xlink:href="../chainexception/ChainException.html" xlink:show="new"
           xlink:title="../chainexception/ChainException.html" xlink:type="simple">
            <rect fill="#FEFECE" filter="url(#f9n9wdlkdjmpb)" height="37.9375" id="chainexception.ChainException"
                  style="stroke: #A80036; stroke-width: 1.5;" width="139" x="42" y="8"/>
            <ellipse cx="57" cy="26.9688" fill="#ADD1B2" rx="11" ry="11" style="stroke: #A80036; stroke-width: 1.0;"/>
            <path d="M59.9688,32.6094 Q59.3906,32.9063 58.75,33.0469 Q58.1094,33.2031 57.4063,33.2031 Q54.9063,33.2031 53.5781,31.5625 Q52.2656,29.9063 52.2656,26.7813 Q52.2656,23.6563 53.5781,22 Q54.9063,20.3438 57.4063,20.3438 Q58.1094,20.3438 58.75,20.5 Q59.4063,20.6563 59.9688,20.9531 L59.9688,23.6719 Q59.3438,23.0938 58.75,22.8281 Q58.1563,22.5469 57.5313,22.5469 Q56.1875,22.5469 55.5,23.625 Q54.8125,24.6875 54.8125,26.7813 Q54.8125,28.875 55.5,29.9531 Q56.1875,31.0156 57.5313,31.0156 Q58.1563,31.0156 58.75,30.75 Q59.3438,30.4688 59.9688,29.8906 L59.9688,32.6094 Z "/>
            <text fill="#000000" font-family="sans-serif" font-size="14" lengthAdjust="spacingAndGlyphs"
                  textLength="107" x="71" y="25.9951">ChainException
            </text>
            <text fill="#000000" font-family="sans-serif" font-size="10" lengthAdjust="spacingAndGlyphs" textLength="72"
                  x="88.5" y="38.5791">chainexception
            </text>
        </a><!--MD5=[2fdd234339a95f142376d17a6073efb1]
reverse link chainexception.ChainException to iterator.JoinsException-->
        <path d="M111.5,66.5888 C111.5,79.3573 111.5,93.4348 111.5,105.935 " fill="none"
              id="chainexception.ChainException&lt;-iterator.JoinsException"
              style="stroke: #A80036; stroke-width: 1.0;"/>
        <polygon fill="none" points="104.5001,66.2484,111.5,46.2484,118.5001,66.2484,104.5001,66.2484"
                 style="stroke: #A80036; stroke-width: 1.0;"/>
        <text fill="#888888" font-family="sans-serif" font-size="10" lengthAdjust="spacingAndGlyphs" textLength="186"
              x="24.5" y="197.2822">UMLDoclet 2.0.7, PlantUML 1.2019.12
        </text><!--MD5=[14f078b4cf8a886f213d39d751b1a7c5]
@startuml
    set namespaceSeparator none
    hide empty fields
    hide empty methods

    class "<size:14>JoinsException\n<size:10>iterator" as iterator.JoinsException [[../iterator/JoinsException.html]] {
        +JoinsException(String)
        +JoinsException(Exception, String)
    }

    class "<size:14>ChainException\n<size:10>chainexception" as chainexception.ChainException [[../chainexception/ChainException.html]]

    chainexception.ChainException <|- - iterator.JoinsException

    center footer UMLDoclet 2.0.7, PlantUML 1.2019.12
@enduml

PlantUML version 1.2019.12(Sun Nov 03 03:24:54 MST 2019)
(APACHE source distribution)
Java Runtime: Java(TM) SE Runtime Environment
JVM: Java HotSpot(TM) 64-Bit Server VM
Java Version: 11.0.6+8-LTS
Operating System: Linux
Default Encoding: UTF-8
Language: en
Country: US
-->
    </g>
</svg>