<?xml version="1.0" encoding="UTF-8" standalone="no"?>
<svg xmlns="http://www.w3.org/2000/svg" xmlns:xlink="http://www.w3.org/1999/xlink"
     contentScriptType="application/ecmascript" contentStyleType="text/css" height="95px" preserveAspectRatio="none"
     style="width:394px;height:95px;" version="1.1" viewBox="0 0 394 95" width="394px" zoomAndPan="magnify">
    <defs>
        <filter height="300%" id="f1f81aywimyhr0" width="300%" x="-1" y="-1">
            <feGaussianBlur result="blurOut" stdDeviation="2.0"/>
            <feColorMatrix in="blurOut" result="blurOut2" type="matrix"
                           values="0 0 0 0 0 0 0 0 0 0 0 0 0 0 0 0 0 0 .4 0"/>
            <feOffset dx="4.0" dy="4.0" in="blurOut2" result="blurOut3"/>
            <feBlend in="SourceGraphic" in2="blurOut3" mode="normal"/>
        </filter>
    </defs>
    <g><!--MD5=[63ec6ac9ec73f84d5447010e01ad3b53]
class iterator.PredEval-->
        <a href="../iterator/PredEval.html" target="_top" title="../iterator/PredEval.html" xlink:actuate="onRequest"
           xlink:href="../iterator/PredEval.html" xlink:show="new" xlink:title="../iterator/PredEval.html"
           xlink:type="simple">
            <rect fill="#FEFECE" filter="url(#f1f81aywimyhr0)" height="58.7422" id="iterator.PredEval"
                  style="stroke: #A80036; stroke-width: 1.5;" width="376" x="7" y="7"/>
            <ellipse cx="161.25" cy="25.9688" fill="#ADD1B2" rx="11" ry="11"
                     style="stroke: #A80036; stroke-width: 1.0;"/>
            <path d="M164.2188,31.6094 Q163.6406,31.9063 163,32.0469 Q162.3594,32.2031 161.6563,32.2031 Q159.1563,32.2031 157.8281,30.5625 Q156.5156,28.9063 156.5156,25.7813 Q156.5156,22.6563 157.8281,21 Q159.1563,19.3438 161.6563,19.3438 Q162.3594,19.3438 163,19.5 Q163.6563,19.6563 164.2188,19.9531 L164.2188,22.6719 Q163.5938,22.0938 163,21.8281 Q162.4063,21.5469 161.7813,21.5469 Q160.4375,21.5469 159.75,22.625 Q159.0625,23.6875 159.0625,25.7813 Q159.0625,27.875 159.75,28.9531 Q160.4375,30.0156 161.7813,30.0156 Q162.4063,30.0156 163,29.75 Q163.5938,29.4688 164.2188,28.8906 L164.2188,31.6094 Z "/>
            <text fill="#000000" font-family="sans-serif" font-size="14" lengthAdjust="spacingAndGlyphs" textLength="59"
                  x="181.75" y="24.9951">PredEval
            </text>
            <text fill="#000000" font-family="sans-serif" font-size="10" lengthAdjust="spacingAndGlyphs" textLength="36"
                  x="193.25" y="37.5791">iterator
            </text>
            <line style="stroke: #A80036; stroke-width: 1.5;" x1="8" x2="382" y1="44.9375" y2="44.9375"/>
            <ellipse cx="18" cy="55.9375" fill="#84BE84" rx="3" ry="3" style="stroke: #038048; stroke-width: 1.0;"/>
            <text fill="#000000" font-family="sans-serif" font-size="11" lengthAdjust="spacingAndGlyphs"
                  text-decoration="underline" textLength="350" x="27" y="59.1479">Eval(CondExpr[], Tuple, Tuple,
                AttrType[], AttrType[]): boolean
            </text>
        </a>
        <text fill="#888888" font-family="sans-serif" font-size="10" lengthAdjust="spacingAndGlyphs" textLength="186"
              x="102" y="82.0244">UMLDoclet 2.0.7, PlantUML 1.2019.12
        </text><!--MD5=[34536d924fb5cc3f04c3d77e7ad853a8]
@startuml
    set namespaceSeparator none
    hide empty fields
    hide empty methods

    class "<size:14>PredEval\n<size:10>iterator" as iterator.PredEval [[../iterator/PredEval.html]] {
        {static} +Eval(CondExpr[], Tuple, Tuple, AttrType[], AttrType[]): boolean
    }

    center footer UMLDoclet 2.0.7, PlantUML 1.2019.12
@enduml

PlantUML version 1.2019.12(Sun Nov 03 03:24:54 MST 2019)
(APACHE source distribution)
Java Runtime: Java(TM) SE Runtime Environment
JVM: Java HotSpot(TM) 64-Bit Server VM
Java Version: 11.0.6+8-LTS
Operating System: Linux
Default Encoding: UTF-8
Language: en
Country: US
-->
    </g>
</svg>