<?xml version="1.0" encoding="UTF-8" standalone="no"?>
<svg xmlns="http://www.w3.org/2000/svg" xmlns:xlink="http://www.w3.org/1999/xlink"
     contentScriptType="application/ecmascript" contentStyleType="text/css" height="210px" preserveAspectRatio="none"
     style="width:224px;height:210px;" version="1.1" viewBox="0 0 224 210" width="224px" zoomAndPan="magnify">
    <defs>
        <filter height="300%" id="f16hc7b3ylt815" width="300%" x="-1" y="-1">
            <feGaussianBlur result="blurOut" stdDeviation="2.0"/>
            <feColorMatrix in="blurOut" result="blurOut2" type="matrix"
                           values="0 0 0 0 0 0 0 0 0 0 0 0 0 0 0 0 0 0 .4 0"/>
            <feOffset dx="4.0" dy="4.0" in="blurOut2" result="blurOut3"/>
            <feBlend in="SourceGraphic" in2="blurOut3" mode="normal"/>
        </filter>
    </defs>
    <g><!--MD5=[e4500f0d9b65fa1507bdebde3510f4fc]
class iterator.JoinNewFailed-->
        <a href="../iterator/JoinNewFailed.html" target="_top" title="../iterator/JoinNewFailed.html"
           xlink:actuate="onRequest" xlink:href="../iterator/JoinNewFailed.html" xlink:show="new"
           xlink:title="../iterator/JoinNewFailed.html" xlink:type="simple">
            <rect fill="#FEFECE" filter="url(#f16hc7b3ylt815)" height="71.5469" id="iterator.JoinNewFailed"
                  style="stroke: #A80036; stroke-width: 1.5;" width="207" x="6" y="106"/>
            <ellipse cx="58.25" cy="124.9688" fill="#ADD1B2" rx="11" ry="11"
                     style="stroke: #A80036; stroke-width: 1.0;"/>
            <path d="M61.2188,130.6094 Q60.6406,130.9063 60,131.0469 Q59.3594,131.2031 58.6563,131.2031 Q56.1563,131.2031 54.8281,129.5625 Q53.5156,127.9063 53.5156,124.7813 Q53.5156,121.6563 54.8281,120 Q56.1563,118.3438 58.6563,118.3438 Q59.3594,118.3438 60,118.5 Q60.6563,118.6563 61.2188,118.9531 L61.2188,121.6719 Q60.5938,121.0938 60,120.8281 Q59.4063,120.5469 58.7813,120.5469 Q57.4375,120.5469 56.75,121.625 Q56.0625,122.6875 56.0625,124.7813 Q56.0625,126.875 56.75,127.9531 Q57.4375,129.0156 58.7813,129.0156 Q59.4063,129.0156 60,128.75 Q60.5938,128.4688 61.2188,127.8906 L61.2188,130.6094 Z "/>
            <text fill="#000000" font-family="sans-serif" font-size="14" lengthAdjust="spacingAndGlyphs" textLength="94"
                  x="78.75" y="123.9951">JoinNewFailed
            </text>
            <text fill="#000000" font-family="sans-serif" font-size="10" lengthAdjust="spacingAndGlyphs" textLength="36"
                  x="107.75" y="136.5791">iterator
            </text>
            <line style="stroke: #A80036; stroke-width: 1.5;" x1="7" x2="212" y1="143.9375" y2="143.9375"/>
            <ellipse cx="17" cy="154.9375" fill="#84BE84" rx="3" ry="3" style="stroke: #038048; stroke-width: 1.0;"/>
            <text fill="#000000" font-family="sans-serif" font-size="11" lengthAdjust="spacingAndGlyphs"
                  textLength="119" x="26" y="158.1479">JoinNewFailed(String)
            </text>
            <ellipse cx="17" cy="167.7422" fill="#84BE84" rx="3" ry="3" style="stroke: #038048; stroke-width: 1.0;"/>
            <text fill="#000000" font-family="sans-serif" font-size="11" lengthAdjust="spacingAndGlyphs"
                  textLength="181" x="26" y="170.9526">JoinNewFailed(Exception, String)
            </text>
        </a><!--MD5=[2a7cd8221fe6583b4d4c6786e4469311]
class chainexception.ChainException-->
        <a href="../chainexception/ChainException.html" target="_top" title="../chainexception/ChainException.html"
           xlink:actuate="onRequest" xlink:href="../chainexception/ChainException.html" xlink:show="new"
           xlink:title="../chainexception/ChainException.html" xlink:type="simple">
            <rect fill="#FEFECE" filter="url(#f16hc7b3ylt815)" height="37.9375" id="chainexception.ChainException"
                  style="stroke: #A80036; stroke-width: 1.5;" width="139" x="40" y="8"/>
            <ellipse cx="55" cy="26.9688" fill="#ADD1B2" rx="11" ry="11" style="stroke: #A80036; stroke-width: 1.0;"/>
            <path d="M57.9688,32.6094 Q57.3906,32.9063 56.75,33.0469 Q56.1094,33.2031 55.4063,33.2031 Q52.9063,33.2031 51.5781,31.5625 Q50.2656,29.9063 50.2656,26.7813 Q50.2656,23.6563 51.5781,22 Q52.9063,20.3438 55.4063,20.3438 Q56.1094,20.3438 56.75,20.5 Q57.4063,20.6563 57.9688,20.9531 L57.9688,23.6719 Q57.3438,23.0938 56.75,22.8281 Q56.1563,22.5469 55.5313,22.5469 Q54.1875,22.5469 53.5,23.625 Q52.8125,24.6875 52.8125,26.7813 Q52.8125,28.875 53.5,29.9531 Q54.1875,31.0156 55.5313,31.0156 Q56.1563,31.0156 56.75,30.75 Q57.3438,30.4688 57.9688,29.8906 L57.9688,32.6094 Z "/>
            <text fill="#000000" font-family="sans-serif" font-size="14" lengthAdjust="spacingAndGlyphs"
                  textLength="107" x="69" y="25.9951">ChainException
            </text>
            <text fill="#000000" font-family="sans-serif" font-size="10" lengthAdjust="spacingAndGlyphs" textLength="72"
                  x="86.5" y="38.5791">chainexception
            </text>
        </a><!--MD5=[52567dfcc32458caedcc54764cd43ef7]
reverse link chainexception.ChainException to iterator.JoinNewFailed-->
        <path d="M109.5,66.5888 C109.5,79.3573 109.5,93.4348 109.5,105.935 " fill="none"
              id="chainexception.ChainException&lt;-iterator.JoinNewFailed"
              style="stroke: #A80036; stroke-width: 1.0;"/>
        <polygon fill="none" points="102.5001,66.2484,109.5,46.2484,116.5001,66.2484,102.5001,66.2484"
                 style="stroke: #A80036; stroke-width: 1.0;"/>
        <text fill="#888888" font-family="sans-serif" font-size="10" lengthAdjust="spacingAndGlyphs" textLength="186"
              x="22.5" y="197.2822">UMLDoclet 2.0.7, PlantUML 1.2019.12
        </text><!--MD5=[f3870307597871dd74526cc9a7adcdc2]
@startuml
    set namespaceSeparator none
    hide empty fields
    hide empty methods

    class "<size:14>JoinNewFailed\n<size:10>iterator" as iterator.JoinNewFailed [[../iterator/JoinNewFailed.html]] {
        +JoinNewFailed(String)
        +JoinNewFailed(Exception, String)
    }

    class "<size:14>ChainException\n<size:10>chainexception" as chainexception.ChainException [[../chainexception/ChainException.html]]

    chainexception.ChainException <|- - iterator.JoinNewFailed

    center footer UMLDoclet 2.0.7, PlantUML 1.2019.12
@enduml

PlantUML version 1.2019.12(Sun Nov 03 03:24:54 MST 2019)
(APACHE source distribution)
Java Runtime: Java(TM) SE Runtime Environment
JVM: Java HotSpot(TM) 64-Bit Server VM
Java Version: 11.0.6+8-LTS
Operating System: Linux
Default Encoding: UTF-8
Language: en
Country: US
-->
    </g>
</svg>