<?xml version="1.0" encoding="UTF-8" standalone="no"?>
<svg xmlns="http://www.w3.org/2000/svg" xmlns:xlink="http://www.w3.org/1999/xlink"
     contentScriptType="application/ecmascript" contentStyleType="text/css" height="210px" preserveAspectRatio="none"
     style="width:234px;height:210px;" version="1.1" viewBox="0 0 234 210" width="234px" zoomAndPan="magnify">
    <defs>
        <filter height="300%" id="f18dfk4ri0rms7" width="300%" x="-1" y="-1">
            <feGaussianBlur result="blurOut" stdDeviation="2.0"/>
            <feColorMatrix in="blurOut" result="blurOut2" type="matrix"
                           values="0 0 0 0 0 0 0 0 0 0 0 0 0 0 0 0 0 0 .4 0"/>
            <feOffset dx="4.0" dy="4.0" in="blurOut2" result="blurOut3"/>
            <feBlend in="SourceGraphic" in2="blurOut3" mode="normal"/>
        </filter>
    </defs>
    <g><!--MD5=[1db84988d5a367c74e116e6f3a3f4135]
class iterator.JoinLowMemory-->
        <a href="../iterator/JoinLowMemory.html" target="_top" title="../iterator/JoinLowMemory.html"
           xlink:actuate="onRequest" xlink:href="../iterator/JoinLowMemory.html" xlink:show="new"
           xlink:title="../iterator/JoinLowMemory.html" xlink:type="simple">
            <rect fill="#FEFECE" filter="url(#f18dfk4ri0rms7)" height="71.5469" id="iterator.JoinLowMemory"
                  style="stroke: #A80036; stroke-width: 1.5;" width="217" x="6" y="106"/>
            <ellipse cx="57.25" cy="124.9688" fill="#ADD1B2" rx="11" ry="11"
                     style="stroke: #A80036; stroke-width: 1.0;"/>
            <path d="M60.2188,130.6094 Q59.6406,130.9063 59,131.0469 Q58.3594,131.2031 57.6563,131.2031 Q55.1563,131.2031 53.8281,129.5625 Q52.5156,127.9063 52.5156,124.7813 Q52.5156,121.6563 53.8281,120 Q55.1563,118.3438 57.6563,118.3438 Q58.3594,118.3438 59,118.5 Q59.6563,118.6563 60.2188,118.9531 L60.2188,121.6719 Q59.5938,121.0938 59,120.8281 Q58.4063,120.5469 57.7813,120.5469 Q56.4375,120.5469 55.75,121.625 Q55.0625,122.6875 55.0625,124.7813 Q55.0625,126.875 55.75,127.9531 Q56.4375,129.0156 57.7813,129.0156 Q58.4063,129.0156 59,128.75 Q59.5938,128.4688 60.2188,127.8906 L60.2188,130.6094 Z "/>
            <text fill="#000000" font-family="sans-serif" font-size="14" lengthAdjust="spacingAndGlyphs"
                  textLength="106" x="77.75" y="123.9951">JoinLowMemory
            </text>
            <text fill="#000000" font-family="sans-serif" font-size="10" lengthAdjust="spacingAndGlyphs" textLength="36"
                  x="112.75" y="136.5791">iterator
            </text>
            <line style="stroke: #A80036; stroke-width: 1.5;" x1="7" x2="222" y1="143.9375" y2="143.9375"/>
            <ellipse cx="17" cy="154.9375" fill="#84BE84" rx="3" ry="3" style="stroke: #038048; stroke-width: 1.0;"/>
            <text fill="#000000" font-family="sans-serif" font-size="11" lengthAdjust="spacingAndGlyphs"
                  textLength="129" x="26" y="158.1479">JoinLowMemory(String)
            </text>
            <ellipse cx="17" cy="167.7422" fill="#84BE84" rx="3" ry="3" style="stroke: #038048; stroke-width: 1.0;"/>
            <text fill="#000000" font-family="sans-serif" font-size="11" lengthAdjust="spacingAndGlyphs"
                  textLength="191" x="26" y="170.9526">JoinLowMemory(Exception, String)
            </text>
        </a><!--MD5=[2a7cd8221fe6583b4d4c6786e4469311]
class chainexception.ChainException-->
        <a href="../chainexception/ChainException.html" target="_top" title="../chainexception/ChainException.html"
           xlink:actuate="onRequest" xlink:href="../chainexception/ChainException.html" xlink:show="new"
           xlink:title="../chainexception/ChainException.html" xlink:type="simple">
            <rect fill="#FEFECE" filter="url(#f18dfk4ri0rms7)" height="37.9375" id="chainexception.ChainException"
                  style="stroke: #A80036; stroke-width: 1.5;" width="139" x="45" y="8"/>
            <ellipse cx="60" cy="26.9688" fill="#ADD1B2" rx="11" ry="11" style="stroke: #A80036; stroke-width: 1.0;"/>
            <path d="M62.9688,32.6094 Q62.3906,32.9063 61.75,33.0469 Q61.1094,33.2031 60.4063,33.2031 Q57.9063,33.2031 56.5781,31.5625 Q55.2656,29.9063 55.2656,26.7813 Q55.2656,23.6563 56.5781,22 Q57.9063,20.3438 60.4063,20.3438 Q61.1094,20.3438 61.75,20.5 Q62.4063,20.6563 62.9688,20.9531 L62.9688,23.6719 Q62.3438,23.0938 61.75,22.8281 Q61.1563,22.5469 60.5313,22.5469 Q59.1875,22.5469 58.5,23.625 Q57.8125,24.6875 57.8125,26.7813 Q57.8125,28.875 58.5,29.9531 Q59.1875,31.0156 60.5313,31.0156 Q61.1563,31.0156 61.75,30.75 Q62.3438,30.4688 62.9688,29.8906 L62.9688,32.6094 Z "/>
            <text fill="#000000" font-family="sans-serif" font-size="14" lengthAdjust="spacingAndGlyphs"
                  textLength="107" x="74" y="25.9951">ChainException
            </text>
            <text fill="#000000" font-family="sans-serif" font-size="10" lengthAdjust="spacingAndGlyphs" textLength="72"
                  x="91.5" y="38.5791">chainexception
            </text>
        </a><!--MD5=[d4c5e1c6b0fb7f8921f1674e06adf733]
reverse link chainexception.ChainException to iterator.JoinLowMemory-->
        <path d="M114.5,66.5888 C114.5,79.3573 114.5,93.4348 114.5,105.935 " fill="none"
              id="chainexception.ChainException&lt;-iterator.JoinLowMemory"
              style="stroke: #A80036; stroke-width: 1.0;"/>
        <polygon fill="none" points="107.5001,66.2484,114.5,46.2484,121.5001,66.2484,107.5001,66.2484"
                 style="stroke: #A80036; stroke-width: 1.0;"/>
        <text fill="#888888" font-family="sans-serif" font-size="10" lengthAdjust="spacingAndGlyphs" textLength="186"
              x="27.5" y="197.2822">UMLDoclet 2.0.7, PlantUML 1.2019.12
        </text><!--MD5=[0adcb678ecf461da6a7b07d297d67c03]
@startuml
    set namespaceSeparator none
    hide empty fields
    hide empty methods

    class "<size:14>JoinLowMemory\n<size:10>iterator" as iterator.JoinLowMemory [[../iterator/JoinLowMemory.html]] {
        +JoinLowMemory(String)
        +JoinLowMemory(Exception, String)
    }

    class "<size:14>ChainException\n<size:10>chainexception" as chainexception.ChainException [[../chainexception/ChainException.html]]

    chainexception.ChainException <|- - iterator.JoinLowMemory

    center footer UMLDoclet 2.0.7, PlantUML 1.2019.12
@enduml

PlantUML version 1.2019.12(Sun Nov 03 03:24:54 MST 2019)
(APACHE source distribution)
Java Runtime: Java(TM) SE Runtime Environment
JVM: Java HotSpot(TM) 64-Bit Server VM
Java Version: 11.0.6+8-LTS
Operating System: Linux
Default Encoding: UTF-8
Language: en
Country: US
-->
    </g>
</svg>