<?xml version="1.0" encoding="UTF-8" standalone="no"?>
<svg xmlns="http://www.w3.org/2000/svg" xmlns:xlink="http://www.w3.org/1999/xlink"
     contentScriptType="application/ecmascript" contentStyleType="text/css" height="235px" preserveAspectRatio="none"
     style="width:251px;height:235px;" version="1.1" viewBox="0 0 251 235" width="251px" zoomAndPan="magnify">
    <defs>
        <filter height="300%" id="f1ix8h0zi06ct4" width="300%" x="-1" y="-1">
            <feGaussianBlur result="blurOut" stdDeviation="2.0"/>
            <feColorMatrix in="blurOut" result="blurOut2" type="matrix"
                           values="0 0 0 0 0 0 0 0 0 0 0 0 0 0 0 0 0 0 .4 0"/>
            <feOffset dx="4.0" dy="4.0" in="blurOut2" result="blurOut3"/>
            <feBlend in="SourceGraphic" in2="blurOut3" mode="normal"/>
        </filter>
    </defs>
    <g><!--MD5=[67541019b769c6e46fe5bb76fe99d45d]
class iterator.SpoofIbuf-->
        <a href="../iterator/SpoofIbuf.html" target="_top" title="../iterator/SpoofIbuf.html" xlink:actuate="onRequest"
           xlink:href="../iterator/SpoofIbuf.html" xlink:show="new" xlink:title="../iterator/SpoofIbuf.html"
           xlink:type="simple">
            <rect fill="#FEFECE" filter="url(#f1ix8h0zi06ct4)" height="97.1563" id="iterator.SpoofIbuf"
                  style="stroke: #A80036; stroke-width: 1.5;" width="234" x="6" y="106"/>
            <ellipse cx="86.25" cy="124.9688" fill="#ADD1B2" rx="11" ry="11"
                     style="stroke: #A80036; stroke-width: 1.0;"/>
            <path d="M89.2188,130.6094 Q88.6406,130.9063 88,131.0469 Q87.3594,131.2031 86.6563,131.2031 Q84.1563,131.2031 82.8281,129.5625 Q81.5156,127.9063 81.5156,124.7813 Q81.5156,121.6563 82.8281,120 Q84.1563,118.3438 86.6563,118.3438 Q87.3594,118.3438 88,118.5 Q88.6563,118.6563 89.2188,118.9531 L89.2188,121.6719 Q88.5938,121.0938 88,120.8281 Q87.4063,120.5469 86.7813,120.5469 Q85.4375,120.5469 84.75,121.625 Q84.0625,122.6875 84.0625,124.7813 Q84.0625,126.875 84.75,127.9531 Q85.4375,129.0156 86.7813,129.0156 Q87.4063,129.0156 88,128.75 Q88.5938,128.4688 89.2188,127.8906 L89.2188,130.6094 Z "/>
            <text fill="#000000" font-family="sans-serif" font-size="14" lengthAdjust="spacingAndGlyphs" textLength="65"
                  x="106.75" y="123.9951">SpoofIbuf
            </text>
            <text fill="#000000" font-family="sans-serif" font-size="10" lengthAdjust="spacingAndGlyphs" textLength="36"
                  x="121.25" y="136.5791">iterator
            </text>
            <line style="stroke: #A80036; stroke-width: 1.5;" x1="7" x2="239" y1="143.9375" y2="143.9375"/>
            <ellipse cx="17" cy="154.9375" fill="#84BE84" rx="3" ry="3" style="stroke: #038048; stroke-width: 1.0;"/>
            <text fill="#000000" font-family="sans-serif" font-size="11" lengthAdjust="spacingAndGlyphs" textLength="93"
                  x="26" y="158.1479">SpoofIbuf(): void
            </text>
            <ellipse cx="17" cy="167.7422" fill="#84BE84" rx="3" ry="3" style="stroke: #038048; stroke-width: 1.0;"/>
            <text fill="#000000" font-family="sans-serif" font-size="11" lengthAdjust="spacingAndGlyphs"
                  textLength="208" x="26" y="170.9526">init(Heapfile, byte[], int, int, int): void
            </text>
            <ellipse cx="17" cy="180.5469" fill="#84BE84" rx="3" ry="3" style="stroke: #038048; stroke-width: 1.0;"/>
            <text fill="#000000" font-family="sans-serif" font-size="11" lengthAdjust="spacingAndGlyphs" textLength="98"
                  x="26" y="183.7573">Get(Tuple): Tuple
            </text>
            <ellipse cx="17" cy="193.3516" fill="#84BE84" rx="3" ry="3" style="stroke: #038048; stroke-width: 1.0;"/>
            <text fill="#000000" font-family="sans-serif" font-size="11" lengthAdjust="spacingAndGlyphs" textLength="96"
                  x="26" y="196.562">empty(): boolean
            </text>
        </a><!--MD5=[349d101bc5b57a3de1b8b252b2bcdd93]
class global.GlobalConst-->
        <a href="../global/GlobalConst.html" target="_top" title="../global/GlobalConst.html" xlink:actuate="onRequest"
           xlink:href="../global/GlobalConst.html" xlink:show="new" xlink:title="../global/GlobalConst.html"
           xlink:type="simple">
            <rect fill="#FEFECE" filter="url(#f1ix8h0zi06ct4)" height="37.9375" id="global.GlobalConst"
                  style="stroke: #A80036; stroke-width: 1.5;" width="116" x="65" y="8"/>
            <ellipse cx="80" cy="26.9688" fill="#B4A7E5" rx="11" ry="11" style="stroke: #A80036; stroke-width: 1.0;"/>
            <path d="M75.9219,22.7344 L75.9219,20.5781 L83.3125,20.5781 L83.3125,22.7344 L80.8438,22.7344 L80.8438,30.8125 L83.3125,30.8125 L83.3125,32.9688 L75.9219,32.9688 L75.9219,30.8125 L78.3906,30.8125 L78.3906,22.7344 L75.9219,22.7344 Z "/>
            <text fill="#000000" font-family="sans-serif" font-size="14" font-style="italic"
                  lengthAdjust="spacingAndGlyphs" textLength="84" x="94" y="25.9951">GlobalConst
            </text>
            <text fill="#000000" font-family="sans-serif" font-size="10" font-style="italic"
                  lengthAdjust="spacingAndGlyphs" textLength="28" x="122" y="38.5791">global
            </text>
        </a><!--MD5=[d800f0446f3ceaa9dbb5bb6a15043af3]
reverse link global.GlobalConst to iterator.SpoofIbuf-->
        <path d="M123,66.4138 C123,78.8609 123,92.7643 123,105.7811 " fill="none"
              id="global.GlobalConst&lt;-iterator.SpoofIbuf"
              style="stroke: #A80036; stroke-width: 1.0; stroke-dasharray: 7.0,7.0;"/>
        <polygon fill="none" points="116.0001,66.0881,123,46.088,130.0001,66.088,116.0001,66.0881"
                 style="stroke: #A80036; stroke-width: 1.0;"/>
        <text fill="#888888" font-family="sans-serif" font-size="10" lengthAdjust="spacingAndGlyphs" textLength="186"
              x="36" y="222.2822">UMLDoclet 2.0.7, PlantUML 1.2019.12
        </text><!--MD5=[0932ffcea3e49d713e1ddd1691e4880c]
@startuml
    set namespaceSeparator none
    hide empty fields
    hide empty methods

    class "<size:14>SpoofIbuf\n<size:10>iterator" as iterator.SpoofIbuf [[../iterator/SpoofIbuf.html]] {
        +SpoofIbuf(): void
        +init(Heapfile, byte[], int, int, int): void
        +Get(Tuple): Tuple
        +empty(): boolean
    }

    interface "<size:14>GlobalConst\n<size:10>global" as global.GlobalConst [[../global/GlobalConst.html]]

    global.GlobalConst <|.. iterator.SpoofIbuf

    center footer UMLDoclet 2.0.7, PlantUML 1.2019.12
@enduml

PlantUML version 1.2019.12(Sun Nov 03 03:24:54 MST 2019)
(APACHE source distribution)
Java Runtime: Java(TM) SE Runtime Environment
JVM: Java HotSpot(TM) 64-Bit Server VM
Java Version: 11.0.6+8-LTS
Operating System: Linux
Default Encoding: UTF-8
Language: en
Country: US
-->
    </g>
</svg>