<?xml version="1.0" encoding="UTF-8" standalone="no"?>
<svg xmlns="http://www.w3.org/2000/svg" xmlns:xlink="http://www.w3.org/1999/xlink"
     contentScriptType="application/ecmascript" contentStyleType="text/css" height="210px" preserveAspectRatio="none"
     style="width:250px;height:210px;" version="1.1" viewBox="0 0 250 210" width="250px" zoomAndPan="magnify">
    <defs>
        <filter height="300%" id="ftcwhticqlatl" width="300%" x="-1" y="-1">
            <feGaussianBlur result="blurOut" stdDeviation="2.0"/>
            <feColorMatrix in="blurOut" result="blurOut2" type="matrix"
                           values="0 0 0 0 0 0 0 0 0 0 0 0 0 0 0 0 0 0 .4 0"/>
            <feOffset dx="4.0" dy="4.0" in="blurOut2" result="blurOut3"/>
            <feBlend in="SourceGraphic" in2="blurOut3" mode="normal"/>
        </filter>
    </defs>
    <g><!--MD5=[2b4126459ba3905e832a7b32ad8c423c]
class iterator.LowMemException-->
        <a href="../iterator/LowMemException.html" target="_top" title="../iterator/LowMemException.html"
           xlink:actuate="onRequest" xlink:href="../iterator/LowMemException.html" xlink:show="new"
           xlink:title="../iterator/LowMemException.html" xlink:type="simple">
            <rect fill="#FEFECE" filter="url(#ftcwhticqlatl)" height="71.5469" id="iterator.LowMemException"
                  style="stroke: #A80036; stroke-width: 1.5;" width="233" x="6" y="106"/>
            <ellipse cx="53.75" cy="124.9688" fill="#ADD1B2" rx="11" ry="11"
                     style="stroke: #A80036; stroke-width: 1.0;"/>
            <path d="M56.7188,130.6094 Q56.1406,130.9063 55.5,131.0469 Q54.8594,131.2031 54.1563,131.2031 Q51.6563,131.2031 50.3281,129.5625 Q49.0156,127.9063 49.0156,124.7813 Q49.0156,121.6563 50.3281,120 Q51.6563,118.3438 54.1563,118.3438 Q54.8594,118.3438 55.5,118.5 Q56.1563,118.6563 56.7188,118.9531 L56.7188,121.6719 Q56.0938,121.0938 55.5,120.8281 Q54.9063,120.5469 54.2813,120.5469 Q52.9375,120.5469 52.25,121.625 Q51.5625,122.6875 51.5625,124.7813 Q51.5625,126.875 52.25,127.9531 Q52.9375,129.0156 54.2813,129.0156 Q54.9063,129.0156 55.5,128.75 Q56.0938,128.4688 56.7188,127.8906 L56.7188,130.6094 Z "/>
            <text fill="#000000" font-family="sans-serif" font-size="14" lengthAdjust="spacingAndGlyphs"
                  textLength="129" x="74.25" y="123.9951">LowMemException
            </text>
            <text fill="#000000" font-family="sans-serif" font-size="10" lengthAdjust="spacingAndGlyphs" textLength="36"
                  x="120.75" y="136.5791">iterator
            </text>
            <line style="stroke: #A80036; stroke-width: 1.5;" x1="7" x2="238" y1="143.9375" y2="143.9375"/>
            <ellipse cx="17" cy="154.9375" fill="#84BE84" rx="3" ry="3" style="stroke: #038048; stroke-width: 1.0;"/>
            <text fill="#000000" font-family="sans-serif" font-size="11" lengthAdjust="spacingAndGlyphs"
                  textLength="145" x="26" y="158.1479">LowMemException(String)
            </text>
            <ellipse cx="17" cy="167.7422" fill="#84BE84" rx="3" ry="3" style="stroke: #038048; stroke-width: 1.0;"/>
            <text fill="#000000" font-family="sans-serif" font-size="11" lengthAdjust="spacingAndGlyphs"
                  textLength="207" x="26" y="170.9526">LowMemException(Exception, String)
            </text>
        </a><!--MD5=[2a7cd8221fe6583b4d4c6786e4469311]
class chainexception.ChainException-->
        <a href="../chainexception/ChainException.html" target="_top" title="../chainexception/ChainException.html"
           xlink:actuate="onRequest" xlink:href="../chainexception/ChainException.html" xlink:show="new"
           xlink:title="../chainexception/ChainException.html" xlink:type="simple">
            <rect fill="#FEFECE" filter="url(#ftcwhticqlatl)" height="37.9375" id="chainexception.ChainException"
                  style="stroke: #A80036; stroke-width: 1.5;" width="139" x="53" y="8"/>
            <ellipse cx="68" cy="26.9688" fill="#ADD1B2" rx="11" ry="11" style="stroke: #A80036; stroke-width: 1.0;"/>
            <path d="M70.9688,32.6094 Q70.3906,32.9063 69.75,33.0469 Q69.1094,33.2031 68.4063,33.2031 Q65.9063,33.2031 64.5781,31.5625 Q63.2656,29.9063 63.2656,26.7813 Q63.2656,23.6563 64.5781,22 Q65.9063,20.3438 68.4063,20.3438 Q69.1094,20.3438 69.75,20.5 Q70.4063,20.6563 70.9688,20.9531 L70.9688,23.6719 Q70.3438,23.0938 69.75,22.8281 Q69.1563,22.5469 68.5313,22.5469 Q67.1875,22.5469 66.5,23.625 Q65.8125,24.6875 65.8125,26.7813 Q65.8125,28.875 66.5,29.9531 Q67.1875,31.0156 68.5313,31.0156 Q69.1563,31.0156 69.75,30.75 Q70.3438,30.4688 70.9688,29.8906 L70.9688,32.6094 Z "/>
            <text fill="#000000" font-family="sans-serif" font-size="14" lengthAdjust="spacingAndGlyphs"
                  textLength="107" x="82" y="25.9951">ChainException
            </text>
            <text fill="#000000" font-family="sans-serif" font-size="10" lengthAdjust="spacingAndGlyphs" textLength="72"
                  x="99.5" y="38.5791">chainexception
            </text>
        </a><!--MD5=[84d74162f54d18b21ac26da54fdca558]
reverse link chainexception.ChainException to iterator.LowMemException-->
        <path d="M122.5,66.5888 C122.5,79.3573 122.5,93.4348 122.5,105.935 " fill="none"
              id="chainexception.ChainException&lt;-iterator.LowMemException"
              style="stroke: #A80036; stroke-width: 1.0;"/>
        <polygon fill="none" points="115.5001,66.2484,122.5,46.2484,129.5001,66.2484,115.5001,66.2484"
                 style="stroke: #A80036; stroke-width: 1.0;"/>
        <text fill="#888888" font-family="sans-serif" font-size="10" lengthAdjust="spacingAndGlyphs" textLength="186"
              x="35.5" y="197.2822">UMLDoclet 2.0.7, PlantUML 1.2019.12
        </text><!--MD5=[b0dd4e29791370a8b05c6582b01b9b7b]
@startuml
    set namespaceSeparator none
    hide empty fields
    hide empty methods

    class "<size:14>LowMemException\n<size:10>iterator" as iterator.LowMemException [[../iterator/LowMemException.html]] {
        +LowMemException(String)
        +LowMemException(Exception, String)
    }

    class "<size:14>ChainException\n<size:10>chainexception" as chainexception.ChainException [[../chainexception/ChainException.html]]

    chainexception.ChainException <|- - iterator.LowMemException

    center footer UMLDoclet 2.0.7, PlantUML 1.2019.12
@enduml

PlantUML version 1.2019.12(Sun Nov 03 03:24:54 MST 2019)
(APACHE source distribution)
Java Runtime: Java(TM) SE Runtime Environment
JVM: Java HotSpot(TM) 64-Bit Server VM
Java Version: 11.0.6+8-LTS
Operating System: Linux
Default Encoding: UTF-8
Language: en
Country: US
-->
    </g>
</svg>