<?xml version="1.0" encoding="UTF-8" standalone="no"?>
<svg xmlns="http://www.w3.org/2000/svg" xmlns:xlink="http://www.w3.org/1999/xlink"
     contentScriptType="application/ecmascript" contentStyleType="text/css" height="129px" preserveAspectRatio="none"
     style="width:198px;height:129px;" version="1.1" viewBox="0 0 198 129" width="198px" zoomAndPan="magnify">
    <defs>
        <filter height="300%" id="fu7qzeiv4l83x" width="300%" x="-1" y="-1">
            <feGaussianBlur result="blurOut" stdDeviation="2.0"/>
            <feColorMatrix in="blurOut" result="blurOut2" type="matrix"
                           values="0 0 0 0 0 0 0 0 0 0 0 0 0 0 0 0 0 0 .4 0"/>
            <feOffset dx="4.0" dy="4.0" in="blurOut2" result="blurOut3"/>
            <feBlend in="SourceGraphic" in2="blurOut3" mode="normal"/>
        </filter>
    </defs>
    <g><!--MD5=[b0189ef754fda6496e7069bc69e22d17]
class iterator.FldSpec-->
        <a href="../iterator/FldSpec.html" target="_top" title="../iterator/FldSpec.html" xlink:actuate="onRequest"
           xlink:href="../iterator/FldSpec.html" xlink:show="new" xlink:title="../iterator/FldSpec.html"
           xlink:type="simple">
            <rect fill="#FEFECE" filter="url(#fu7qzeiv4l83x)" height="92.3516" id="iterator.FldSpec"
                  style="stroke: #A80036; stroke-width: 1.5;" width="145" x="20.5" y="7"/>
            <ellipse cx="61.6" cy="25.9688" fill="#ADD1B2" rx="11" ry="11" style="stroke: #A80036; stroke-width: 1.0;"/>
            <path d="M64.5688,31.6094 Q63.9906,31.9063 63.35,32.0469 Q62.7094,32.2031 62.0063,32.2031 Q59.5063,32.2031 58.1781,30.5625 Q56.8656,28.9063 56.8656,25.7813 Q56.8656,22.6563 58.1781,21 Q59.5063,19.3438 62.0063,19.3438 Q62.7094,19.3438 63.35,19.5 Q64.0063,19.6563 64.5688,19.9531 L64.5688,22.6719 Q63.9438,22.0938 63.35,21.8281 Q62.7563,21.5469 62.1313,21.5469 Q60.7875,21.5469 60.1,22.625 Q59.4125,23.6875 59.4125,25.7813 Q59.4125,27.875 60.1,28.9531 Q60.7875,30.0156 62.1313,30.0156 Q62.7563,30.0156 63.35,29.75 Q63.9438,29.4688 64.5688,28.8906 L64.5688,31.6094 Z "/>
            <text fill="#000000" font-family="sans-serif" font-size="14" lengthAdjust="spacingAndGlyphs" textLength="55"
                  x="81.4" y="24.9951">FldSpec
            </text>
            <text fill="#000000" font-family="sans-serif" font-size="10" lengthAdjust="spacingAndGlyphs" textLength="36"
                  x="90.9" y="37.5791">iterator
            </text>
            <line style="stroke: #A80036; stroke-width: 1.5;" x1="21.5" x2="164.5" y1="44.9375" y2="44.9375"/>
            <ellipse cx="31.5" cy="55.9375" fill="none" rx="3" ry="3" style="stroke: #038048; stroke-width: 1.0;"/>
            <text fill="#000000" font-family="sans-serif" font-size="11" lengthAdjust="spacingAndGlyphs" textLength="96"
                  x="40.5" y="59.1479">relation: RelSpec
            </text>
            <ellipse cx="31.5" cy="68.7422" fill="none" rx="3" ry="3" style="stroke: #038048; stroke-width: 1.0;"/>
            <text fill="#000000" font-family="sans-serif" font-size="11" lengthAdjust="spacingAndGlyphs" textLength="55"
                  x="40.5" y="71.9526">offset: int
            </text>
            <line style="stroke: #A80036; stroke-width: 1.5;" x1="21.5" x2="164.5" y1="78.5469" y2="78.5469"/>
            <ellipse cx="31.5" cy="89.5469" fill="#84BE84" rx="3" ry="3" style="stroke: #038048; stroke-width: 1.0;"/>
            <text fill="#000000" font-family="sans-serif" font-size="11" lengthAdjust="spacingAndGlyphs"
                  textLength="119" x="40.5" y="92.7573">FldSpec(RelSpec, int)
            </text>
        </a>
        <text fill="#888888" font-family="sans-serif" font-size="10" lengthAdjust="spacingAndGlyphs" textLength="186"
              x="0" y="115.6338">UMLDoclet 2.0.7, PlantUML 1.2019.12
        </text><!--MD5=[bdee3bed4b3f0bcca19df0720fc84cad]
@startuml
    set namespaceSeparator none
    hide empty fields
    hide empty methods

    class "<size:14>FldSpec\n<size:10>iterator" as iterator.FldSpec [[../iterator/FldSpec.html]] {
        +relation: RelSpec
        +offset: int
        +FldSpec(RelSpec, int)
    }

    center footer UMLDoclet 2.0.7, PlantUML 1.2019.12
@enduml

PlantUML version 1.2019.12(Sun Nov 03 03:24:54 MST 2019)
(APACHE source distribution)
Java Runtime: Java(TM) SE Runtime Environment
JVM: Java HotSpot(TM) 64-Bit Server VM
Java Version: 11.0.6+8-LTS
Operating System: Linux
Default Encoding: UTF-8
Language: en
Country: US
-->
    </g>
</svg>