<?xml version="1.0" encoding="UTF-8" standalone="no"?>
<svg xmlns="http://www.w3.org/2000/svg" xmlns:xlink="http://www.w3.org/1999/xlink"
     contentScriptType="application/ecmascript" contentStyleType="text/css" height="210px" preserveAspectRatio="none"
     style="width:225px;height:210px;" version="1.1" viewBox="0 0 225 210" width="225px" zoomAndPan="magnify">
    <defs>
        <filter height="300%" id="f2f8mywf8gtef" width="300%" x="-1" y="-1">
            <feGaussianBlur result="blurOut" stdDeviation="2.0"/>
            <feColorMatrix in="blurOut" result="blurOut2" type="matrix"
                           values="0 0 0 0 0 0 0 0 0 0 0 0 0 0 0 0 0 0 .4 0"/>
            <feOffset dx="4.0" dy="4.0" in="blurOut2" result="blurOut3"/>
            <feBlend in="SourceGraphic" in2="blurOut3" mode="normal"/>
        </filter>
    </defs>
    <g><!--MD5=[0454b2a328735a2abea7c7bd749c8a7c]
class iterator.SortException-->
        <a href="../iterator/SortException.html" target="_top" title="../iterator/SortException.html"
           xlink:actuate="onRequest" xlink:href="../iterator/SortException.html" xlink:show="new"
           xlink:title="../iterator/SortException.html" xlink:type="simple">
            <rect fill="#FEFECE" filter="url(#f2f8mywf8gtef)" height="71.5469" id="iterator.SortException"
                  style="stroke: #A80036; stroke-width: 1.5;" width="208" x="6" y="106"/>
            <ellipse cx="57.75" cy="124.9688" fill="#ADD1B2" rx="11" ry="11"
                     style="stroke: #A80036; stroke-width: 1.0;"/>
            <path d="M60.7188,130.6094 Q60.1406,130.9063 59.5,131.0469 Q58.8594,131.2031 58.1563,131.2031 Q55.6563,131.2031 54.3281,129.5625 Q53.0156,127.9063 53.0156,124.7813 Q53.0156,121.6563 54.3281,120 Q55.6563,118.3438 58.1563,118.3438 Q58.8594,118.3438 59.5,118.5 Q60.1563,118.6563 60.7188,118.9531 L60.7188,121.6719 Q60.0938,121.0938 59.5,120.8281 Q58.9063,120.5469 58.2813,120.5469 Q56.9375,120.5469 56.25,121.625 Q55.5625,122.6875 55.5625,124.7813 Q55.5625,126.875 56.25,127.9531 Q56.9375,129.0156 58.2813,129.0156 Q58.9063,129.0156 59.5,128.75 Q60.0938,128.4688 60.7188,127.8906 L60.7188,130.6094 Z "/>
            <text fill="#000000" font-family="sans-serif" font-size="14" lengthAdjust="spacingAndGlyphs" textLength="96"
                  x="78.25" y="123.9951">SortException
            </text>
            <text fill="#000000" font-family="sans-serif" font-size="10" lengthAdjust="spacingAndGlyphs" textLength="36"
                  x="108.25" y="136.5791">iterator
            </text>
            <line style="stroke: #A80036; stroke-width: 1.5;" x1="7" x2="213" y1="143.9375" y2="143.9375"/>
            <ellipse cx="17" cy="154.9375" fill="#84BE84" rx="3" ry="3" style="stroke: #038048; stroke-width: 1.0;"/>
            <text fill="#000000" font-family="sans-serif" font-size="11" lengthAdjust="spacingAndGlyphs"
                  textLength="120" x="26" y="158.1479">SortException(String)
            </text>
            <ellipse cx="17" cy="167.7422" fill="#84BE84" rx="3" ry="3" style="stroke: #038048; stroke-width: 1.0;"/>
            <text fill="#000000" font-family="sans-serif" font-size="11" lengthAdjust="spacingAndGlyphs"
                  textLength="182" x="26" y="170.9526">SortException(Exception, String)
            </text>
        </a><!--MD5=[2a7cd8221fe6583b4d4c6786e4469311]
class chainexception.ChainException-->
        <a href="../chainexception/ChainException.html" target="_top" title="../chainexception/ChainException.html"
           xlink:actuate="onRequest" xlink:href="../chainexception/ChainException.html" xlink:show="new"
           xlink:title="../chainexception/ChainException.html" xlink:type="simple">
            <rect fill="#FEFECE" filter="url(#f2f8mywf8gtef)" height="37.9375" id="chainexception.ChainException"
                  style="stroke: #A80036; stroke-width: 1.5;" width="139" x="40.5" y="8"/>
            <ellipse cx="55.5" cy="26.9688" fill="#ADD1B2" rx="11" ry="11" style="stroke: #A80036; stroke-width: 1.0;"/>
            <path d="M58.4688,32.6094 Q57.8906,32.9063 57.25,33.0469 Q56.6094,33.2031 55.9063,33.2031 Q53.4063,33.2031 52.0781,31.5625 Q50.7656,29.9063 50.7656,26.7813 Q50.7656,23.6563 52.0781,22 Q53.4063,20.3438 55.9063,20.3438 Q56.6094,20.3438 57.25,20.5 Q57.9063,20.6563 58.4688,20.9531 L58.4688,23.6719 Q57.8438,23.0938 57.25,22.8281 Q56.6563,22.5469 56.0313,22.5469 Q54.6875,22.5469 54,23.625 Q53.3125,24.6875 53.3125,26.7813 Q53.3125,28.875 54,29.9531 Q54.6875,31.0156 56.0313,31.0156 Q56.6563,31.0156 57.25,30.75 Q57.8438,30.4688 58.4688,29.8906 L58.4688,32.6094 Z "/>
            <text fill="#000000" font-family="sans-serif" font-size="14" lengthAdjust="spacingAndGlyphs"
                  textLength="107" x="69.5" y="25.9951">ChainException
            </text>
            <text fill="#000000" font-family="sans-serif" font-size="10" lengthAdjust="spacingAndGlyphs" textLength="72"
                  x="87" y="38.5791">chainexception
            </text>
        </a><!--MD5=[6529f566d0b3b5646bff37ec04527b5b]
reverse link chainexception.ChainException to iterator.SortException-->
        <path d="M110,66.5888 C110,79.3573 110,93.4348 110,105.935 " fill="none"
              id="chainexception.ChainException&lt;-iterator.SortException"
              style="stroke: #A80036; stroke-width: 1.0;"/>
        <polygon fill="none" points="103.0001,66.2484,110,46.2484,117.0001,66.2484,103.0001,66.2484"
                 style="stroke: #A80036; stroke-width: 1.0;"/>
        <text fill="#888888" font-family="sans-serif" font-size="10" lengthAdjust="spacingAndGlyphs" textLength="186"
              x="23" y="197.2822">UMLDoclet 2.0.7, PlantUML 1.2019.12
        </text><!--MD5=[346d0cfccbe7668045ef4f4ddfec516f]
@startuml
    set namespaceSeparator none
    hide empty fields
    hide empty methods

    class "<size:14>SortException\n<size:10>iterator" as iterator.SortException [[../iterator/SortException.html]] {
        +SortException(String)
        +SortException(Exception, String)
    }

    class "<size:14>ChainException\n<size:10>chainexception" as chainexception.ChainException [[../chainexception/ChainException.html]]

    chainexception.ChainException <|- - iterator.SortException

    center footer UMLDoclet 2.0.7, PlantUML 1.2019.12
@enduml

PlantUML version 1.2019.12(Sun Nov 03 03:24:54 MST 2019)
(APACHE source distribution)
Java Runtime: Java(TM) SE Runtime Environment
JVM: Java HotSpot(TM) 64-Bit Server VM
Java Version: 11.0.6+8-LTS
Operating System: Linux
Default Encoding: UTF-8
Language: en
Country: US
-->
    </g>
</svg>