<?xml version="1.0" encoding="UTF-8" standalone="no"?>
<svg xmlns="http://www.w3.org/2000/svg" xmlns:xlink="http://www.w3.org/1999/xlink"
     contentScriptType="application/ecmascript" contentStyleType="text/css" height="133px" preserveAspectRatio="none"
     style="width:198px;height:133px;" version="1.1" viewBox="0 0 198 133" width="198px" zoomAndPan="magnify">
    <defs>
        <filter height="300%" id="fcflgfriiw97e" width="300%" x="-1" y="-1">
            <feGaussianBlur result="blurOut" stdDeviation="2.0"/>
            <feColorMatrix in="blurOut" result="blurOut2" type="matrix"
                           values="0 0 0 0 0 0 0 0 0 0 0 0 0 0 0 0 0 0 .4 0"/>
            <feOffset dx="4.0" dy="4.0" in="blurOut2" result="blurOut3"/>
            <feBlend in="SourceGraphic" in2="blurOut3" mode="normal"/>
        </filter>
    </defs>
    <g><!--MD5=[392788df770d0fde4f8514b5c637c64f]
class iterator.Operand-->
        <a href="../iterator/Operand.html" target="_top" title="../iterator/Operand.html" xlink:actuate="onRequest"
           xlink:href="../iterator/Operand.html" xlink:show="new" xlink:title="../iterator/Operand.html"
           xlink:type="simple">
            <rect fill="#FEFECE" filter="url(#fcflgfriiw97e)" height="97.1563" id="iterator.Operand"
                  style="stroke: #A80036; stroke-width: 1.5;" width="119" x="33.5" y="7"/>
            <ellipse cx="60.65" cy="25.9688" fill="#ADD1B2" rx="11" ry="11"
                     style="stroke: #A80036; stroke-width: 1.0;"/>
            <path d="M63.6188,31.6094 Q63.0406,31.9063 62.4,32.0469 Q61.7594,32.2031 61.0563,32.2031 Q58.5563,32.2031 57.2281,30.5625 Q55.9156,28.9063 55.9156,25.7813 Q55.9156,22.6563 57.2281,21 Q58.5563,19.3438 61.0563,19.3438 Q61.7594,19.3438 62.4,19.5 Q63.0563,19.6563 63.6188,19.9531 L63.6188,22.6719 Q62.9938,22.0938 62.4,21.8281 Q61.8063,21.5469 61.1813,21.5469 Q59.8375,21.5469 59.15,22.625 Q58.4625,23.6875 58.4625,25.7813 Q58.4625,27.875 59.15,28.9531 Q59.8375,30.0156 61.1813,30.0156 Q61.8063,30.0156 62.4,29.75 Q62.9938,29.4688 63.6188,28.8906 L63.6188,31.6094 Z "/>
            <text fill="#000000" font-family="sans-serif" font-size="14" lengthAdjust="spacingAndGlyphs" textLength="60"
                  x="77.35" y="24.9951">Operand
            </text>
            <text fill="#000000" font-family="sans-serif" font-size="10" lengthAdjust="spacingAndGlyphs" textLength="36"
                  x="89.35" y="37.5791">iterator
            </text>
            <line style="stroke: #A80036; stroke-width: 1.5;" x1="34.5" x2="151.5" y1="44.9375" y2="44.9375"/>
            <ellipse cx="44.5" cy="55.9375" fill="none" rx="3" ry="3" style="stroke: #038048; stroke-width: 1.0;"/>
            <text fill="#000000" font-family="sans-serif" font-size="11" lengthAdjust="spacingAndGlyphs" textLength="93"
                  x="53.5" y="59.1479">symbol: FldSpec
            </text>
            <ellipse cx="44.5" cy="68.7422" fill="none" rx="3" ry="3" style="stroke: #038048; stroke-width: 1.0;"/>
            <text fill="#000000" font-family="sans-serif" font-size="11" lengthAdjust="spacingAndGlyphs" textLength="75"
                  x="53.5" y="71.9526">string: String
            </text>
            <ellipse cx="44.5" cy="81.5469" fill="none" rx="3" ry="3" style="stroke: #038048; stroke-width: 1.0;"/>
            <text fill="#000000" font-family="sans-serif" font-size="11" lengthAdjust="spacingAndGlyphs" textLength="62"
                  x="53.5" y="84.7573">integer: int
            </text>
            <ellipse cx="44.5" cy="94.3516" fill="none" rx="3" ry="3" style="stroke: #038048; stroke-width: 1.0;"/>
            <text fill="#000000" font-family="sans-serif" font-size="11" lengthAdjust="spacingAndGlyphs" textLength="55"
                  x="53.5" y="97.562">real: float
            </text>
        </a>
        <text fill="#888888" font-family="sans-serif" font-size="10" lengthAdjust="spacingAndGlyphs" textLength="186"
              x="0" y="120.4385">UMLDoclet 2.0.7, PlantUML 1.2019.12
        </text><!--MD5=[f58eaf68427eb9a70c3466c4ac61a3f6]
@startuml
    set namespaceSeparator none
    hide empty fields
    hide empty methods

    class "<size:14>Operand\n<size:10>iterator" as iterator.Operand [[../iterator/Operand.html]] {
        +symbol: FldSpec
        +string: String
        +integer: int
        +real: float
    }

    center footer UMLDoclet 2.0.7, PlantUML 1.2019.12
@enduml

PlantUML version 1.2019.12(Sun Nov 03 03:24:54 MST 2019)
(APACHE source distribution)
Java Runtime: Java(TM) SE Runtime Environment
JVM: Java HotSpot(TM) 64-Bit Server VM
Java Version: 11.0.6+8-LTS
Operating System: Linux
Default Encoding: UTF-8
Language: en
Country: US
-->
    </g>
</svg>