<?xml version="1.0" encoding="UTF-8" standalone="no"?>
<svg xmlns="http://www.w3.org/2000/svg" xmlns:xlink="http://www.w3.org/1999/xlink"
     contentScriptType="application/ecmascript" contentStyleType="text/css" height="210px" preserveAspectRatio="none"
     style="width:238px;height:210px;" version="1.1" viewBox="0 0 238 210" width="238px" zoomAndPan="magnify">
    <defs>
        <filter height="300%" id="f1tn1507zx6zkz" width="300%" x="-1" y="-1">
            <feGaussianBlur result="blurOut" stdDeviation="2.0"/>
            <feColorMatrix in="blurOut" result="blurOut2" type="matrix"
                           values="0 0 0 0 0 0 0 0 0 0 0 0 0 0 0 0 0 0 .4 0"/>
            <feOffset dx="4.0" dy="4.0" in="blurOut2" result="blurOut3"/>
            <feBlend in="SourceGraphic" in2="blurOut3" mode="normal"/>
        </filter>
    </defs>
    <g><!--MD5=[01a433db84ed0ab7ff2413af5d43039c]
class iterator.UnknowAttrType-->
        <a href="../iterator/UnknowAttrType.html" target="_top" title="../iterator/UnknowAttrType.html"
           xlink:actuate="onRequest" xlink:href="../iterator/UnknowAttrType.html" xlink:show="new"
           xlink:title="../iterator/UnknowAttrType.html" xlink:type="simple">
            <rect fill="#FEFECE" filter="url(#f1tn1507zx6zkz)" height="71.5469" id="iterator.UnknowAttrType"
                  style="stroke: #A80036; stroke-width: 1.5;" width="221" x="6" y="106"/>
            <ellipse cx="55.25" cy="124.9688" fill="#ADD1B2" rx="11" ry="11"
                     style="stroke: #A80036; stroke-width: 1.0;"/>
            <path d="M58.2188,130.6094 Q57.6406,130.9063 57,131.0469 Q56.3594,131.2031 55.6563,131.2031 Q53.1563,131.2031 51.8281,129.5625 Q50.5156,127.9063 50.5156,124.7813 Q50.5156,121.6563 51.8281,120 Q53.1563,118.3438 55.6563,118.3438 Q56.3594,118.3438 57,118.5 Q57.6563,118.6563 58.2188,118.9531 L58.2188,121.6719 Q57.5938,121.0938 57,120.8281 Q56.4063,120.5469 55.7813,120.5469 Q54.4375,120.5469 53.75,121.625 Q53.0625,122.6875 53.0625,124.7813 Q53.0625,126.875 53.75,127.9531 Q54.4375,129.0156 55.7813,129.0156 Q56.4063,129.0156 57,128.75 Q57.5938,128.4688 58.2188,127.8906 L58.2188,130.6094 Z "/>
            <text fill="#000000" font-family="sans-serif" font-size="14" lengthAdjust="spacingAndGlyphs"
                  textLength="114" x="75.75" y="123.9951">UnknowAttrType
            </text>
            <text fill="#000000" font-family="sans-serif" font-size="10" lengthAdjust="spacingAndGlyphs" textLength="36"
                  x="114.75" y="136.5791">iterator
            </text>
            <line style="stroke: #A80036; stroke-width: 1.5;" x1="7" x2="226" y1="143.9375" y2="143.9375"/>
            <ellipse cx="17" cy="154.9375" fill="#84BE84" rx="3" ry="3" style="stroke: #038048; stroke-width: 1.0;"/>
            <text fill="#000000" font-family="sans-serif" font-size="11" lengthAdjust="spacingAndGlyphs"
                  textLength="133" x="26" y="158.1479">UnknowAttrType(String)
            </text>
            <ellipse cx="17" cy="167.7422" fill="#84BE84" rx="3" ry="3" style="stroke: #038048; stroke-width: 1.0;"/>
            <text fill="#000000" font-family="sans-serif" font-size="11" lengthAdjust="spacingAndGlyphs"
                  textLength="195" x="26" y="170.9526">UnknowAttrType(Exception, String)
            </text>
        </a><!--MD5=[2a7cd8221fe6583b4d4c6786e4469311]
class chainexception.ChainException-->
        <a href="../chainexception/ChainException.html" target="_top" title="../chainexception/ChainException.html"
           xlink:actuate="onRequest" xlink:href="../chainexception/ChainException.html" xlink:show="new"
           xlink:title="../chainexception/ChainException.html" xlink:type="simple">
            <rect fill="#FEFECE" filter="url(#f1tn1507zx6zkz)" height="37.9375" id="chainexception.ChainException"
                  style="stroke: #A80036; stroke-width: 1.5;" width="139" x="47" y="8"/>
            <ellipse cx="62" cy="26.9688" fill="#ADD1B2" rx="11" ry="11" style="stroke: #A80036; stroke-width: 1.0;"/>
            <path d="M64.9688,32.6094 Q64.3906,32.9063 63.75,33.0469 Q63.1094,33.2031 62.4063,33.2031 Q59.9063,33.2031 58.5781,31.5625 Q57.2656,29.9063 57.2656,26.7813 Q57.2656,23.6563 58.5781,22 Q59.9063,20.3438 62.4063,20.3438 Q63.1094,20.3438 63.75,20.5 Q64.4063,20.6563 64.9688,20.9531 L64.9688,23.6719 Q64.3438,23.0938 63.75,22.8281 Q63.1563,22.5469 62.5313,22.5469 Q61.1875,22.5469 60.5,23.625 Q59.8125,24.6875 59.8125,26.7813 Q59.8125,28.875 60.5,29.9531 Q61.1875,31.0156 62.5313,31.0156 Q63.1563,31.0156 63.75,30.75 Q64.3438,30.4688 64.9688,29.8906 L64.9688,32.6094 Z "/>
            <text fill="#000000" font-family="sans-serif" font-size="14" lengthAdjust="spacingAndGlyphs"
                  textLength="107" x="76" y="25.9951">ChainException
            </text>
            <text fill="#000000" font-family="sans-serif" font-size="10" lengthAdjust="spacingAndGlyphs" textLength="72"
                  x="93.5" y="38.5791">chainexception
            </text>
        </a><!--MD5=[34ce3d385c2b3fa75f704ae0559eabfc]
reverse link chainexception.ChainException to iterator.UnknowAttrType-->
        <path d="M116.5,66.5888 C116.5,79.3573 116.5,93.4348 116.5,105.935 " fill="none"
              id="chainexception.ChainException&lt;-iterator.UnknowAttrType"
              style="stroke: #A80036; stroke-width: 1.0;"/>
        <polygon fill="none" points="109.5001,66.2484,116.5,46.2484,123.5001,66.2484,109.5001,66.2484"
                 style="stroke: #A80036; stroke-width: 1.0;"/>
        <text fill="#888888" font-family="sans-serif" font-size="10" lengthAdjust="spacingAndGlyphs" textLength="186"
              x="29.5" y="197.2822">UMLDoclet 2.0.7, PlantUML 1.2019.12
        </text><!--MD5=[1d1b64c086b7c9f6c75e072448f236a0]
@startuml
    set namespaceSeparator none
    hide empty fields
    hide empty methods

    class "<size:14>UnknowAttrType\n<size:10>iterator" as iterator.UnknowAttrType [[../iterator/UnknowAttrType.html]] {
        +UnknowAttrType(String)
        +UnknowAttrType(Exception, String)
    }

    class "<size:14>ChainException\n<size:10>chainexception" as chainexception.ChainException [[../chainexception/ChainException.html]]

    chainexception.ChainException <|- - iterator.UnknowAttrType

    center footer UMLDoclet 2.0.7, PlantUML 1.2019.12
@enduml

PlantUML version 1.2019.12(Sun Nov 03 03:24:54 MST 2019)
(APACHE source distribution)
Java Runtime: Java(TM) SE Runtime Environment
JVM: Java HotSpot(TM) 64-Bit Server VM
Java Version: 11.0.6+8-LTS
Operating System: Linux
Default Encoding: UTF-8
Language: en
Country: US
-->
    </g>
</svg>