<?xml version="1.0" encoding="UTF-8" standalone="no"?>
<svg xmlns="http://www.w3.org/2000/svg" xmlns:xlink="http://www.w3.org/1999/xlink"
     contentScriptType="application/ecmascript" contentStyleType="text/css" height="210px" preserveAspectRatio="none"
     style="width:235px;height:210px;" version="1.1" viewBox="0 0 235 210" width="235px" zoomAndPan="magnify">
    <defs>
        <filter height="300%" id="fy7zepwt1ihpz" width="300%" x="-1" y="-1">
            <feGaussianBlur result="blurOut" stdDeviation="2.0"/>
            <feColorMatrix in="blurOut" result="blurOut2" type="matrix"
                           values="0 0 0 0 0 0 0 0 0 0 0 0 0 0 0 0 0 0 .4 0"/>
            <feOffset dx="4.0" dy="4.0" in="blurOut2" result="blurOut3"/>
            <feBlend in="SourceGraphic" in2="blurOut3" mode="normal"/>
        </filter>
    </defs>
    <g><!--MD5=[3b999c31b6ee022cd475b15dc785a077]
class iterator.NoOutputBuffer-->
        <a href="../iterator/NoOutputBuffer.html" target="_top" title="../iterator/NoOutputBuffer.html"
           xlink:actuate="onRequest" xlink:href="../iterator/NoOutputBuffer.html" xlink:show="new"
           xlink:title="../iterator/NoOutputBuffer.html" xlink:type="simple">
            <rect fill="#FEFECE" filter="url(#fy7zepwt1ihpz)" height="71.5469" id="iterator.NoOutputBuffer"
                  style="stroke: #A80036; stroke-width: 1.5;" width="218" x="6" y="106"/>
            <ellipse cx="56.75" cy="124.9688" fill="#ADD1B2" rx="11" ry="11"
                     style="stroke: #A80036; stroke-width: 1.0;"/>
            <path d="M59.7188,130.6094 Q59.1406,130.9063 58.5,131.0469 Q57.8594,131.2031 57.1563,131.2031 Q54.6563,131.2031 53.3281,129.5625 Q52.0156,127.9063 52.0156,124.7813 Q52.0156,121.6563 53.3281,120 Q54.6563,118.3438 57.1563,118.3438 Q57.8594,118.3438 58.5,118.5 Q59.1563,118.6563 59.7188,118.9531 L59.7188,121.6719 Q59.0938,121.0938 58.5,120.8281 Q57.9063,120.5469 57.2813,120.5469 Q55.9375,120.5469 55.25,121.625 Q54.5625,122.6875 54.5625,124.7813 Q54.5625,126.875 55.25,127.9531 Q55.9375,129.0156 57.2813,129.0156 Q57.9063,129.0156 58.5,128.75 Q59.0938,128.4688 59.7188,127.8906 L59.7188,130.6094 Z "/>
            <text fill="#000000" font-family="sans-serif" font-size="14" lengthAdjust="spacingAndGlyphs"
                  textLength="108" x="77.25" y="123.9951">NoOutputBuffer
            </text>
            <text fill="#000000" font-family="sans-serif" font-size="10" lengthAdjust="spacingAndGlyphs" textLength="36"
                  x="113.25" y="136.5791">iterator
            </text>
            <line style="stroke: #A80036; stroke-width: 1.5;" x1="7" x2="223" y1="143.9375" y2="143.9375"/>
            <ellipse cx="17" cy="154.9375" fill="#84BE84" rx="3" ry="3" style="stroke: #038048; stroke-width: 1.0;"/>
            <text fill="#000000" font-family="sans-serif" font-size="11" lengthAdjust="spacingAndGlyphs"
                  textLength="130" x="26" y="158.1479">NoOutputBuffer(String)
            </text>
            <ellipse cx="17" cy="167.7422" fill="#84BE84" rx="3" ry="3" style="stroke: #038048; stroke-width: 1.0;"/>
            <text fill="#000000" font-family="sans-serif" font-size="11" lengthAdjust="spacingAndGlyphs"
                  textLength="192" x="26" y="170.9526">NoOutputBuffer(Exception, String)
            </text>
        </a><!--MD5=[2a7cd8221fe6583b4d4c6786e4469311]
class chainexception.ChainException-->
        <a href="../chainexception/ChainException.html" target="_top" title="../chainexception/ChainException.html"
           xlink:actuate="onRequest" xlink:href="../chainexception/ChainException.html" xlink:show="new"
           xlink:title="../chainexception/ChainException.html" xlink:type="simple">
            <rect fill="#FEFECE" filter="url(#fy7zepwt1ihpz)" height="37.9375" id="chainexception.ChainException"
                  style="stroke: #A80036; stroke-width: 1.5;" width="139" x="45.5" y="8"/>
            <ellipse cx="60.5" cy="26.9688" fill="#ADD1B2" rx="11" ry="11" style="stroke: #A80036; stroke-width: 1.0;"/>
            <path d="M63.4688,32.6094 Q62.8906,32.9063 62.25,33.0469 Q61.6094,33.2031 60.9063,33.2031 Q58.4063,33.2031 57.0781,31.5625 Q55.7656,29.9063 55.7656,26.7813 Q55.7656,23.6563 57.0781,22 Q58.4063,20.3438 60.9063,20.3438 Q61.6094,20.3438 62.25,20.5 Q62.9063,20.6563 63.4688,20.9531 L63.4688,23.6719 Q62.8438,23.0938 62.25,22.8281 Q61.6563,22.5469 61.0313,22.5469 Q59.6875,22.5469 59,23.625 Q58.3125,24.6875 58.3125,26.7813 Q58.3125,28.875 59,29.9531 Q59.6875,31.0156 61.0313,31.0156 Q61.6563,31.0156 62.25,30.75 Q62.8438,30.4688 63.4688,29.8906 L63.4688,32.6094 Z "/>
            <text fill="#000000" font-family="sans-serif" font-size="14" lengthAdjust="spacingAndGlyphs"
                  textLength="107" x="74.5" y="25.9951">ChainException
            </text>
            <text fill="#000000" font-family="sans-serif" font-size="10" lengthAdjust="spacingAndGlyphs" textLength="72"
                  x="92" y="38.5791">chainexception
            </text>
        </a><!--MD5=[f75325b352577c07e5f44dd8556f4e5b]
reverse link chainexception.ChainException to iterator.NoOutputBuffer-->
        <path d="M115,66.5888 C115,79.3573 115,93.4348 115,105.935 " fill="none"
              id="chainexception.ChainException&lt;-iterator.NoOutputBuffer"
              style="stroke: #A80036; stroke-width: 1.0;"/>
        <polygon fill="none" points="108.0001,66.2484,115,46.2484,122.0001,66.2484,108.0001,66.2484"
                 style="stroke: #A80036; stroke-width: 1.0;"/>
        <text fill="#888888" font-family="sans-serif" font-size="10" lengthAdjust="spacingAndGlyphs" textLength="186"
              x="28" y="197.2822">UMLDoclet 2.0.7, PlantUML 1.2019.12
        </text><!--MD5=[c961034344ca2e475ec0044327522a68]
@startuml
    set namespaceSeparator none
    hide empty fields
    hide empty methods

    class "<size:14>NoOutputBuffer\n<size:10>iterator" as iterator.NoOutputBuffer [[../iterator/NoOutputBuffer.html]] {
        +NoOutputBuffer(String)
        +NoOutputBuffer(Exception, String)
    }

    class "<size:14>ChainException\n<size:10>chainexception" as chainexception.ChainException [[../chainexception/ChainException.html]]

    chainexception.ChainException <|- - iterator.NoOutputBuffer

    center footer UMLDoclet 2.0.7, PlantUML 1.2019.12
@enduml

PlantUML version 1.2019.12(Sun Nov 03 03:24:54 MST 2019)
(APACHE source distribution)
Java Runtime: Java(TM) SE Runtime Environment
JVM: Java HotSpot(TM) 64-Bit Server VM
Java Version: 11.0.6+8-LTS
Operating System: Linux
Default Encoding: UTF-8
Language: en
Country: US
-->
    </g>
</svg>