<?xml version="1.0" encoding="UTF-8" standalone="no"?>
<svg xmlns="http://www.w3.org/2000/svg" xmlns:xlink="http://www.w3.org/1999/xlink"
     contentScriptType="application/ecmascript" contentStyleType="text/css" height="210px" preserveAspectRatio="none"
     style="width:248px;height:210px;" version="1.1" viewBox="0 0 248 210" width="248px" zoomAndPan="magnify">
    <defs>
        <filter height="300%" id="ffjelai7n7i47" width="300%" x="-1" y="-1">
            <feGaussianBlur result="blurOut" stdDeviation="2.0"/>
            <feColorMatrix in="blurOut" result="blurOut2" type="matrix"
                           values="0 0 0 0 0 0 0 0 0 0 0 0 0 0 0 0 0 0 .4 0"/>
            <feOffset dx="4.0" dy="4.0" in="blurOut2" result="blurOut3"/>
            <feBlend in="SourceGraphic" in2="blurOut3" mode="normal"/>
        </filter>
    </defs>
    <g><!--MD5=[a5948c4d5224638377929e572f95cae0]
class iterator.FileScanException-->
        <a href="../iterator/FileScanException.html" target="_top" title="../iterator/FileScanException.html"
           xlink:actuate="onRequest" xlink:href="../iterator/FileScanException.html" xlink:show="new"
           xlink:title="../iterator/FileScanException.html" xlink:type="simple">
            <rect fill="#FEFECE" filter="url(#ffjelai7n7i47)" height="71.5469" id="iterator.FileScanException"
                  style="stroke: #A80036; stroke-width: 1.5;" width="231" x="6" y="106"/>
            <ellipse cx="54.75" cy="124.9688" fill="#ADD1B2" rx="11" ry="11"
                     style="stroke: #A80036; stroke-width: 1.0;"/>
            <path d="M57.7188,130.6094 Q57.1406,130.9063 56.5,131.0469 Q55.8594,131.2031 55.1563,131.2031 Q52.6563,131.2031 51.3281,129.5625 Q50.0156,127.9063 50.0156,124.7813 Q50.0156,121.6563 51.3281,120 Q52.6563,118.3438 55.1563,118.3438 Q55.8594,118.3438 56.5,118.5 Q57.1563,118.6563 57.7188,118.9531 L57.7188,121.6719 Q57.0938,121.0938 56.5,120.8281 Q55.9063,120.5469 55.2813,120.5469 Q53.9375,120.5469 53.25,121.625 Q52.5625,122.6875 52.5625,124.7813 Q52.5625,126.875 53.25,127.9531 Q53.9375,129.0156 55.2813,129.0156 Q55.9063,129.0156 56.5,128.75 Q57.0938,128.4688 57.7188,127.8906 L57.7188,130.6094 Z "/>
            <text fill="#000000" font-family="sans-serif" font-size="14" lengthAdjust="spacingAndGlyphs"
                  textLength="125" x="75.25" y="123.9951">FileScanException
            </text>
            <text fill="#000000" font-family="sans-serif" font-size="10" lengthAdjust="spacingAndGlyphs" textLength="36"
                  x="119.75" y="136.5791">iterator
            </text>
            <line style="stroke: #A80036; stroke-width: 1.5;" x1="7" x2="236" y1="143.9375" y2="143.9375"/>
            <ellipse cx="17" cy="154.9375" fill="#84BE84" rx="3" ry="3" style="stroke: #038048; stroke-width: 1.0;"/>
            <text fill="#000000" font-family="sans-serif" font-size="11" lengthAdjust="spacingAndGlyphs"
                  textLength="143" x="26" y="158.1479">FileScanException(String)
            </text>
            <ellipse cx="17" cy="167.7422" fill="#84BE84" rx="3" ry="3" style="stroke: #038048; stroke-width: 1.0;"/>
            <text fill="#000000" font-family="sans-serif" font-size="11" lengthAdjust="spacingAndGlyphs"
                  textLength="205" x="26" y="170.9526">FileScanException(Exception, String)
            </text>
        </a><!--MD5=[2a7cd8221fe6583b4d4c6786e4469311]
class chainexception.ChainException-->
        <a href="../chainexception/ChainException.html" target="_top" title="../chainexception/ChainException.html"
           xlink:actuate="onRequest" xlink:href="../chainexception/ChainException.html" xlink:show="new"
           xlink:title="../chainexception/ChainException.html" xlink:type="simple">
            <rect fill="#FEFECE" filter="url(#ffjelai7n7i47)" height="37.9375" id="chainexception.ChainException"
                  style="stroke: #A80036; stroke-width: 1.5;" width="139" x="52" y="8"/>
            <ellipse cx="67" cy="26.9688" fill="#ADD1B2" rx="11" ry="11" style="stroke: #A80036; stroke-width: 1.0;"/>
            <path d="M69.9688,32.6094 Q69.3906,32.9063 68.75,33.0469 Q68.1094,33.2031 67.4063,33.2031 Q64.9063,33.2031 63.5781,31.5625 Q62.2656,29.9063 62.2656,26.7813 Q62.2656,23.6563 63.5781,22 Q64.9063,20.3438 67.4063,20.3438 Q68.1094,20.3438 68.75,20.5 Q69.4063,20.6563 69.9688,20.9531 L69.9688,23.6719 Q69.3438,23.0938 68.75,22.8281 Q68.1563,22.5469 67.5313,22.5469 Q66.1875,22.5469 65.5,23.625 Q64.8125,24.6875 64.8125,26.7813 Q64.8125,28.875 65.5,29.9531 Q66.1875,31.0156 67.5313,31.0156 Q68.1563,31.0156 68.75,30.75 Q69.3438,30.4688 69.9688,29.8906 L69.9688,32.6094 Z "/>
            <text fill="#000000" font-family="sans-serif" font-size="14" lengthAdjust="spacingAndGlyphs"
                  textLength="107" x="81" y="25.9951">ChainException
            </text>
            <text fill="#000000" font-family="sans-serif" font-size="10" lengthAdjust="spacingAndGlyphs" textLength="72"
                  x="98.5" y="38.5791">chainexception
            </text>
        </a><!--MD5=[a6edf61d252bb868c07749bcf4046762]
reverse link chainexception.ChainException to iterator.FileScanException-->
        <path d="M121.5,66.5888 C121.5,79.3573 121.5,93.4348 121.5,105.935 " fill="none"
              id="chainexception.ChainException&lt;-iterator.FileScanException"
              style="stroke: #A80036; stroke-width: 1.0;"/>
        <polygon fill="none" points="114.5001,66.2484,121.5,46.2484,128.5001,66.2484,114.5001,66.2484"
                 style="stroke: #A80036; stroke-width: 1.0;"/>
        <text fill="#888888" font-family="sans-serif" font-size="10" lengthAdjust="spacingAndGlyphs" textLength="186"
              x="34.5" y="197.2822">UMLDoclet 2.0.7, PlantUML 1.2019.12
        </text><!--MD5=[0578863948b1e779b1795ddda7e10559]
@startuml
    set namespaceSeparator none
    hide empty fields
    hide empty methods

    class "<size:14>FileScanException\n<size:10>iterator" as iterator.FileScanException [[../iterator/FileScanException.html]] {
        +FileScanException(String)
        +FileScanException(Exception, String)
    }

    class "<size:14>ChainException\n<size:10>chainexception" as chainexception.ChainException [[../chainexception/ChainException.html]]

    chainexception.ChainException <|- - iterator.FileScanException

    center footer UMLDoclet 2.0.7, PlantUML 1.2019.12
@enduml

PlantUML version 1.2019.12(Sun Nov 03 03:24:54 MST 2019)
(APACHE source distribution)
Java Runtime: Java(TM) SE Runtime Environment
JVM: Java HotSpot(TM) 64-Bit Server VM
Java Version: 11.0.6+8-LTS
Operating System: Linux
Default Encoding: UTF-8
Language: en
Country: US
-->
    </g>
</svg>