<?xml version="1.0" encoding="UTF-8" standalone="no"?>
<svg xmlns="http://www.w3.org/2000/svg" xmlns:xlink="http://www.w3.org/1999/xlink"
     contentScriptType="application/ecmascript" contentStyleType="text/css" height="141px" preserveAspectRatio="none"
     style="width:198px;height:141px;" version="1.1" viewBox="0 0 198 141" width="198px" zoomAndPan="magnify">
    <defs>
        <filter height="300%" id="fec3l0hqi4b0n" width="300%" x="-1" y="-1">
            <feGaussianBlur result="blurOut" stdDeviation="2.0"/>
            <feColorMatrix in="blurOut" result="blurOut2" type="matrix"
                           values="0 0 0 0 0 0 0 0 0 0 0 0 0 0 0 0 0 0 .4 0"/>
            <feOffset dx="4.0" dy="4.0" in="blurOut2" result="blurOut3"/>
            <feBlend in="SourceGraphic" in2="blurOut3" mode="normal"/>
        </filter>
    </defs>
    <g><!--MD5=[7e2b103980aea1e0af242525d83ba107]
class iterator.pnode-->
        <a href="../iterator/pnode.html" target="_top" title="../iterator/pnode.html" xlink:actuate="onRequest"
           xlink:href="../iterator/pnode.html" xlink:show="new" xlink:title="../iterator/pnode.html"
           xlink:type="simple">
            <rect fill="#FEFECE" filter="url(#fec3l0hqi4b0n)" height="105.1563" id="iterator.pnode"
                  style="stroke: #A80036; stroke-width: 1.5;" width="122" x="32" y="7"/>
            <ellipse cx="67.25" cy="25.9688" fill="#ADD1B2" rx="11" ry="11"
                     style="stroke: #A80036; stroke-width: 1.0;"/>
            <path d="M70.2188,31.6094 Q69.6406,31.9063 69,32.0469 Q68.3594,32.2031 67.6563,32.2031 Q65.1563,32.2031 63.8281,30.5625 Q62.5156,28.9063 62.5156,25.7813 Q62.5156,22.6563 63.8281,21 Q65.1563,19.3438 67.6563,19.3438 Q68.3594,19.3438 69,19.5 Q69.6563,19.6563 70.2188,19.9531 L70.2188,22.6719 Q69.5938,22.0938 69,21.8281 Q68.4063,21.5469 67.7813,21.5469 Q66.4375,21.5469 65.75,22.625 Q65.0625,23.6875 65.0625,25.7813 Q65.0625,27.875 65.75,28.9531 Q66.4375,30.0156 67.7813,30.0156 Q68.4063,30.0156 69,29.75 Q69.5938,29.4688 70.2188,28.8906 L70.2188,31.6094 Z "/>
            <text fill="#000000" font-family="sans-serif" font-size="14" lengthAdjust="spacingAndGlyphs" textLength="45"
                  x="85.75" y="24.9951">pnode
            </text>
            <text fill="#000000" font-family="sans-serif" font-size="10" lengthAdjust="spacingAndGlyphs" textLength="36"
                  x="90.25" y="37.5791">iterator
            </text>
            <line style="stroke: #A80036; stroke-width: 1.5;" x1="33" x2="153" y1="44.9375" y2="44.9375"/>
            <ellipse cx="43" cy="55.9375" fill="none" rx="3" ry="3" style="stroke: #038048; stroke-width: 1.0;"/>
            <text fill="#000000" font-family="sans-serif" font-size="11" lengthAdjust="spacingAndGlyphs" textLength="72"
                  x="52" y="59.1479">run_num: int
            </text>
            <ellipse cx="43" cy="68.7422" fill="none" rx="3" ry="3" style="stroke: #038048; stroke-width: 1.0;"/>
            <text fill="#000000" font-family="sans-serif" font-size="11" lengthAdjust="spacingAndGlyphs" textLength="67"
                  x="52" y="71.9526">tuple: Tuple
            </text>
            <line style="stroke: #A80036; stroke-width: 1.5;" x1="33" x2="153" y1="78.5469" y2="78.5469"/>
            <ellipse cx="43" cy="89.5469" fill="#84BE84" rx="3" ry="3" style="stroke: #038048; stroke-width: 1.0;"/>
            <text fill="#000000" font-family="sans-serif" font-size="11" lengthAdjust="spacingAndGlyphs" textLength="43"
                  x="52" y="92.7573">pnode()
            </text>
            <ellipse cx="43" cy="102.3516" fill="#84BE84" rx="3" ry="3" style="stroke: #038048; stroke-width: 1.0;"/>
            <text fill="#000000" font-family="sans-serif" font-size="11" lengthAdjust="spacingAndGlyphs" textLength="96"
                  x="52" y="105.562">pnode(int, Tuple)
            </text>
        </a>
        <text fill="#888888" font-family="sans-serif" font-size="10" lengthAdjust="spacingAndGlyphs" textLength="186"
              x="0" y="128.4385">UMLDoclet 2.0.7, PlantUML 1.2019.12
        </text><!--MD5=[dbd0bf71b63573aae263c9e14a339934]
@startuml
    set namespaceSeparator none
    hide empty fields
    hide empty methods

    class "<size:14>pnode\n<size:10>iterator" as iterator.pnode [[../iterator/pnode.html]] {
        +run_num: int
        +tuple: Tuple
        +pnode()
        +pnode(int, Tuple)
    }

    center footer UMLDoclet 2.0.7, PlantUML 1.2019.12
@enduml

PlantUML version 1.2019.12(Sun Nov 03 03:24:54 MST 2019)
(APACHE source distribution)
Java Runtime: Java(TM) SE Runtime Environment
JVM: Java HotSpot(TM) 64-Bit Server VM
Java Version: 11.0.6+8-LTS
Operating System: Linux
Default Encoding: UTF-8
Language: en
Country: US
-->
    </g>
</svg>