<?xml version="1.0" encoding="UTF-8" standalone="no"?>
<svg xmlns="http://www.w3.org/2000/svg" xmlns:xlink="http://www.w3.org/1999/xlink"
     contentScriptType="application/ecmascript" contentStyleType="text/css" height="484px" preserveAspectRatio="none"
     style="width:551px;height:484px;" version="1.1" viewBox="0 0 551 484" width="551px" zoomAndPan="magnify">
    <defs>
        <filter height="300%" id="f1kdx527heqdl1" width="300%" x="-1" y="-1">
            <feGaussianBlur result="blurOut" stdDeviation="2.0"/>
            <feColorMatrix in="blurOut" result="blurOut2" type="matrix"
                           values="0 0 0 0 0 0 0 0 0 0 0 0 0 0 0 0 0 0 .4 0"/>
            <feOffset dx="4.0" dy="4.0" in="blurOut2" result="blurOut3"/>
            <feBlend in="SourceGraphic" in2="blurOut3" mode="normal"/>
        </filter>
    </defs>
    <g><!--MD5=[16c21cc41f2248ea05f90da18d3c1953]
class bufmgr-->
        <a href="../bufmgr/package-summary.html" target="_top" title="../bufmgr/package-summary.html"
           xlink:actuate="onRequest" xlink:href="../bufmgr/package-summary.html" xlink:show="new"
           xlink:title="../bufmgr/package-summary.html" xlink:type="simple">
            <rect fill="#FEFECE" filter="url(#f1kdx527heqdl1)" height="23.9688" id="bufmgr"
                  style="stroke: #A80036; stroke-width: 1.5;" width="50" x="365" y="176"/>
            <text fill="#000000" font-family="sans-serif" font-size="12" lengthAdjust="spacingAndGlyphs" textLength="44"
                  x="368" y="192.1387">bufmgr
            </text>
        </a><!--MD5=[1569312a5a6a73ec9e290ee9eae77f40]
class chainexception-->
        <a href="../chainexception/package-summary.html" target="_top" title="../chainexception/package-summary.html"
           xlink:actuate="onRequest" xlink:href="../chainexception/package-summary.html" xlink:show="new"
           xlink:title="../chainexception/package-summary.html" xlink:type="simple">
            <rect fill="#FEFECE" filter="url(#f1kdx527heqdl1)" height="23.9688" id="chainexception"
                  style="stroke: #A80036; stroke-width: 1.5;" width="101" x="255.5" y="428"/>
            <text fill="#000000" font-family="sans-serif" font-size="12" lengthAdjust="spacingAndGlyphs" textLength="95"
                  x="258.5" y="444.1387">chainexception
            </text>
        </a><!--MD5=[0b8cce938dc1a1522ed045dd2fce07db]
class global-->
        <a href="../global/package-summary.html" target="_top" title="../global/package-summary.html"
           xlink:actuate="onRequest" xlink:href="../global/package-summary.html" xlink:show="new"
           xlink:title="../global/package-summary.html" xlink:type="simple">
            <rect fill="#FEFECE" filter="url(#f1kdx527heqdl1)" height="23.9688" id="global"
                  style="stroke: #A80036; stroke-width: 1.5;" width="44" x="223" y="260"/>
            <text fill="#000000" font-family="sans-serif" font-size="12" lengthAdjust="spacingAndGlyphs" textLength="38"
                  x="226" y="276.1387">global
            </text>
        </a><!--MD5=[44fcb75c1a7a083ec39908185884de9d]
class diskmgr-->
        <a href="../diskmgr/package-summary.html" target="_top" title="../diskmgr/package-summary.html"
           xlink:actuate="onRequest" xlink:href="../diskmgr/package-summary.html" xlink:show="new"
           xlink:title="../diskmgr/package-summary.html" xlink:type="simple">
            <rect fill="#FEFECE" filter="url(#f1kdx527heqdl1)" height="23.9688" id="diskmgr"
                  style="stroke: #A80036; stroke-width: 1.5;" width="55" x="168.5" y="344"/>
            <text fill="#000000" font-family="sans-serif" font-size="12" lengthAdjust="spacingAndGlyphs" textLength="49"
                  x="171.5" y="360.1387">diskmgr
            </text>
        </a><!--MD5=[5a7877d167f09746a08581124821a4b2]
class catalog-->
        <rect fill="#FEFECE" filter="url(#f1kdx527heqdl1)" height="23.9688" id="catalog"
              style="stroke: #A80036; stroke-width: 1.5;" width="53" x="258.5" y="344"/>
        <text fill="#000000" font-family="sans-serif" font-size="12" lengthAdjust="spacingAndGlyphs" textLength="47"
              x="261.5" y="360.1387">catalog
        </text><!--MD5=[04b59b38253840ed479dbaeb9bce73d8]
class heap-->
        <a href="../heap/package-summary.html" target="_top" title="../heap/package-summary.html"
           xlink:actuate="onRequest" xlink:href="../heap/package-summary.html" xlink:show="new"
           xlink:title="../heap/package-summary.html" xlink:type="simple">
            <rect fill="#FEFECE" filter="url(#f1kdx527heqdl1)" height="23.9688" id="heap"
                  style="stroke: #A80036; stroke-width: 1.5;" width="38" x="79" y="176"/>
            <text fill="#000000" font-family="sans-serif" font-size="12" lengthAdjust="spacingAndGlyphs" textLength="32"
                  x="82" y="192.1387">heap
            </text>
        </a><!--MD5=[54186daede1c1bb90fe13b1be8056b32]
class btree-->
        <a href="../btree/package-summary.html" target="_top" title="../btree/package-summary.html"
           xlink:actuate="onRequest" xlink:href="../btree/package-summary.html" xlink:show="new"
           xlink:title="../btree/package-summary.html" xlink:type="simple">
            <rect fill="#FEFECE" filter="url(#f1kdx527heqdl1)" height="23.9688" id="btree"
                  style="stroke: #A80036; stroke-width: 1.5;" width="40" x="6" y="92"/>
            <text fill="#000000" font-family="sans-serif" font-size="12" lengthAdjust="spacingAndGlyphs" textLength="34"
                  x="9" y="108.1387">btree
            </text>
        </a><!--MD5=[86478cbce86f7246d6634af53b893bf4]
class iterator-->
        <a href="../iterator/package-summary.html" target="_top" title="../iterator/package-summary.html"
           xlink:actuate="onRequest" xlink:href="../iterator/package-summary.html" xlink:show="new"
           xlink:title="../iterator/package-summary.html" xlink:type="simple">
            <rect fill="#FEFECE" filter="url(#f1kdx527heqdl1)" height="23.9688" id="iterator"
                  style="stroke: #A80036; stroke-width: 1.5;" width="53" x="191.5" y="92"/>
            <text fill="#000000" font-family="sans-serif" font-size="12" lengthAdjust="spacingAndGlyphs" textLength="47"
                  x="194.5" y="108.1387">iterator
            </text>
        </a><!--MD5=[647da9b3bf6a783af7ccdca93b90ed9d]
class index-->
        <a href="../index/package-summary.html" target="_top" title="../index/package-summary.html"
           xlink:actuate="onRequest" xlink:href="../index/package-summary.html" xlink:show="new"
           xlink:title="../index/package-summary.html" xlink:type="simple">
            <rect fill="#FEFECE" filter="url(#f1kdx527heqdl1)" height="23.9688" id="index"
                  style="stroke: #A80036; stroke-width: 1.5;" width="39" x="198.5" y="8"/>
            <text fill="#000000" font-family="sans-serif" font-size="12" lengthAdjust="spacingAndGlyphs" textLength="33"
                  x="201.5" y="24.1387">index
            </text>
        </a><!--MD5=[6e5aa7f60759fa25efae27195850c4ef]
link bufmgr to chainexception-->
        <path d="M385.9485,200.1545 C372.2254,241.3237 327.4727,375.5818 311.6251,423.1246 " fill="none"
              id="bufmgr-&gt;chainexception" style="stroke: #A80036; stroke-width: 1.0;"/>
        <polygon fill="#A80036"
                 points="310.0108,427.9675,316.6518,420.6945,311.5921,423.2241,309.0625,418.1644,310.0108,427.9675"
                 style="stroke: #A80036; stroke-width: 1.0;"/><!--MD5=[d627a5d2831f6a7afd27d61f5f7beb51]
link bufmgr to global-->
        <path d="M364.8781,197.6359 C334.7468,212.1383 286.6396,239.7035 261.0138,256.8941 " fill="none"
              id="bufmgr-&gt;global" style="stroke: #A80036; stroke-width: 1.0;"/>
        <polygon fill="#A80036"
                 points="256.7999,259.7688,266.4888,258.0009,260.9302,256.9509,261.9802,251.3924,256.7999,259.7688"
                 style="stroke: #A80036; stroke-width: 1.0;"/><!--MD5=[acf469667fc5d74d5fd13483a89c70c7]
link global to bufmgr-->
        <path d="M267.0969,264.0218 C297.26,250.0346 348.3564,220.8793 374.7098,203.0168 " fill="none"
              id="global-&gt;bufmgr" style="stroke: #A80036; stroke-width: 1.0;"/>
        <polygon fill="#A80036"
                 points="379.0262,200.0352,369.3477,201.8593,374.9123,202.877,373.8946,208.4415,379.0262,200.0352"
                 style="stroke: #A80036; stroke-width: 1.0;"/><!--MD5=[d07d3c4636ffc824a0d01ad7fd327747]
link bufmgr to diskmgr-->
        <path d="M377.1333,200.0365 C357.373,218.4336 318.2439,254.5169 284,284 C260.6356,304.1162 233.0244,326.487 215.0454,340.8733 "
              fill="none" id="bufmgr-&gt;diskmgr" style="stroke: #A80036; stroke-width: 1.0;"/>
        <polygon fill="#A80036"
                 points="211.1375,343.996,220.6655,341.5026,215.0436,340.8747,215.6715,335.2528,211.1375,343.996"
                 style="stroke: #A80036; stroke-width: 1.0;"/><!--MD5=[eb33c99235a4fccb5bffe0cb7c0137a0]
link diskmgr to chainexception-->
        <path d="M211.7603,368.0352 C231.3644,383.0055 264.8467,408.5738 286.1734,424.8597 " fill="none"
              id="diskmgr-&gt;chainexception" style="stroke: #A80036; stroke-width: 1.0;"/>
        <polygon fill="#A80036"
                 points="290.2689,427.9872,285.5438,419.3458,286.2951,424.9525,280.6884,425.7038,290.2689,427.9872"
                 style="stroke: #A80036; stroke-width: 1.0;"/><!--MD5=[d507f5422bce93aa58eecc7fbdd269a0]
link diskmgr to global-->
        <path d="M212.8018,343.9872 C225.7131,329.526 240.3525,305.1524 246.2445,288.8243 " fill="none"
              id="diskmgr-&gt;global" style="stroke: #A80036; stroke-width: 1.0;"/>
        <polygon fill="#A80036"
                 points="247.7807,284.0352,241.2228,291.3833,246.2534,288.7962,248.8405,293.8269,247.7807,284.0352"
                 style="stroke: #A80036; stroke-width: 1.0;"/><!--MD5=[3107bc03e0edfd10333c1b23be97d52e]
link global to diskmgr-->
        <path d="M228.7228,284.0352 C216.0581,298.5065 201.4455,322.881 195.3604,339.2009 " fill="none"
              id="global-&gt;diskmgr" style="stroke: #A80036; stroke-width: 1.0;"/>
        <polygon fill="#A80036"
                 points="193.7573,343.9872,200.4088,336.7237,195.3454,339.2461,192.8231,334.1828,193.7573,343.9872"
                 style="stroke: #A80036; stroke-width: 1.0;"/><!--MD5=[6c09838303bc41a2cbea9f00519907b2]
link global to catalog-->
        <path d="M250.731,284.0352 C257.6221,298.5065 269.2291,322.881 277.0004,339.2009 " fill="none"
              id="global-&gt;catalog" style="stroke: #A80036; stroke-width: 1.0;"/>
        <polygon fill="#A80036"
                 points="279.2796,343.9872,279.0215,334.1417,277.1299,339.4729,271.7987,337.5813,279.2796,343.9872"
                 style="stroke: #A80036; stroke-width: 1.0;"/><!--MD5=[64834b4c294f38e99d54eddd06f531e3]
link heap to chainexception-->
        <path d="M98.1916,200.161 C99.3281,231.7983 106.5756,317.7019 151,368 C177.0226,397.4633 217.6236,415.7144 250.7444,426.4673 "
              fill="none" id="heap-&gt;chainexception" style="stroke: #A80036; stroke-width: 1.0;"/>
        <polygon fill="#A80036"
                 points="255.5742,427.9998,248.2055,421.4651,250.8084,426.4875,245.7859,429.0904,255.5742,427.9998"
                 style="stroke: #A80036; stroke-width: 1.0;"/><!--MD5=[1e7fc427ebd6a16b5a7705ee0dd9b0e9]
link heap to global-->
        <path d="M117.2177,198.9815 C143.3685,213.9249 190.2329,240.7045 219.3586,257.3478 " fill="none"
              id="heap-&gt;global" style="stroke: #A80036; stroke-width: 1.0;"/>
        <polygon fill="#A80036"
                 points="223.8749,259.9285,218.0455,251.9901,219.5338,257.4477,214.0762,258.9359,223.8749,259.9285"
                 style="stroke: #A80036; stroke-width: 1.0;"/><!--MD5=[b1a161fbc9ab96919d6d9d1807c53dcd]
link heap to diskmgr-->
        <path d="M103.0016,200.1786 C110.8164,218.7615 126.8174,255.0841 144,284 C155.921,304.0613 171.921,325.5668 183.0107,339.7974 "
              fill="none" id="heap-&gt;diskmgr" style="stroke: #A80036; stroke-width: 1.0;"/>
        <polygon fill="#A80036"
                 points="186.2847,343.9706,183.8765,334.4207,183.1984,340.0368,177.5824,339.3587,186.2847,343.9706"
                 style="stroke: #A80036; stroke-width: 1.0;"/><!--MD5=[3e9c42779a1d104244eacba6dabee144]
link btree to chainexception-->
        <path d="M23.0925,116.1116 C19.183,134.607 13.6304,170.8168 22,200 C46.274,284.6384 59.5032,311.4574 127,368 C162.632,397.8492 212.2311,416.4942 250.185,427.3109 "
              fill="none" id="btree-&gt;chainexception" style="stroke: #A80036; stroke-width: 1.0;"/>
        <polygon fill="#A80036"
                 points="255.2244,428.7209,247.6349,422.444,250.4093,427.3738,245.4795,430.1481,255.2244,428.7209"
                 style="stroke: #A80036; stroke-width: 1.0;"/><!--MD5=[cb44425611fda3d0fea4a5de9950e383]
link btree to global-->
        <path d="M27.2477,116.3137 C29.9142,136.4145 37.9426,176.3971 61,200 C104.2432,244.2663 177.9123,261.8989 217.6517,268.4527 "
              fill="none" id="btree-&gt;global" style="stroke: #A80036; stroke-width: 1.0;"/>
        <polygon fill="#A80036"
                 points="222.7934,269.2698,214.5328,263.9067,217.8554,268.485,213.2771,271.8075,222.7934,269.2698"
                 style="stroke: #A80036; stroke-width: 1.0;"/><!--MD5=[0ae1ffb26cd928102f2389ae24f424c3]
link btree to diskmgr-->
        <path d="M25.0551,116.2413 C24.1161,135.2211 24.4076,172.4313 38,200 C69.3685,263.6231 137.2804,316.3852 172.9905,341.0259 "
              fill="none" id="btree-&gt;diskmgr" style="stroke: #A80036; stroke-width: 1.0;"/>
        <polygon fill="#A80036"
                 points="177.1811,343.8903,172.0083,335.5093,173.0533,341.0688,167.4938,342.1138,177.1811,343.8903"
                 style="stroke: #A80036; stroke-width: 1.0;"/><!--MD5=[ded6c0246e2aa73db94af7266688272b]
link btree to heap-->
        <path d="M36.3158,116.0352 C48.9337,130.756 70.3353,155.7245 84.3181,172.0377 " fill="none" id="btree-&gt;heap"
              style="stroke: #A80036; stroke-width: 1.0;"/>
        <polygon fill="#A80036"
                 points="87.7033,175.9872,84.8831,166.5507,84.4493,172.1909,78.8091,171.7571,87.7033,175.9872"
                 style="stroke: #A80036; stroke-width: 1.0;"/><!--MD5=[23bb1560d5292241b7a0e86a853b7f38]
link iterator to chainexception-->
        <path d="M244.5822,108.9303 C296.9893,119.2486 410.5232,144.7692 433,176 C494.6967,261.7256 372.7315,382.0889 324.4729,424.4865 "
              fill="none" id="iterator-&gt;chainexception" style="stroke: #A80036; stroke-width: 1.0;"/>
        <polygon fill="#A80036"
                 points="320.5833,427.8748,329.9968,424.9791,324.3533,424.5905,324.7419,418.947,320.5833,427.8748"
                 style="stroke: #A80036; stroke-width: 1.0;"/><!--MD5=[630ca1d302f5fc84b1f20ac5c9745635]
link iterator to global-->
        <path d="M219.9418,116.0821 C224.6475,145.3625 236.6775,220.2157 242.1783,254.4428 " fill="none"
              id="iterator-&gt;global" style="stroke: #A80036; stroke-width: 1.0;"/>
        <polygon fill="#A80036"
                 points="243.003,259.5741,245.5241,250.0534,242.2096,254.6375,237.6255,251.3229,243.003,259.5741"
                 style="stroke: #A80036; stroke-width: 1.0;"/><!--MD5=[d633939b1c23ae5dfe5d627723ce16de]
link iterator to heap-->
        <path d="M200.8069,116.0352 C179.3316,131.0679 142.5899,156.7871 119.3389,173.0628 " fill="none"
              id="iterator-&gt;heap" style="stroke: #A80036; stroke-width: 1.0;"/>
        <polygon fill="#A80036"
                 points="115.1612,175.9872,124.8281,174.103,119.2574,173.1199,120.2405,167.5491,115.1612,175.9872"
                 style="stroke: #A80036; stroke-width: 1.0;"/><!--MD5=[45982809a33c1b97c2a2687184284c08]
link iterator to diskmgr-->
        <path d="M216.9389,116.1545 C213.352,157.2403 201.6712,291.0386 197.4986,338.8348 " fill="none"
              id="iterator-&gt;diskmgr" style="stroke: #A80036; stroke-width: 1.0;"/>
        <polygon fill="#A80036"
                 points="197.0505,343.9675,201.8181,335.3495,197.4853,338.9864,193.8484,334.6537,197.0505,343.9675"
                 style="stroke: #A80036; stroke-width: 1.0;"/><!--MD5=[3cefcf524e686f541f2889fc04a16c35]
link index to chainexception-->
        <path d="M237.5968,20.9736 C307.2906,25.5823 539,51.1921 539,188 C539,188 539,188 539,272 C539,359.4185 429.7541,405.889 360.872,426.5012 "
              fill="none" id="index-&gt;chainexception" style="stroke: #A80036; stroke-width: 1.0;"/>
        <polygon fill="#A80036"
                 points="355.9843,427.9408,365.7478,429.2349,360.7806,426.5281,363.4874,421.5609,355.9843,427.9408"
                 style="stroke: #A80036; stroke-width: 1.0;"/><!--MD5=[410ae844ffb0c3a569f25000ff7d3d5e]
link index to btree-->
        <path d="M198.1758,28.6731 C162.9649,44.0778 89.5962,76.1767 50.9875,93.0679 " fill="none" id="index-&gt;btree"
              style="stroke: #A80036; stroke-width: 1.0;"/>
        <polygon fill="#A80036" points="46.004,95.2482,55.8527,95.3054,50.5848,93.2441,52.6461,87.9762,46.004,95.2482"
                 style="stroke: #A80036; stroke-width: 1.0;"/><!--MD5=[773727b4c00c8d010ca6b2332637a556]
link index to iterator-->
        <path d="M218,32.0352 C218,46.3818 218,70.4615 218,86.777 " fill="none" id="index-&gt;iterator"
              style="stroke: #A80036; stroke-width: 1.0;"/>
        <polygon fill="#A80036" points="218,91.9872,222,82.9872,218,86.9872,214,82.9872,218,91.9872"
                 style="stroke: #A80036; stroke-width: 1.0;"/><!--MD5=[8059db59dd0d686dd3fd0ac61b3c6881]
link index to global-->
        <path d="M228.4423,32.2524 C239.2654,45.8287 255.4929,68.8731 262,92 C278.382,150.2232 260.471,222.7777 250.6104,255.1022 "
              fill="none" id="index-&gt;global" style="stroke: #A80036; stroke-width: 1.0;"/>
        <polygon fill="#A80036"
                 points="249.1034,259.9363,255.6008,252.5347,250.5915,255.1629,247.9633,250.1537,249.1034,259.9363"
                 style="stroke: #A80036; stroke-width: 1.0;"/><!--MD5=[5901bc7f6dd66854618fc1638073f2e0]
link index to heap-->
        <path d="M209.3699,32.0821 C188.2832,61.6035 134.1065,137.4509 109.9431,171.2796 " fill="none"
              id="index-&gt;heap" style="stroke: #A80036; stroke-width: 1.0;"/>
        <polygon fill="#A80036"
                 points="106.8757,175.5741,115.3619,170.5757,109.782,171.5055,108.8522,165.9256,106.8757,175.5741"
                 style="stroke: #A80036; stroke-width: 1.0;"/>
        <text fill="#888888" font-family="sans-serif" font-size="10" lengthAdjust="spacingAndGlyphs" textLength="186"
              x="185.5" y="471.2822">UMLDoclet 2.0.7, PlantUML 1.2019.12
        </text><!--MD5=[eb624796144cb7176a1f01bd81864589]
@startuml
    set namespaceSeparator none
    hide circle
    hide empty fields
    hide empty methods

    bufmgr - -> chainexception
    bufmgr - -> global
    bufmgr - -> diskmgr
    diskmgr - -> chainexception
    diskmgr - -> global
    global - -> bufmgr
    global - -> diskmgr
    global - -> catalog
    heap - -> chainexception
    heap - -> global
    heap - -> diskmgr
    btree - -> chainexception
    btree - -> global
    btree - -> diskmgr
    btree - -> heap
    iterator - -> chainexception
    iterator - -> global
    iterator - -> heap
    iterator - -> diskmgr
    index - -> chainexception
    index - -> btree
    index - -> iterator
    index - -> global
    index - -> heap

    class "bufmgr" [[../bufmgr/package-summary.html]] {
    }
    class "chainexception" [[../chainexception/package-summary.html]] {
    }
    class "global" [[../global/package-summary.html]] {
    }
    class "diskmgr" [[../diskmgr/package-summary.html]] {
    }
    class "heap" [[../heap/package-summary.html]] {
    }
    class "btree" [[../btree/package-summary.html]] {
    }
    class "iterator" [[../iterator/package-summary.html]] {
    }
    class "index" [[../index/package-summary.html]] {
    }

    center footer UMLDoclet 2.0.7, PlantUML 1.2019.12
@enduml

PlantUML version 1.2019.12(Sun Nov 03 03:24:54 MST 2019)
(APACHE source distribution)
Java Runtime: Java(TM) SE Runtime Environment
JVM: Java HotSpot(TM) 64-Bit Server VM
Java Version: 11.0.6+8-LTS
Operating System: Linux
Default Encoding: UTF-8
Language: en
Country: US
-->
    </g>
</svg>